<svg width="41" height="40" viewBox="0 0 41 40" fill="none" xmlns="http://www.w3.org/2000/svg"><path d="M32.373 27.643a73.893 73.893 0 00-.46-.74c-.218-.341-.455-.712-.521-.823a56.533 56.533 0 00-.83-1.322c-.261-.416-.536-.845-.603-.957-.066-.111-.173-.283-.234-.384a895.145 895.145 0 00-1.284-2.05 38.984 38.984 0 01-.614-.973c-.303-.493-.303-.482-.047-.936a8.31 8.31 0 00.2-.364l.174-.336c.058-.104.224-.41.368-.68.142-.27.314-.583.377-.697.063-.114.147-.271.187-.35l.173-.336a164.448 164.448 0 001.116-2.08c.064-.114.137-.255.169-.315.029-.057.145-.269.253-.472.11-.201.236-.445.289-.543.13-.236.26-.486.395-.733.063-.114.134-.247.158-.299.026-.049.1-.19.171-.312l.15-.269c.042-.076-.044-.09-.222-.038l-.894.279c-.123.04-.25.078-.274.08-.027.007-.226.07-.451.144-.223.072-.473.15-.559.179-.438.13-1.122.34-1.918.587-.093.032-.263.08-.373.118-.11.032-.32.095-.467.144-.148.049-.336.107-.416.13-.081.023-.242.075-.355.109-.115.037-.387.12-.604.187-.218.066-.519.159-.666.207-.148.05-.36.11-.473.145-.113.029-.215.063-.228.077-.011.01-.068.02-.124.018-.097-.003-.108-.013-.293-.308-.107-.166-.24-.378-.295-.474a96.475 96.475 0 00-.829-1.322c-.4-.633-.78-1.237-.84-1.338-.06-.1-.383-.612-.716-1.14-.598-.945-.796-1.258-.91-1.457-.03-.055-.096-.15-.137-.211a3.826 3.826 0 01-.135-.215c-.03-.056-.44-.71-.912-1.455-.831-1.319-.947-1.504-1.2-1.918-.07-.108-.199-.318-.29-.464-.09-.145-.185-.299-.207-.342-.027-.042-.057-.065-.07-.052-.014.014.003.862.035 1.884.09 2.774.105 3.26.13 4.067.01.407.031 1 .04 1.317.016.316.044 1.228.068 2.025.024.797.059 1.843.079 2.328.02.48.017.89-.002.91-.018.02-.219.171-.219.171l-.24.113s-.048.06-.602.232c-.478.144-1.426.44-1.635.504-.124.04-.304.095-.395.124a8.248 8.248 0 00-.368.112c-.108.035-.285.087-.395.124-.108.034-.271.083-.366.11-.09.028-.27.083-.394.123-.127.038-.4.124-.605.187-.607.185-1.023.314-1.44.444-.123.04-.31.098-.413.132-.18.055-.48.147-.867.268-.207.066-.387.12-1.134.35-.924.283-.972.3-1.211.372-.124.04-.312.098-.414.133-.18.054-.48.147-.867.267-.495.156-.583.182-.74.228l-.394.124c-.21.063-1.158.36-1.638.506-.965.297-1.198.374-1.2.398.002.014.335.096.738.186.409.091.768.172.798.185.033.01.127.032.217.05a1407.372 1407.372 0 004.72 1.064c.037.003.284.06.543.119a1272.242 1272.242 0 014.715 1.064l.587.13c.067.012.146.029.178.039.03.013.78.182 1.661.378.882.197 1.626.383 1.648.414.047.061.093 1.145.181 4.16.011.424.03 1.014.042 1.317.012.303.04 1.167.066 1.918.09 2.8.13 3.956.15 4.648.016.392.044.7.07.689.038-.023.233-.36.407-.707.04-.078.12-.238.184-.352.063-.114.134-.248.158-.299.026-.049.1-.19.171-.312.069-.125.163-.294.208-.383.082-.155.369-.695.58-1.086.054-.106.125-.239.157-.298.029-.058.103-.193.16-.296.056-.106.145-.27.195-.37.18-.336.619-1.153.724-1.343.056-.106.134-.258.174-.337.04-.079.123-.236.187-.35.063-.114.234-.426.376-.698.145-.269.31-.575.369-.679.055-.105.134-.257.173-.336.04-.079.13-.242.198-.367.071-.122.145-.268.17-.323.024-.051.075-.146.111-.211.066-.117.42-.763.564-1.037.073-.147.166-.313.395-.733.284-.527.419-.758.44-.759.04.002 3.744.83 3.95.884.056.018.954.22 1.993.45 1.038.23 1.939.434 2.004.454.143.043.167.013.096-.125z" fill="#fff" opacity=".1"/></svg>