<svg width="254" height="42" viewBox="0 0 254 42" fill="none" xmlns="http://www.w3.org/2000/svg"><path d="M.288 5.04h3.258l2.682 5.922L8.964 5.04h2.862l-4.392 8.226V18H4.68v-4.77L.288 5.04zm10.47 8.496c0-.588.078-1.152.234-1.692.168-.54.42-1.05.756-1.53.348-.492.84-.882 1.476-1.17.636-.3 1.38-.45 2.232-.45 1.56 0 2.736.456 3.528 1.368.792.9 1.188 2.034 1.188 3.402 0 1.38-.408 2.538-1.224 3.474-.804.924-1.986 1.386-3.546 1.386-1.356 0-2.472-.414-3.348-1.242-.864-.828-1.296-2.01-1.296-3.546zm2.736.018c0 1.944.666 2.916 1.998 2.916.636 0 1.122-.234 1.458-.702.336-.468.504-1.272.504-2.412 0-1.92-.666-2.88-1.998-2.88-1.308 0-1.962 1.026-1.962 3.078zm8.592-4.644h2.7v5.958c.012.12.042.288.09.504.048.204.12.366.216.486s.234.228.414.324c.192.096.426.144.702.144.336 0 .612-.054.828-.162.228-.108.396-.228.504-.36.12-.144.21-.36.27-.648.06-.3.09-.546.09-.738.012-.204.018-.51.018-.918V8.91h2.736v5.994c.012.564.018 1.038.018 1.422.012.372.018.618.018.738.012.12.018.21.018.27.012.216.036.438.072.666h-2.592l-.09-1.206c-.66.96-1.554 1.44-2.682 1.44a3.806 3.806 0 01-1.62-.342c-.48-.24-.852-.534-1.116-.882-.396-.492-.594-1.308-.594-2.448V8.91zM33.18 18v-6.858c0-.696-.042-1.452-.126-2.268h2.502l.054 1.746c.108-.252.216-.462.324-.63.12-.168.294-.354.522-.558.228-.216.534-.372.918-.468a4.61 4.61 0 011.332-.108v2.394c-.636-.06-1.164-.036-1.584.072-.408.108-.702.294-.882.558a2.246 2.246 0 00-.324.756 4.415 4.415 0 00-.072.882V18H33.18zm18.126-9.054h2.502c-.084.84-.126 1.59-.126 2.25v6.714c0 2.448-1.512 3.672-4.536 3.672-2.544 0-3.876-.972-3.996-2.916h2.556c.108.84.636 1.26 1.584 1.26.42 0 .78-.102 1.08-.306.3-.204.492-.498.576-.882.072-.288.114-1.008.126-2.16-.624.828-1.44 1.242-2.448 1.242-1.224 0-2.172-.444-2.844-1.332-.66-.888-.99-1.932-.99-3.132 0-1.236.336-2.292 1.008-3.168.684-.888 1.644-1.332 2.88-1.332 1.104 0 1.95.432 2.538 1.296l.09-1.206zm-3.852 4.41c0 .228.012.444.036.648.024.192.084.468.18.828.096.348.276.63.54.846.276.216.618.324 1.026.324.432 0 .786-.108 1.062-.324.288-.216.48-.498.576-.846a5.53 5.53 0 00.198-.828c.024-.192.036-.39.036-.594 0-1.848-.606-2.772-1.818-2.772-.54 0-.984.222-1.332.666-.336.444-.504 1.128-.504 2.052zm16.98.774h-6.102c0 1.62.617 2.43 1.853 2.43.852 0 1.38-.42 1.584-1.26h2.43c-.06.78-.347 1.44-.863 1.98-.672.708-1.734 1.062-3.186 1.062-1.404 0-2.472-.378-3.204-1.134-.78-.816-1.17-1.998-1.17-3.546 0-1.992.63-3.426 1.89-4.302.756-.504 1.608-.756 2.556-.756a4.45 4.45 0 012.105.522c.66.336 1.183.894 1.567 1.674.42.864.6 1.974.54 3.33zm-6.012-1.674h3.294c0-.18-.013-.348-.037-.504a3.407 3.407 0 00-.18-.648 1.15 1.15 0 00-.486-.63c-.227-.168-.521-.252-.881-.252-.552 0-.972.192-1.26.576-.276.384-.426.87-.45 1.458zM66.228 18v-7.47c0-.684-.018-1.236-.054-1.656h2.555l.073 1.368c.647-1.056 1.631-1.584 2.951-1.584.793 0 1.41.18 1.855.54.456.348.761.738.917 1.17.168.468.252 1.374.252 2.718V18H72.06v-5.652c0-.468-.047-.798-.144-.99-.252-.516-.684-.774-1.296-.774s-1.073.234-1.385.702c-.216.312-.325.774-.325 1.386V18h-2.681zm19.211-3.87h-6.102c0 1.62.618 2.43 1.854 2.43.852 0 1.38-.42 1.584-1.26h2.43c-.06.78-.348 1.44-.864 1.98-.672.708-1.734 1.062-3.186 1.062-1.404 0-2.472-.378-3.204-1.134-.78-.816-1.17-1.998-1.17-3.546 0-1.992.63-3.426 1.89-4.302.756-.504 1.608-.756 2.556-.756a4.45 4.45 0 012.106.522c.66.336 1.182.894 1.566 1.674.42.864.6 1.974.54 3.33zm-6.012-1.674h3.294c0-.18-.012-.348-.036-.504a3.407 3.407 0 00-.18-.648 1.15 1.15 0 00-.486-.63c-.228-.168-.522-.252-.882-.252-.552 0-.972.192-1.26.576-.276.384-.426.87-.45 1.458zM87.197 18v-6.858c0-.696-.042-1.452-.126-2.268h2.502l.054 1.746c.108-.252.216-.462.324-.63.12-.168.294-.354.522-.558.228-.216.534-.372.918-.468a4.61 4.61 0 011.332-.108v2.394c-.636-.06-1.164-.036-1.584.072-.408.108-.702.294-.882.558a2.246 2.246 0 00-.324.756 4.415 4.415 0 00-.072.882V18h-2.664zm6.266-4.464c0-.588.078-1.152.234-1.692.168-.54.42-1.05.756-1.53.348-.492.84-.882 1.476-1.17.636-.3 1.38-.45 2.232-.45 1.56 0 2.736.456 3.528 1.368.792.9 1.188 2.034 1.188 3.402 0 1.38-.408 2.538-1.224 3.474-.804.924-1.986 1.386-3.546 1.386-1.356 0-2.472-.414-3.348-1.242-.864-.828-1.296-2.01-1.296-3.546zm2.736.018c0 1.944.666 2.916 1.998 2.916.636 0 1.122-.234 1.458-.702.336-.468.504-1.272.504-2.412 0-1.92-.666-2.88-1.998-2.88-1.308 0-1.962 1.026-1.962 3.078zm8.034 1.818h2.502c.024.336.156.63.396.882.24.24.612.36 1.116.36.444 0 .786-.102 1.026-.306.252-.216.378-.474.378-.774 0-.228-.09-.42-.27-.576-.168-.168-.498-.318-.99-.45l-1.656-.45a7.928 7.928 0 01-.702-.234 6.971 6.971 0 01-.702-.396 1.778 1.778 0 01-.666-.756c-.156-.324-.234-.702-.234-1.134 0-.876.366-1.566 1.098-2.07.732-.516 1.692-.774 2.88-.774.984 0 1.794.228 2.43.684.648.456.99 1.122 1.026 1.998h-2.43c-.048-.72-.48-1.08-1.296-1.08-.372 0-.678.084-.918.252a.743.743 0 00-.342.648c0 .276.09.474.27.594.18.108.504.228.972.36l1.638.45c1.62.444 2.43 1.29 2.43 2.538 0 .852-.366 1.59-1.098 2.214-.72.612-1.746.918-3.078.918-1.368 0-2.406-.372-3.114-1.116-.408-.432-.63-1.026-.666-1.782zm9.558-8.046V5.004h2.844v2.322h-2.844zm.09 10.674V8.892h2.664V18h-2.664zm10.356-1.872v1.746a7.892 7.892 0 01-2.07.288c-.504 0-.942-.066-1.314-.198-.36-.132-.624-.276-.792-.432a1.576 1.576 0 01-.396-.63c-.096-.276-.15-.486-.162-.63a6.98 6.98 0 01-.018-.558v-4.986h-1.746V8.964h1.746V7.182l2.646-.972v2.754h2.16v1.764h-2.16v4.104c0 .264.006.456.018.576.024.12.072.252.144.396a.613.613 0 00.36.306c.168.048.396.072.684.072.276 0 .576-.018.9-.054zm.732-7.218h2.88l1.998 6.3 2.034-6.3h2.646l-3.438 8.928-1.098 3.618h-2.682l1.152-3.42-3.492-9.126zM.09 27.91h2.826l1.674 6.858 1.926-6.858H9.45l1.908 6.858 1.782-6.858h2.646L12.672 37H9.774l-1.872-6.732L5.994 37H3.06L.09 27.91zm16.986-1.584v-2.322h2.844v2.322h-2.844zM17.166 37v-9.108h2.664V37h-2.664zm5.01 0V23.986h2.664V37h-2.664zm5.01 0V23.986h2.664V37h-2.664zm9.93 0V24.022h2.663v4.986c.624-.816 1.482-1.224 2.574-1.224 1.14 0 2.082.432 2.826 1.296.756.852 1.134 2.022 1.134 3.51 0 .816-.114 1.53-.342 2.142-.216.612-.51 1.092-.882 1.44a3.908 3.908 0 01-1.206.756 3.74 3.74 0 01-1.368.252c-1.26 0-2.172-.486-2.736-1.458-.036.66-.066 1.086-.09 1.278h-2.574zm6.48-4.32c0-2.076-.655-3.114-1.963-3.114s-1.962.936-1.962 2.808c0 .996.192 1.758.576 2.286.384.516.888.774 1.512.774.348 0 .642-.084.882-.252.252-.168.438-.354.558-.558.12-.216.21-.474.27-.774.072-.312.108-.54.108-.684a6.34 6.34 0 00.018-.486zM48.208 37v-6.858c0-.696-.042-1.452-.126-2.268h2.502l.054 1.746c.108-.252.216-.462.324-.63.12-.168.294-.354.522-.558.228-.216.534-.372.918-.468a4.61 4.61 0 011.332-.108v2.394c-.636-.06-1.164-.036-1.584.072-.408.108-.702.294-.882.558a2.246 2.246 0 00-.324.756 4.415 4.415 0 00-.072.882V37H48.21zm6.906-10.674v-2.322h2.844v2.322h-2.844zM55.205 37v-9.108h2.664V37h-2.664zm5.046 0v-7.47c0-.684-.018-1.236-.054-1.656h2.556l.072 1.368c.648-1.056 1.632-1.584 2.952-1.584.792 0 1.41.18 1.854.54.456.348.762.738.918 1.17.168.468.252 1.374.252 2.718V37h-2.718v-5.652c0-.468-.048-.798-.144-.99-.252-.516-.684-.774-1.296-.774s-1.074.234-1.386.702c-.216.312-.324.774-.324 1.386V37H60.25zm17.088-9.054h2.502c-.084.84-.126 1.59-.126 2.25v6.714c0 2.448-1.512 3.672-4.536 3.672-2.544 0-3.876-.972-3.996-2.916h2.556c.108.84.636 1.26 1.584 1.26.42 0 .78-.102 1.08-.306.3-.204.492-.498.576-.882.072-.288.114-1.008.126-2.16-.624.828-1.44 1.242-2.448 1.242-1.224 0-2.172-.444-2.844-1.332-.66-.888-.99-1.932-.99-3.132 0-1.236.336-2.292 1.008-3.168.684-.888 1.644-1.332 2.88-1.332 1.104 0 1.95.432 2.538 1.296l.09-1.206zm-3.852 4.41c0 .228.012.444.036.648.024.192.084.468.18.828.096.348.276.63.54.846.276.216.618.324 1.026.324.432 0 .786-.108 1.062-.324.288-.216.48-.498.576-.846a5.53 5.53 0 00.198-.828c.024-.192.036-.39.036-.594 0-1.848-.606-2.772-1.818-2.772-.54 0-.984.222-1.332.666-.336.444-.504 1.128-.504 2.052zM87.305 37V24.004h2.645v5.148c.648-.912 1.525-1.368 2.629-1.368 1.128 0 2.01.408 2.646 1.224.396.552.594 1.374.594 2.466V37h-2.647v-5.436c0-1.32-.498-1.98-1.493-1.98-.457 0-.859.15-1.207.45-.335.288-.503.756-.503 1.404L89.987 37h-2.682zm10.517-4.464c0-.588.078-1.152.234-1.692.168-.54.42-1.05.756-1.53.348-.492.84-.882 1.476-1.17.636-.3 1.38-.45 2.232-.45 1.56 0 2.736.456 3.528 1.368.792.9 1.188 2.034 1.188 3.402 0 1.38-.408 2.538-1.224 3.474-.804.924-1.986 1.386-3.546 1.386-1.356 0-2.472-.414-3.348-1.242-.864-.828-1.296-2.01-1.296-3.546zm2.736.018c0 1.944.666 2.916 1.998 2.916.636 0 1.122-.234 1.458-.702.336-.468.504-1.272.504-2.412 0-1.92-.666-2.88-1.998-2.88-1.308 0-1.962 1.026-1.962 3.078zm8.592-4.644h2.592l.072 1.296c.564-.984 1.488-1.476 2.772-1.476 1.176 0 2.1.408 2.772 1.224.672.816 1.008 1.92 1.008 3.312 0 1.368-.348 2.52-1.044 3.456-.696.936-1.668 1.404-2.916 1.404-1.092 0-1.938-.39-2.538-1.17v4.536h-2.718V27.91zm4.572 7.47c.624 0 1.104-.27 1.44-.81.336-.54.504-1.272.504-2.196 0-.324-.024-.63-.072-.918a4.956 4.956 0 00-.252-.936 1.633 1.633 0 00-.576-.774c-.252-.204-.564-.306-.936-.306-.54 0-1.026.24-1.458.72-.42.48-.63 1.272-.63 2.376 0 .252.012.486.036.702.036.216.108.516.216.9.108.372.306.672.594.9.3.228.678.342 1.134.342zm14.766-2.25h-6.102c0 1.62.618 2.43 1.854 2.43.852 0 1.38-.42 1.584-1.26h2.43c-.06.78-.348 1.44-.864 1.98-.672.708-1.734 1.062-3.186 1.062-1.404 0-2.472-.378-3.204-1.134-.78-.816-1.17-1.998-1.17-3.546 0-1.992.63-3.426 1.89-4.302.756-.504 1.608-.756 2.556-.756a4.45 4.45 0 012.106.522c.66.336 1.182.894 1.566 1.674.42.864.6 1.974.54 3.33zm-6.012-1.674h3.294c0-.18-.012-.348-.036-.504a3.407 3.407 0 00-.18-.648 1.15 1.15 0 00-.486-.63c-.228-.168-.522-.252-.882-.252-.552 0-.972.192-1.26.576-.276.384-.426.87-.45 1.458z" fill="#fff"/></svg>