<svg width="49" height="49" viewBox="0 0 49 49" fill="none" xmlns="http://www.w3.org/2000/svg"><path d="M38.679 34.186a91.521 91.521 0 00-.553-.901c-.261-.417-.546-.87-.625-1.005-.318-.53-.437-.724-.996-1.612-.315-.507-.646-1.03-.725-1.166-.08-.136-.209-.346-.282-.469-.235-.384-1.45-2.352-1.542-2.5-.268-.417-.45-.71-.738-1.186-.364-.6-.364-.588-.05-1.137.088-.147.198-.345.246-.44l.214-.407c.07-.125.275-.496.453-.821.174-.329.385-.706.462-.844.078-.138.182-.329.23-.424.049-.095.146-.28.214-.407.13-.23.67-1.219.89-1.626.116-.223.245-.46.482-.89.077-.138.168-.309.207-.381.035-.07.178-.325.31-.572.136-.243.291-.538.356-.657.159-.285.32-.588.486-.887.077-.138.165-.298.194-.36.032-.06.123-.23.21-.379.084-.15.169-.295.185-.325.051-.092-.053-.11-.27-.048l-1.087.331c-.15.048-.304.093-.334.096-.032.008-.274.083-.549.171-.271.086-.575.178-.68.212-.532.154-1.366.404-2.333.698-.114.038-.32.096-.454.14-.134.038-.39.113-.569.171-.18.058-.408.127-.506.154-.098.028-.295.09-.432.13-.14.045-.47.144-.735.223-.265.078-.63.188-.81.246-.18.058-.439.13-.576.171a1.237 1.237 0 00-.278.092c-.013.013-.081.024-.15.022-.118-.005-.131-.018-.353-.377a18.938 18.938 0 01-.354-.578c-.063-.113-.513-.837-.996-1.612-.48-.772-.937-1.508-1.01-1.631-.072-.123-.46-.747-.86-1.39-.718-1.153-.956-1.534-1.092-1.776-.037-.068-.116-.184-.166-.259a4.725 4.725 0 01-.162-.261c-.036-.068-.53-.866-1.095-1.774-1-1.609-1.139-1.835-1.443-2.339-.083-.132-.239-.388-.348-.565-.109-.178-.221-.365-.248-.417-.033-.052-.07-.08-.086-.064-.016.016-.003 1.046.028 2.287.088 3.369.102 3.959.124 4.94.01.495.031 1.215.04 1.599.016.384.043 1.492.065 2.46.023.967.058 2.238.078 2.827.02.584.013 1.082-.01 1.105a8.615 8.615 0 01-.266.206l-.294.135s-.059.072-.732.277c-.582.172-1.735.524-1.99.6-.15.047-.37.112-.48.146-.115.031-.314.09-.448.134-.131.04-.347.103-.48.147-.132.04-.33.099-.445.13-.112.034-.33.1-.48.147-.154.044-.488.147-.736.222-.739.22-1.245.373-1.752.527-.15.048-.379.116-.503.157-.219.065-.585.175-1.056.319-.251.078-.47.143-1.379.417-1.124.335-1.183.356-1.474.441-.15.048-.379.116-.503.157-.219.066-.585.175-1.056.319-.6.184-.709.215-.898.27-.111.034-.33.1-.48.147-.256.075-1.41.427-1.994.602-1.174.352-1.458.444-1.46.474.002.016.406.118.895.232.495.113.931.214.967.23a59.833 59.833 0 011.102.258c.613.145 4.713 1.096 4.883 1.133.046.006.345.076.66.15.318.077.613.145.655.154.108.021 4.342 1.007 5.06 1.176l.712.162c.082.016.177.037.217.05.036.015.944.227 2.013.473 1.07.245 1.971.477 1.998.515.056.074.104 1.39.187 5.052.01.515.027 1.232.04 1.6.012.368.038 1.417.064 2.33.088 3.4.126 4.805.145 5.645.016.476.048.85.08.837.046-.027.286-.435.5-.855.048-.095.148-.289.226-.427.077-.138.165-.299.194-.361.032-.06.123-.23.21-.378.084-.15.2-.355.256-.463.1-.187.453-.84.712-1.314l.194-.361c.035-.069.126-.233.197-.358.068-.128.178-.325.24-.447.22-.407.76-1.396.89-1.626.067-.128.165-.312.213-.407.048-.095.152-.286.23-.424.077-.138.288-.515.463-.844.178-.325.381-.696.453-.821.068-.128.165-.312.213-.407.049-.095.159-.293.243-.444.087-.148.178-.325.21-.39.03-.063.09-.178.136-.257.08-.14.515-.923.693-1.255.09-.177.203-.377.485-.886.35-.638.515-.917.54-.917.05.002 4.54 1.036 4.789 1.105.069.021 1.157.273 2.417.561a147.5 147.5 0 012.43.569c.174.053.203.016.117-.152z" fill="#fff" opacity=".3"/></svg>