<svg width="36" height="36" viewBox="0 0 36 36" fill="none" xmlns="http://www.w3.org/2000/svg"><path d="M27.553 26.29a67.271 67.271 0 00-.339-.7c-.16-.324-.336-.676-.385-.781a49.74 49.74 0 00-.611-1.252c-.194-.394-.398-.8-.446-.906-.048-.105-.127-.268-.172-.363a767.87 767.87 0 00-.947-1.942 34.406 34.406 0 01-.453-.92c-.223-.467-.224-.457.046-.836.074-.102.169-.238.211-.305l.186-.282c.061-.086.238-.343.391-.568.152-.228.333-.489.4-.584.067-.095.157-.227.2-.293.041-.067.126-.194.185-.283a147.268 147.268 0 001.186-1.741c.067-.096.146-.214.18-.264.03-.048.153-.225.268-.396.117-.168.253-.373.309-.455.136-.197.276-.407.419-.613.067-.096.142-.207.168-.25.028-.041.107-.16.182-.262.072-.104.144-.204.158-.224.045-.064-.03-.085-.193-.055l-.82.163c-.114.024-.23.046-.251.046-.025.003-.207.04-.414.086l-.513.105c-.4.074-1.029.197-1.758.342-.086.019-.241.046-.342.07-.101.017-.293.054-.429.083-.136.03-.308.063-.382.076-.074.013-.221.044-.325.064-.106.022-.355.07-.554.109-.2.038-.475.092-.61.121-.137.03-.33.064-.434.084a.902.902 0 00-.21.047c-.01.009-.062.012-.112.005-.086-.012-.094-.023-.23-.301a13.96 13.96 0 01-.218-.449c-.038-.087-.314-.65-.612-1.252-.295-.6-.575-1.172-.62-1.267-.044-.095-.282-.58-.528-1.079-.442-.896-.589-1.192-.67-1.38-.022-.052-.072-.142-.103-.2a141.802 141.802 0 01-1.658-3.397l-.213-.44a8.245 8.245 0 01-.152-.322c-.02-.04-.044-.064-.058-.053-.013.01-.078.765-.145 1.676-.18 2.47-.214 2.903-.268 3.623-.029.363-.066.891-.087 1.173-.017.282-.077 1.095-.131 1.805-.054.71-.12 1.641-.149 2.074-.027.428-.068.793-.087.808-.018.015-.21.131-.21.131l-.225.077s-.048.05-.555.15c-.438.084-1.308.258-1.5.294l-.362.073a7.328 7.328 0 00-.338.065c-.098.02-.26.05-.362.073-.098.02-.248.048-.334.063-.084.017-.25.048-.363.072l-.554.11c-.556.106-.938.182-1.32.258-.113.024-.286.058-.38.079-.164.031-.44.085-.795.156-.19.039-.355.07-1.04.205l-1.11.216c-.113.024-.285.057-.38.078-.164.032-.44.085-.795.156-.453.092-.534.107-.677.133-.084.017-.249.049-.362.073-.192.036-1.062.21-1.502.295-.885.173-1.1.22-1.104.241.002.012.29.116.639.235.354.119.666.224.69.239a43.223 43.223 0 01.788.269c.439.15 3.369 1.144 3.491 1.183.033.008.246.081.471.158a1127.422 1127.422 0 014.086 1.388 107.76 107.76 0 01.664.222c.025.014.675.235 1.439.492.764.258 1.407.493 1.424.523.036.058-.025 1.025-.23 3.71-.03.378-.07.903-.087 1.174-.018.27-.075 1.04-.122 1.709-.183 2.495-.257 3.525-.304 4.142-.023.349-.027.625-.002.617.035-.016.24-.297.427-.589.043-.066.13-.2.197-.296.067-.095.142-.206.168-.25.028-.04.107-.16.181-.261.073-.104.173-.245.221-.32.087-.13.393-.583.616-.91l.169-.25c.03-.048.109-.162.17-.248.059-.089.154-.225.208-.31.19-.281.657-.966.769-1.124l.186-.283c.042-.066.132-.198.198-.293.067-.096.249-.357.4-.584.154-.226.33-.482.392-.569.059-.088.143-.216.185-.282.043-.066.137-.202.21-.307.075-.102.154-.225.182-.27.026-.044.08-.124.118-.178.07-.098.444-.638.598-.868.08-.123.177-.261.42-.614.302-.44.443-.633.462-.631.036.005 3.246 1.088 3.423 1.156.049.02.827.284 1.728.586.9.303 1.68.569 1.736.593.124.051.148.027.097-.103z" fill="#fff" opacity=".4"/></svg>