<svg width="18" height="18" viewBox="0 0 18 18" fill="none" xmlns="http://www.w3.org/2000/svg"><path d="M10.375 17.608c.012-.04.07-.271.13-.513.058-.239.12-.499.141-.575.08-.299.107-.41.23-.92.072-.29.144-.591.165-.668.02-.075.05-.195.07-.264l.356-1.427c.056-.241.098-.41.167-.678.088-.341.084-.336.39-.417.083-.02.192-.05.243-.067a17.681 17.681 0 01.673-.193c.178-.053.387-.11.464-.131.076-.02.18-.05.232-.067l.22-.067a99.861 99.861 0 001.38-.393c.076-.02.169-.048.208-.06.037-.011.179-.05.313-.09.135-.036.295-.085.36-.103l.487-.138c.076-.02.164-.046.197-.058.032-.009.125-.037.209-.057l.18-.048c.051-.014.021-.058-.076-.113l-.499-.272a8.032 8.032 0 00-.404-.22L15.9 9.9a101.85 101.85 0 00-1.065-.586l-.208-.113a9.56 9.56 0 00-.26-.143 8.271 8.271 0 01-.232-.126c-.044-.026-.134-.074-.197-.108a31.93 31.93 0 01-.336-.185c-.12-.066-.288-.158-.371-.202-.084-.044-.2-.11-.262-.145a.615.615 0 00-.13-.067c-.01 0-.037-.02-.06-.046-.04-.043-.04-.053.011-.257a57.223 57.223 0 00.313-1.25l.232-.932c.019-.069.107-.425.197-.794.162-.66.216-.878.255-1.012.012-.037.026-.106.035-.15a68.652 68.652 0 00.29-1.162c.227-.92.26-1.049.334-1.334.018-.076.056-.22.081-.322.026-.101.053-.207.063-.235.006-.03.004-.053-.007-.053-.012 0-.376.366-.81.812-1.175 1.213-1.382 1.425-1.725 1.777-.174.177-.424.437-.559.575-.132.14-.52.538-.858.886-.338.347-.781.805-.985 1.02-.202.21-.383.383-.4.383-.015 0-.166-.023-.166-.023l-.15-.057s-.047.005-.356-.163c-.264-.148-.793-.435-.909-.5-.07-.037-.169-.092-.22-.12a5.043 5.043 0 00-.204-.112c-.06-.032-.158-.088-.22-.12a7.098 7.098 0 01-.202-.113l-.22-.12-.336-.183c-.337-.187-.569-.313-.8-.44l-.232-.124a74.9 74.9 0 00-.483-.265c-.116-.062-.215-.117-.63-.345l-.673-.37c-.07-.037-.174-.095-.232-.124a74.9 74.9 0 00-.482-.265c-.276-.15-.325-.177-.41-.226-.052-.027-.151-.082-.22-.12-.117-.064-.645-.351-.912-.499-.536-.294-.668-.363-.68-.354-.004.007.1.187.23.4.132.217.248.408.255.426a29.51 29.51 0 01.292.483c.163.27 1.252 2.064 1.299 2.138.014.018.093.15.176.288l.174.287a765.484 765.484 0 011.535 2.527 47.556 47.556 0 00.591.978c.286.467.517.87.513.892-.007.046-.462.525-1.744 1.839-.18.184-.431.441-.559.575-.127.133-.494.51-.811.84L.488 15.193c-.165.172-.288.315-.272.322.026.007.255-.051.48-.122.051-.016.156-.049.232-.07.077-.02.165-.045.197-.057.033-.009.125-.037.209-.057.083-.023.197-.053.255-.072l.719-.207.197-.057c.037-.012.128-.037.197-.055.07-.021.179-.051.244-.072l.892-.253c.07-.02.17-.05.22-.067.052-.016.156-.046.233-.066.076-.021.285-.079.463-.132.179-.05.383-.108.452-.126.07-.02.17-.05.22-.067.052-.016.16-.046.244-.069.084-.02.179-.05.214-.062.032-.011.095-.03.139-.041.079-.021.51-.14.69-.194.096-.03.207-.06.488-.138.35-.099.508-.138.517-.129.016.019 1.213 1.982 1.275 2.094.016.032.306.509.642 1.059.337.55.627 1.028.645 1.065.042.08.065.078.095-.012z" fill="#fff" opacity=".35"/></svg>