<svg width="41" height="41" viewBox="0 0 41 41" fill="none" xmlns="http://www.w3.org/2000/svg"><path d="M12.312 32.447c.062-.035.399-.235.751-.445.347-.211.724-.44.837-.504a56.85 56.85 0 001.342-.803c.422-.253.858-.52.971-.584.113-.064.288-.168.39-.227.32-.189 1.96-1.168 2.083-1.242.347-.216.592-.363.987-.595.5-.293.49-.293.941-.031.122.073.284.165.362.205.079.04.23.122.335.179.103.06.409.23.676.378.27.146.581.322.695.387.113.064.27.15.348.191.079.04.23.122.335.179a165.75 165.75 0 002.07 1.146c.114.064.255.14.314.173.057.03.268.148.47.26.2.113.443.242.54.296.236.133.484.268.73.406.114.065.246.138.298.162.048.027.189.103.31.176.125.07.244.14.268.154.076.043.091-.043.042-.22l-.265-.895a3.353 3.353 0 01-.076-.274 12.999 12.999 0 00-.137-.451c-.068-.224-.142-.473-.17-.56-.122-.437-.322-1.122-.557-1.918-.03-.094-.077-.263-.112-.373-.03-.11-.09-.32-.137-.468a13.586 13.586 0 01-.123-.416c-.021-.08-.07-.242-.103-.355a52.272 52.272 0 01-.178-.604c-.063-.218-.15-.519-.197-.666-.046-.148-.104-.36-.137-.473a1.006 1.006 0 00-.073-.229c-.011-.01-.02-.067-.017-.123.005-.097.016-.108.314-.286.17-.104.385-.232.482-.285.094-.051.697-.414 1.343-.803.643-.387 1.256-.755 1.358-.813.102-.059.622-.371 1.157-.694.96-.578 1.278-.77 1.48-.88.056-.029.153-.093.215-.133a114.438 114.438 0 001.695-1.013c1.34-.806 1.528-.918 1.948-1.163l.47-.28c.149-.088.305-.178.348-.2.043-.026.067-.056.053-.07-.013-.013-.865-.01-1.893.004-2.788.043-3.276.05-4.088.06-.41.003-1.005.014-1.324.019-.318.01-1.235.022-2.035.032-.801.01-1.853.028-2.34.04-.484.01-.896.001-.915-.018-.02-.018-.168-.22-.168-.22l-.109-.242s-.06-.049-.224-.602c-.136-.479-.418-1.427-.478-1.637-.038-.123-.09-.303-.117-.395a8.2 8.2 0 00-.107-.368c-.033-.107-.082-.284-.117-.395-.033-.107-.08-.27-.104-.365l-.118-.395c-.035-.126-.117-.4-.177-.604-.175-.608-.298-1.024-.421-1.44-.038-.124-.093-.312-.126-.414l-.254-.868c-.063-.207-.115-.387-.334-1.134-.267-.924-.284-.972-.352-1.212-.038-.123-.093-.311-.126-.413l-.254-.868c-.147-.495-.172-.583-.216-.739l-.117-.395c-.06-.21-.342-1.158-.481-1.639-.282-.964-.356-1.198-.38-1.201-.013.003-.101.332-.2.732a20.53 20.53 0 01-.198.79c-.011.033-.035.127-.054.215a1444.059 1444.059 0 00-1.15 4.679c-.004.037-.065.281-.129.539a1276.793 1276.793 0 01-1.15 4.673c-.06.255-.124.518-.14.582a1.94 1.94 0 01-.043.177c-.013.03-.196.772-.408 1.646-.213.874-.412 1.611-.444 1.633-.062.045-1.152.073-4.182.11-.427.003-1.02.012-1.324.019-.305.007-1.173.02-1.928.032-2.816.043-3.978.063-4.673.071-.394.01-.704.032-.693.06.022.037.357.237.703.415.078.04.237.125.35.19.114.064.247.137.298.162.049.027.19.102.31.175.125.07.293.168.382.214.154.083.692.378 1.08.594l.298.162c.057.03.192.106.295.165.105.057.267.149.367.2.335.184 1.149.635 1.338.743l.335.179c.078.04.235.127.349.192.113.065.424.24.694.386.268.149.573.319.676.378l.335.179c.078.04.24.132.365.203.122.073.267.148.321.175.052.025.146.076.211.114.116.067.76.43 1.033.578.146.076.31.17.73.405.523.292.753.43.753.452-.002.04-.897 3.71-.955 3.914-.019.056-.236.947-.486 1.976-.25 1.03-.47 1.922-.491 1.987-.045.142-.016.166.124.097z" fill="#fff" opacity=".1"/></svg>