<svg width="254" height="25" viewBox="0 0 254 25" fill="none" xmlns="http://www.w3.org/2000/svg"><path d="M2.655 15.856v-5.008h-1.6v-.88h1.6V8.256l.96-.416v2.128H5.44v.88H3.615v5.376c-.02.757.347 1.136 1.104 1.136.353 0 .63-.032.832-.096v.832a3.858 3.858 0 01-.976.144 3.71 3.71 0 01-.816-.08 1.191 1.191 0 01-.543-.272 3.289 3.289 0 01-.337-.352c-.074-.107-.127-.267-.16-.48a9.199 9.199 0 01-.063-.496v-.544-.16zm9.825.464a4.14 4.14 0 00.688-2.336 4.14 4.14 0 00-.688-2.336c-.459-.693-1.131-1.04-2.016-1.04-.886 0-1.558.347-2.016 1.04a4.14 4.14 0 00-.688 2.336c0 .864.229 1.643.688 2.336.458.693 1.13 1.04 2.016 1.04.885 0 1.557-.347 2.016-1.04zm-4.8-5.328c.65-.843 1.578-1.264 2.784-1.264 1.205 0 2.128.421 2.768 1.264.65.843.976 1.84.976 2.992s-.326 2.15-.976 2.992c-.64.843-1.563 1.264-2.768 1.264-1.206 0-2.134-.421-2.784-1.264-.64-.843-.96-1.84-.96-2.992s.32-2.15.96-2.992zm19.071 1.44h-1.04c-.074-1.216-.805-1.824-2.192-1.824-.714 0-1.29.325-1.728.976-.437.65-.656 1.445-.656 2.384 0 .95.219 1.755.656 2.416.438.65 1.014.976 1.728.976.619 0 1.126-.17 1.52-.512.406-.352.63-.805.672-1.36h1.04c-.256 1.835-1.301 2.752-3.136 2.752-1.13 0-2-.41-2.608-1.232-.608-.832-.912-1.84-.912-3.024 0-1.173.315-2.176.944-3.008.63-.832 1.51-1.248 2.64-1.248.854 0 1.568.245 2.144.736.576.48.886 1.136.928 1.968zM29.6 6.448v4.736h.032c.544-.97 1.382-1.456 2.512-1.456.502 0 .934.085 1.296.256.374.17.651.373.832.608.192.235.342.517.448.848.118.33.187.608.208.832.032.224.048.459.048.704V18h-.96v-5.184c0-.693-.186-1.232-.56-1.616-.373-.395-.89-.592-1.552-.592-.746 0-1.317.267-1.712.8-.394.533-.592 1.19-.592 1.968V18h-.96V6.448h.96zm7.947 3.52h.96V18h-.96V9.968zm1.04-3.52v1.2h-1.12v-1.2h1.12zm3.467 0V18h-.96V6.448h.96zm8.075 7.344c0-.907-.214-1.664-.64-2.272-.427-.608-1.078-.912-1.952-.912-.576 0-1.056.17-1.44.512-.374.33-.63.73-.768 1.2a5.236 5.236 0 00-.208 1.52c0 .416.032.816.096 1.2.074.373.186.747.336 1.12.16.363.394.656.704.88.32.213.698.32 1.136.32.661 0 1.205-.176 1.632-.528.426-.352.714-.779.864-1.28.16-.512.24-1.099.24-1.76zm.08 4.208l-.048-1.184-.032-.064c-.683.992-1.6 1.488-2.752 1.488a3.008 3.008 0 01-1.52-.384 2.945 2.945 0 01-1.04-1.008 5.62 5.62 0 01-.56-1.36 6.58 6.58 0 01-.176-1.536c0-.736.101-1.408.304-2.016a3.488 3.488 0 011.088-1.568c.512-.427 1.146-.64 1.904-.64.554 0 1.082.128 1.584.384.512.256.901.613 1.168 1.072l.032-.032V6.448h.96v9.744c0 .299.026.901.08 1.808h-.992zm4.266-4.832V18h-.96v-6.224c0-.203-.026-.805-.08-1.808h.992l.048 1.184h.032c.15-.405.39-.741.72-1.008.331-.267.694-.405 1.088-.416.214-.01.534-.005.96.016v.928c-.042 0-.133-.01-.272-.032a2.275 2.275 0 00-.32-.032c-.693 0-1.232.23-1.616.688-.373.459-.57 1.083-.592 1.872zm10.855 1.04h-6.208c.022.928.256 1.685.704 2.272.459.587 1.152.88 2.08.88.566 0 1.062-.181 1.488-.544a2.38 2.38 0 00.832-1.376h1.008c-.48 1.867-1.69 2.8-3.632 2.8-1.13 0-2-.41-2.608-1.232-.608-.832-.912-1.84-.912-3.024 0-1.173.315-2.176.944-3.008.63-.832 1.51-1.248 2.64-1.248 1.27 0 2.198.41 2.784 1.232.587.81.88 1.893.88 3.248zm-6.176-.88h5.136c-.064-.821-.314-1.477-.752-1.968-.437-.501-1.056-.752-1.856-.752-.736 0-1.322.261-1.76.784-.437.523-.693 1.168-.768 1.936zm9.259.048V18h-.96v-6.224c0-.299-.027-.901-.08-1.808h.992l.048 1.184.032.032c.544-.97 1.381-1.456 2.512-1.456.501 0 .933.085 1.296.256.373.17.65.373.832.608.192.235.341.517.448.848.117.33.187.608.208.832.032.224.048.459.048.704V18h-.96v-5.184c0-.693-.187-1.232-.56-1.616-.374-.395-.89-.592-1.552-.592-.747 0-1.317.267-1.712.8s-.592 1.19-.592 1.968zm12.112-1.408c0-.768.288-1.333.864-1.696.576-.363 1.269-.544 2.08-.544 1.845 0 2.821.741 2.928 2.224h-1.04c-.086-.896-.747-1.344-1.984-1.344-.502 0-.928.107-1.28.32-.352.213-.528.539-.528.976 0 .224.053.41.16.56.117.15.298.277.544.384.245.096.496.181.752.256.266.064.618.155 1.056.272.448.117.853.24 1.216.368.416.15.746.395.992.736.245.33.368.71.368 1.136 0 .853-.331 1.504-.992 1.952-.662.448-1.456.672-2.384.672a4.33 4.33 0 01-1.408-.224c-.427-.15-.8-.416-1.12-.8-.32-.384-.486-.853-.496-1.408h1.04c.032.555.256.955.672 1.2.416.235.933.352 1.552.352.565 0 1.056-.133 1.472-.4.416-.277.624-.677.624-1.2 0-.33-.128-.608-.384-.832-.246-.224-.491-.373-.736-.448-.235-.075-.619-.17-1.152-.288a2.983 2.983 0 00-.272-.064 18.19 18.19 0 01-.96-.256 4.937 4.937 0 01-.768-.368 1.595 1.595 0 01-.624-.624 2.018 2.018 0 01-.192-.912zm15.04 2.24h-6.208c.021.928.256 1.685.704 2.272.458.587 1.152.88 2.08.88.565 0 1.061-.181 1.488-.544.437-.363.714-.821.832-1.376h1.008c-.48 1.867-1.691 2.8-3.632 2.8-1.131 0-2-.41-2.608-1.232-.608-.832-.912-1.84-.912-3.024 0-1.173.314-2.176.944-3.008.629-.832 1.509-1.248 2.64-1.248 1.269 0 2.197.41 2.784 1.232.586.81.88 1.893.88 3.248zm-6.176-.88h5.136c-.064-.821-.315-1.477-.752-1.968-.438-.501-1.056-.752-1.856-.752-.736 0-1.323.261-1.76.784-.438.523-.694 1.168-.768 1.936zm8.634 2.432c0 .523.17.923.512 1.2.342.267.774.4 1.296.4 1.728 0 2.528-1.136 2.4-3.408-.096 0-.314.005-.656.016-.33 0-.592.005-.784.016-.192.01-.448.032-.768.064s-.581.09-.784.176a3.235 3.235 0 00-.608.304 1.263 1.263 0 00-.464.512 1.668 1.668 0 00-.144.72zm4.208-2.688v-.736c-.042-.63-.224-1.072-.544-1.328-.309-.267-.762-.4-1.36-.4-1.205 0-1.861.464-1.968 1.392h-1.024c.224-1.515 1.227-2.272 3.008-2.272.918 0 1.622.219 2.112.656.502.437.747 1.104.736 2v3.808c0 .203.027.805.08 1.808h-.992l-.032-1.184h-.032l-.048.112c-.181.352-.517.661-1.008.928-.48.256-.981.384-1.504.384-.768 0-1.408-.224-1.92-.672-.501-.448-.752-1.05-.752-1.808 0-.533.144-1.003.432-1.408.299-.405.694-.71 1.184-.912.32-.139.672-.23 1.056-.272.384-.053.864-.08 1.44-.08.587 0 .966-.005 1.136-.016zm4.416.096V18h-.96v-6.224c0-.203-.026-.805-.08-1.808h.992l.048 1.184h.032c.15-.405.39-.741.72-1.008a1.777 1.777 0 011.088-.416c.214-.01.534-.005.96.016v.928c-.042 0-.133-.01-.272-.032a2.26 2.26 0 00-.32-.032c-.693 0-1.232.23-1.616.688-.373.459-.57 1.083-.592 1.872zm10.199-.736h-1.04c-.075-1.216-.805-1.824-2.192-1.824-.715 0-1.291.325-1.728.976-.437.65-.656 1.445-.656 2.384 0 .95.219 1.755.656 2.416.437.65 1.013.976 1.728.976.619 0 1.125-.17 1.52-.512.405-.352.629-.805.672-1.36h1.04c-.256 1.835-1.301 2.752-3.136 2.752-1.131 0-2-.41-2.608-1.232-.608-.832-.912-1.84-.912-3.024 0-1.173.315-2.176.944-3.008.629-.832 1.509-1.248 2.64-1.248.853 0 1.568.245 2.144.736.576.48.885 1.136.928 1.968zm2.848-5.984v4.736h.032c.544-.97 1.381-1.456 2.512-1.456.501 0 .933.085 1.296.256.373.17.651.373.832.608.192.235.341.517.448.848.117.33.187.608.208.832.032.224.048.459.048.704V18h-.96v-5.184c0-.693-.187-1.232-.56-1.616-.373-.395-.891-.592-1.552-.592-.747 0-1.317.267-1.712.8s-.592 1.19-.592 1.968V18h-.96V6.448h.96zm7.947 3.52h.96V18h-.96V9.968zm1.04-3.52v1.2h-1.12v-1.2h1.12zm3.451 6.928V18h-.96v-6.224c0-.299-.027-.901-.08-1.808h.992l.048 1.184.032.032c.544-.97 1.381-1.456 2.512-1.456.501 0 .933.085 1.296.256.373.17.65.373.832.608.192.235.341.517.448.848.117.33.186.608.208.832.032.224.048.459.048.704V18h-.96v-5.184c0-.693-.187-1.232-.56-1.616-.374-.395-.891-.592-1.552-.592-.747 0-1.318.267-1.712.8-.395.533-.592 1.19-.592 1.968zm13.466.432c0-.843-.229-1.584-.688-2.224-.448-.65-1.077-.976-1.888-.976-.544 0-1.013.17-1.408.512a2.946 2.946 0 00-.832 1.232c-.16.47-.24.965-.24 1.488 0 .843.214 1.595.64 2.256.438.661 1.062.992 1.872.992.854 0 1.488-.325 1.904-.976.427-.65.64-1.419.64-2.304zm0-2.656l.048-1.184h.992c-.053.907-.08 1.51-.08 1.808v5.008c0 .416-.005.73-.016.944 0 .213-.032.496-.096.848-.053.363-.138.65-.256.864a2.826 2.826 0 01-.496.672 2.503 2.503 0 01-.832.592c-.512.245-1.12.368-1.824.368-.544 0-1.04-.064-1.488-.192a2.577 2.577 0 01-1.184-.688c-.341-.33-.512-.757-.512-1.28h1.04c.054.437.299.757.736.96.438.213.95.32 1.536.32.651 0 1.216-.208 1.696-.624.48-.416.726-.95.736-1.6v-1.504h-.032c-.224.459-.581.827-1.072 1.104a3.17 3.17 0 01-1.536.4c-1.152 0-2.016-.379-2.592-1.136-.576-.757-.864-1.728-.864-2.912 0-.768.112-1.456.336-2.064a3.367 3.367 0 011.12-1.52c.534-.405 1.19-.608 1.968-.608 1.078 0 1.958.496 2.64 1.488l.032-.064zM155.053 18h-.96v-7.152h-1.616v-.88h1.616V8.256c0-.693.149-1.2.448-1.52.309-.32.805-.48 1.488-.48.085 0 .389.059.912.176V7.2a3.874 3.874 0 00-.592-.064c-.597 0-.971.133-1.12.4-.149.267-.208.736-.176 1.408v1.024h1.824v.88h-1.824V18zm8.864-1.68a4.138 4.138 0 00.688-2.336c0-.864-.229-1.643-.688-2.336-.459-.693-1.131-1.04-2.016-1.04s-1.557.347-2.016 1.04a4.138 4.138 0 00-.688 2.336c0 .864.229 1.643.688 2.336.459.693 1.131 1.04 2.016 1.04s1.557-.347 2.016-1.04zm-4.8-5.328c.651-.843 1.579-1.264 2.784-1.264 1.205 0 2.128.421 2.768 1.264.651.843.976 1.84.976 2.992s-.325 2.15-.976 2.992c-.64.843-1.563 1.264-2.768 1.264-1.205 0-2.133-.421-2.784-1.264-.64-.843-.96-1.84-.96-2.992s.32-2.15.96-2.992zm9.467 2.176V18h-.96v-6.224c0-.203-.027-.805-.08-1.808h.992l.048 1.184h.032a2.28 2.28 0 01.72-1.008c.33-.267.693-.405 1.088-.416.213-.01.533-.005.96.016v.928c-.043 0-.134-.01-.272-.032a2.287 2.287 0 00-.32-.032c-.694 0-1.232.23-1.616.688-.374.459-.571 1.083-.592 1.872zm8.853-3.2l2.4 6.768h.032l2.432-6.768h1.136l2.368 6.704h.032l2.32-6.704h1.056L186.221 18h-.912l-2.464-6.928h-.032L180.301 18h-.976l-2.944-8.032h1.056zm13.632 5.792c0 .523.171.923.512 1.2.341.267.773.4 1.296.4 1.728 0 2.528-1.136 2.4-3.408-.096 0-.315.005-.656.016-.331 0-.592.005-.784.016-.192.01-.448.032-.768.064s-.581.09-.784.176a3.238 3.238 0 00-.608.304 1.263 1.263 0 00-.464.512 1.668 1.668 0 00-.144.72zm4.208-2.688v-.736c-.043-.63-.224-1.072-.544-1.328-.309-.267-.763-.4-1.36-.4-1.205 0-1.861.464-1.968 1.392h-1.024c.224-1.515 1.227-2.272 3.008-2.272.917 0 1.621.219 2.112.656.501.437.747 1.104.736 2v3.808c0 .203.027.805.08 1.808h-.992l-.032-1.184h-.032l-.048.112c-.181.352-.517.661-1.008.928-.48.256-.981.384-1.504.384-.768 0-1.408-.224-1.92-.672-.501-.448-.752-1.05-.752-1.808 0-.533.144-1.003.432-1.408.299-.405.693-.71 1.184-.912.32-.139.672-.23 1.056-.272.384-.053.864-.08 1.44-.08.587 0 .965-.005 1.136-.016zm4.144 2.784v-5.008h-1.6v-.88h1.6V8.256l.96-.416v2.128h1.824v.88h-1.824v5.376c-.021.757.347 1.136 1.104 1.136.352 0 .629-.032.832-.096v.832a3.86 3.86 0 01-.976.144c-.309 0-.581-.027-.816-.08a1.193 1.193 0 01-.544-.272 3.224 3.224 0 01-.336-.352c-.075-.107-.128-.267-.16-.48a9.551 9.551 0 01-.064-.496v-.544-.16zm11.408-1.648h-6.208c.022.928.256 1.685.704 2.272.459.587 1.152.88 2.08.88.566 0 1.062-.181 1.488-.544.438-.363.715-.821.832-1.376h1.008c-.48 1.867-1.69 2.8-3.632 2.8-1.13 0-2-.41-2.608-1.232-.608-.832-.912-1.84-.912-3.024 0-1.173.315-2.176.944-3.008.63-.832 1.51-1.248 2.64-1.248 1.27 0 2.198.41 2.784 1.232.587.81.88 1.893.88 3.248zm-6.176-.88h5.136c-.064-.821-.314-1.477-.752-1.968-.437-.501-1.056-.752-1.856-.752-.736 0-1.322.261-1.76.784-.437.523-.693 1.168-.768 1.936zm9.259-.16V18h-.96v-6.224c0-.203-.027-.805-.08-1.808h.992l.048 1.184h.032a2.28 2.28 0 01.72-1.008 1.775 1.775 0 011.088-.416c.213-.01.533-.005.96.016v.928c-.043 0-.133-.01-.272-.032a2.273 2.273 0 00-.32-.032c-.693 0-1.232.23-1.616.688-.373.459-.571 1.083-.592 1.872z" fill="#fff"/></svg>