<svg width="41" height="41" viewBox="0 0 41 41" fill="none" xmlns="http://www.w3.org/2000/svg"><path d="M12.316 32.445c.062-.035.398-.235.75-.445.348-.211.724-.44.837-.505.442-.255.603-.351 1.343-.802.422-.253.858-.52.971-.584.113-.064.288-.168.39-.227.32-.189 1.959-1.168 2.083-1.242.347-.216.591-.363.987-.595.5-.293.49-.293.94-.031a8.5 8.5 0 00.363.205c.078.04.23.122.335.179.103.06.408.23.676.378.27.146.58.322.694.386.114.065.27.152.349.192.078.04.23.122.335.179a165.546 165.546 0 002.07 1.146c.114.065.254.14.314.173l.47.259c.2.113.443.243.54.297.235.133.484.268.73.406.114.064.246.137.297.162.049.027.19.103.311.175.125.07.243.141.268.154.075.044.091-.042.042-.22l-.265-.894a3.366 3.366 0 01-.077-.274 12.9 12.9 0 00-.136-.452c-.069-.223-.142-.472-.17-.558-.123-.438-.322-1.123-.557-1.919-.03-.094-.077-.263-.112-.373-.03-.11-.09-.32-.137-.468a13.537 13.537 0 01-.123-.416c-.022-.08-.07-.242-.104-.355a50.334 50.334 0 01-.177-.604c-.063-.218-.15-.519-.197-.666-.047-.148-.104-.36-.137-.473a1 1 0 00-.074-.229c-.01-.01-.019-.067-.016-.123.005-.097.016-.107.314-.286.17-.104.385-.232.482-.286.094-.05.697-.413 1.342-.802.643-.387 1.257-.755 1.359-.813.102-.059.621-.371 1.157-.694.96-.578 1.278-.77 1.48-.88.056-.029.153-.093.215-.133a115.22 115.22 0 001.695-1.013c1.34-.805 1.528-.917 1.948-1.163l.47-.28c.148-.088.304-.178.348-.2.043-.026.067-.056.053-.07-.013-.013-.865-.01-1.893.004-2.788.043-3.276.05-4.088.06-.41.003-1.005.014-1.324.019-.318.01-1.235.022-2.036.032-.8.01-1.852.028-2.34.04-.483.01-.895.001-.914-.018-.02-.018-.168-.22-.168-.22l-.11-.242s-.059-.049-.223-.602c-.136-.479-.418-1.427-.478-1.637-.038-.123-.09-.303-.117-.394a8.472 8.472 0 00-.107-.368c-.033-.108-.082-.285-.118-.395-.032-.108-.079-.272-.104-.366-.027-.091-.079-.271-.117-.395-.036-.126-.117-.4-.178-.604-.175-.607-.298-1.024-.42-1.44-.039-.124-.094-.312-.126-.414l-.254-.868c-.063-.207-.115-.387-.334-1.134-.268-.924-.284-.972-.352-1.211-.039-.124-.093-.312-.126-.414l-.254-.868c-.148-.494-.172-.583-.216-.739l-.118-.395c-.06-.21-.341-1.158-.48-1.639-.282-.964-.356-1.198-.38-1.2-.014.002-.101.332-.2.731-.098.405-.185.762-.199.791a46.753 46.753 0 01-.223.9c-.125.502-.947 3.854-.98 3.993-.005.038-.066.282-.13.539a1277.228 1277.228 0 01-1.15 4.673c-.06.255-.123.518-.14.582a1.902 1.902 0 01-.042.177c-.013.03-.196.772-.409 1.646-.212.874-.411 1.611-.444 1.633-.062.045-1.15.073-4.182.11-.426.004-1.02.012-1.324.019-.305.007-1.173.02-1.928.033-2.815.042-3.977.062-4.673.07-.394.01-.704.032-.693.06.022.037.357.237.703.415.078.04.238.125.351.19.114.064.246.137.298.162.048.027.189.102.31.175.125.07.292.168.382.214.154.084.691.378 1.08.594l.298.162c.057.03.192.106.294.165.106.057.268.149.368.2.335.184 1.148.635 1.338.743.105.057.256.138.335.179.078.04.235.127.348.192.114.065.425.24.695.386.267.149.573.32.676.379l.335.178c.078.04.24.132.364.203.122.073.268.148.322.175.051.025.146.076.21.114.117.067.76.43 1.033.578.146.076.311.17.73.405.524.292.754.43.754.452-.003.04-.897 3.71-.956 3.914-.018.056-.236.946-.485 1.976-.25 1.03-.47 1.922-.492 1.987-.045.142-.015.166.125.097z" fill="#fff" opacity=".1"/></svg>