<svg width="49" height="49" viewBox="0 0 49 49" fill="none" xmlns="http://www.w3.org/2000/svg"><path d="M38.679 34.183a87.956 87.956 0 00-.553-.901c-.261-.417-.546-.869-.625-1.005-.318-.53-.437-.724-.996-1.612-.315-.507-.646-1.03-.725-1.166-.08-.136-.209-.346-.282-.468-.234-.385-1.45-2.352-1.542-2.501-.268-.417-.45-.71-.738-1.186-.364-.6-.364-.587-.05-1.136.088-.148.198-.345.246-.44.049-.096.146-.28.214-.408.07-.124.275-.496.453-.82.174-.33.385-.707.462-.845.078-.138.182-.329.23-.424l.214-.407c.13-.23.67-1.219.89-1.626.116-.223.245-.46.482-.89.077-.138.168-.309.207-.38.035-.07.178-.326.31-.572.136-.244.292-.539.356-.657.159-.286.32-.588.486-.887.077-.138.165-.3.194-.361.032-.06.123-.23.21-.378.084-.151.169-.296.185-.325.052-.093-.053-.11-.269-.049l-1.088.332c-.15.048-.304.092-.334.096-.032.007-.274.082-.549.17-.27.086-.575.178-.68.212-.532.155-1.366.405-2.333.699-.114.037-.32.095-.454.14a18.96 18.96 0 00-.569.17c-.18.059-.408.127-.506.155-.098.027-.294.089-.432.13-.14.044-.47.143-.735.222a49.4 49.4 0 00-.81.246c-.18.058-.438.13-.576.171a1.239 1.239 0 00-.277.092c-.014.014-.082.024-.151.022-.118-.005-.131-.018-.353-.376a18.598 18.598 0 01-.354-.578c-.063-.114-.513-.837-.996-1.612-.48-.773-.937-1.51-1.01-1.632-.072-.123-.46-.746-.86-1.389-.718-1.153-.956-1.534-1.092-1.777-.037-.068-.116-.184-.166-.258a4.725 4.725 0 01-.162-.262c-.036-.068-.53-.866-1.095-1.773-1-1.61-1.139-1.835-1.443-2.34-.083-.132-.239-.387-.348-.565-.109-.177-.221-.365-.248-.417-.033-.051-.07-.08-.086-.064-.016.017-.003 1.047.028 2.288.088 3.369.101 3.958.124 4.939.01.495.031 1.215.04 1.6.016.384.043 1.491.065 2.46.023.967.058 2.237.078 2.827.02.583.013 1.082-.01 1.105a8.597 8.597 0 01-.267.206l-.293.134s-.059.073-.732.278c-.582.171-1.736.523-1.99.599-.15.047-.37.113-.48.147-.115.03-.315.089-.448.133-.131.041-.347.103-.481.147-.13.041-.33.1-.444.13-.112.035-.33.1-.48.147-.155.045-.488.147-.736.223-.739.219-1.245.373-1.752.527-.15.047-.379.116-.503.157-.22.065-.585.174-1.056.318-.251.078-.47.143-1.379.417-1.124.336-1.183.356-1.474.442-.15.047-.379.116-.503.157-.22.065-.585.174-1.056.318-.601.184-.709.215-.898.27-.112.034-.33.1-.48.147-.256.076-1.41.428-1.994.602-1.174.353-1.458.445-1.461.474.003.016.407.118.895.232.496.113.932.215.968.23.04.013.154.04.262.062a1719.222 1719.222 0 005.723 1.33c.046.005.344.076.66.15a1571.495 1571.495 0 015.716 1.33l.711.162c.082.015.177.036.217.049.036.015.944.227 2.013.473 1.07.245 1.971.477 1.998.515.056.075.104 1.39.187 5.053.01.514.027 1.231.04 1.6.012.367.038 1.416.064 2.329.088 3.4.126 4.805.145 5.645.016.476.048.85.08.837.046-.027.286-.434.5-.855.048-.095.148-.289.226-.427.077-.138.165-.299.194-.36.032-.06.123-.23.21-.379.084-.15.2-.354.256-.463.1-.187.453-.84.712-1.314l.194-.36c.035-.07.126-.234.197-.359.068-.128.178-.325.24-.447.22-.407.76-1.395.89-1.625.067-.129.165-.313.213-.408.048-.095.152-.285.23-.423.077-.138.288-.516.463-.845.178-.325.381-.696.453-.82.068-.129.165-.313.213-.408.049-.095.159-.292.243-.443.087-.148.178-.326.21-.391.03-.063.09-.178.136-.256.08-.142.515-.923.693-1.255.09-.178.203-.378.485-.887.35-.637.515-.917.54-.917.05.002 4.54 1.037 4.789 1.105.069.022 1.158.273 2.417.562a147.5 147.5 0 012.43.568c.174.053.203.017.117-.152z" fill="#fff" opacity=".3"/></svg>