<svg width="168" height="25" viewBox="0 0 168 25" fill="none" xmlns="http://www.w3.org/2000/svg"><path d="M3.062 18h-1.04V6.448h1.04v5.072h6.304V6.448h1.04V18h-1.04v-5.52H3.062V18zm16.97-3.792h-6.208c.022.928.256 1.685.704 2.272.459.587 1.152.88 2.08.88.566 0 1.062-.181 1.488-.544a2.38 2.38 0 00.832-1.376h1.008c-.48 1.867-1.69 2.8-3.632 2.8-1.13 0-2-.41-2.608-1.232-.608-.832-.912-1.84-.912-3.024 0-1.173.315-2.176.944-3.008.63-.832 1.51-1.248 2.64-1.248 1.27 0 2.198.41 2.784 1.232.587.81.88 1.893.88 3.248zm-6.176-.88h5.136c-.064-.821-.314-1.477-.752-1.968-.437-.501-1.056-.752-1.856-.752-.736 0-1.322.261-1.76.784-.437.523-.693 1.168-.768 1.936zm9.275-6.88V18h-.96V6.448h.96zm3.37 7.344c0 .661.075 1.248.225 1.76a2.7 2.7 0 00.88 1.28c.426.352.97.528 1.632.528.437 0 .81-.107 1.12-.32.32-.224.56-.517.72-.88.17-.373.288-.747.352-1.12a6.28 6.28 0 00.112-1.2 4.89 4.89 0 00-.224-1.52c-.139-.47-.4-.87-.784-1.2-.384-.341-.864-.512-1.44-.512-.875 0-1.526.304-1.952.912-.427.608-.64 1.365-.64 2.272zm0 2.96v4.32h-.96v-9.296c0-.203-.026-.805-.08-1.808h.993l.048 1.184.032.032c.267-.459.65-.816 1.152-1.072a3.534 3.534 0 011.6-.384c.757 0 1.392.213 1.904.64.512.427.87.95 1.072 1.568.213.608.32 1.28.32 2.016 0 .533-.064 1.045-.192 1.536-.117.48-.304.933-.56 1.36a2.814 2.814 0 01-1.024 1.008c-.427.256-.918.384-1.472.384-1.184 0-2.117-.496-2.8-1.488h-.032zM39.319 6.448h1.04v7.472c.042 1.045.346 1.867.912 2.464.565.597 1.322.896 2.272.896.949 0 1.706-.299 2.272-.896.565-.597.869-1.419.912-2.464V6.448h1.04v7.488c-.022 1.29-.395 2.33-1.12 3.12-.715.79-1.75 1.184-3.104 1.184-1.355 0-2.395-.395-3.12-1.184-.715-.79-1.083-1.83-1.104-3.12V6.448zM50.785 18V6.448h1.184l6.367 10.16h.032V6.448h1.04V18h-1.312l-6.24-9.984h-.032V18h-1.04zm12.826 0h-1.04V6.4h1.04V18zm11.494-8.848h-1.12c-.086-.661-.385-1.157-.897-1.488-.5-.33-1.109-.496-1.823-.496-.704 0-1.318.15-1.84.448a3.17 3.17 0 00-1.216 1.216 6.047 6.047 0 00-.609 1.6 7.959 7.959 0 00-.191 1.792c0 .64.063 1.243.191 1.808a6.34 6.34 0 00.609 1.6c.287.501.693.901 1.215 1.2.523.299 1.136.448 1.84.448.694 0 1.307-.176 1.84-.528.534-.352.87-.87 1.008-1.552h1.12c-.16.939-.618 1.68-1.376 2.224-.757.544-1.62.816-2.591.816-.843 0-1.595-.16-2.257-.48a4.246 4.246 0 01-1.567-1.328 6.319 6.319 0 01-.865-1.904 8.853 8.853 0 01-.287-2.304c0-.81.096-1.568.287-2.272a6.589 6.589 0 01.88-1.92 4.056 4.056 0 011.569-1.328c.65-.33 1.397-.496 2.24-.496 1.034 0 1.914.245 2.64.736.725.49 1.125 1.227 1.2 2.208zM84.72 18h-7.104V6.448h6.864v.96h-5.824v4.144h5.6v.96h-5.6v4.528h6.064V18zm3.606 0h-1.04V6.448h6.528v.96h-5.488v4.08h5.296v.96h-5.296V18zm18.175-5.568h-1.04c-.074-1.216-.805-1.824-2.192-1.824-.714 0-1.29.325-1.728.976-.437.65-.656 1.445-.656 2.384 0 .95.219 1.755.656 2.416.438.65 1.014.976 1.728.976.619 0 1.126-.17 1.52-.512.406-.352.63-.805.672-1.36h1.04c-.256 1.835-1.301 2.752-3.136 2.752-1.13 0-2-.41-2.608-1.232-.608-.832-.912-1.84-.912-3.024 0-1.173.315-2.176.944-3.008.63-.832 1.51-1.248 2.64-1.248.854 0 1.568.245 2.144.736.576.48.886 1.136.928 1.968zm2.848-5.984v4.736h.032c.544-.97 1.382-1.456 2.512-1.456.502 0 .934.085 1.296.256.374.17.651.373.832.608.192.235.342.517.448.848.118.33.187.608.208.832.032.224.048.459.048.704V18h-.96v-5.184c0-.693-.186-1.232-.56-1.616-.373-.395-.89-.592-1.552-.592-.746 0-1.317.267-1.712.8-.394.533-.592 1.19-.592 1.968V18h-.96V6.448h.96zm8.267 9.312c0 .523.171.923.512 1.2.341.267.773.4 1.296.4 1.728 0 2.528-1.136 2.4-3.408-.096 0-.315.005-.656.016-.331 0-.592.005-.784.016-.192.01-.448.032-.768.064s-.581.09-.784.176a3.238 3.238 0 00-.608.304 1.263 1.263 0 00-.464.512 1.668 1.668 0 00-.144.72zm4.208-2.688v-.736c-.043-.63-.224-1.072-.544-1.328-.309-.267-.763-.4-1.36-.4-1.205 0-1.861.464-1.968 1.392h-1.024c.224-1.515 1.227-2.272 3.008-2.272.917 0 1.621.219 2.112.656.501.437.747 1.104.736 2v3.808c0 .203.027.805.08 1.808h-.992l-.032-1.184h-.032l-.048.112c-.181.352-.517.661-1.008.928-.48.256-.981.384-1.504.384-.768 0-1.408-.224-1.92-.672-.501-.448-.752-1.05-.752-1.808 0-.533.144-1.003.432-1.408.299-.405.693-.71 1.184-.912.32-.139.672-.23 1.056-.272.384-.053.864-.08 1.44-.08.587 0 .965-.005 1.136-.016zm4.416.304V18h-.96v-6.224c0-.299-.027-.901-.08-1.808h.992l.048 1.184.032.032c.544-.97 1.381-1.456 2.512-1.456.501 0 .933.085 1.296.256.373.17.651.373.832.608.192.235.341.517.448.848.117.33.187.608.208.832.032.224.048.459.048.704V18h-.96v-5.184c0-.693-.187-1.232-.56-1.616-.373-.395-.891-.592-1.552-.592-.747 0-1.317.267-1.712.8s-.592 1.19-.592 1.968zm13.467.432c0-.843-.23-1.584-.688-2.224-.448-.65-1.078-.976-1.888-.976a2.08 2.08 0 00-1.408.512 2.937 2.937 0 00-.832 1.232c-.16.47-.24.965-.24 1.488 0 .843.213 1.595.64 2.256.437.661 1.061.992 1.872.992.853 0 1.488-.325 1.904-.976.426-.65.64-1.419.64-2.304zm0-2.656l.048-1.184h.992a37.76 37.76 0 00-.08 1.808v5.008c0 .416-.006.73-.016.944 0 .213-.032.496-.096.848-.054.363-.139.65-.256.864a2.854 2.854 0 01-.496.672 2.513 2.513 0 01-.832.592c-.512.245-1.12.368-1.824.368-.544 0-1.04-.064-1.488-.192a2.572 2.572 0 01-1.184-.688c-.342-.33-.512-.757-.512-1.28h1.04c.053.437.298.757.736.96.437.213.949.32 1.536.32.65 0 1.216-.208 1.696-.624.48-.416.725-.95.736-1.6v-1.504h-.032c-.224.459-.582.827-1.072 1.104-.491.267-1.003.4-1.536.4-1.152 0-2.016-.379-2.592-1.136-.576-.757-.864-1.728-.864-2.912 0-.768.112-1.456.336-2.064a3.36 3.36 0 011.12-1.52c.533-.405 1.189-.608 1.968-.608 1.077 0 1.957.496 2.64 1.488l.032-.064zm10.122 3.056h-6.208c.022.928.256 1.685.704 2.272.459.587 1.152.88 2.08.88.566 0 1.062-.181 1.488-.544.438-.363.715-.821.832-1.376h1.008c-.48 1.867-1.69 2.8-3.632 2.8-1.13 0-2-.41-2.608-1.232-.608-.832-.912-1.84-.912-3.024 0-1.173.315-2.176.944-3.008.63-.832 1.51-1.248 2.64-1.248 1.27 0 2.198.41 2.784 1.232.587.81.88 1.893.88 3.248zm-6.176-.88h5.136c-.064-.821-.314-1.477-.752-1.968-.437-.501-1.056-.752-1.856-.752-.736 0-1.322.261-1.76.784-.437.523-.693 1.168-.768 1.936zm12.768-3.36h.96V18h-.96V9.968zm1.04-3.52v1.2h-1.12v-1.2h1.12zm3.179 9.408v-5.008h-1.6v-.88h1.6V8.256l.96-.416v2.128h1.824v.88H161.6v5.376c-.021.757.347 1.136 1.104 1.136.352 0 .629-.032.832-.096v.832a3.86 3.86 0 01-.976.144c-.309 0-.581-.027-.816-.08a1.193 1.193 0 01-.544-.272 3.224 3.224 0 01-.336-.352c-.075-.107-.128-.267-.16-.48a9.551 9.551 0 01-.064-.496v-.544-.16z" fill="#fff"/></svg>