<svg width="36" height="36" viewBox="0 0 36 36" fill="none" xmlns="http://www.w3.org/2000/svg"><path d="M27.553 26.287a63.966 63.966 0 00-.339-.7c-.16-.324-.336-.676-.384-.78-.194-.412-.268-.562-.612-1.253-.194-.393-.398-.8-.446-.905-.048-.106-.127-.269-.172-.364-.144-.298-.89-1.826-.947-1.941a34.556 34.556 0 01-.453-.922c-.223-.466-.224-.456.046-.835.074-.102.17-.238.212-.304l.185-.283c.061-.086.238-.343.391-.568.152-.227.333-.488.4-.584.067-.095.157-.227.2-.293.042-.066.126-.194.185-.282a150.236 150.236 0 001.187-1.742c.066-.095.145-.214.179-.264.03-.047.154-.225.268-.395.118-.168.253-.373.309-.455.136-.198.277-.407.42-.614.066-.095.142-.207.167-.25.028-.041.107-.16.182-.261.072-.105.144-.204.158-.225.045-.063-.03-.084-.193-.055l-.82.164a11.624 11.624 0 00-.665.131c-.205.043-.434.088-.513.106-.4.074-1.029.196-1.758.341-.086.02-.241.047-.342.07-.101.018-.293.054-.429.084-.136.029-.308.062-.382.075-.073.013-.221.044-.325.064l-.554.11c-.2.038-.475.091-.61.12-.137.03-.33.064-.434.084a.91.91 0 00-.21.047c-.01.01-.062.012-.112.005-.086-.012-.094-.022-.23-.3-.08-.159-.178-.36-.218-.45-.038-.087-.314-.649-.611-1.251-.296-.6-.576-1.172-.62-1.267-.045-.096-.283-.58-.53-1.08-.441-.895-.588-1.192-.67-1.379-.021-.052-.07-.143-.102-.2a144.125 144.125 0 01-1.658-3.397l-.213-.44a8.36 8.36 0 01-.152-.323c-.02-.04-.044-.064-.058-.053-.013.011-.078.766-.145 1.676-.18 2.471-.214 2.904-.268 3.623-.029.363-.066.892-.087 1.173-.017.283-.077 1.095-.131 1.805-.054.71-.12 1.642-.149 2.075-.027.428-.068.792-.087.808a6.28 6.28 0 01-.21.13l-.225.078s-.048.049-.555.15c-.438.083-1.308.257-1.5.294-.114.024-.279.055-.362.072a7.328 7.328 0 00-.338.066c-.098.02-.26.05-.362.072-.098.02-.248.049-.335.063l-.362.073c-.115.021-.367.072-.554.11-.556.106-.938.182-1.32.258-.113.024-.286.057-.38.078-.164.032-.44.085-.795.156-.19.04-.355.07-1.04.205-.846.164-.89.175-1.11.216-.113.024-.286.058-.38.079-.164.031-.44.085-.795.156-.453.091-.534.106-.677.132-.084.017-.249.049-.362.073l-1.503.296c-.884.172-1.098.22-1.103.24.002.013.29.116.639.235.354.119.665.225.69.239a43.258 43.258 0 01.788.269c.439.15 3.369 1.144 3.49 1.183.034.008.247.081.472.158a1123.628 1123.628 0 014.086 1.388 116.628 116.628 0 01.664.222c.025.015.675.236 1.439.493s1.407.492 1.424.522c.036.059-.025 1.025-.23 3.71-.03.378-.07.904-.087 1.174-.018.27-.075 1.04-.122 1.709-.183 2.495-.257 3.525-.304 4.142-.023.349-.027.625-.002.618.035-.017.24-.297.427-.59.043-.066.13-.2.197-.295.067-.096.142-.207.168-.25.028-.041.107-.16.181-.262.073-.104.173-.245.221-.32l.616-.91.169-.25c.03-.048.109-.162.17-.248.06-.088.154-.225.208-.31.19-.281.657-.965.769-1.124l.186-.283c.042-.066.132-.198.198-.293.067-.095.249-.357.4-.584.154-.225.33-.482.392-.568.059-.089.143-.216.185-.283.043-.066.137-.202.21-.306.075-.102.154-.226.182-.271.026-.044.08-.123.118-.178.07-.097.444-.638.598-.868.08-.123.177-.261.42-.613.302-.441.443-.634.462-.632.036.005 3.246 1.088 3.423 1.156.049.021.827.284 1.728.587.9.302 1.68.568 1.737.592.123.051.147.027.096-.102z" fill="#fff" opacity=".4"/></svg>