<svg width="18" height="18" viewBox="0 0 18 18" fill="none" xmlns="http://www.w3.org/2000/svg"><path d="M10.375 17.606c.012-.041.07-.271.13-.513.058-.24.12-.5.141-.575.08-.3.107-.41.23-.92.072-.29.144-.592.165-.668.02-.076.05-.195.07-.264l.356-1.427c.056-.242.098-.41.167-.679.088-.34.084-.336.39-.416.083-.021.192-.051.243-.067a17.82 17.82 0 01.673-.193c.178-.053.387-.11.464-.132.076-.02.18-.05.232-.066l.22-.067a96.607 96.607 0 001.38-.393l.208-.06c.037-.012.179-.05.313-.09.135-.037.295-.085.36-.104.157-.043.322-.092.487-.138.076-.02.164-.046.197-.057.032-.01.125-.037.209-.058l.18-.048c.051-.014.021-.057-.076-.113l-.499-.271a7.806 7.806 0 00-.404-.22l-.312-.17c-.241-.135-.622-.344-1.065-.586-.053-.027-.146-.08-.208-.113a9.56 9.56 0 00-.26-.142 8.298 8.298 0 01-.232-.127l-.197-.108a31.93 31.93 0 01-.336-.184c-.12-.067-.288-.159-.371-.202-.084-.044-.2-.11-.262-.145a.615.615 0 00-.13-.067c-.01 0-.037-.02-.06-.046-.04-.044-.04-.053.011-.258a57.223 57.223 0 00.313-1.25l.232-.931c.019-.07.107-.426.197-.794.162-.66.216-.879.255-1.012.012-.037.026-.106.035-.15a68.634 68.634 0 00.29-1.162c.227-.92.26-1.05.334-1.334.018-.076.056-.221.081-.323.026-.1.053-.207.063-.234.006-.03.004-.053-.007-.053-.012 0-.376.366-.81.812-1.175 1.213-1.382 1.424-1.725 1.776l-.559.576c-.132.14-.52.538-.858.885-.338.348-.781.806-.985 1.02-.202.211-.383.384-.4.384-.015 0-.166-.023-.166-.023l-.15-.058s-.047.005-.356-.163c-.264-.147-.793-.435-.909-.5-.07-.036-.169-.091-.22-.119a5.043 5.043 0 00-.204-.113l-.22-.12a7.075 7.075 0 01-.202-.112c-.05-.028-.15-.083-.22-.12l-.336-.184-.8-.44c-.07-.036-.174-.094-.232-.123a74.9 74.9 0 00-.483-.265c-.116-.062-.215-.117-.63-.345l-.673-.37c-.07-.037-.174-.095-.232-.125a74.9 74.9 0 00-.482-.264c-.276-.15-.325-.178-.41-.226l-.22-.12-.912-.499c-.536-.294-.668-.363-.68-.354-.004.007.1.186.23.4.132.216.248.407.255.426a29.51 29.51 0 01.292.483c.163.27 1.252 2.064 1.299 2.138.014.018.093.15.176.287l.174.288a765.484 765.484 0 011.535 2.526 47.537 47.537 0 00.591.978c.286.467.517.87.513.893-.007.046-.462.525-1.744 1.838l-.559.575c-.127.134-.494.511-.811.84L.488 15.19c-.165.173-.288.315-.272.322.026.007.255-.05.48-.122.051-.016.156-.048.232-.069.077-.02.165-.046.197-.057.033-.01.125-.037.209-.058.083-.023.197-.053.255-.071.102-.03.46-.134.719-.207l.197-.058c.037-.011.128-.037.197-.055.07-.02.179-.05.244-.071.222-.065.765-.219.892-.253l.22-.067c.052-.016.156-.046.233-.067.076-.02.285-.078.463-.131l.452-.127.22-.066c.052-.016.16-.046.244-.07.084-.02.179-.05.214-.061.032-.012.095-.03.139-.042.079-.02.51-.14.69-.193.096-.03.207-.06.488-.138.35-.1.508-.138.517-.129.016.018 1.213 1.981 1.275 2.094.016.032.306.508.642 1.058.337.55.627 1.029.645 1.066.042.08.065.078.095-.012z" fill="#fff" opacity=".35"/></svg>