<svg width="41" height="40" viewBox="0 0 41 40" fill="none" xmlns="http://www.w3.org/2000/svg"><path d="M32.373 27.641a74.676 74.676 0 00-.46-.74c-.218-.34-.455-.712-.521-.823a56.319 56.319 0 00-.83-1.322c-.26-.416-.536-.845-.602-.957l-.235-.384a871.754 871.754 0 00-1.283-2.05 38.245 38.245 0 01-.615-.973c-.303-.493-.303-.482-.047-.936.071-.122.16-.285.2-.363.04-.08.119-.231.174-.337.058-.103.224-.41.368-.679.143-.271.314-.583.377-.697.063-.114.147-.272.187-.35l.173-.337a164.448 164.448 0 001.116-2.08c.064-.114.137-.255.169-.314.029-.057.145-.27.253-.473.11-.2.236-.445.29-.543.128-.236.26-.486.394-.733.063-.114.134-.247.158-.298.026-.05.1-.19.171-.313l.15-.268c.042-.076-.044-.09-.221-.039l-.895.28a3.38 3.38 0 01-.274.08c-.027.006-.225.07-.451.144l-.559.178c-.438.13-1.122.34-1.917.588-.094.031-.264.08-.374.118-.11.031-.32.095-.467.144-.148.048-.336.106-.416.129-.081.023-.242.075-.355.11-.115.037-.387.12-.604.187-.218.066-.519.158-.666.207-.148.048-.36.11-.473.144-.113.03-.215.063-.228.077-.011.011-.067.02-.124.019-.097-.004-.108-.014-.293-.308-.107-.167-.24-.379-.295-.474a96.073 96.073 0 00-.829-1.323c-.4-.633-.78-1.237-.84-1.338-.06-.1-.383-.612-.716-1.139-.598-.946-.796-1.258-.91-1.457-.03-.056-.096-.151-.137-.212a3.826 3.826 0 01-.135-.215c-.03-.055-.44-.71-.912-1.454-.831-1.32-.947-1.505-1.2-1.918-.07-.109-.199-.318-.29-.464-.09-.146-.185-.3-.207-.342-.027-.042-.057-.066-.07-.052-.014.013.003.861.035 1.883.09 2.774.105 3.26.129 4.067.01.408.032 1 .042 1.317.015.316.043 1.228.067 2.025.024.797.059 1.843.079 2.329.02.48.017.89-.002.91-.018.019-.219.17-.219.17l-.24.113s-.048.06-.602.233c-.478.144-1.426.44-1.636.503-.123.04-.303.096-.394.124a8.296 8.296 0 00-.368.113c-.108.034-.285.086-.395.123-.108.035-.272.084-.366.11-.09.029-.27.083-.394.124-.127.037-.4.123-.605.187-.607.184-1.023.314-1.44.443-.123.04-.311.098-.413.132-.18.055-.48.147-.868.268-.206.066-.386.12-1.133.351-.924.283-.972.3-1.211.372-.124.04-.312.098-.414.132-.18.055-.48.147-.868.268-.494.155-.582.181-.738.227-.092.029-.272.084-.395.124-.21.063-1.158.36-1.638.507-.965.296-1.198.374-1.2.398.002.013.335.095.738.186.408.09.768.172.798.184.032.01.127.033.216.05a1407.056 1407.056 0 004.72 1.064c.038.004.284.06.544.12l.541.122c.09.017 3.581.806 4.174.94l.587.13c.067.013.146.03.178.04.03.013.78.183 1.661.379.882.196 1.626.382 1.648.414.047.06.093 1.144.181 4.159.011.424.03 1.014.042 1.317.012.303.04 1.167.066 1.918.09 2.8.13 3.956.15 4.649.016.391.044.7.07.688.038-.022.233-.36.407-.706.04-.08.12-.24.184-.353.063-.114.134-.247.158-.299.026-.049.1-.19.171-.312.069-.125.163-.293.208-.383.082-.155.369-.695.58-1.086.054-.106.125-.239.157-.298.029-.057.103-.193.16-.296.056-.106.145-.269.195-.37.18-.336.619-1.153.724-1.343.056-.106.134-.258.174-.337.04-.078.123-.236.187-.35.063-.114.234-.426.376-.698.145-.268.31-.575.369-.678.055-.106.134-.258.173-.337.04-.079.13-.241.198-.366.071-.123.145-.27.17-.323.024-.052.075-.147.111-.212.066-.117.42-.763.564-1.037.073-.147.166-.312.395-.733.284-.527.419-.758.44-.758.04.002 3.744.829 3.95.884.056.017.954.218 1.993.449 1.038.23 1.94.434 2.004.455.144.042.167.012.096-.126z" fill="#fff" opacity=".1"/></svg>