<svg width="48" height="48" viewBox="0 0 48 48" fill="none" xmlns="http://www.w3.org/2000/svg"><path d="M8.195 17.165c.055.066.37.42.702.792.33.365.69.761.792.881.406.467.558.637 1.264 1.415.399.445.816.903.918 1.023.102.12.266.304.36.412.298.338 1.84 2.065 1.957 2.195.336.364.567.622.934 1.04.464.529.462.516.25 1.113-.06.16-.133.375-.163.477-.031.103-.094.301-.138.44a87.88 87.88 0 00-.3.89c-.113.354-.253.764-.305.913-.051.15-.12.357-.15.459l-.138.44c-.086.249-.442 1.32-.586 1.76-.075.24-.16.497-.316.963-.052.15-.11.334-.136.412-.023.074-.117.352-.204.619-.09.263-.19.582-.233.71-.106.31-.211.637-.32.96a7.76 7.76 0 00-.127.391c-.021.064-.08.249-.14.41-.056.164-.113.321-.123.353-.035.1.071.1.272 0l1.01-.518c.14-.074.282-.145.31-.154.032-.012.256-.129.51-.265.251-.132.533-.276.63-.328.496-.246 1.27-.64 2.168-1.1.106-.057.298-.151.421-.218.125-.061.363-.18.529-.27.166-.088.378-.196.47-.24.091-.044.273-.14.4-.204.13-.069.437-.225.683-.35.247-.123.587-.296.753-.385.166-.089.407-.205.535-.27a1.24 1.24 0 00.256-.14c.01-.015.076-.038.144-.047.117-.016.132-.006.413.309.163.178.365.405.45.508.082.1.652.735 1.264 1.415.608.677 1.187 1.323 1.28 1.431.093.109.584.655 1.09 1.219.91 1.011 1.212 1.345 1.388 1.56.048.061.146.162.208.226a4.7 4.7 0 01.206.23c.048.06.673.76 1.39 1.556a194.882 194.882 0 011.83 2.054c.105.116.303.34.442.496.139.156.282.321.318.368.041.045.082.067.095.048.013-.02-.182-1.033-.432-2.252-.682-3.307-.8-3.887-.996-4.85-.097-.487-.245-1.194-.322-1.571-.084-.377-.306-1.465-.5-2.415-.193-.95-.452-2.198-.576-2.776-.123-.572-.205-1.065-.187-1.091.019-.027.226-.25.226-.25l.265-.185s.045-.082.67-.403c.54-.271 1.611-.822 1.848-.941.14-.074.343-.176.446-.23.107-.05.293-.143.416-.21.121-.064.322-.162.446-.23.121-.063.307-.156.414-.207.103-.053.306-.155.445-.23.143-.07.453-.23.683-.348.687-.346 1.157-.587 1.628-.828.139-.074.351-.181.466-.244.204-.102.544-.275.98-.5.234-.121.437-.224 1.281-.654 1.045-.529 1.1-.56 1.37-.695.139-.074.351-.181.466-.244.204-.102.544-.275.98-.5.558-.287.659-.337.835-.424.103-.054.307-.156.446-.23.237-.12 1.308-.67 1.852-.945 1.09-.554 1.353-.695 1.35-.724-.006-.016-.42-.045-.92-.071a25.207 25.207 0 01-.991-.058 3.316 3.316 0 00-.269-.014 1699.486 1699.486 0 00-5.856-.304c-.046.003-.351-.014-.673-.032a1504.528 1504.528 0 01-5.85-.305c-.318-.015-.647-.03-.728-.035-.083 0-.18-.005-.22-.01-.04-.01-.969-.058-2.062-.112-1.094-.054-2.02-.124-2.053-.157-.069-.063-.349-1.353-1.078-4.951-.1-.506-.245-1.21-.322-1.571-.077-.361-.289-1.391-.476-2.287-.688-3.34-.974-4.718-1.141-5.544-.1-.466-.198-.83-.227-.81-.04.034-.204.478-.339.93-.03.103-.095.311-.147.461-.052.15-.109.324-.127.39-.02.065-.08.25-.14.41-.055.164-.134.386-.168.503-.066.202-.296.909-.467 1.42-.044.14-.101.313-.127.391-.022.075-.082.253-.13.388-.044.139-.117.353-.156.483-.144.44-.5 1.511-.587 1.76l-.137.44c-.031.103-.099.309-.15.459-.053.15-.193.56-.306.914-.117.352-.252.754-.3.89l-.137.439c-.031.102-.104.316-.16.48a6.68 6.68 0 00-.137.423c-.018.066-.058.19-.089.276a94.997 94.997 0 00-.458 1.36c-.057.19-.133.409-.32.96-.23.69-.343.995-.369 1-.048.006-4.64-.223-4.897-.247-.072-.009-1.186-.066-2.474-.128a144.987 144.987 0 01-2.487-.133c-.18-.021-.203.02-.088.17z" fill="#fff" opacity=".2"/></svg>