<svg width="260" height="31" viewBox="0 0 260 31" fill="none" xmlns="http://www.w3.org/2000/svg"><path d="M2.862 19.588v-5.634h-1.8v-.99h1.8v-1.926l1.08-.468v2.394h2.052v.99H3.942v6.048c-.024.852.39 1.278 1.242 1.278.396 0 .708-.036.936-.108v.936a4.34 4.34 0 01-1.098.162c-.348 0-.654-.03-.918-.09a1.34 1.34 0 01-.612-.306 3.704 3.704 0 01-.378-.396c-.084-.12-.144-.3-.18-.54-.036-.24-.06-.426-.072-.558v-.612-.18zm11.053.522c.516-.78.774-1.656.774-2.628 0-.972-.258-1.848-.774-2.628s-1.272-1.17-2.268-1.17c-.996 0-1.752.39-2.268 1.17a4.658 4.658 0 00-.774 2.628c0 .972.258 1.848.774 2.628s1.272 1.17 2.268 1.17c.996 0 1.752-.39 2.268-1.17zm-5.4-5.994c.732-.948 1.776-1.422 3.132-1.422s2.394.474 3.114 1.422c.732.948 1.098 2.07 1.098 3.366 0 1.296-.366 2.418-1.098 3.366-.72.948-1.758 1.422-3.114 1.422-1.356 0-2.4-.474-3.132-1.422-.72-.948-1.08-2.07-1.08-3.366 0-1.296.36-2.418 1.08-3.366zm21.455 1.62H28.8c-.084-1.368-.906-2.052-2.466-2.052-.804 0-1.452.366-1.944 1.098-.492.732-.738 1.626-.738 2.682 0 1.068.246 1.974.738 2.718.492.732 1.14 1.098 1.944 1.098.696 0 1.266-.192 1.71-.576.456-.396.708-.906.756-1.53h1.17c-.288 2.064-1.464 3.096-3.528 3.096-1.272 0-2.25-.462-2.934-1.386-.684-.936-1.026-2.07-1.026-3.402 0-1.32.354-2.448 1.062-3.384.708-.936 1.698-1.404 2.97-1.404.96 0 1.764.276 2.412.828.648.54.996 1.278 1.044 2.214zm3.204-6.732v5.328h.036c.612-1.092 1.554-1.638 2.826-1.638.564 0 1.05.096 1.458.288.42.192.732.42.936.684.216.264.384.582.504.954.132.372.21.684.234.936.036.252.054.516.054.792V22h-1.08v-5.832c0-.78-.21-1.386-.63-1.818-.42-.444-1.002-.666-1.746-.666-.84 0-1.482.3-1.926.9-.444.6-.666 1.338-.666 2.214V22h-1.08V9.004h1.08zm8.94 3.96h1.08V22h-1.08v-9.036zm1.17-3.96v1.35h-1.26v-1.35h1.26zm3.9 0V22h-1.08V9.004h1.08zm9.085 8.262c0-1.02-.24-1.872-.72-2.556-.48-.684-1.212-1.026-2.196-1.026-.648 0-1.188.192-1.62.576-.42.372-.708.822-.864 1.35a5.892 5.892 0 00-.234 1.71c0 .468.036.918.108 1.35.084.42.21.84.378 1.26.18.408.444.738.792.99.36.24.786.36 1.278.36.744 0 1.356-.198 1.836-.594.48-.396.804-.876.972-1.44.18-.576.27-1.236.27-1.98zm.09 4.734l-.054-1.332-.036-.072c-.768 1.116-1.8 1.674-3.096 1.674a3.385 3.385 0 01-1.71-.432 3.313 3.313 0 01-1.17-1.134 6.325 6.325 0 01-.63-1.53 7.406 7.406 0 01-.198-1.728c0-.828.114-1.584.342-2.268a3.924 3.924 0 011.224-1.764c.576-.48 1.29-.72 2.142-.72.624 0 1.218.144 1.782.432.576.288 1.014.69 1.314 1.206l.036-.036V9.004h1.08v10.962c0 .336.03 1.014.09 2.034h-1.116zm4.8-5.436V22h-1.08v-7.002c0-.228-.03-.906-.09-2.034h1.116l.054 1.332h.036a2.57 2.57 0 01.81-1.134c.372-.3.78-.456 1.224-.468.24-.012.6-.006 1.08.018v1.044c-.048 0-.15-.012-.306-.036a2.552 2.552 0 00-.36-.036c-.78 0-1.386.258-1.818.774-.42.516-.642 1.218-.666 2.106zm12.211 1.17h-6.984c.024 1.044.288 1.896.792 2.556.516.66 1.296.99 2.34.99.636 0 1.194-.204 1.674-.612.492-.408.804-.924.936-1.548h1.134c-.54 2.1-1.902 3.15-4.086 3.15-1.272 0-2.25-.462-2.934-1.386-.684-.936-1.026-2.07-1.026-3.402 0-1.32.354-2.448 1.062-3.384.708-.936 1.698-1.404 2.97-1.404 1.428 0 2.472.462 3.132 1.386.66.912.99 2.13.99 3.654zm-6.948-.99H72.2c-.072-.924-.354-1.662-.846-2.214-.492-.564-1.188-.846-2.088-.846-.828 0-1.488.294-1.98.882-.492.588-.78 1.314-.864 2.178zm10.416.054V22h-1.08v-7.002c0-.336-.03-1.014-.09-2.034h1.116l.054 1.332.036.036c.612-1.092 1.554-1.638 2.826-1.638.564 0 1.05.096 1.458.288.42.192.732.42.936.684.216.264.384.582.504.954.132.372.21.684.234.936.036.252.054.516.054.792V22h-1.08v-5.832c0-.78-.21-1.386-.63-1.818-.42-.444-1.002-.666-1.746-.666-.84 0-1.482.3-1.926.9-.444.6-.666 1.338-.666 2.214zm13.626-1.584c0-.864.324-1.5.972-1.908.648-.408 1.428-.612 2.34-.612 2.076 0 3.174.834 3.294 2.502H95.9c-.096-1.008-.84-1.512-2.232-1.512-.564 0-1.044.12-1.44.36-.396.24-.594.606-.594 1.098 0 .252.06.462.18.63.132.168.336.312.612.432.276.108.558.204.846.288.3.072.696.174 1.188.306.504.132.96.27 1.368.414.468.168.84.444 1.116.828.276.372.414.798.414 1.278 0 .96-.372 1.692-1.116 2.196-.744.504-1.638.756-2.682.756a4.87 4.87 0 01-1.584-.252c-.48-.168-.9-.468-1.26-.9s-.546-.96-.558-1.584h1.17c.036.624.288 1.074.756 1.35.468.264 1.05.396 1.746.396.636 0 1.188-.15 1.656-.45.468-.312.702-.762.702-1.35 0-.372-.144-.684-.432-.936-.276-.252-.552-.42-.828-.504a16.428 16.428 0 00-1.296-.324 3.347 3.347 0 00-.306-.072 20.46 20.46 0 01-1.08-.288 5.55 5.55 0 01-.864-.414 1.794 1.794 0 01-.702-.702c-.144-.288-.216-.63-.216-1.026zm16.92 2.52H100.4c.024 1.044.288 1.896.792 2.556.516.66 1.296.99 2.34.99.636 0 1.194-.204 1.674-.612.492-.408.804-.924.936-1.548h1.134c-.54 2.1-1.902 3.15-4.086 3.15-1.272 0-2.25-.462-2.934-1.386-.684-.936-1.026-2.07-1.026-3.402 0-1.32.354-2.448 1.062-3.384.708-.936 1.698-1.404 2.97-1.404 1.428 0 2.472.462 3.132 1.386.66.912.99 2.13.99 3.654zm-6.948-.99h5.778c-.072-.924-.354-1.662-.846-2.214-.492-.564-1.188-.846-2.088-.846-.828 0-1.488.294-1.98.882-.492.588-.78 1.314-.864 2.178zm9.714 2.736c0 .588.192 1.038.576 1.35.384.3.87.45 1.458.45 1.944 0 2.844-1.278 2.7-3.834-.108 0-.354.006-.738.018-.372 0-.666.006-.882.018-.216.012-.504.036-.864.072s-.654.102-.882.198a3.64 3.64 0 00-.684.342 1.421 1.421 0 00-.522.576 1.876 1.876 0 00-.162.81zm4.734-3.024v-.828c-.048-.708-.252-1.206-.612-1.494-.348-.3-.858-.45-1.53-.45-1.356 0-2.094.522-2.214 1.566h-1.152c.252-1.704 1.38-2.556 3.384-2.556 1.032 0 1.824.246 2.376.738.564.492.84 1.242.828 2.25v4.284c0 .228.03.906.09 2.034h-1.116l-.036-1.332h-.036l-.054.126c-.204.396-.582.744-1.134 1.044a3.548 3.548 0 01-1.692.432c-.864 0-1.584-.252-2.16-.756-.564-.504-.846-1.182-.846-2.034 0-.6.162-1.128.486-1.584.336-.456.78-.798 1.332-1.026.36-.156.756-.258 1.188-.306.432-.06.972-.09 1.62-.09.66 0 1.086-.006 1.278-.018zm4.968.108V22h-1.08v-7.002c0-.228-.03-.906-.09-2.034h1.116l.054 1.332h.036a2.57 2.57 0 01.81-1.134c.372-.3.78-.456 1.224-.468.24-.012.6-.006 1.08.018v1.044c-.048 0-.15-.012-.306-.036a2.552 2.552 0 00-.36-.036c-.78 0-1.386.258-1.818.774-.42.516-.642 1.218-.666 2.106zm11.474-.828h-1.17c-.084-1.368-.906-2.052-2.466-2.052-.804 0-1.452.366-1.944 1.098-.492.732-.738 1.626-.738 2.682 0 1.068.246 1.974.738 2.718.492.732 1.14 1.098 1.944 1.098.696 0 1.266-.192 1.71-.576.456-.396.708-.906.756-1.53h1.17c-.288 2.064-1.464 3.096-3.528 3.096-1.272 0-2.25-.462-2.934-1.386-.684-.936-1.026-2.07-1.026-3.402 0-1.32.354-2.448 1.062-3.384.708-.936 1.698-1.404 2.97-1.404.96 0 1.764.276 2.412.828.648.54.996 1.278 1.044 2.214zm3.204-6.732v5.328h.036c.612-1.092 1.554-1.638 2.826-1.638.564 0 1.05.096 1.458.288.42.192.732.42.936.684.216.264.384.582.504.954.132.372.21.684.234.936.036.252.054.516.054.792V22h-1.08v-5.832c0-.78-.21-1.386-.63-1.818-.42-.444-1.002-.666-1.746-.666-.84 0-1.482.3-1.926.9-.444.6-.666 1.338-.666 2.214V22h-1.08V9.004h1.08zm8.94 3.96h1.08V22h-1.08v-9.036zm1.17-3.96v1.35h-1.26v-1.35h1.26zm3.882 7.794V22h-1.08v-7.002c0-.336-.03-1.014-.09-2.034h1.116l.054 1.332.036.036c.612-1.092 1.554-1.638 2.826-1.638.564 0 1.05.096 1.458.288.42.192.732.42.936.684.216.264.384.582.504.954.132.372.21.684.234.936.036.252.054.516.054.792V22h-1.08v-5.832c0-.78-.21-1.386-.63-1.818-.42-.444-1.002-.666-1.746-.666-.84 0-1.482.3-1.926.9-.444.6-.666 1.338-.666 2.214zm15.15.486c0-.948-.258-1.782-.774-2.502-.504-.732-1.212-1.098-2.124-1.098-.612 0-1.14.192-1.584.576a3.311 3.311 0 00-.936 1.386 5.152 5.152 0 00-.27 1.674c0 .948.24 1.794.72 2.538.492.744 1.194 1.116 2.106 1.116.96 0 1.674-.366 2.142-1.098.48-.732.72-1.596.72-2.592zm0-2.988l.054-1.332h1.116c-.06 1.02-.09 1.698-.09 2.034v5.634c0 .468-.006.822-.018 1.062 0 .24-.036.558-.108.954-.06.408-.156.732-.288.972-.12.24-.306.492-.558.756a2.82 2.82 0 01-.936.666c-.576.276-1.26.414-2.052.414-.612 0-1.17-.072-1.674-.216a2.896 2.896 0 01-1.332-.774c-.384-.372-.576-.852-.576-1.44h1.17c.06.492.336.852.828 1.08.492.24 1.068.36 1.728.36a2.82 2.82 0 001.908-.702c.54-.468.816-1.068.828-1.8v-1.692h-.036c-.252.516-.654.93-1.206 1.242a3.57 3.57 0 01-1.728.45c-1.296 0-2.268-.426-2.916-1.278-.648-.852-.972-1.944-.972-3.276 0-.864.126-1.638.378-2.322a3.782 3.782 0 011.26-1.71c.6-.456 1.338-.684 2.214-.684 1.212 0 2.202.558 2.97 1.674l.036-.072zM174.31 22h-1.08v-8.046h-1.818v-.99h1.818v-1.926c0-.78.168-1.35.504-1.71.348-.36.906-.54 1.674-.54.096 0 .438.066 1.026.198v.864a4.363 4.363 0 00-.666-.072c-.672 0-1.092.15-1.26.45-.168.3-.234.828-.198 1.584v1.152h2.052v.99h-2.052V22zm9.972-1.89c.516-.78.774-1.656.774-2.628 0-.972-.258-1.848-.774-2.628s-1.272-1.17-2.268-1.17c-.996 0-1.752.39-2.268 1.17a4.658 4.658 0 00-.774 2.628c0 .972.258 1.848.774 2.628s1.272 1.17 2.268 1.17c.996 0 1.752-.39 2.268-1.17zm-5.4-5.994c.732-.948 1.776-1.422 3.132-1.422s2.394.474 3.114 1.422c.732.948 1.098 2.07 1.098 3.366 0 1.296-.366 2.418-1.098 3.366-.72.948-1.758 1.422-3.114 1.422-1.356 0-2.4-.474-3.132-1.422-.72-.948-1.08-2.07-1.08-3.366 0-1.296.36-2.418 1.08-3.366zm10.65 2.448V22h-1.08v-7.002c0-.228-.03-.906-.09-2.034h1.116l.054 1.332h.036a2.57 2.57 0 01.81-1.134c.372-.3.78-.456 1.224-.468.24-.012.6-.006 1.08.018v1.044c-.048 0-.15-.012-.306-.036a2.552 2.552 0 00-.36-.036c-.78 0-1.386.258-1.818.774-.42.516-.642 1.218-.666 2.106zm9.96-3.6l2.7 7.614h.036l2.736-7.614h1.278l2.664 7.542h.036l2.61-7.542h1.188L209.374 22h-1.026l-2.772-7.794h-.036L202.714 22h-1.098l-3.312-9.036h1.188zm15.336 6.516c0 .588.192 1.038.576 1.35.384.3.87.45 1.458.45 1.944 0 2.844-1.278 2.7-3.834-.108 0-.354.006-.738.018-.372 0-.666.006-.882.018-.216.012-.504.036-.864.072s-.654.102-.882.198a3.64 3.64 0 00-.684.342 1.421 1.421 0 00-.522.576 1.876 1.876 0 00-.162.81zm4.734-3.024v-.828c-.048-.708-.252-1.206-.612-1.494-.348-.3-.858-.45-1.53-.45-1.356 0-2.094.522-2.214 1.566h-1.152c.252-1.704 1.38-2.556 3.384-2.556 1.032 0 1.824.246 2.376.738.564.492.84 1.242.828 2.25v4.284c0 .228.03.906.09 2.034h-1.116l-.036-1.332h-.036l-.054.126c-.204.396-.582.744-1.134 1.044a3.548 3.548 0 01-1.692.432c-.864 0-1.584-.252-2.16-.756-.564-.504-.846-1.182-.846-2.034 0-.6.162-1.128.486-1.584.336-.456.78-.798 1.332-1.026.36-.156.756-.258 1.188-.306.432-.06.972-.09 1.62-.09.66 0 1.086-.006 1.278-.018zm4.662 3.132v-5.634h-1.8v-.99h1.8v-1.926l1.08-.468v2.394h2.052v.99h-2.052v6.048c-.024.852.39 1.278 1.242 1.278.396 0 .708-.036.936-.108v.936a4.34 4.34 0 01-1.098.162c-.348 0-.654-.03-.918-.09a1.34 1.34 0 01-.612-.306 3.704 3.704 0 01-.378-.396c-.084-.12-.144-.3-.18-.54-.036-.24-.06-.426-.072-.558v-.612-.18zm12.834-1.854h-6.984c.024 1.044.288 1.896.792 2.556.516.66 1.296.99 2.34.99.636 0 1.194-.204 1.674-.612.492-.408.804-.924.936-1.548h1.134c-.54 2.1-1.902 3.15-4.086 3.15-1.272 0-2.25-.462-2.934-1.386-.684-.936-1.026-2.07-1.026-3.402 0-1.32.354-2.448 1.062-3.384.708-.936 1.698-1.404 2.97-1.404 1.428 0 2.472.462 3.132 1.386.66.912.99 2.13.99 3.654zm-6.948-.99h5.778c-.072-.924-.354-1.662-.846-2.214-.492-.564-1.188-.846-2.088-.846-.828 0-1.488.294-1.98.882-.492.588-.78 1.314-.864 2.178zm10.416-.18V22h-1.08v-7.002c0-.228-.03-.906-.09-2.034h1.116l.054 1.332h.036a2.57 2.57 0 01.81-1.134c.372-.3.78-.456 1.224-.468.24-.012.6-.006 1.08.018v1.044c-.048 0-.15-.012-.306-.036a2.552 2.552 0 00-.36-.036c-.78 0-1.386.258-1.818.774-.42.516-.642 1.218-.666 2.106z" fill="#fff"/></svg>