<svg width="44" height="44" viewBox="0 0 44 44" fill="none" xmlns="http://www.w3.org/2000/svg"><path d="M4.93 19.981c.072.047.475.297.899.56.42.255.878.532 1.01.618.522.332.715.452 1.614.997.509.313 1.04.633 1.171.719.132.085.342.215.462.293.383.239 2.352 1.455 2.502 1.547.426.253.72.434 1.192.73.595.375.589.363.556.995-.01.172-.02.398-.02.505 0 .107-.004.315-.007.46-.007.144-.022.568-.034.938-.008.373-.025.805-.032.964-.007.158-.013.375-.014.482 0 .107-.004.315-.006.46-.012.265-.048 1.392-.06 1.855-.004.252-.013.522-.03 1.013-.007.159-.01.352-.012.434-.001.078-.013.371-.02.651-.011.279-.017.613-.02.748-.013.327-.021.67-.034 1.012a7.733 7.733 0 00-.01.41c-.002.068-.006.261-.017.433-.007.173-.017.34-.018.374-.005.105.097.075.261-.078.188-.178.542-.518.82-.785.113-.11.23-.219.255-.235.026-.02.207-.197.412-.4.203-.197.432-.416.51-.493.405-.378 1.036-.975 1.765-1.672.085-.085.242-.23.342-.33.102-.093.296-.275.43-.407.134-.133.307-.297.382-.366.075-.068.222-.211.326-.31.105-.102.354-.339.555-.528.2-.19.477-.452.611-.584.134-.133.332-.313.436-.411.107-.093.199-.185.206-.207.006-.018.062-.058.124-.087.107-.049.125-.043.484.178.207.125.465.285.576.36.108.072.835.518 1.615.996.775.476 1.514.93 1.634 1.008.12.077.747.462 1.393.857 1.16.71 1.544.945 1.774 1.101.064.045.187.113.264.158.078.044.195.115.263.161.063.045.862.538 1.775 1.097 1.616.992 1.842 1.132 2.34 1.447.134.081.387.24.565.35.177.11.362.227.409.262.053.031.098.04.105.019.007-.023-.469-.938-1.056-2.036-1.596-2.976-1.874-3.498-2.336-4.366-.232-.439-.575-1.074-.756-1.414a236.22 236.22 0 01-1.167-2.173c-.456-.856-1.06-1.978-1.343-2.497-.28-.513-.5-.962-.49-.993.01-.031.146-.304.146-.304l.2-.253s.02-.09.528-.576c.441-.415 1.31-1.247 1.504-1.43.112-.11.278-.266.362-.346.088-.08.24-.22.339-.32.098-.096.262-.248.361-.348.099-.095.25-.236.338-.316.084-.08.25-.236.362-.347.117-.108.368-.35.555-.528.56-.528.942-.893 1.324-1.258.112-.11.285-.274.377-.366.166-.157.443-.419.798-.758.189-.184.355-.34 1.041-.993.85-.804.894-.849 1.115-1.056.112-.11.285-.274.378-.366.165-.157.442-.419.797-.759.453-.434.535-.51.68-.645.083-.08.249-.236.361-.347.193-.181 1.063-1.014 1.505-1.433.887-.841 1.1-1.051 1.089-1.079-.01-.013-.416.077-.903.194-.492.12-.927.226-.966.228-.04.006-.156.033-.261.062a1682.71 1682.71 0 00-5.7 1.376c-.044.016-.341.087-.655.162-.318.074-.612.146-.654.156-.106.03-4.323 1.046-5.04 1.217l-.707.174c-.08.023-.175.046-.215.053-.04.002-.945.22-2.008.48-1.064.26-1.972.456-2.013.434-.083-.042-.719-1.198-2.443-4.44-.24-.456-.58-1.09-.756-1.414-.177-.324-.674-1.251-1.107-2.056-1.611-3.006-2.278-4.246-2.674-4.99-.229-.419-.426-.74-.449-.713-.028.045-.058.517-.06.989 0 .107-.001.325-.008.484a7.845 7.845 0 00-.01.41c-.003.068-.007.261-.018.433-.007.173-.019.407-.02.53-.004.212-.024.955-.041 1.495l-.01.41c-.001.078-.008.265-.015.41-.003.144-.012.37-.012.506-.013.464-.049 1.591-.06 1.855-.004.145-.007.353-.007.46 0 .107-.007.324-.014.483-.007.158-.025.59-.032.963-.012.371-.027.795-.034.939l-.007.46c0 .107-.01.333-.016.506a6.672 6.672 0 00-.012.444c.003.069 0 .2-.005.29a95.168 95.168 0 00-.052 1.434c0 .2-.012.43-.033 1.012-.024.727-.046 1.051-.069 1.064a423.98 423.98 0 01-4.765 1.158c-.071.011-1.155.274-2.407.58-1.253.307-2.34.569-2.422.582-.18.03-.189.076-.036.188z" fill="#fff" opacity=".1"/></svg>