<svg width="406" height="66" viewBox="0 0 406 66" fill="none" xmlns="http://www.w3.org/2000/svg"><path d="M.448 7.84h5.068l4.172 9.212 4.256-9.212h4.452l-6.832 12.796V28H7.28v-7.42L.448 7.84zm16.287 13.216c0-.915.12-1.792.364-2.632a8.572 8.572 0 011.176-2.38c.54-.765 1.306-1.372 2.296-1.82.989-.467 2.146-.7 3.472-.7 2.426 0 4.256.71 5.488 2.128 1.232 1.4 1.848 3.164 1.848 5.292 0 2.147-.635 3.948-1.904 5.404-1.251 1.437-3.09 2.156-5.516 2.156-2.11 0-3.846-.644-5.208-1.932-1.344-1.288-2.016-3.127-2.016-5.516zm4.256.028c0 3.024 1.036 4.536 3.108 4.536.989 0 1.745-.364 2.268-1.092.522-.728.784-1.979.784-3.752 0-2.987-1.036-4.48-3.108-4.48-2.035 0-3.052 1.596-3.052 4.788zm13.365-7.224h4.2v9.268c.018.187.065.448.14.784.074.317.186.57.336.756.15.187.364.355.644.504.298.15.662.224 1.092.224.522 0 .952-.084 1.288-.252.354-.168.616-.355.784-.56.186-.224.326-.56.42-1.008a6.1 6.1 0 00.14-1.148c.018-.317.028-.793.028-1.428v-7.14h4.256v9.324c.018.877.028 1.615.028 2.212.018.579.028.961.028 1.148.018.187.028.327.028.42.018.336.056.681.112 1.036h-4.032l-.14-1.876c-1.027 1.493-2.418 2.24-4.172 2.24-.915 0-1.755-.177-2.52-.532-.747-.373-1.326-.83-1.736-1.372-.616-.765-.924-2.035-.924-3.808V13.86zM51.613 28V17.332c0-1.083-.065-2.259-.196-3.528h3.892l.084 2.716c.168-.392.336-.719.504-.98.187-.261.457-.55.812-.868.355-.336.83-.579 1.428-.728.597-.15 1.288-.205 2.072-.168V17.5c-.99-.093-1.81-.056-2.464.112-.635.168-1.092.457-1.372.868-.261.41-.43.803-.504 1.176-.075.355-.112.812-.112 1.372V28h-4.144zm28.196-14.084H83.7a35.556 35.556 0 00-.196 3.5V27.86c0 3.808-2.352 5.712-7.056 5.712-3.958 0-6.03-1.512-6.216-4.536h3.976c.168 1.307.99 1.96 2.464 1.96.653 0 1.213-.159 1.68-.476.466-.317.765-.775.896-1.372.112-.448.177-1.568.196-3.36-.97 1.288-2.24 1.932-3.808 1.932-1.904 0-3.379-.69-4.424-2.072-1.027-1.381-1.54-3.005-1.54-4.872 0-1.923.522-3.565 1.568-4.928 1.064-1.381 2.557-2.072 4.48-2.072 1.717 0 3.033.672 3.948 2.016l.14-1.876zm-5.992 6.86c0 .355.018.69.056 1.008.037.299.13.728.28 1.288.15.541.43.98.84 1.316.43.336.961.504 1.596.504.672 0 1.222-.168 1.652-.504a2.4 2.4 0 00.896-1.316c.168-.56.27-.99.308-1.288.037-.299.056-.607.056-.924 0-2.875-.943-4.312-2.828-4.312-.84 0-1.53.345-2.072 1.036-.523.69-.784 1.755-.784 3.192zm26.413 1.204h-9.492c0 2.52.961 3.78 2.884 3.78 1.325 0 2.147-.653 2.464-1.96h3.78c-.093 1.213-.541 2.24-1.344 3.08-1.045 1.101-2.697 1.652-4.956 1.652-2.184 0-3.845-.588-4.984-1.764-1.213-1.27-1.82-3.108-1.82-5.516 0-3.099.98-5.33 2.94-6.692 1.176-.784 2.501-1.176 3.976-1.176 1.157 0 2.25.27 3.276.812 1.027.523 1.839 1.39 2.436 2.604.653 1.344.933 3.07.84 5.18zm-9.352-2.604h5.124c0-.28-.019-.541-.056-.784-.037-.261-.13-.597-.28-1.008a1.787 1.787 0 00-.756-.98c-.355-.261-.812-.392-1.372-.392-.859 0-1.512.299-1.96.896-.43.597-.663 1.353-.7 2.268zM103.02 28V16.38c0-1.064-.028-1.923-.084-2.576h3.976l.112 2.128c1.008-1.643 2.538-2.464 4.592-2.464 1.232 0 2.193.28 2.884.84.709.541 1.185 1.148 1.428 1.82.261.728.392 2.137.392 4.228V28h-4.228v-8.792c0-.728-.075-1.241-.224-1.54-.392-.803-1.064-1.204-2.016-1.204s-1.671.364-2.156 1.092c-.336.485-.504 1.204-.504 2.156V28h-4.172zm29.885-6.02h-9.492c0 2.52.961 3.78 2.884 3.78 1.325 0 2.146-.653 2.464-1.96h3.78c-.094 1.213-.542 2.24-1.344 3.08-1.046 1.101-2.698 1.652-4.956 1.652-2.184 0-3.846-.588-4.984-1.764-1.214-1.27-1.82-3.108-1.82-5.516 0-3.099.98-5.33 2.94-6.692 1.176-.784 2.501-1.176 3.976-1.176 1.157 0 2.249.27 3.276.812 1.026.523 1.838 1.39 2.436 2.604.653 1.344.933 3.07.84 5.18zm-9.352-2.604h5.124c0-.28-.019-.541-.056-.784a5.376 5.376 0 00-.28-1.008 1.79 1.79 0 00-.756-.98c-.355-.261-.812-.392-1.372-.392-.859 0-1.512.299-1.96.896-.43.597-.663 1.353-.7 2.268zM135.64 28V17.332c0-1.083-.065-2.259-.196-3.528h3.892l.084 2.716c.168-.392.336-.719.504-.98.187-.261.458-.55.812-.868.355-.336.831-.579 1.428-.728.598-.15 1.288-.205 2.072-.168V17.5c-.989-.093-1.81-.056-2.464.112-.634.168-1.092.457-1.372.868-.261.41-.429.803-.504 1.176-.074.355-.112.812-.112 1.372V28h-4.144zm9.747-6.944c0-.915.121-1.792.364-2.632a8.556 8.556 0 011.176-2.38c.541-.765 1.307-1.372 2.296-1.82.989-.467 2.147-.7 3.472-.7 2.427 0 4.256.71 5.488 2.128 1.232 1.4 1.848 3.164 1.848 5.292 0 2.147-.635 3.948-1.904 5.404-1.251 1.437-3.089 2.156-5.516 2.156-2.109 0-3.845-.644-5.208-1.932-1.344-1.288-2.016-3.127-2.016-5.516zm4.256.028c0 3.024 1.036 4.536 3.108 4.536.989 0 1.745-.364 2.268-1.092.523-.728.784-1.979.784-3.752 0-2.987-1.036-4.48-3.108-4.48-2.035 0-3.052 1.596-3.052 4.788zm12.497 2.828h3.892c.037.523.243.98.616 1.372.373.373.952.56 1.736.56.691 0 1.223-.159 1.596-.476.392-.336.588-.737.588-1.204 0-.355-.14-.653-.42-.896-.261-.261-.775-.495-1.54-.7l-2.576-.7c-.448-.13-.812-.252-1.092-.364a10.85 10.85 0 01-1.092-.616 2.768 2.768 0 01-1.036-1.176c-.243-.504-.364-1.092-.364-1.764 0-1.363.569-2.436 1.708-3.22 1.139-.803 2.632-1.204 4.48-1.204 1.531 0 2.791.355 3.78 1.064 1.008.71 1.54 1.745 1.596 3.108h-3.78c-.075-1.12-.747-1.68-2.016-1.68-.579 0-1.055.13-1.428.392a1.155 1.155 0 00-.532 1.008c0 .43.14.737.42.924.28.168.784.355 1.512.56l2.548.7c2.52.69 3.78 2.007 3.78 3.948 0 1.325-.569 2.473-1.708 3.444-1.12.952-2.716 1.428-4.788 1.428-2.128 0-3.743-.579-4.844-1.736-.635-.672-.98-1.596-1.036-2.772zm14.868-12.516V7.784h4.424v3.612h-4.424zm.14 16.604V13.832h4.144V28h-4.144zm16.109-2.912v2.716a12.275 12.275 0 01-3.22.448c-.784 0-1.465-.103-2.044-.308-.56-.205-.971-.43-1.232-.672-.261-.243-.467-.57-.616-.98-.149-.43-.233-.756-.252-.98a10.702 10.702 0 01-.028-.868v-7.756h-2.716v-2.744h2.716v-2.772l4.116-1.512v4.284h3.36v2.744h-3.36v6.384c0 .41.009.71.028.896.037.187.112.392.224.616a.954.954 0 00.56.476c.261.075.616.112 1.064.112.429 0 .896-.028 1.4-.084zm1.139-11.228h4.48l3.108 9.8 3.164-9.8h4.116l-5.348 13.888-1.708 5.628h-4.172l1.792-5.32-5.432-14.196zM.14 42.86h4.396L7.14 53.528l2.996-10.668H14.7l2.968 10.668L20.44 42.86h4.116L19.712 57h-4.508l-2.912-10.472L9.324 57H4.76L.14 42.86zm26.423-2.464v-3.612h4.424v3.612h-4.424zM26.703 57V42.832h4.144V57h-4.144zm7.793 0V36.756h4.144V57h-4.144zm7.793 0V36.756h4.144V57h-4.144zm15.446 0V36.812h4.144v7.756c.97-1.27 2.305-1.904 4.004-1.904 1.773 0 3.238.672 4.396 2.016 1.176 1.325 1.764 3.145 1.764 5.46 0 1.27-.178 2.38-.532 3.332-.336.952-.794 1.699-1.372 2.24a6.078 6.078 0 01-1.876 1.176 5.82 5.82 0 01-2.128.392c-1.96 0-3.379-.756-4.256-2.268-.056 1.027-.103 1.69-.14 1.988h-4.004zm10.08-6.72c0-3.23-1.018-4.844-3.052-4.844-2.035 0-3.052 1.456-3.052 4.368 0 1.55.298 2.735.896 3.556.597.803 1.381 1.204 2.352 1.204.541 0 .998-.13 1.372-.392.392-.261.681-.55.868-.868.186-.336.326-.737.42-1.204.112-.485.168-.84.168-1.064.018-.243.028-.495.028-.756zM74.992 57V46.332c0-1.083-.066-2.259-.196-3.528h3.892l.084 2.716c.168-.392.336-.719.504-.98.187-.261.457-.55.812-.868.355-.336.83-.579 1.428-.728.597-.15 1.288-.205 2.072-.168V46.5c-.99-.093-1.81-.056-2.464.112-.635.168-1.092.457-1.372.868-.261.41-.43.803-.504 1.176-.075.355-.112.812-.112 1.372V57h-4.144zm10.743-16.604v-3.612h4.424v3.612h-4.424zM85.875 57V42.832h4.144V57h-4.144zm7.849 0V45.38c0-1.064-.028-1.923-.084-2.576h3.976l.112 2.128c1.008-1.643 2.538-2.464 4.592-2.464 1.232 0 2.193.28 2.884.84.709.541 1.185 1.148 1.428 1.82.261.728.392 2.137.392 4.228V57h-4.228v-8.792c0-.728-.075-1.241-.224-1.54-.392-.803-1.064-1.204-2.016-1.204s-1.671.364-2.156 1.092c-.336.485-.504 1.204-.504 2.156V57h-4.172zm26.581-14.084h3.892a35.463 35.463 0 00-.196 3.5V56.86c0 3.808-2.352 5.712-7.056 5.712-3.957 0-6.029-1.512-6.216-4.536h3.976c.168 1.307.989 1.96 2.464 1.96.653 0 1.213-.159 1.68-.476.467-.317.765-.775.896-1.372.112-.448.177-1.568.196-3.36-.971 1.288-2.24 1.932-3.808 1.932-1.904 0-3.379-.69-4.424-2.072-1.027-1.381-1.54-3.005-1.54-4.872 0-1.923.523-3.565 1.568-4.928 1.064-1.381 2.557-2.072 4.48-2.072 1.717 0 3.033.672 3.948 2.016l.14-1.876zm-5.992 6.86c0 .355.019.69.056 1.008.037.299.131.728.28 1.288.149.541.429.98.84 1.316.429.336.961.504 1.596.504.672 0 1.223-.168 1.652-.504.448-.336.747-.775.896-1.316.168-.56.271-.99.308-1.288.037-.299.056-.607.056-.924 0-2.875-.943-4.312-2.828-4.312-.84 0-1.531.345-2.072 1.036-.523.69-.784 1.755-.784 3.192zM135.807 57V36.784h4.116v8.008c1.008-1.419 2.371-2.128 4.088-2.128 1.755 0 3.127.635 4.116 1.904.616.859.924 2.137.924 3.836V57h-4.116v-8.456c0-2.053-.775-3.08-2.324-3.08-.709 0-1.335.233-1.876.7-.523.448-.784 1.176-.784 2.184l.028 8.652h-4.172zm16.361-6.944c0-.915.122-1.792.364-2.632a8.61 8.61 0 011.176-2.38c.542-.765 1.307-1.372 2.296-1.82.99-.467 2.147-.7 3.472-.7 2.427 0 4.256.71 5.488 2.128 1.232 1.4 1.848 3.164 1.848 5.292 0 2.147-.634 3.948-1.904 5.404-1.25 1.437-3.089 2.156-5.516 2.156-2.109 0-3.845-.644-5.208-1.932-1.344-1.288-2.016-3.127-2.016-5.516zm4.256.028c0 3.024 1.036 4.536 3.108 4.536.99 0 1.746-.364 2.268-1.092.523-.728.784-1.979.784-3.752 0-2.987-1.036-4.48-3.108-4.48-2.034 0-3.052 1.596-3.052 4.788zm13.365-7.224h4.032l.112 2.016c.878-1.53 2.315-2.296 4.312-2.296 1.83 0 3.267.635 4.312 1.904 1.046 1.27 1.568 2.987 1.568 5.152 0 2.128-.541 3.92-1.624 5.376-1.082 1.456-2.594 2.184-4.536 2.184-1.698 0-3.014-.607-3.948-1.82v7.056h-4.228V42.86zm7.112 11.62c.971 0 1.718-.42 2.24-1.26.523-.84.784-1.979.784-3.416 0-.504-.037-.98-.112-1.428a7.634 7.634 0 00-.392-1.456 2.534 2.534 0 00-.896-1.204c-.392-.317-.877-.476-1.456-.476-.84 0-1.596.373-2.268 1.12-.653.747-.98 1.979-.98 3.696 0 .392.019.756.056 1.092.056.336.168.803.336 1.4.168.579.476 1.045.924 1.4.467.355 1.055.532 1.764.532zm22.97-3.5h-9.492c0 2.52.961 3.78 2.884 3.78 1.325 0 2.146-.653 2.464-1.96h3.78c-.094 1.213-.542 2.24-1.344 3.08-1.046 1.101-2.698 1.652-4.956 1.652-2.184 0-3.846-.588-4.984-1.764-1.214-1.27-1.82-3.108-1.82-5.516 0-3.099.98-5.33 2.94-6.692 1.176-.784 2.501-1.176 3.976-1.176 1.157 0 2.249.27 3.276.812 1.026.523 1.838 1.39 2.436 2.604.653 1.344.933 3.07.84 5.18zm-9.352-2.604h5.124c0-.28-.019-.541-.056-.784a5.376 5.376 0 00-.28-1.008 1.79 1.79 0 00-.756-.98c-.355-.261-.812-.392-1.372-.392-.859 0-1.512.299-1.96.896-.43.597-.663 1.353-.7 2.268z" fill="#fff"/></svg>