<svg width="84" height="85" viewBox="0 0 84 85" fill="none" xmlns="http://www.w3.org/2000/svg"><path d="M52.515 13.535c-.111.106-.71.71-1.339 1.344-.617.631-1.286 1.318-1.489 1.514-.79.778-1.078 1.067-2.392 2.417-.752.762-1.526 1.56-1.73 1.756-.202.195-.514.509-.698.688-.571.572-3.491 3.52-3.711 3.744a85.802 85.802 0 01-1.758 1.787c-.895.888-.872.882-1.947.575a17.695 17.695 0 00-.86-.236 62.204 62.204 0 01-.79-.194 152.4 152.4 0 00-1.603-.43 80.997 80.997 0 01-1.647-.437c-.27-.075-.64-.172-.825-.215a63.809 63.809 0 01-.79-.194c-.45-.125-2.377-.634-3.17-.84a85.218 85.218 0 01-1.734-.45c-.27-.075-.601-.158-.742-.195-.133-.031-.634-.167-1.113-.29-.476-.131-1.05-.273-1.28-.334-.558-.151-1.145-.3-1.729-.458-.27-.075-.583-.156-.703-.18-.115-.03-.447-.113-.738-.201-.295-.08-.579-.164-.637-.18-.18-.05-.169.14.024.486.23.398.666 1.15 1.01 1.74.142.24.28.486.299.536.025.053.252.439.515.876.256.432.537.918.638 1.084.48.855 1.246 2.19 2.141 3.736.11.182.294.513.424.725.12.216.352.624.524.91.172.286.382.653.469.81.086.158.271.47.397.69.133.224.437.753.679 1.177.242.424.578 1.01.75 1.296.172.285.4.701.526.92.115.224.235.42.27.442.029.017.075.13.098.25.039.207.022.235-.51.773-.3.31-.685.697-.86.861-.17.158-1.243 1.248-2.392 2.417a459.187 459.187 0 01-2.42 2.448c-.184.18-1.108 1.117-2.061 2.087-1.71 1.738-2.274 2.314-2.64 2.654-.102.092-.272.28-.38.397-.109.118-.281.294-.389.393-.102.093-1.287 1.289-2.632 2.658-2.385 2.421-2.72 2.76-3.472 3.503-.196.2-.575.579-.84.844-.263.266-.543.541-.622.61-.076.079-.111.154-.076.175.035.02 1.812-.445 3.948-1.033 5.796-1.601 6.812-1.879 8.5-2.34.853-.23 2.091-.577 2.753-.758.659-.192 2.566-.715 4.231-1.171a603.335 603.335 0 004.864-1.351c1.002-.286 1.867-.49 1.916-.46.05.03.464.374.464.374l.35.45s.149.07.773 1.146c.53.932 1.6 2.776 1.832 3.185.143.24.343.59.447.768.099.184.28.504.41.717.123.208.316.555.446.767.123.209.304.529.403.713.104.178.304.528.447.768.138.246.449.779.678 1.176a442.014 442.014 0 001.613 2.803c.142.24.352.606.473.803.2.35.536.937.972 1.689.237.401.437.752 1.274 2.206 1.03 1.8 1.089 1.893 1.353 2.36.143.239.353.605.473.802.2.351.536.937.973 1.69.56.96.656 1.133.827 1.437.104.178.304.529.447.768.232.409 1.303 2.252 1.838 3.19 1.08 1.877 1.352 2.33 1.404 2.322.027-.013.042-.755.044-1.649-.002-.905 0-1.703.012-1.773.006-.073.008-.284.002-.48a3021.887 3021.887 0 00.014-10.47c-.009-.083-.006-.63-.004-1.206.006-.583.005-1.123.004-1.2-.007-.197.007-7.944.013-9.26-.003-.569-.004-1.156-.003-1.3a4.226 4.226 0 01-.002-.396c.013-.07.017-1.732.014-3.687-.002-1.954.038-3.614.095-3.677.106-.129 2.364-.778 8.67-2.498.887-.238 2.12-.577 2.753-.757.632-.18 2.438-.677 4.006-1.114 5.853-1.615 8.268-2.287 9.715-2.68.817-.233 1.452-.45 1.416-.5-.065-.068-.866-.307-1.679-.495-.184-.043-.56-.133-.83-.208-.269-.075-.583-.157-.702-.18-.115-.03-.447-.114-.738-.202-.295-.08-.694-.194-.904-.242a388.89 388.89 0 01-2.559-.666c-.249-.063-.562-.145-.703-.18a22.732 22.732 0 01-.698-.188c-.25-.062-.634-.168-.87-.222-.792-.205-2.72-.714-3.17-.84a62.204 62.204 0 00-.79-.193c-.184-.043-.555-.14-.825-.215a81.178 81.178 0 00-1.646-.437 152.4 152.4 0 01-1.602-.43 62.204 62.204 0 00-.79-.194c-.185-.043-.57-.149-.865-.23a11.717 11.717 0 00-.76-.195 7.405 7.405 0 01-.498-.125c-.277-.079-1.804-.492-2.45-.658-.343-.08-.735-.19-1.729-.457-1.242-.33-1.792-.496-1.803-.541-.015-.086-.02-8.297-.001-8.758.01-.128.01-2.12.006-4.422-.004-2.303 0-4.301.013-4.448.022-.324-.053-.359-.31-.137z" fill="#fff" opacity=".4"/></svg>