<svg width="41" height="41" viewBox="0 0 41 41" fill="none" xmlns="http://www.w3.org/2000/svg"><path d="M12.314 32.446c.062-.035.398-.234.75-.445.348-.21.724-.44.837-.504.441-.256.603-.352 1.343-.803.422-.253.858-.52.971-.584.113-.064.288-.168.39-.226.32-.19 1.959-1.168 2.082-1.243.348-.216.592-.362.988-.594.5-.294.49-.294.94-.032.123.073.285.165.363.206.078.04.23.121.335.178.103.06.408.23.676.378.27.146.58.322.694.387.114.065.27.151.349.192.078.04.23.121.335.178a166.072 166.072 0 002.07 1.146c.114.065.254.14.314.173.056.03.267.149.47.26.2.113.443.243.54.297.236.132.484.267.73.405.114.065.246.138.297.162.049.027.19.103.311.176.125.07.243.14.268.154.075.043.091-.043.042-.22l-.265-.895a3.382 3.382 0 01-.077-.274 12.9 12.9 0 00-.136-.451c-.069-.223-.142-.473-.17-.559-.123-.438-.322-1.123-.557-1.918-.03-.094-.077-.263-.112-.374-.03-.11-.09-.32-.137-.467a13.791 13.791 0 01-.123-.417c-.022-.08-.07-.241-.104-.354a52.534 52.534 0 01-.177-.605c-.063-.217-.15-.518-.197-.666-.046-.148-.104-.36-.137-.473a1.01 1.01 0 00-.073-.228c-.011-.011-.02-.067-.017-.124.005-.096.016-.107.314-.286.17-.104.385-.232.482-.285.094-.05.697-.413 1.342-.803.643-.386 1.257-.754 1.359-.813.102-.058.622-.37 1.157-.693.96-.579 1.278-.77 1.48-.88.056-.03.153-.093.215-.133.062-.04.159-.1.218-.131.056-.03.72-.427 1.477-.883 1.34-.805 1.528-.917 1.948-1.162.11-.067.322-.192.47-.28.148-.088.305-.179.348-.2.043-.027.067-.056.053-.07-.013-.013-.865-.011-1.893.004-2.788.043-3.276.049-4.088.06-.41.003-1.006.014-1.324.018-.318.01-1.235.022-2.036.033-.8.01-1.852.027-2.34.039-.483.011-.896.002-.914-.017-.02-.019-.168-.22-.168-.22l-.11-.243s-.059-.048-.223-.602c-.136-.478-.418-1.426-.478-1.636l-.118-.395a8.2 8.2 0 00-.106-.368c-.033-.107-.082-.285-.118-.395-.033-.107-.079-.271-.104-.365-.027-.092-.079-.272-.117-.395-.036-.126-.118-.4-.178-.605-.175-.607-.298-1.023-.42-1.44-.039-.123-.093-.311-.126-.414-.052-.18-.14-.48-.255-.867-.062-.207-.114-.387-.333-1.134-.268-.924-.284-.973-.352-1.212-.039-.123-.093-.312-.126-.414a125 125 0 00-.254-.867c-.148-.495-.172-.583-.216-.74l-.118-.394c-.06-.21-.341-1.158-.48-1.64-.282-.964-.356-1.197-.38-1.2-.014.002-.101.332-.2.732-.098.405-.185.761-.199.79a49.61 49.61 0 01-.223.9c-.125.503-.947 3.854-.98 3.994-.005.037-.066.281-.13.539a1277.373 1277.373 0 01-1.15 4.673c-.06.254-.123.517-.14.582a1.94 1.94 0 01-.042.176c-.013.03-.196.773-.409 1.647-.212.874-.412 1.61-.444 1.632-.062.046-1.151.074-4.182.11-.426.004-1.02.012-1.324.02l-1.928.032c-2.815.043-3.977.063-4.673.07-.394.01-.704.033-.693.06.022.037.357.237.703.416.078.04.238.124.351.189.114.065.246.138.298.162.048.027.189.103.31.176.125.07.292.167.381.213.154.084.692.378 1.081.595.106.056.238.13.298.162.056.03.192.105.294.165.106.056.268.148.368.2.335.183 1.148.635 1.337.743.106.057.257.138.336.178.078.04.235.127.348.192.114.065.425.24.695.387.267.148.573.319.675.378.106.057.257.138.336.178.078.04.24.133.364.203.122.073.268.149.322.176.051.024.146.076.21.113.117.068.76.43 1.033.579.146.075.31.17.73.405.524.292.754.43.754.451-.003.04-.897 3.71-.956 3.914-.018.057-.236.947-.485 1.976-.25 1.03-.47 1.923-.492 1.987-.045.142-.015.166.125.097z" fill="#fff" opacity=".1"/></svg>