<svg width="36" height="36" viewBox="0 0 36 36" fill="none" xmlns="http://www.w3.org/2000/svg"><path d="M27.555 26.288a64.945 64.945 0 00-.339-.7c-.16-.323-.336-.675-.385-.78a49.74 49.74 0 00-.611-1.252c-.194-.394-.398-.8-.446-.906-.048-.105-.127-.268-.172-.363-.144-.298-.89-1.826-.947-1.942a34.543 34.543 0 01-.453-.92c-.223-.467-.224-.457.045-.836.075-.102.17-.238.212-.304l.186-.283c.061-.086.238-.343.391-.568.152-.227.333-.489.4-.584.067-.095.157-.227.2-.293l.185-.283a150.236 150.236 0 001.186-1.741c.067-.095.146-.214.18-.264.03-.048.153-.225.268-.395.118-.168.253-.373.309-.455.136-.198.277-.407.42-.614.066-.095.142-.207.167-.25.028-.041.107-.16.182-.261.072-.105.144-.205.158-.225.045-.064-.03-.084-.193-.055l-.82.164a11.624 11.624 0 00-.665.131c-.205.043-.434.088-.513.106-.4.074-1.029.196-1.758.341-.086.02-.241.047-.343.07-.1.018-.292.054-.428.083-.136.03-.308.063-.382.076-.073.013-.221.044-.325.064l-.554.11c-.2.038-.475.091-.61.12-.137.03-.33.064-.434.084a.91.91 0 00-.21.047c-.01.009-.062.012-.112.005-.086-.012-.094-.022-.23-.3-.08-.159-.178-.36-.218-.45-.038-.087-.314-.65-.612-1.251a180.3 180.3 0 01-.62-1.268c-.044-.095-.282-.579-.528-1.078-.442-.896-.589-1.193-.67-1.38-.022-.052-.072-.143-.103-.201a141.83 141.83 0 01-1.658-3.397l-.213-.439a8.205 8.205 0 01-.152-.323c-.02-.04-.044-.064-.058-.053-.013.011-.078.766-.145 1.676-.18 2.471-.214 2.904-.268 3.623-.029.363-.066.891-.087 1.173a170.89 170.89 0 01-.131 1.805c-.054.71-.12 1.642-.149 2.075-.027.428-.068.792-.087.807-.018.016-.21.132-.21.132l-.225.077s-.048.049-.556.15c-.438.083-1.307.257-1.5.293-.113.024-.278.056-.361.073a7.457 7.457 0 00-.338.065c-.098.02-.26.05-.362.073-.098.02-.249.049-.335.063l-.362.073c-.115.021-.367.072-.554.109-.556.107-.938.183-1.32.258-.113.024-.286.058-.38.079-.164.032-.44.085-.795.156-.19.04-.355.07-1.04.205-.846.164-.89.175-1.11.216-.113.024-.286.058-.38.079-.164.031-.44.085-.795.156-.453.091-.535.106-.677.132-.084.017-.249.049-.362.073l-1.503.296c-.884.172-1.098.22-1.103.24.001.013.29.116.638.235.355.119.666.225.692.239a43.305 43.305 0 01.788.269c.437.15 3.368 1.144 3.49 1.183.033.008.246.081.471.158a1126.746 1126.746 0 014.086 1.388 107.76 107.76 0 01.664.222c.025.014.674.235 1.439.493.764.257 1.407.492 1.424.522.036.058-.025 1.025-.23 3.71-.03.378-.07.904-.087 1.174-.018.27-.075 1.04-.122 1.709-.183 2.495-.257 3.525-.304 4.142-.023.349-.027.625-.002.617.036-.016.24-.297.427-.589.042-.066.13-.2.197-.296.067-.095.142-.206.168-.25.028-.04.107-.16.181-.261.073-.104.173-.245.221-.32.087-.13.393-.583.616-.91l.169-.25c.03-.048.109-.162.17-.248.059-.089.154-.225.208-.31.19-.281.657-.966.769-1.124l.186-.283c.042-.066.132-.198.198-.293.067-.096.249-.357.4-.584.154-.225.33-.482.391-.568.06-.09.144-.217.186-.283.043-.066.137-.202.21-.307.075-.102.154-.225.182-.27.026-.044.08-.123.118-.178.07-.097.444-.638.598-.868.08-.123.177-.261.42-.613.302-.441.443-.634.462-.632.036.005 3.246 1.088 3.423 1.156.049.02.827.284 1.728.587.9.302 1.68.568 1.737.592.123.051.147.027.096-.103z" fill="#fff" opacity=".4"/></svg>