<svg width="49" height="49" viewBox="0 0 49 49" fill="none" xmlns="http://www.w3.org/2000/svg"><path d="M38.677 34.184a90.74 90.74 0 00-.553-.901c-.261-.417-.546-.87-.625-1.005-.318-.53-.437-.724-.996-1.612-.315-.507-.646-1.03-.725-1.166-.08-.136-.209-.346-.281-.469-.235-.384-1.45-2.351-1.543-2.5-.268-.417-.45-.71-.738-1.186-.364-.6-.364-.588-.05-1.136.088-.148.198-.345.246-.44.049-.096.146-.28.214-.408.071-.125.275-.496.453-.82.175-.33.385-.707.463-.845.077-.138.18-.329.23-.424.048-.095.145-.279.213-.407.13-.23.67-1.219.89-1.626.116-.223.246-.46.482-.89.078-.138.168-.309.207-.381.035-.069.178-.325.31-.572.136-.243.292-.538.356-.656.16-.286.32-.588.486-.887.078-.138.165-.3.194-.361.032-.06.123-.23.21-.378l.185-.326c.052-.092-.053-.11-.269-.048l-1.088.332c-.15.048-.304.092-.334.096-.032.007-.274.082-.549.17-.27.086-.575.178-.68.212-.532.155-1.365.404-2.333.698-.114.038-.32.096-.454.14a18.96 18.96 0 00-.569.172c-.18.058-.408.126-.506.154-.098.027-.294.088-.432.13-.14.044-.47.143-.735.222-.265.079-.63.188-.81.246-.18.058-.438.13-.576.171a1.243 1.243 0 00-.277.092c-.014.014-.082.024-.151.022-.118-.005-.131-.018-.353-.376a18.83 18.83 0 01-.354-.579c-.063-.113-.513-.836-.996-1.612-.48-.772-.937-1.508-1.01-1.631-.072-.123-.46-.746-.86-1.39-.718-1.152-.956-1.533-1.092-1.776-.037-.068-.116-.184-.166-.258a4.725 4.725 0 01-.162-.262c-.036-.068-.53-.866-1.095-1.774a194.44 194.44 0 01-1.443-2.338c-.083-.133-.238-.388-.348-.566-.109-.177-.221-.365-.248-.417-.033-.051-.07-.08-.086-.064-.016.017-.003 1.047.028 2.288.088 3.368.102 3.958.124 4.939.01.495.031 1.215.04 1.6.016.384.043 1.491.065 2.459.023.968.058 2.238.078 2.828.02.583.013 1.082-.01 1.105-.022.023-.267.206-.267.206l-.293.134s-.059.073-.732.278c-.582.171-1.735.523-1.99.599-.15.047-.37.112-.48.147-.115.03-.315.089-.448.133-.131.041-.347.103-.48.147-.132.041-.331.1-.445.13-.112.034-.33.1-.48.147-.155.045-.488.147-.736.223-.739.219-1.245.373-1.752.526-.15.048-.379.117-.503.158-.22.065-.585.174-1.056.318-.251.078-.47.143-1.379.417-1.124.336-1.183.356-1.474.442-.15.047-.379.116-.503.157-.22.065-.585.174-1.056.318-.601.184-.709.215-.899.27-.11.034-.33.1-.48.147-.255.075-1.409.428-1.994.602-1.173.353-1.457.445-1.46.474.003.016.407.118.895.232.496.113.932.214.968.23.04.013.154.04.262.062a1715.942 1715.942 0 005.723 1.33c.046.005.344.076.66.15a1548.158 1548.158 0 015.716 1.33l.711.161c.082.016.177.037.217.05.036.015.944.227 2.013.473 1.07.245 1.971.477 1.998.515.056.075.104 1.39.187 5.052.01.515.027 1.232.04 1.6.012.368.038 1.417.064 2.33.088 3.4.126 4.804.145 5.645.016.476.048.85.08.837.046-.027.286-.435.5-.855.048-.095.148-.289.226-.427.077-.138.165-.299.194-.361.032-.06.123-.23.21-.378.084-.151.201-.355.256-.463.1-.187.453-.84.712-1.314l.194-.361c.035-.07.126-.233.197-.358.068-.128.178-.325.24-.447.22-.407.76-1.396.89-1.626.067-.128.165-.312.213-.407.049-.095.152-.286.23-.424.078-.138.288-.515.463-.844.177-.325.381-.696.453-.821.068-.128.165-.312.213-.407.049-.095.159-.292.243-.444.087-.148.178-.325.21-.39.03-.063.09-.178.136-.257.08-.14.515-.923.693-1.254.09-.178.203-.378.485-.887.35-.638.515-.917.54-.917.05.002 4.54 1.036 4.789 1.105.069.021 1.158.273 2.417.561 1.26.289 2.351.544 2.43.569.174.053.203.016.117-.152z" fill="#fff" opacity=".3"/></svg>