<svg width="144" height="26" viewBox="0 0 144 26" fill="none" xmlns="http://www.w3.org/2000/svg"><path d="M3.179 18h-.91V7.892h.91v4.438h5.516V7.892h.91V18h-.91v-4.83H3.179V18zm14.85-3.318h-5.433c.019.812.224 1.475.616 1.988.402.513 1.008.77 1.82.77a1.95 1.95 0 001.302-.476c.383-.317.626-.719.728-1.204h.882c-.42 1.633-1.479 2.45-3.178 2.45-.989 0-1.75-.36-2.282-1.078-.532-.728-.798-1.61-.798-2.646 0-1.027.276-1.904.826-2.632.551-.728 1.321-1.092 2.31-1.092 1.111 0 1.923.36 2.436 1.078.514.71.77 1.657.77 2.842zm-5.405-.77h4.494c-.056-.719-.275-1.293-.658-1.722-.382-.439-.924-.658-1.624-.658-.644 0-1.157.229-1.54.686-.382.457-.606 1.022-.672 1.694zm8.116-6.02V18h-.84V7.892h.84zm2.95 6.426c0 .579.064 1.092.195 1.54.14.439.397.812.77 1.12.373.308.85.462 1.428.462.383 0 .71-.093.98-.28.28-.196.49-.453.63-.77.15-.327.252-.653.308-.98.066-.336.098-.686.098-1.05 0-.485-.065-.929-.196-1.33-.121-.41-.35-.76-.686-1.05-.336-.299-.756-.448-1.26-.448-.765 0-1.335.266-1.708.798s-.56 1.195-.56 1.988zm0 2.59v3.78h-.84v-8.134c0-.177-.024-.705-.07-1.582h.867l.042 1.036.028.028c.234-.401.57-.714 1.008-.938a3.093 3.093 0 011.4-.336c.663 0 1.218.187 1.666.56.448.373.76.83.938 1.372.187.532.28 1.12.28 1.764 0 .467-.056.915-.168 1.344a4.27 4.27 0 01-.49 1.19 2.46 2.46 0 01-.896.882 2.454 2.454 0 01-1.288.336c-1.036 0-1.853-.434-2.45-1.302h-.028zm11.213-9.016h.91v6.538c.037.915.303 1.633.798 2.156.495.523 1.157.784 1.988.784.83 0 1.493-.261 1.988-.784.495-.523.76-1.241.798-2.156V7.892h.91v6.552c-.019 1.13-.345 2.04-.98 2.73-.625.69-1.53 1.036-2.716 1.036-1.185 0-2.095-.345-2.73-1.036-.625-.69-.947-1.6-.966-2.73V7.892zM44.936 18V7.892h1.036l5.572 8.89h.028v-8.89h.91V18h-1.148l-5.46-8.736h-.028V18h-.91zm11.224 0h-.91V7.85h.91V18zm10.056-7.742h-.98c-.074-.579-.336-1.013-.784-1.302-.438-.29-.97-.434-1.596-.434-.616 0-1.152.13-1.61.392a2.775 2.775 0 00-1.064 1.064c-.242.439-.42.905-.532 1.4a6.964 6.964 0 00-.168 1.568c0 .56.056 1.087.168 1.582.112.485.29.952.532 1.4.252.439.607.789 1.064 1.05.458.261.994.392 1.61.392.607 0 1.144-.154 1.61-.462.467-.308.761-.76.882-1.358h.98c-.14.821-.54 1.47-1.204 1.946a3.79 3.79 0 01-2.268.714c-.737 0-1.395-.14-1.974-.42a3.716 3.716 0 01-1.372-1.162 5.53 5.53 0 01-.756-1.666 7.745 7.745 0 01-.252-2.016c0-.71.084-1.372.252-1.988a5.767 5.767 0 01.77-1.68 3.55 3.55 0 011.372-1.162c.57-.29 1.223-.434 1.96-.434.906 0 1.676.215 2.31.644.635.43.985 1.073 1.05 1.932zM74.63 18h-6.216V7.892h6.006v.84h-5.096v3.626h4.9v.84h-4.9v3.962h5.306V18zm3.155 0h-.91V7.892h5.712v.84h-4.802v3.57h4.634v.84h-4.634V18zm15.904-4.872h-.91c-.066-1.064-.705-1.596-1.918-1.596-.626 0-1.13.285-1.512.854-.383.57-.574 1.265-.574 2.086 0 .83.191 1.535.574 2.114.382.57.886.854 1.512.854.541 0 .984-.15 1.33-.448.354-.308.55-.705.588-1.19h.91c-.224 1.605-1.139 2.408-2.744 2.408-.99 0-1.75-.36-2.282-1.078-.532-.728-.798-1.61-.798-2.646 0-1.027.275-1.904.826-2.632.55-.728 1.32-1.092 2.31-1.092.746 0 1.372.215 1.876.644.504.42.774.994.812 1.722zm2.492-5.236v4.144h.028c.476-.85 1.208-1.274 2.198-1.274.438 0 .816.075 1.134.224.326.15.569.327.728.532.168.205.298.453.392.742.102.29.163.532.182.728.028.196.042.401.042.616V18h-.84v-4.536c0-.607-.164-1.078-.49-1.414-.327-.345-.78-.518-1.358-.518-.654 0-1.153.233-1.498.7-.346.467-.518 1.04-.518 1.722V18h-.84V7.892h.84zm7.233 8.148c0 .457.149.807.448 1.05.299.233.677.35 1.134.35 1.512 0 2.212-.994 2.1-2.982-.084 0-.275.005-.574.014-.289 0-.518.005-.686.014-.168.01-.392.028-.672.056a2.41 2.41 0 00-.686.154 2.83 2.83 0 00-.532.266 1.105 1.105 0 00-.406.448 1.459 1.459 0 00-.126.63zm3.682-2.352v-.644c-.037-.55-.196-.938-.476-1.162-.271-.233-.667-.35-1.19-.35-1.055 0-1.629.406-1.722 1.218h-.896c.196-1.325 1.073-1.988 2.632-1.988.803 0 1.419.191 1.848.574.439.383.653.966.644 1.75v3.332c0 .177.023.705.07 1.582h-.868l-.028-1.036h-.028l-.042.098c-.159.308-.453.579-.882.812a2.76 2.76 0 01-1.316.336c-.672 0-1.232-.196-1.68-.588-.439-.392-.658-.92-.658-1.582 0-.467.126-.877.378-1.232a2.39 2.39 0 011.036-.798 3.2 3.2 0 01.924-.238c.336-.047.756-.07 1.26-.07.513 0 .845-.005.994-.014zm3.864.266V18h-.84v-5.446c0-.261-.023-.789-.07-1.582h.868l.042 1.036.028.028c.476-.85 1.209-1.274 2.198-1.274.439 0 .817.075 1.134.224.327.15.569.327.728.532.168.205.299.453.392.742.103.29.163.532.182.728.028.196.042.401.042.616V18h-.84v-4.536c0-.607-.163-1.078-.49-1.414-.327-.345-.779-.518-1.358-.518-.653 0-1.153.233-1.498.7-.345.467-.518 1.04-.518 1.722zm11.783.378c0-.737-.2-1.386-.602-1.946-.392-.57-.942-.854-1.652-.854-.476 0-.886.15-1.232.448a2.582 2.582 0 00-.728 1.078c-.14.41-.21.845-.21 1.302 0 .737.187 1.395.56 1.974.383.579.929.868 1.638.868.747 0 1.302-.285 1.666-.854.374-.57.56-1.241.56-2.016zm0-2.324l.042-1.036h.868c-.046.793-.07 1.32-.07 1.582V16.936c0 .364-.004.64-.014.826 0 .187-.028.434-.084.742-.046.317-.121.57-.224.756a2.477 2.477 0 01-.434.588 2.186 2.186 0 01-.728.518c-.448.215-.98.322-1.596.322-.476 0-.91-.056-1.302-.168a2.254 2.254 0 01-1.036-.602c-.298-.29-.448-.663-.448-1.12h.91c.047.383.262.663.644.84.383.187.831.28 1.344.28.57 0 1.064-.182 1.484-.546.42-.364.635-.83.644-1.4v-1.316h-.028c-.196.401-.508.723-.938.966-.429.233-.877.35-1.344.35-1.008 0-1.764-.331-2.268-.994-.504-.663-.756-1.512-.756-2.548 0-.672.098-1.274.294-1.806.196-.532.523-.975.98-1.33.467-.355 1.041-.532 1.722-.532.943 0 1.713.434 2.31 1.302l.028-.056zm8.858 2.674h-5.432c.018.812.224 1.475.616 1.988.401.513 1.008.77 1.82.77.494 0 .928-.159 1.302-.476.382-.317.625-.719.728-1.204h.882c-.42 1.633-1.48 2.45-3.178 2.45-.99 0-1.75-.36-2.282-1.078-.532-.728-.798-1.61-.798-2.646 0-1.027.275-1.904.826-2.632.55-.728 1.32-1.092 2.31-1.092 1.11 0 1.922.36 2.436 1.078.513.71.77 1.657.77 2.842zm-5.404-.77h4.494c-.056-.719-.276-1.293-.658-1.722-.383-.439-.924-.658-1.624-.658-.644 0-1.158.229-1.54.686-.383.457-.607 1.022-.672 1.694zm11.171-2.94h.84V18h-.84v-7.028zm.91-3.08v1.05h-.98v-1.05h.98zm2.782 8.232v-4.382h-1.4v-.77h1.4V9.474l.84-.364v1.862h1.596v.77H141.9v4.704c-.019.663.303.994.966.994.308 0 .551-.028.728-.084v.728a3.239 3.239 0 01-1.568.056 1.041 1.041 0 01-.476-.238 2.953 2.953 0 01-.294-.308 1.006 1.006 0 01-.14-.42 7.717 7.717 0 01-.056-.434v-.476-.14z" fill="#fff"/></svg>