<svg width="26" height="26" viewBox="0 0 26 26" fill="none" xmlns="http://www.w3.org/2000/svg"><path d="M19.284 5.771c-.012.047-.084.302-.16.57-.078.264-.162.551-.184.636-.091.334-.126.457-.292 1.02-.092.321-.19.653-.213.739-.022.085-.06.218-.08.295-.068.243-.423 1.487-.45 1.582-.081.265-.134.45-.217.75-.105.38-.107.373.144.622.07.067.158.157.198.2.04.045.12.13.176.189.057.057.223.226.367.375.143.152.313.324.376.387.062.063.146.15.187.195l.176.188a112.737 112.737 0 011.115 1.153c.062.063.137.142.168.175l.253.262c.11.111.237.248.29.302.128.13.26.27.394.406.062.063.134.137.159.166.026.027.1.106.17.173.067.069.134.134.147.148.042.042-.012.067-.137.066l-.633-.016a8.54 8.54 0 01-.514-.012l-.396-.013c-.31-.003-.794-.013-1.357-.027-.067-.003-.186-.004-.265-.008-.077 0-.226-.003-.33-.007a9.52 9.52 0 00-.296-.008c-.056 0-.17-.003-.25-.005a35.776 35.776 0 00-.428-.01 26.39 26.39 0 01-.472-.012c-.105-.004-.255-.004-.334-.006a.684.684 0 01-.163-.008c-.01-.005-.048 0-.084.01-.063.021-.068.03-.133.257-.038.13-.085.293-.103.365-.016.07-.149.53-.29 1.02-.142.49-.276.955-.296 1.033-.02.077-.135.472-.252.879-.212.73-.282.972-.319 1.123-.009.042-.034.117-.05.164a107.375 107.375 0 00-.79 2.767l-.1.358c-.031.112-.063.23-.07.262-.01.033-.025.054-.036.048-.011-.007-.16-.565-.33-1.24-.46-1.833-.542-2.153-.678-2.686-.07-.27-.166-.661-.22-.87-.05-.21-.202-.813-.335-1.339-.134-.526-.307-1.217-.385-1.539-.077-.318-.156-.586-.172-.595-.015-.01-.174-.071-.174-.071l-.178-.029s-.042-.03-.434-.04c-.338-.006-1.01-.023-1.158-.026l-.28-.007c-.066 0-.182-.002-.26-.005-.076-.003-.201-.004-.28-.008a8.058 8.058 0 00-.258-.003l-.28-.008c-.089-.001-.283-.006-.428-.01-.429-.008-.724-.015-1.019-.022-.087-.003-.22-.006-.293-.01-.127-.002-.34-.006-.614-.013-.147-.005-.274-.008-.803-.02l-.857-.017c-.088-.003-.22-.006-.294-.01-.127-.002-.34-.006-.614-.013-.35-.01-.413-.01-.523-.012l-.28-.007-1.16-.027c-.682-.014-.848-.022-.854-.037 0-.01.2-.125.445-.26.249-.135.467-.255.484-.269a32.314 32.314 0 00.552-.304c.308-.17 2.363-1.298 2.449-1.343.023-.01.173-.093.33-.18a842.54 842.54 0 003.223-1.769c.042-.02.09-.046.109-.059.017-.014.472-.264 1.009-.557.536-.293.985-.553.993-.578.02-.048-.153-.766-.66-2.757-.073-.28-.172-.669-.22-.87-.05-.2-.194-.77-.317-1.267-.466-1.85-.657-2.615-.774-3.072-.063-.259-.102-.466-.082-.464.028.008.218.192.396.387.04.044.123.134.186.197.062.063.133.137.158.166.027.027.1.106.17.173.068.069.161.161.207.212l.58.603.158.166c.03.032.103.107.16.163.056.06.145.15.196.206.18.187.618.64.722.745l.176.188c.04.044.125.131.187.194.063.063.233.236.376.387.144.149.31.319.367.376.055.059.135.143.175.188.04.044.13.134.197.203.07.067.145.149.172.18.025.029.075.082.112.117.064.065.415.422.56.575.076.082.167.173.394.406.284.292.415.418.429.414.026-.009 2.278-1.24 2.401-1.314a99 99 0 011.212-.665c.632-.345 1.18-.646 1.218-.671.085-.055.106-.04.085.064z" fill="#fff" opacity=".34"/></svg>