<svg width="160" height="61" viewBox="0 0 160 61" fill="none" xmlns="http://www.w3.org/2000/svg"><path d="M1.08 18V4.95h2.79V18H1.08zm10.446-1.872v1.746a7.892 7.892 0 01-2.07.288c-.504 0-.942-.066-1.314-.198-.36-.132-.624-.276-.792-.432a1.576 1.576 0 01-.396-.63c-.096-.276-.15-.486-.162-.63a6.98 6.98 0 01-.018-.558v-4.986H5.028V8.964h1.746V7.182L9.42 6.21v2.754h2.16v1.764H9.42v4.104c0 .264.006.456.018.576.024.12.072.252.144.396a.613.613 0 00.36.306c.168.048.396.072.684.072.276 0 .576-.018.9-.054zm1.182-6.678l1.278-4.446h2.628L14.598 9.45h-1.89zm3.494 5.922h2.502c.024.336.156.63.396.882.24.24.612.36 1.116.36.444 0 .786-.102 1.026-.306.252-.216.378-.474.378-.774 0-.228-.09-.42-.27-.576-.168-.168-.498-.318-.99-.45l-1.656-.45a7.928 7.928 0 01-.702-.234 6.971 6.971 0 01-.702-.396 1.778 1.778 0 01-.666-.756c-.156-.324-.234-.702-.234-1.134 0-.876.366-1.566 1.098-2.07.732-.516 1.692-.774 2.88-.774.984 0 1.794.228 2.43.684.648.456.99 1.122 1.026 1.998h-2.43c-.048-.72-.48-1.08-1.296-1.08-.372 0-.678.084-.918.252a.743.743 0 00-.342.648c0 .276.09.474.27.594.18.108.504.228.972.36l1.638.45c1.62.444 2.43 1.29 2.43 2.538 0 .852-.366 1.59-1.098 2.214-.72.612-1.746.918-3.078.918-1.368 0-2.406-.372-3.114-1.116-.408-.432-.63-1.026-.666-1.782zm22.901-1.242h-6.102c0 1.62.619 2.43 1.855 2.43.852 0 1.38-.42 1.584-1.26h2.43c-.06.78-.348 1.44-.864 1.98-.672.708-1.734 1.062-3.187 1.062-1.404 0-2.472-.378-3.204-1.134-.78-.816-1.17-1.998-1.17-3.546 0-1.992.63-3.426 1.89-4.302.757-.504 1.608-.756 2.556-.756a4.45 4.45 0 012.107.522c.66.336 1.181.894 1.566 1.674.42.864.6 1.974.54 3.33zm-6.011-1.674h3.294c0-.18-.013-.348-.037-.504a3.407 3.407 0 00-.18-.648 1.15 1.15 0 00-.485-.63c-.228-.168-.523-.252-.883-.252-.552 0-.971.192-1.26.576-.275.384-.425.87-.45 1.458zM48.727 18h-2.412a7.836 7.836 0 01-.09-1.242c-.672.972-1.578 1.458-2.718 1.458-1.008 0-1.764-.24-2.268-.72-.528-.528-.792-1.194-.792-1.998 0-1.296.642-2.238 1.926-2.826.744-.336 1.944-.504 3.6-.504 0-.552-.042-.954-.126-1.206-.18-.504-.576-.756-1.188-.756-.444 0-.78.168-1.008.504-.132.204-.198.474-.198.81h-2.61c.036-.96.378-1.674 1.026-2.142.684-.492 1.602-.738 2.754-.738 1.488 0 2.568.39 3.24 1.17.42.504.63 1.248.63 2.232l.018 3.654c0 .864.072 1.632.216 2.304zm-2.754-4.284c-.876-.072-1.584.024-2.124.288-.54.264-.81.66-.81 1.188 0 .336.114.636.342.9.228.264.546.396.954.396.456 0 .834-.174 1.134-.522a1.93 1.93 0 00.414-.882c.06-.336.09-.792.09-1.368zm4.242 1.656h2.502c.024.336.156.63.396.882.24.24.612.36 1.116.36.444 0 .786-.102 1.026-.306.252-.216.378-.474.378-.774 0-.228-.09-.42-.27-.576-.168-.168-.498-.318-.99-.45l-1.656-.45a7.928 7.928 0 01-.702-.234 6.971 6.971 0 01-.702-.396 1.778 1.778 0 01-.666-.756c-.156-.324-.234-.702-.234-1.134 0-.876.366-1.566 1.098-2.07.732-.516 1.692-.774 2.88-.774.984 0 1.794.228 2.43.684.648.456.99 1.122 1.026 1.998h-2.43c-.048-.72-.48-1.08-1.296-1.08-.372 0-.678.084-.918.252a.743.743 0 00-.342.648c0 .276.09.474.27.594.18.108.504.228.972.36l1.638.45c1.62.444 2.43 1.29 2.43 2.538 0 .852-.366 1.59-1.098 2.214-.72.612-1.746.918-3.078.918-1.368 0-2.406-.372-3.114-1.116-.408-.432-.63-1.026-.666-1.782zm8.73-6.462h2.88l1.998 6.3 2.034-6.3h2.646l-3.438 8.928-1.098 3.618h-2.682l1.152-3.42-3.492-9.126zm21.276 7.218v1.746a7.892 7.892 0 01-2.07.288c-.504 0-.942-.066-1.314-.198-.36-.132-.624-.276-.792-.432a1.576 1.576 0 01-.396-.63c-.096-.276-.15-.486-.162-.63a6.98 6.98 0 01-.018-.558v-4.986h-1.746V8.964h1.746V7.182l2.646-.972v2.754h2.16v1.764h-2.16v4.104c0 .264.006.456.018.576.024.12.072.252.144.396a.613.613 0 00.36.306c.168.048.396.072.684.072.276 0 .576-.018.9-.054zm1.236-2.592c0-.588.078-1.152.234-1.692.168-.54.42-1.05.756-1.53.348-.492.84-.882 1.476-1.17.636-.3 1.38-.45 2.232-.45 1.56 0 2.736.456 3.528 1.368.792.9 1.188 2.034 1.188 3.402 0 1.38-.408 2.538-1.224 3.474-.804.924-1.986 1.386-3.546 1.386-1.356 0-2.472-.414-3.348-1.242-.864-.828-1.296-2.01-1.296-3.546zm2.736.018c0 1.944.666 2.916 1.998 2.916.636 0 1.122-.234 1.458-.702.336-.468.504-1.272.504-2.412 0-1.92-.666-2.88-1.998-2.88-1.308 0-1.962 1.026-1.962 3.078zM97.795 18V5.022h2.664v4.986c.624-.816 1.482-1.224 2.574-1.224 1.14 0 2.082.432 2.826 1.296.756.852 1.134 2.022 1.134 3.51 0 .816-.114 1.53-.342 2.142-.216.612-.51 1.092-.882 1.44a3.908 3.908 0 01-1.206.756 3.74 3.74 0 01-1.368.252c-1.26 0-2.172-.486-2.736-1.458-.036.66-.066 1.086-.09 1.278h-2.574zm6.48-4.32c0-2.076-.654-3.114-1.962-3.114-1.308 0-1.962.936-1.962 2.808 0 .996.192 1.758.576 2.286.384.516.888.774 1.512.774.348 0 .642-.084.882-.252.252-.168.438-.354.558-.558.12-.216.21-.474.27-.774.072-.312.108-.54.108-.684a6.34 6.34 0 00.018-.486zm4.614 4.32v-6.858c0-.696-.042-1.452-.126-2.268h2.502l.054 1.746c.108-.252.216-.462.324-.63.12-.168.294-.354.522-.558.228-.216.534-.372.918-.468a4.61 4.61 0 011.332-.108v2.394c-.636-.06-1.164-.036-1.584.072-.408.108-.702.294-.882.558a2.246 2.246 0 00-.324.756 4.415 4.415 0 00-.072.882V18h-2.664zm6.906-10.674V5.004h2.844v2.322h-2.844zm.09 10.674V8.892h2.664V18h-2.664zm5.046 0v-7.47c0-.684-.018-1.236-.054-1.656h2.556l.072 1.368c.648-1.056 1.632-1.584 2.952-1.584.792 0 1.41.18 1.854.54.456.348.762.738.918 1.17.168.468.252 1.374.252 2.718V18h-2.718v-5.652c0-.468-.048-.798-.144-.99-.252-.516-.684-.774-1.296-.774s-1.074.234-1.386.702c-.216.312-.324.774-.324 1.386V18h-2.682zm17.088-9.054h2.502c-.084.84-.126 1.59-.126 2.25v6.714c0 2.448-1.512 3.672-4.536 3.672-2.544 0-3.876-.972-3.996-2.916h2.556c.108.84.636 1.26 1.584 1.26.42 0 .78-.102 1.08-.306.3-.204.492-.498.576-.882.072-.288.114-1.008.126-2.16-.624.828-1.44 1.242-2.448 1.242-1.224 0-2.172-.444-2.844-1.332-.66-.888-.99-1.932-.99-3.132 0-1.236.336-2.292 1.008-3.168.684-.888 1.644-1.332 2.88-1.332 1.104 0 1.95.432 2.538 1.296l.09-1.206zm-3.852 4.41c0 .228.012.444.036.648.024.192.084.468.18.828.096.348.276.63.54.846.276.216.618.324 1.026.324.432 0 .786-.108 1.062-.324.288-.216.48-.498.576-.846a5.53 5.53 0 00.198-.828c.024-.192.036-.39.036-.594 0-1.848-.606-2.772-1.818-2.772-.54 0-.984.222-1.332.666-.336.444-.504 1.128-.504 2.052zM.522 34.372h2.502c.024.336.156.63.396.882.24.24.612.36 1.116.36.444 0 .786-.102 1.026-.306.252-.216.378-.474.378-.774 0-.228-.09-.42-.27-.576-.168-.168-.498-.318-.99-.45l-1.656-.45a7.928 7.928 0 01-.702-.234 6.971 6.971 0 01-.702-.396 1.778 1.778 0 01-.666-.756C.798 31.348.72 30.97.72 30.538c0-.876.366-1.566 1.098-2.07.732-.516 1.692-.774 2.88-.774.984 0 1.794.228 2.43.684.648.456.99 1.122 1.026 1.998h-2.43c-.048-.72-.48-1.08-1.296-1.08-.372 0-.678.084-.918.252a.743.743 0 00-.342.648c0 .276.09.474.27.594.18.108.504.228.972.36l1.638.45c1.62.444 2.43 1.29 2.43 2.538 0 .852-.366 1.59-1.098 2.214-.72.612-1.746.918-3.078.918-1.368 0-2.406-.372-3.114-1.116-.408-.432-.63-1.026-.666-1.782zM18.036 37h-2.412a7.836 7.836 0 01-.09-1.242c-.672.972-1.578 1.458-2.718 1.458-1.008 0-1.764-.24-2.268-.72-.528-.528-.792-1.194-.792-1.998 0-1.296.642-2.238 1.926-2.826.744-.336 1.944-.504 3.6-.504 0-.552-.042-.954-.126-1.206-.18-.504-.576-.756-1.188-.756-.444 0-.78.168-1.008.504-.132.204-.198.474-.198.81h-2.61c.036-.96.378-1.674 1.026-2.142.684-.492 1.602-.738 2.754-.738 1.488 0 2.568.39 3.24 1.17.42.504.63 1.248.63 2.232l.018 3.654c0 .864.072 1.632.216 2.304zm-2.754-4.284c-.876-.072-1.584.024-2.124.288-.54.264-.81.66-.81 1.188 0 .336.114.636.342.9.228.264.546.396.954.396.456 0 .834-.174 1.134-.522a1.93 1.93 0 00.414-.882c.06-.336.09-.792.09-1.368zM20.352 37v-7.2h-1.35v-1.89h1.35v-1.242c0-.912.222-1.62.666-2.124.444-.516 1.266-.774 2.466-.774.456 0 .936.03 1.44.09v1.854a5.33 5.33 0 00-.558-.054c-.324 0-.588.036-.792.108a.768.768 0 00-.414.324c-.072.144-.12.264-.144.36a3.374 3.374 0 00-.018.396v1.062h1.692v1.89h-1.692V37h-2.646zm14.058-3.87h-6.102c0 1.62.618 2.43 1.854 2.43.852 0 1.38-.42 1.584-1.26h2.43c-.06.78-.348 1.44-.864 1.98-.672.708-1.734 1.062-3.186 1.062-1.404 0-2.472-.378-3.204-1.134-.78-.816-1.17-1.998-1.17-3.546 0-1.992.63-3.426 1.89-4.302.756-.504 1.608-.756 2.556-.756a4.45 4.45 0 012.106.522c.66.336 1.182.894 1.566 1.674.42.864.6 1.974.54 3.33zm-6.012-1.674h3.294c0-.18-.012-.348-.036-.504a3.407 3.407 0 00-.18-.648 1.15 1.15 0 00-.486-.63c-.228-.168-.522-.252-.882-.252-.552 0-.972.192-1.26.576-.276.384-.426.87-.45 1.458zm11.7-3.546h2.826l1.674 6.858 1.926-6.858h2.934l1.908 6.858 1.782-6.858h2.646L52.68 37h-2.898l-1.872-6.732L46.002 37h-2.934l-2.97-9.09zM65.04 37h-2.412a7.836 7.836 0 01-.09-1.242c-.672.972-1.578 1.458-2.718 1.458-1.008 0-1.764-.24-2.268-.72-.528-.528-.792-1.194-.792-1.998 0-1.296.642-2.238 1.926-2.826.744-.336 1.944-.504 3.6-.504 0-.552-.042-.954-.126-1.206-.18-.504-.576-.756-1.188-.756-.444 0-.78.168-1.008.504-.132.204-.198.474-.198.81h-2.61c.036-.96.378-1.674 1.026-2.142.684-.492 1.602-.738 2.754-.738 1.488 0 2.568.39 3.24 1.17.42.504.63 1.248.63 2.232l.018 3.654c0 .864.072 1.632.216 2.304zm-2.754-4.284c-.876-.072-1.584.024-2.124.288-.54.264-.81.66-.81 1.188 0 .336.114.636.342.9.228.264.546.396.954.396.456 0 .834-.174 1.134-.522a1.93 1.93 0 00.414-.882c.06-.336.09-.792.09-1.368zm10.236 2.412v1.746a7.892 7.892 0 01-2.07.288c-.504 0-.942-.066-1.314-.198-.36-.132-.624-.276-.792-.432a1.576 1.576 0 01-.396-.63c-.096-.276-.15-.486-.162-.63a6.98 6.98 0 01-.018-.558v-4.986h-1.746v-1.764h1.746v-1.782l2.646-.972v2.754h2.16v1.764h-2.16v4.104c0 .264.006.456.018.576.024.12.072.252.144.396a.613.613 0 00.36.306c.168.048.396.072.684.072.276 0 .576-.018.9-.054zm9.894-1.998h-6.102c0 1.62.618 2.43 1.854 2.43.852 0 1.38-.42 1.584-1.26h2.43c-.06.78-.348 1.44-.864 1.98-.672.708-1.734 1.062-3.186 1.062-1.404 0-2.472-.378-3.204-1.134-.78-.816-1.17-1.998-1.17-3.546 0-1.992.63-3.426 1.89-4.302.756-.504 1.608-.756 2.556-.756a4.45 4.45 0 012.106.522c.66.336 1.182.894 1.566 1.674.42.864.6 1.974.54 3.33zm-6.012-1.674h3.294c0-.18-.012-.348-.036-.504a3.407 3.407 0 00-.18-.648 1.15 1.15 0 00-.486-.63c-.228-.168-.522-.252-.882-.252-.552 0-.972.192-1.26.576-.276.384-.426.87-.45 1.458zM84.174 37v-6.858c0-.696-.042-1.452-.126-2.268h2.502l.054 1.746c.108-.252.216-.462.324-.63.12-.168.294-.354.522-.558.228-.216.534-.372.918-.468a4.61 4.61 0 011.332-.108v2.394c-.636-.06-1.164-.036-1.584.072-.408.108-.702.294-.882.558a2.246 2.246 0 00-.324.756 4.415 4.415 0 00-.072.882V37h-2.664zm17.352-1.872v1.746a7.892 7.892 0 01-2.07.288c-.504 0-.942-.066-1.314-.198-.36-.132-.624-.276-.792-.432a1.576 1.576 0 01-.396-.63c-.096-.276-.15-.486-.162-.63a6.98 6.98 0 01-.018-.558v-4.986h-1.746v-1.764h1.746v-1.782l2.646-.972v2.754h2.16v1.764h-2.16v4.104c0 .264.006.456.018.576.024.12.072.252.144.396a.613.613 0 00.36.306c.168.048.396.072.684.072.276 0 .576-.018.9-.054zm1.236-2.592c0-.588.078-1.152.234-1.692.168-.54.42-1.05.756-1.53.348-.492.84-.882 1.476-1.17.636-.3 1.38-.45 2.232-.45 1.56 0 2.736.456 3.528 1.368.792.9 1.188 2.034 1.188 3.402 0 1.38-.408 2.538-1.224 3.474-.804.924-1.986 1.386-3.546 1.386-1.356 0-2.472-.414-3.348-1.242-.864-.828-1.296-2.01-1.296-3.546zm2.736.018c0 1.944.666 2.916 1.998 2.916.636 0 1.122-.234 1.458-.702.336-.468.504-1.272.504-2.412 0-1.92-.666-2.88-1.998-2.88-1.308 0-1.962 1.026-1.962 3.078zM8.586 50.132h-2.61c-.12-1.116-.51-1.674-1.17-1.674-.936 0-1.404.966-1.404 2.898 0 1.38.222 2.31.666 2.79a.948.948 0 001.008.252c.108-.036.234-.102.378-.198.144-.108.264-.288.36-.54.108-.264.174-.582.198-.954H8.64c-.06 1.176-.45 2.07-1.17 2.682-.66.564-1.524.846-2.592.846-1.356 0-2.388-.402-3.096-1.206C1.014 54.14.63 52.946.63 51.446c0-.78.108-1.47.324-2.07.228-.6.498-1.062.81-1.386.324-.324.69-.582 1.098-.774.42-.204.786-.336 1.098-.396.324-.06.63-.09.918-.09.972 0 1.83.282 2.574.846.744.564 1.122 1.416 1.134 2.556zM10.242 56V43.004h2.646v5.148c.648-.912 1.524-1.368 2.628-1.368 1.128 0 2.01.408 2.646 1.224.396.552.594 1.374.594 2.466V56H16.11v-5.436c0-1.32-.498-1.98-1.494-1.98-.456 0-.858.15-1.206.45-.336.288-.504.756-.504 1.404L12.924 56h-2.682zm10.842-10.674v-2.322h2.844v2.322h-2.844zM21.174 56v-9.108h2.664V56h-2.664zm5.01 0V42.986h2.664V56h-2.664zm11.021-7.974v-5.022h2.682v11.52c0 .528.024 1.02.072 1.476h-2.7l-.072-1.314c-.252.456-.558.798-.918 1.026-.48.312-1.068.468-1.764.468-1.212 0-2.16-.396-2.844-1.188-.684-.804-1.026-1.914-1.026-3.33 0-1.488.366-2.67 1.098-3.546.744-.888 1.716-1.332 2.916-1.332 1.104 0 1.956.414 2.556 1.242zm-3.87 3.564c0 .828.15 1.512.45 2.052.3.54.762.81 1.386.81a1.83 1.83 0 001.008-.288c.3-.192.528-.438.684-.738.288-.552.432-1.266.432-2.142 0-.876-.18-1.554-.54-2.034-.348-.48-.828-.72-1.44-.72-.42 0-.774.114-1.062.342-.276.216-.48.504-.612.864-.12.36-.204.684-.252.972a7.105 7.105 0 00-.054.882zM42.197 56v-6.858c0-.696-.042-1.452-.126-2.268h2.502l.054 1.746c.108-.252.216-.462.324-.63.12-.168.294-.354.522-.558.228-.216.534-.372.918-.468a4.61 4.61 0 011.332-.108v2.394c-.636-.06-1.164-.036-1.584.072-.408.108-.702.294-.882.558a2.246 2.246 0 00-.324.756 4.415 4.415 0 00-.072.882V56h-2.664zm14.924-3.87h-6.102c0 1.62.618 2.43 1.854 2.43.852 0 1.38-.42 1.584-1.26h2.43c-.06.78-.348 1.44-.864 1.98-.672.708-1.734 1.062-3.186 1.062-1.404 0-2.472-.378-3.204-1.134-.78-.816-1.17-1.998-1.17-3.546 0-1.992.63-3.426 1.89-4.302.756-.504 1.608-.756 2.556-.756a4.45 4.45 0 012.106.522c.66.336 1.182.894 1.566 1.674.42.864.6 1.974.54 3.33zm-6.012-1.674h3.294c0-.18-.012-.348-.036-.504a3.407 3.407 0 00-.18-.648 1.15 1.15 0 00-.486-.63c-.228-.168-.522-.252-.882-.252-.552 0-.972.192-1.26.576-.276.384-.426.87-.45 1.458zM58.915 56v-7.47c0-.684-.018-1.236-.054-1.656h2.556l.072 1.368c.648-1.056 1.632-1.584 2.952-1.584.792 0 1.41.18 1.854.54.456.348.762.738.918 1.17.168.468.252 1.374.252 2.718V56h-2.718v-5.652c0-.468-.048-.798-.144-.99-.252-.516-.684-.774-1.296-.774s-1.074.234-1.386.702c-.216.312-.324.774-.324 1.386V56h-2.682zm15.888-10.674v-2.322h2.844v2.322h-2.844zM74.893 56v-9.108h2.664V56h-2.664zm5.045 0v-7.47c0-.684-.018-1.236-.054-1.656h2.556l.072 1.368c.648-1.056 1.632-1.584 2.952-1.584.792 0 1.41.18 1.854.54.456.348.762.738.918 1.17.168.468.252 1.374.252 2.718V56H85.77v-5.652c0-.468-.048-.798-.144-.99-.252-.516-.684-.774-1.296-.774s-1.074.234-1.386.702c-.216.312-.324.774-.324 1.386V56h-2.682zm16.014 0v-7.47c0-.684-.018-1.236-.054-1.656h2.556l.072 1.368c.648-1.056 1.632-1.584 2.952-1.584.792 0 1.41.18 1.854.54.456.348.762.738.918 1.17.168.468.252 1.374.252 2.718V56h-2.718v-5.652c0-.468-.048-.798-.144-.99-.252-.516-.684-.774-1.296-.774s-1.074.234-1.386.702c-.216.312-.324.774-.324 1.386V56h-2.682zm19.212-3.87h-6.102c0 1.62.618 2.43 1.854 2.43.852 0 1.38-.42 1.584-1.26h2.43c-.06.78-.348 1.44-.864 1.98-.672.708-1.734 1.062-3.186 1.062-1.404 0-2.472-.378-3.204-1.134-.78-.816-1.17-1.998-1.17-3.546 0-1.992.63-3.426 1.89-4.302.756-.504 1.608-.756 2.556-.756a4.45 4.45 0 012.106.522c.66.336 1.182.894 1.566 1.674.42.864.6 1.974.54 3.33zm-6.012-1.674h3.294c0-.18-.012-.348-.036-.504a3.407 3.407 0 00-.18-.648 1.15 1.15 0 00-.486-.63c-.228-.168-.522-.252-.882-.252-.552 0-.972.192-1.26.576-.276.384-.426.87-.45 1.458zm16.014 1.674h-6.102c0 1.62.618 2.43 1.854 2.43.852 0 1.38-.42 1.584-1.26h2.43c-.06.78-.348 1.44-.864 1.98-.672.708-1.734 1.062-3.186 1.062-1.404 0-2.472-.378-3.204-1.134-.78-.816-1.17-1.998-1.17-3.546 0-1.992.63-3.426 1.89-4.302.756-.504 1.608-.756 2.556-.756a4.45 4.45 0 012.106.522c.66.336 1.182.894 1.566 1.674.42.864.6 1.974.54 3.33zm-6.012-1.674h3.294c0-.18-.012-.348-.036-.504a3.407 3.407 0 00-.18-.648 1.15 1.15 0 00-.486-.63c-.228-.168-.522-.252-.882-.252-.552 0-.972.192-1.26.576-.276.384-.426.87-.45 1.458zm13.782-2.43v-5.022h2.682v11.52c0 .528.024 1.02.072 1.476h-2.7l-.072-1.314c-.252.456-.558.798-.918 1.026-.48.312-1.068.468-1.764.468-1.212 0-2.16-.396-2.844-1.188-.684-.804-1.026-1.914-1.026-3.33 0-1.488.366-2.67 1.098-3.546.744-.888 1.716-1.332 2.916-1.332 1.104 0 1.956.414 2.556 1.242zm-3.87 3.564c0 .828.15 1.512.45 2.052.3.54.762.81 1.386.81a1.83 1.83 0 001.008-.288c.3-.192.528-.438.684-.738.288-.552.432-1.266.432-2.142 0-.876-.18-1.554-.54-2.034-.348-.48-.828-.72-1.44-.72-.42 0-.774.114-1.062.342-.276.216-.48.504-.612.864-.12.36-.204.684-.252.972a7.105 7.105 0 00-.054.882z" fill="#fff"/></svg>