<svg width="21" height="21" viewBox="0 0 21 21" fill="none" xmlns="http://www.w3.org/2000/svg"><path d="M18.83 9.489l-.423.263c-.198.12-.413.252-.476.292-.245.156-.336.213-.76.47-.238.147-.488.298-.55.339l-.218.138-1.177.729c-.2.12-.34.205-.56.344-.28.177-.278.171-.263.469.005.08.01.187.01.238a16.524 16.524 0 00.018.658c.004.175.012.379.015.454l.007.227c0 .05.001.148.003.216a90.765 90.765 0 01.04 1.35c.004.075.005.166.006.205 0 .037.006.175.01.306.005.132.007.289.009.352.006.154.01.316.015.477.003.074.006.16.005.193 0 .032.002.123.008.204l.008.176c.002.05-.046.035-.123-.037-.088-.084-.255-.243-.385-.369a7.514 7.514 0 01-.313-.299l-.24-.232c-.191-.177-.487-.459-.83-.787-.04-.04-.114-.107-.16-.154a8.631 8.631 0 01-.203-.192 8.192 8.192 0 00-.18-.172c-.035-.032-.104-.1-.153-.146l-.26-.249a23.13 23.13 0 01-.288-.274c-.063-.063-.156-.148-.205-.194a.578.578 0 01-.097-.097c-.002-.008-.029-.028-.058-.041-.05-.023-.059-.02-.228.084a53.533 53.533 0 01-1.03.639l-.77.475c-.056.037-.35.218-.655.404-.546.335-.727.446-.835.52-.03.02-.088.053-.124.073a91.582 91.582 0 00-2.06 1.275l-.266.166c-.083.051-.17.107-.192.123-.025.015-.046.02-.05.009-.003-.01.221-.442.498-.959l1.1-2.056c.109-.207.27-.506.356-.666.088-.16.334-.62.55-1.024.214-.403.498-.931.632-1.176.132-.241.235-.453.23-.468a4.04 4.04 0 00-.068-.143l-.094-.118s-.01-.043-.248-.272c-.207-.195-.616-.586-.707-.672l-.17-.163a4.77 4.77 0 01-.16-.151c-.045-.045-.123-.116-.17-.163a6.523 6.523 0 00-.158-.149l-.17-.163c-.055-.051-.173-.165-.261-.249-.263-.248-.443-.42-.622-.592l-.178-.172a70.584 70.584 0 01-.375-.357c-.088-.086-.166-.16-.489-.466-.4-.379-.42-.4-.524-.497l-.177-.173a70.563 70.563 0 01-.375-.357c-.213-.204-.252-.24-.32-.303l-.17-.163-.707-.675c-.417-.396-.517-.494-.512-.507a4.1 4.1 0 01.425.09c.231.057.436.107.454.108a27.656 27.656 0 00.517.124c.287.068 2.207.53 2.286.551.02.007.16.04.308.076a717.788 717.788 0 003.01.726c.038.01.083.022.102.025.018 0 .444.103.944.225.5.122.927.215.947.204.039-.02.338-.564 1.15-2.091.114-.215.273-.514.357-.666l.52-.969c.76-1.416 1.074-2 1.26-2.35.108-.197.2-.348.211-.336.014.021.028.244.028.466 0 .05 0 .153.004.228.003.074.006.16.005.193 0 .032.003.123.008.204.003.081.009.191.009.249.002.1.011.45.02.704 0 .068.003.154.004.193 0 .037.003.125.007.193 0 .068.005.174.005.239.006.218.022.748.028.873l.003.216c0 .05.003.153.006.228.003.074.011.278.015.453l.015.442c.002.068.003.166.003.217 0 .05.005.156.008.238.005.08.006.174.005.209 0 .032 0 .094.003.137.004.076.02.497.024.675 0 .094.005.202.015.476.011.342.021.495.032.5.021.01 2.122.52 2.24.545.034.005.544.128 1.133.272.589.144 1.1.267 1.139.273.084.014.089.036.017.089z" fill="#fff" opacity=".3"/></svg>