<svg width="21" height="21" viewBox="0 0 21 21" fill="none" xmlns="http://www.w3.org/2000/svg"><path d="M17.09 7.594c-.022.027-.152.174-.289.327-.136.15-.284.314-.325.363-.168.193-.23.263-.52.584-.164.183-.336.372-.378.422-.042.05-.11.125-.148.17-.123.14-.757.852-.805.905-.139.15-.234.257-.385.43-.19.217-.19.212-.103.458.024.066.054.155.067.197l.057.18.123.368c.046.146.104.315.125.377.021.061.05.146.062.188l.056.182a85.68 85.68 0 01.37 1.122c.022.062.046.138.057.17l.083.255c.037.109.079.24.096.293l.131.396c.022.062.045.134.052.161.01.026.033.103.058.169l.05.146c.015.04-.029.04-.111 0a291.663 291.663 0 01-.543-.277 6.524 6.524 0 01-.21-.11c-.103-.054-.219-.113-.259-.135a85.122 85.122 0 01-.891-.453c-.043-.023-.122-.062-.173-.09a7.837 7.837 0 01-.217-.11 6.585 6.585 0 00-.194-.1l-.165-.084-.28-.143a19.566 19.566 0 01-.31-.16c-.068-.036-.167-.084-.22-.11a.506.506 0 01-.105-.058c-.004-.006-.031-.016-.06-.02-.047-.006-.053-.002-.169.128a46.812 46.812 0 01-.705.793l-.527.59c-.038.045-.24.27-.449.503-.374.417-.498.555-.57.644-.02.025-.06.066-.086.093a79.814 79.814 0 00-1.41 1.584l-.182.205a4.5 4.5 0 00-.13.151c-.017.019-.034.028-.04.02-.005-.008.076-.426.179-.928.28-1.364.33-1.603.41-2 .04-.201.101-.492.133-.648.034-.155.126-.604.206-.996.08-.392.186-.906.237-1.144.051-.236.085-.44.077-.45a3.454 3.454 0 00-.093-.104l-.108-.076s-.019-.033-.276-.165c-.222-.112-.662-.34-.76-.388l-.183-.095a4.176 4.176 0 01-.171-.086c-.05-.027-.132-.067-.183-.095a5.688 5.688 0 00-.17-.085l-.184-.095-.28-.143-.67-.341-.191-.1a59.702 59.702 0 01-.403-.207l-.527-.27c-.43-.217-.452-.23-.563-.286l-.192-.1a62.455 62.455 0 01-.403-.206c-.229-.118-.27-.139-.343-.175l-.183-.094-.761-.39c-.448-.228-.557-.286-.556-.298.003-.006.173-.019.379-.03.208-.01.392-.02.407-.023a24.059 24.059 0 00.464-.025 698.1 698.1 0 012.055-.108c.019.001.145-.006.277-.013l.276-.015a627.77 627.77 0 002.43-.127 39.03 39.03 0 01.939-.05c.448-.023.83-.052.843-.066.028-.026.144-.558.444-2.041.042-.209.101-.5.133-.648.032-.149.12-.574.196-.943.284-1.377.402-1.945.47-2.286.042-.192.082-.342.094-.334.017.014.084.197.14.384.012.042.038.128.06.19.021.061.044.133.052.16.008.027.033.103.057.17.023.067.055.158.07.206.026.084.121.375.191.586l.052.161c.01.031.034.104.054.16.018.057.048.145.064.2l.24.725c.019.057.044.139.057.181.013.042.04.127.062.19.021.06.079.23.125.376l.123.367.057.18c.012.043.043.131.065.199.025.066.049.145.057.174.007.028.023.079.036.114.022.063.14.413.188.56.024.08.055.169.131.397.095.284.141.41.152.412.02.002 1.909-.093 2.014-.103.03-.004.488-.028 1.017-.054.53-.026.99-.05 1.023-.055.074-.009.084.008.036.07z" fill="#fff" opacity=".2"/></svg>