<svg width="20" height="20" viewBox="0 0 20 20" fill="none" xmlns="http://www.w3.org/2000/svg"><path d="M16.731 13.504l-.466-.007c-.218-.005-.453-.012-.523-.011a29.866 29.866 0 01-.836-.015c-.264-.005-.537-.013-.607-.013h-.24l-1.298-.023c-.218-.008-.371-.01-.616-.013-.31-.003-.306-.006-.444.237a4.588 4.588 0 01-.112.192 14.798 14.798 0 00-.318.529c-.086.14-.183.305-.218.365s-.084.143-.11.183l-.106.172a91.871 91.871 0 01-.65 1.086c-.035.06-.08.134-.099.164l-.147.247c-.062.106-.14.231-.17.282l-.23.384c-.034.06-.076.13-.093.155-.015.025-.06.098-.097.165l-.082.143c-.023.04-.054.004-.079-.091l-.117-.488a7.027 7.027 0 01-.096-.395c-.029-.121-.062-.257-.072-.304-.061-.237-.153-.61-.258-1.042-.011-.052-.035-.143-.048-.204a8.296 8.296 0 01-.063-.254 7.345 7.345 0 00-.055-.226l-.047-.193a27.73 27.73 0 00-.08-.329c-.03-.118-.07-.281-.088-.362-.019-.082-.05-.196-.064-.257a.544.544 0 01-.028-.126c.003-.008-.009-.036-.025-.062-.028-.043-.036-.046-.222-.049a50.287 50.287 0 01-1.136-.02c-.402-.007-.784-.015-.847-.015-.063 0-.387-.006-.722-.013-.6-.013-.798-.018-.92-.015-.034.002-.096-.002-.136-.004a86.118 86.118 0 00-2.27-.04l-.292-.005a4.865 4.865 0 00-.214 0c-.028-.001-.047-.008-.044-.018.003-.01.397-.237.877-.504a648.81 648.81 0 001.906-1.064c.19-.108.47-.262.618-.345.15-.08.577-.32.95-.528.373-.21.864-.482 1.093-.607.227-.124.415-.238.419-.252.003-.014.018-.148.018-.148l-.015-.141s.015-.039-.058-.34c-.065-.26-.19-.776-.218-.89l-.052-.215a4.456 4.456 0 01-.05-.2c-.013-.058-.038-.154-.052-.214a6.25 6.25 0 00-.05-.198l-.051-.215c-.018-.069-.054-.218-.08-.33-.083-.328-.138-.555-.193-.782l-.053-.226a65.48 65.48 0 01-.116-.472c-.026-.113-.05-.21-.15-.616l-.162-.658c-.016-.068-.041-.17-.053-.226a66.303 66.303 0 01-.116-.472c-.065-.27-.077-.317-.099-.402-.012-.05-.036-.147-.051-.215-.029-.113-.154-.63-.218-.89-.13-.525-.158-.653-.147-.661.006-.003.136.128.288.287.155.162.29.305.305.315a26.053 26.053 0 00.345.36c.193.2 1.474 1.54 1.526 1.596.012.016.106.113.205.216l.205.214A674.523 674.523 0 009.92 6.278a42.075 42.075 0 01.699.728c.333.35.623.64.644.641.04.005.552-.273 1.964-1.066.198-.112.475-.266.617-.344.143-.078.548-.304.901-.5 1.314-.732 1.856-1.033 2.18-1.215.185-.1.334-.173.337-.157 0 .023-.102.205-.214.38-.025.04-.076.122-.111.183a3.46 3.46 0 01-.094.155c-.015.025-.06.098-.097.164-.038.066-.09.156-.119.201l-.34.566-.094.155-.092.155-.116.191c-.106.175-.36.602-.42.703-.033.055-.08.133-.106.173-.025.04-.075.122-.11.182s-.132.225-.217.365c-.084.141-.18.302-.211.357l-.107.172c-.025.04-.076.126-.114.192-.037.067-.084.14-.102.168a1.841 1.841 0 00-.067.109c-.036.062-.236.403-.322.545-.047.074-.098.162-.229.383-.164.276-.233.402-.227.412.012.018 1.412 1.487 1.493 1.566.024.021.364.377.756.79.392.412.734.769.76.793.06.054.053.073-.03.079z" fill="#fff" opacity=".2"/></svg>