<svg width="160" height="25" viewBox="0 0 160 25" fill="none" xmlns="http://www.w3.org/2000/svg"><path d="M3.062 18h-1.04V6.448h1.04v5.072h6.304V6.448h1.04V18h-1.04v-5.52H3.062V18zm16.97-3.792h-6.208c.022.928.256 1.685.704 2.272.459.587 1.152.88 2.08.88.566 0 1.062-.181 1.488-.544a2.38 2.38 0 00.832-1.376h1.008c-.48 1.867-1.69 2.8-3.632 2.8-1.13 0-2-.41-2.608-1.232-.608-.832-.912-1.84-.912-3.024 0-1.173.315-2.176.944-3.008.63-.832 1.51-1.248 2.64-1.248 1.27 0 2.198.41 2.784 1.232.587.81.88 1.893.88 3.248zm-6.176-.88h5.136c-.064-.821-.314-1.477-.752-1.968-.437-.501-1.056-.752-1.856-.752-.736 0-1.322.261-1.76.784-.437.523-.693 1.168-.768 1.936zm9.275-6.88V18h-.96V6.448h.96zm3.37 7.344c0 .661.075 1.248.225 1.76a2.7 2.7 0 00.88 1.28c.426.352.97.528 1.632.528.437 0 .81-.107 1.12-.32.32-.224.56-.517.72-.88.17-.373.288-.747.352-1.12a6.28 6.28 0 00.112-1.2 4.89 4.89 0 00-.224-1.52c-.139-.47-.4-.87-.784-1.2-.384-.341-.864-.512-1.44-.512-.875 0-1.526.304-1.952.912-.427.608-.64 1.365-.64 2.272zm0 2.96v4.32h-.96v-9.296c0-.203-.026-.805-.08-1.808h.993l.048 1.184.032.032c.267-.459.65-.816 1.152-1.072a3.534 3.534 0 011.6-.384c.757 0 1.392.213 1.904.64.512.427.87.95 1.072 1.568.213.608.32 1.28.32 2.016 0 .533-.064 1.045-.192 1.536-.117.48-.304.933-.56 1.36a2.814 2.814 0 01-1.024 1.008c-.427.256-.918.384-1.472.384-1.184 0-2.117-.496-2.8-1.488h-.032zm17.92-2.16V9.968h.96v6.224c0 .299.027.901.08 1.808h-.991l-.048-1.184-.032-.032c-.544.97-1.382 1.456-2.512 1.456-.502 0-.939-.085-1.312-.256-.363-.17-.64-.373-.832-.608a3.039 3.039 0 01-.448-.848 5.222 5.222 0 01-.208-.832 7.443 7.443 0 01-.032-.704V9.968h.96v5.184c0 .693.186 1.237.56 1.632.373.384.89.576 1.552.576.746 0 1.317-.267 1.712-.8.394-.533.592-1.19.592-1.968zm3.243-2.624c0-.768.288-1.333.864-1.696.576-.363 1.27-.544 2.08-.544 1.846 0 2.822.741 2.928 2.224h-1.04c-.085-.896-.746-1.344-1.984-1.344-.501 0-.928.107-1.28.32-.352.213-.528.539-.528.976 0 .224.054.41.16.56.118.15.299.277.544.384.246.096.496.181.752.256.267.064.619.155 1.056.272.448.117.854.24 1.216.368.416.15.747.395.992.736.246.33.368.71.368 1.136 0 .853-.33 1.504-.992 1.952-.661.448-1.456.672-2.384.672a4.33 4.33 0 01-1.408-.224c-.426-.15-.8-.416-1.12-.8-.32-.384-.485-.853-.496-1.408h1.04c.032.555.256.955.672 1.2.416.235.934.352 1.552.352.566 0 1.056-.133 1.472-.4.416-.277.624-.677.624-1.2 0-.33-.128-.608-.384-.832-.245-.224-.49-.373-.736-.448a14.58 14.58 0 00-1.152-.288 2.991 2.991 0 00-.272-.064 18.136 18.136 0 01-.96-.256 4.928 4.928 0 01-.768-.368 1.594 1.594 0 01-.624-.624 2.018 2.018 0 01-.192-.912zm13.413 3.888v-5.008h-1.6v-.88h1.6V8.256l.96-.416v2.128h1.824v.88h-1.824v5.376c-.021.757.347 1.136 1.104 1.136.352 0 .63-.032.832-.096v.832a3.858 3.858 0 01-.976.144 3.71 3.71 0 01-.816-.08 1.19 1.19 0 01-.544-.272 3.283 3.283 0 01-.336-.352c-.074-.107-.128-.267-.16-.48a9.127 9.127 0 01-.064-.496v-.544-.16zm5.6-9.408v4.736h.032c.544-.97 1.382-1.456 2.513-1.456.5 0 .933.085 1.296.256.373.17.65.373.832.608.192.235.34.517.448.848.117.33.186.608.207.832.032.224.049.459.049.704V18h-.96v-5.184c0-.693-.187-1.232-.56-1.616-.374-.395-.891-.592-1.553-.592-.746 0-1.317.267-1.712.8-.394.533-.592 1.19-.592 1.968V18h-.96V6.448h.96zm7.947 3.52h.96V18h-.96V9.968zm1.04-3.52v1.2h-1.12v-1.2h1.12zm2.219 5.52c0-.768.288-1.333.864-1.696.576-.363 1.27-.544 2.08-.544 1.845 0 2.821.741 2.928 2.224h-1.04c-.085-.896-.747-1.344-1.984-1.344-.501 0-.928.107-1.28.32-.352.213-.528.539-.528.976 0 .224.053.41.16.56.117.15.299.277.544.384.245.096.496.181.752.256.267.064.619.155 1.056.272.448.117.853.24 1.216.368.416.15.747.395.992.736.245.33.368.71.368 1.136 0 .853-.33 1.504-.992 1.952-.661.448-1.456.672-2.384.672a4.33 4.33 0 01-1.408-.224c-.427-.15-.8-.416-1.12-.8-.32-.384-.485-.853-.496-1.408h1.04c.032.555.256.955.672 1.2.416.235.933.352 1.552.352.565 0 1.056-.133 1.472-.4.416-.277.624-.677.624-1.2 0-.33-.128-.608-.384-.832-.245-.224-.49-.373-.736-.448a14.58 14.58 0 00-1.152-.288 2.983 2.983 0 00-.272-.064 18.136 18.136 0 01-.96-.256 4.928 4.928 0 01-.768-.368 1.595 1.595 0 01-.624-.624 2.018 2.018 0 01-.192-.912zm14.133-.432h2.224c.363 0 .667-.005.912-.016.256-.021.544-.07.864-.144.33-.075.592-.181.784-.32.203-.139.374-.341.512-.608.15-.277.224-.603.224-.976 0-.288-.037-.544-.112-.768a1.846 1.846 0 00-.272-.544 1.045 1.045 0 00-.448-.368 2.691 2.691 0 00-.496-.224c-.128-.053-.32-.09-.576-.112a5.075 5.075 0 00-.544-.048h-3.072v4.128zm0 .96V18h-1.04V6.448h3.776c1.163 0 2.07.203 2.72.608.79.47 1.184 1.275 1.184 2.416 0 .619-.203 1.147-.608 1.584-.395.427-.933.725-1.616.896v.032c.683.107 1.152.373 1.408.8.267.416.443 1.008.528 1.776.032.32.07.72.112 1.2.043.47.075.8.096.992.022.192.064.405.128.64.075.235.166.437.272.608h-1.2c-.181-.512-.314-1.312-.4-2.4a16.833 16.833 0 00-.128-1.152 5.253 5.253 0 00-.16-.816c-.075-.277-.16-.47-.256-.576a1.301 1.301 0 00-.432-.32 1.477 1.477 0 00-.624-.192 6.846 6.846 0 00-.896-.048h-2.864zm9.6 3.264c0 .523.171.923.512 1.2.341.267.773.4 1.296.4 1.728 0 2.528-1.136 2.4-3.408-.096 0-.315.005-.656.016-.331 0-.592.005-.784.016-.192.01-.448.032-.768.064s-.581.09-.784.176a3.238 3.238 0 00-.608.304 1.263 1.263 0 00-.464.512 1.668 1.668 0 00-.144.72zm4.208-2.688v-.736c-.043-.63-.224-1.072-.544-1.328-.309-.267-.763-.4-1.36-.4-1.205 0-1.861.464-1.968 1.392h-1.024c.224-1.515 1.227-2.272 3.008-2.272.917 0 1.621.219 2.112.656.501.437.747 1.104.736 2v3.808c0 .203.027.805.08 1.808h-.992l-.032-1.184h-.032l-.048.112c-.181.352-.517.661-1.008.928-.48.256-.981.384-1.504.384-.768 0-1.408-.224-1.92-.672-.501-.448-.752-1.05-.752-1.808 0-.533.144-1.003.432-1.408.299-.405.693-.71 1.184-.912.32-.139.672-.23 1.056-.272.384-.053.864-.08 1.44-.08.587 0 .965-.005 1.136-.016zm4.352-3.104l.048 1.184.032.032c.544-.97 1.381-1.456 2.512-1.456.629 0 1.173.16 1.632.48.469.32.795.747.976 1.28.736-1.173 1.659-1.76 2.768-1.76.501 0 .933.085 1.296.256.373.17.651.373.832.608.192.235.341.517.448.848.117.33.187.608.208.832.032.224.048.459.048.704V18h-.96v-5.184c0-.693-.187-1.232-.56-1.616-.373-.395-.891-.592-1.552-.592-.747 0-1.317.267-1.712.8s-.592 1.19-.592 1.968V18h-.96v-5.184c0-.693-.187-1.232-.56-1.616-.373-.395-.891-.592-1.552-.592-.747 0-1.317.267-1.712.8s-.592 1.19-.592 1.968V18h-.96v-6.224c0-.299-.027-.901-.08-1.808h.992zm13.659 5.792c0 .523.17.923.512 1.2.341.267.773.4 1.296.4 1.728 0 2.528-1.136 2.4-3.408-.096 0-.315.005-.656.016-.331 0-.592.005-.784.016-.192.01-.448.032-.768.064s-.582.09-.784.176a3.208 3.208 0 00-.608.304 1.256 1.256 0 00-.464.512 1.668 1.668 0 00-.144.72zm4.208-2.688v-.736c-.043-.63-.224-1.072-.544-1.328-.31-.267-.763-.4-1.36-.4-1.206 0-1.862.464-1.968 1.392h-1.024c.224-1.515 1.226-2.272 3.008-2.272.917 0 1.621.219 2.112.656.501.437.746 1.104.736 2v3.808c0 .203.026.805.08 1.808h-.992l-.032-1.184h-.032l-.048.112c-.182.352-.518.661-1.008.928-.48.256-.982.384-1.504.384-.768 0-1.408-.224-1.92-.672-.502-.448-.752-1.05-.752-1.808 0-.533.144-1.003.432-1.408.298-.405.693-.71 1.184-.912.32-.139.672-.23 1.056-.272.384-.053.864-.08 1.44-.08.586 0 .965-.005 1.136-.016zm8.96.72c0-.907-.214-1.664-.64-2.272-.427-.608-1.078-.912-1.952-.912-.576 0-1.056.17-1.44.512-.374.33-.63.73-.768 1.2a5.226 5.226 0 00-.208 1.52c0 .416.032.816.096 1.2.074.373.186.747.336 1.12.16.363.394.656.704.88.32.213.698.32 1.136.32.661 0 1.205-.176 1.632-.528.426-.352.714-.779.864-1.28.16-.512.24-1.099.24-1.76zm.08 4.208l-.048-1.184-.032-.064c-.683.992-1.6 1.488-2.752 1.488a3.007 3.007 0 01-1.52-.384 2.94 2.94 0 01-1.04-1.008 5.596 5.596 0 01-.56-1.36 6.548 6.548 0 01-.176-1.536c0-.736.101-1.408.304-2.016a3.486 3.486 0 011.088-1.568c.512-.427 1.146-.64 1.904-.64.554 0 1.082.128 1.584.384.512.256.901.613 1.168 1.072l.032-.032V6.448h.96v9.744c0 .299.026.901.08 1.808h-.992zm3.642-2.24c0 .523.171.923.512 1.2.342.267.774.4 1.296.4 1.728 0 2.528-1.136 2.4-3.408-.096 0-.314.005-.656.016-.33 0-.592.005-.784.016-.192.01-.448.032-.768.064s-.581.09-.784.176a3.268 3.268 0 00-.608.304 1.27 1.27 0 00-.464.512 1.668 1.668 0 00-.144.72zm4.208-2.688v-.736c-.042-.63-.224-1.072-.544-1.328-.309-.267-.762-.4-1.36-.4-1.205 0-1.861.464-1.968 1.392h-1.024c.224-1.515 1.227-2.272 3.008-2.272.918 0 1.622.219 2.112.656.502.437.747 1.104.736 2v3.808c0 .203.027.805.08 1.808h-.992l-.032-1.184h-.032l-.048.112c-.181.352-.517.661-1.008.928-.48.256-.981.384-1.504.384-.768 0-1.408-.224-1.92-.672-.501-.448-.752-1.05-.752-1.808 0-.533.144-1.003.432-1.408.299-.405.694-.71 1.184-.912.32-.139.672-.23 1.056-.272.384-.053.864-.08 1.44-.08.587 0 .966-.005 1.136-.016zm4.416.304V18h-.96v-6.224c0-.299-.026-.901-.08-1.808h.992l.048 1.184.032.032c.544-.97 1.382-1.456 2.512-1.456.502 0 .934.085 1.296.256.374.17.651.373.832.608.192.235.342.517.448.848.118.33.187.608.208.832.032.224.048.459.048.704V18h-.96v-5.184c0-.693-.186-1.232-.56-1.616-.373-.395-.89-.592-1.552-.592-.746 0-1.317.267-1.712.8-.394.533-.592 1.19-.592 1.968z" fill="#fff"/></svg>