<svg width="201" height="31" viewBox="0 0 201 31" fill="none" xmlns="http://www.w3.org/2000/svg"><path d="M3.944 22h-1.17V9.004h1.17v5.706h7.092V9.004h1.17V22h-1.17v-6.21H3.944V22zm19.092-4.266h-6.984c.024 1.044.288 1.896.792 2.556.516.66 1.296.99 2.34.99.636 0 1.194-.204 1.674-.612.492-.408.804-.924.936-1.548h1.134c-.54 2.1-1.902 3.15-4.086 3.15-1.272 0-2.25-.462-2.934-1.386-.684-.936-1.026-2.07-1.026-3.402 0-1.32.354-2.448 1.062-3.384.708-.936 1.698-1.404 2.97-1.404 1.428 0 2.472.462 3.132 1.386.66.912.99 2.13.99 3.654zm-6.948-.99h5.778c-.072-.924-.354-1.662-.846-2.214-.492-.564-1.188-.846-2.088-.846-.828 0-1.488.294-1.98.882-.492.588-.78 1.314-.864 2.178zm10.434-7.74V22h-1.08V9.004h1.08zm3.793 8.262c0 .744.084 1.404.252 1.98.18.564.51 1.044.99 1.44.48.396 1.092.594 1.836.594.492 0 .912-.12 1.26-.36.36-.252.63-.582.81-.99.192-.42.324-.84.396-1.26a7.06 7.06 0 00.126-1.35 5.5 5.5 0 00-.252-1.71 2.799 2.799 0 00-.882-1.35c-.432-.384-.972-.576-1.62-.576-.984 0-1.716.342-2.196 1.026-.48.684-.72 1.536-.72 2.556zm0 3.33v4.86h-1.08V14.998c0-.228-.03-.906-.09-2.034h1.116l.054 1.332.036.036c.3-.516.732-.918 1.296-1.206a3.976 3.976 0 011.8-.432c.852 0 1.566.24 2.142.72.576.48.978 1.068 1.206 1.764.24.684.36 1.44.36 2.268 0 .6-.072 1.176-.216 1.728a5.493 5.493 0 01-.63 1.53c-.276.468-.66.846-1.152 1.134-.48.288-1.032.432-1.656.432-1.332 0-2.382-.558-3.15-1.674h-.036zM44.732 9.004h1.17v8.406c.048 1.176.39 2.1 1.026 2.772.636.672 1.488 1.008 2.556 1.008s1.92-.336 2.556-1.008c.636-.672.978-1.596 1.026-2.772V9.004h1.17v8.424c-.024 1.452-.444 2.622-1.26 3.51-.804.888-1.968 1.332-3.492 1.332s-2.694-.444-3.51-1.332c-.804-.888-1.218-2.058-1.242-3.51V9.004zM57.632 22V9.004h1.333l7.164 11.43h.036V9.004h1.17V22h-1.476l-7.02-11.232h-.036V22h-1.17zm14.43 0h-1.17V8.95h1.17V22zm12.93-9.954h-1.26c-.095-.744-.431-1.302-1.007-1.674-.564-.372-1.248-.558-2.052-.558-.792 0-1.482.168-2.07.504a3.567 3.567 0 00-1.368 1.368 6.802 6.802 0 00-.684 1.8 8.953 8.953 0 00-.216 2.016c0 .72.072 1.398.216 2.034.144.624.372 1.224.684 1.8.324.564.78 1.014 1.368 1.35.588.336 1.278.504 2.07.504.78 0 1.47-.198 2.07-.594.6-.396.978-.978 1.134-1.746h1.26c-.18 1.056-.696 1.89-1.548 2.502-.852.612-1.824.918-2.916.918-.948 0-1.794-.18-2.538-.54a4.776 4.776 0 01-1.764-1.494 7.109 7.109 0 01-.972-2.142 9.959 9.959 0 01-.324-2.592c0-.912.108-1.764.324-2.556a7.412 7.412 0 01.99-2.16 4.563 4.563 0 011.764-1.494c.732-.372 1.572-.558 2.52-.558 1.164 0 2.154.276 2.97.828.816.552 1.266 1.38 1.35 2.484zM95.81 22h-7.992V9.004h7.722v1.08h-6.552v4.662h6.3v1.08h-6.3v5.094h6.822V22zm4.056 0h-1.17V9.004h7.344v1.08h-6.174v4.59h5.958v1.08h-5.958V22zm20.448-6.264h-1.17c-.084-1.368-.906-2.052-2.466-2.052-.804 0-1.452.366-1.944 1.098-.492.732-.738 1.626-.738 2.682 0 1.068.246 1.974.738 2.718.492.732 1.14 1.098 1.944 1.098.696 0 1.266-.192 1.71-.576.456-.396.708-.906.756-1.53h1.17c-.288 2.064-1.464 3.096-3.528 3.096-1.272 0-2.25-.462-2.934-1.386-.684-.936-1.026-2.07-1.026-3.402 0-1.32.354-2.448 1.062-3.384.708-.936 1.698-1.404 2.97-1.404.96 0 1.764.276 2.412.828.648.54.996 1.278 1.044 2.214zm3.204-6.732v5.328h.036c.612-1.092 1.554-1.638 2.826-1.638.564 0 1.05.096 1.458.288.42.192.732.42.936.684.216.264.384.582.504.954.132.372.21.684.234.936.036.252.054.516.054.792V22h-1.08v-5.832c0-.78-.21-1.386-.63-1.818-.42-.444-1.002-.666-1.746-.666-.84 0-1.482.3-1.926.9-.444.6-.666 1.338-.666 2.214V22h-1.08V9.004h1.08zm9.3 10.476c0 .588.192 1.038.576 1.35.384.3.87.45 1.458.45 1.944 0 2.844-1.278 2.7-3.834-.108 0-.354.006-.738.018-.372 0-.666.006-.882.018-.216.012-.504.036-.864.072s-.654.102-.882.198a3.64 3.64 0 00-.684.342 1.421 1.421 0 00-.522.576 1.876 1.876 0 00-.162.81zm4.734-3.024v-.828c-.048-.708-.252-1.206-.612-1.494-.348-.3-.858-.45-1.53-.45-1.356 0-2.094.522-2.214 1.566h-1.152c.252-1.704 1.38-2.556 3.384-2.556 1.032 0 1.824.246 2.376.738.564.492.84 1.242.828 2.25v4.284c0 .228.03.906.09 2.034h-1.116l-.036-1.332h-.036l-.054.126c-.204.396-.582.744-1.134 1.044a3.548 3.548 0 01-1.692.432c-.864 0-1.584-.252-2.16-.756-.564-.504-.846-1.182-.846-2.034 0-.6.162-1.128.486-1.584.336-.456.78-.798 1.332-1.026.36-.156.756-.258 1.188-.306.432-.06.972-.09 1.62-.09.66 0 1.086-.006 1.278-.018zm4.968.342V22h-1.08v-7.002c0-.336-.03-1.014-.09-2.034h1.116l.054 1.332.036.036c.612-1.092 1.554-1.638 2.826-1.638.564 0 1.05.096 1.458.288.42.192.732.42.936.684.216.264.384.582.504.954.132.372.21.684.234.936.036.252.054.516.054.792V22h-1.08v-5.832c0-.78-.21-1.386-.63-1.818-.42-.444-1.002-.666-1.746-.666-.84 0-1.482.3-1.926.9-.444.6-.666 1.338-.666 2.214zm15.15.486c0-.948-.258-1.782-.774-2.502-.504-.732-1.212-1.098-2.124-1.098-.612 0-1.14.192-1.584.576a3.311 3.311 0 00-.936 1.386 5.152 5.152 0 00-.27 1.674c0 .948.24 1.794.72 2.538.492.744 1.194 1.116 2.106 1.116.96 0 1.674-.366 2.142-1.098.48-.732.72-1.596.72-2.592zm0-2.988l.054-1.332h1.116c-.06 1.02-.09 1.698-.09 2.034v5.634c0 .468-.006.822-.018 1.062 0 .24-.036.558-.108.954-.06.408-.156.732-.288.972-.12.24-.306.492-.558.756a2.82 2.82 0 01-.936.666c-.576.276-1.26.414-2.052.414-.612 0-1.17-.072-1.674-.216a2.896 2.896 0 01-1.332-.774c-.384-.372-.576-.852-.576-1.44h1.17c.06.492.336.852.828 1.08.492.24 1.068.36 1.728.36a2.82 2.82 0 001.908-.702c.54-.468.816-1.068.828-1.8v-1.692h-.036c-.252.516-.654.93-1.206 1.242a3.57 3.57 0 01-1.728.45c-1.296 0-2.268-.426-2.916-1.278-.648-.852-.972-1.944-.972-3.276 0-.864.126-1.638.378-2.322a3.782 3.782 0 011.26-1.71c.6-.456 1.338-.684 2.214-.684 1.212 0 2.202.558 2.97 1.674l.036-.072zm11.388 3.438h-6.984c.024 1.044.288 1.896.792 2.556.516.66 1.296.99 2.34.99.636 0 1.194-.204 1.674-.612.492-.408.804-.924.936-1.548h1.134c-.54 2.1-1.902 3.15-4.086 3.15-1.272 0-2.25-.462-2.934-1.386-.684-.936-1.026-2.07-1.026-3.402 0-1.32.354-2.448 1.062-3.384.708-.936 1.698-1.404 2.97-1.404 1.428 0 2.472.462 3.132 1.386.66.912.99 2.13.99 3.654zm-6.948-.99h5.778c-.072-.924-.354-1.662-.846-2.214-.492-.564-1.188-.846-2.088-.846-.828 0-1.488.294-1.98.882-.492.588-.78 1.314-.864 2.178zm14.364-3.78h1.08V22h-1.08v-9.036zm1.17-3.96v1.35h-1.26v-1.35h1.26zm3.576 10.584v-5.634h-1.8v-.99h1.8v-1.926l1.08-.468v2.394h2.052v.99H182.3v6.048c-.024.852.39 1.278 1.242 1.278.396 0 .708-.036.936-.108v.936a4.34 4.34 0 01-1.098.162c-.348 0-.654-.03-.918-.09a1.34 1.34 0 01-.612-.306 3.704 3.704 0 01-.378-.396c-.084-.12-.144-.3-.18-.54-.036-.24-.06-.426-.072-.558v-.612-.18z" fill="#fff"/></svg>