<svg width="406" height="66" viewBox="0 0 406 66" fill="none" xmlns="http://www.w3.org/2000/svg"><path d="M1.68 28V7.7h4.34V28H1.68zm16.249-2.912v2.716a12.276 12.276 0 01-3.22.448c-.784 0-1.465-.103-2.044-.308-.56-.205-.97-.43-1.232-.672-.261-.243-.467-.57-.616-.98-.15-.43-.233-.756-.252-.98a10.842 10.842 0 01-.028-.868v-7.756H7.821v-2.744h2.716v-2.772l4.116-1.512v4.284h3.36v2.744h-3.36v6.384c0 .41.01.71.028.896.037.187.112.392.224.616a.953.953 0 00.56.476c.261.075.616.112 1.064.112.43 0 .896-.028 1.4-.084zM19.768 14.7l1.988-6.916h4.088L22.708 14.7h-2.94zm5.435 9.212h3.892c.037.523.242.98.616 1.372.373.373.952.56 1.736.56.69 0 1.222-.159 1.596-.476.392-.336.588-.737.588-1.204 0-.355-.14-.653-.42-.896-.262-.261-.775-.495-1.54-.7l-2.576-.7c-.448-.13-.812-.252-1.092-.364a10.85 10.85 0 01-1.092-.616 2.766 2.766 0 01-1.036-1.176c-.243-.504-.364-1.092-.364-1.764 0-1.363.569-2.436 1.708-3.22 1.138-.803 2.632-1.204 4.48-1.204 1.53 0 2.79.355 3.78 1.064 1.008.71 1.54 1.745 1.596 3.108h-3.78c-.075-1.12-.747-1.68-2.016-1.68-.579 0-1.055.13-1.428.392a1.156 1.156 0 00-.532 1.008c0 .43.14.737.42.924.28.168.784.355 1.512.56l2.548.7c2.52.69 3.78 2.007 3.78 3.948 0 1.325-.57 2.473-1.708 3.444-1.12.952-2.716 1.428-4.788 1.428-2.128 0-3.743-.579-4.844-1.736-.635-.672-.98-1.596-1.036-2.772zm35.625-1.932h-9.492c0 2.52.96 3.78 2.884 3.78 1.325 0 2.146-.653 2.464-1.96h3.78c-.094 1.213-.542 2.24-1.344 3.08-1.046 1.101-2.698 1.652-4.956 1.652-2.184 0-3.846-.588-4.984-1.764-1.214-1.27-1.82-3.108-1.82-5.516 0-3.099.98-5.33 2.94-6.692 1.176-.784 2.5-1.176 3.976-1.176 1.157 0 2.249.27 3.276.812 1.026.523 1.838 1.39 2.436 2.604.653 1.344.933 3.07.84 5.18zm-9.352-2.604H56.6c0-.28-.02-.541-.056-.784-.038-.261-.131-.597-.28-1.008a1.788 1.788 0 00-.756-.98c-.355-.261-.812-.392-1.372-.392-.86 0-1.512.299-1.96.896-.43.597-.663 1.353-.7 2.268zM75.798 28h-3.752a12.194 12.194 0 01-.14-1.932c-1.045 1.512-2.455 2.268-4.228 2.268-1.568 0-2.744-.373-3.528-1.12-.821-.821-1.232-1.857-1.232-3.108 0-2.016.999-3.481 2.996-4.396 1.157-.523 3.024-.784 5.6-.784 0-.859-.065-1.484-.196-1.876-.28-.784-.896-1.176-1.848-1.176-.69 0-1.213.261-1.568.784-.205.317-.308.737-.308 1.26h-4.06c.056-1.493.588-2.604 1.596-3.332 1.064-.765 2.492-1.148 4.284-1.148 2.315 0 3.995.607 5.04 1.82.654.784.98 1.941.98 3.472l.028 5.684c0 1.344.112 2.539.336 3.584zm-4.284-6.664c-1.362-.112-2.464.037-3.304.448-.84.41-1.26 1.027-1.26 1.848 0 .523.177.99.532 1.4.355.41.85.616 1.484.616.71 0 1.297-.27 1.764-.812a3 3 0 00.644-1.372c.094-.523.14-1.232.14-2.128zm6.599 2.576h3.892c.037.523.242.98.616 1.372.373.373.952.56 1.736.56.69 0 1.222-.159 1.596-.476.392-.336.588-.737.588-1.204 0-.355-.14-.653-.42-.896-.262-.261-.775-.495-1.54-.7l-2.576-.7c-.448-.13-.812-.252-1.092-.364a10.85 10.85 0 01-1.092-.616 2.765 2.765 0 01-1.036-1.176c-.243-.504-.364-1.092-.364-1.764 0-1.363.57-2.436 1.708-3.22 1.138-.803 2.632-1.204 4.48-1.204 1.53 0 2.79.355 3.78 1.064 1.008.71 1.54 1.745 1.596 3.108h-3.78c-.075-1.12-.747-1.68-2.016-1.68-.579 0-1.055.13-1.428.392a1.156 1.156 0 00-.532 1.008c0 .43.14.737.42.924.28.168.784.355 1.512.56l2.548.7c2.52.69 3.78 2.007 3.78 3.948 0 1.325-.57 2.473-1.708 3.444-1.12.952-2.716 1.428-4.788 1.428-2.128 0-3.743-.579-4.844-1.736-.635-.672-.98-1.596-1.036-2.772zm13.58-10.052h4.48l3.108 9.8 3.164-9.8h4.116l-5.348 13.888-1.708 5.628h-4.172l1.792-5.32-5.432-14.196zm33.095 11.228v2.716a12.27 12.27 0 01-3.22.448c-.784 0-1.465-.103-2.044-.308-.56-.205-.97-.43-1.232-.672-.261-.243-.466-.57-.616-.98-.149-.43-.233-.756-.252-.98a11.184 11.184 0 01-.028-.868v-7.756h-2.716v-2.744h2.716v-2.772l4.116-1.512v4.284h3.36v2.744h-3.36v6.384c0 .41.01.71.028.896.038.187.112.392.224.616a.954.954 0 00.56.476c.262.075.616.112 1.064.112.43 0 .896-.028 1.4-.084zm1.923-4.032c0-.915.121-1.792.364-2.632a8.556 8.556 0 011.176-2.38c.541-.765 1.307-1.372 2.296-1.82.989-.467 2.147-.7 3.472-.7 2.427 0 4.256.71 5.488 2.128 1.232 1.4 1.848 3.164 1.848 5.292 0 2.147-.635 3.948-1.904 5.404-1.251 1.437-3.089 2.156-5.516 2.156-2.109 0-3.845-.644-5.208-1.932-1.344-1.288-2.016-3.127-2.016-5.516zm4.256.028c0 3.024 1.036 4.536 3.108 4.536.989 0 1.745-.364 2.268-1.092.523-.728.784-1.979.784-3.752 0-2.987-1.036-4.48-3.108-4.48-2.035 0-3.052 1.596-3.052 4.788zM152.125 28V7.812h4.144v7.756c.971-1.27 2.306-1.904 4.004-1.904 1.774 0 3.239.672 4.396 2.016 1.176 1.325 1.764 3.145 1.764 5.46 0 1.27-.177 2.38-.532 3.332-.336.952-.793 1.699-1.372 2.24a6.07 6.07 0 01-1.876 1.176 5.819 5.819 0 01-2.128.392c-1.96 0-3.378-.756-4.256-2.268-.056 1.027-.102 1.69-.14 1.988h-4.004zm10.08-6.72c0-3.23-1.017-4.844-3.052-4.844-2.034 0-3.052 1.456-3.052 4.368 0 1.55.299 2.735.896 3.556.598.803 1.382 1.204 2.352 1.204.542 0 .999-.13 1.372-.392.392-.261.682-.55.868-.868.187-.336.327-.737.42-1.204.112-.485.168-.84.168-1.064.019-.243.028-.495.028-.756zm7.178 6.72V17.332c0-1.083-.066-2.259-.196-3.528h3.892l.084 2.716c.168-.392.336-.719.504-.98.186-.261.457-.55.812-.868.354-.336.83-.579 1.428-.728.597-.15 1.288-.205 2.072-.168V17.5c-.99-.093-1.811-.056-2.464.112-.635.168-1.092.457-1.372.868-.262.41-.43.803-.504 1.176-.075.355-.112.812-.112 1.372V28h-4.144zm10.742-16.604V7.784h4.424v3.612h-4.424zm.14 16.604V13.832h4.144V28h-4.144zm7.849 0V16.38c0-1.064-.028-1.923-.084-2.576h3.976l.112 2.128c1.008-1.643 2.539-2.464 4.592-2.464 1.232 0 2.194.28 2.884.84.71.541 1.186 1.148 1.428 1.82.262.728.392 2.137.392 4.228V28h-4.228v-8.792c0-.728-.074-1.241-.224-1.54-.392-.803-1.064-1.204-2.016-1.204s-1.67.364-2.156 1.092c-.336.485-.504 1.204-.504 2.156V28h-4.172zm26.581-14.084h3.892a35.773 35.773 0 00-.196 3.5V27.86c0 3.808-2.352 5.712-7.056 5.712-3.957 0-6.029-1.512-6.216-4.536h3.976c.168 1.307.99 1.96 2.464 1.96.654 0 1.214-.159 1.68-.476.467-.317.766-.775.896-1.372.112-.448.178-1.568.196-3.36-.97 1.288-2.24 1.932-3.808 1.932-1.904 0-3.378-.69-4.424-2.072-1.026-1.381-1.54-3.005-1.54-4.872 0-1.923.523-3.565 1.568-4.928 1.064-1.381 2.558-2.072 4.48-2.072 1.718 0 3.034.672 3.948 2.016l.14-1.876zm-5.992 6.86c0 .355.019.69.056 1.008.038.299.131.728.28 1.288.15.541.43.98.84 1.316.43.336.962.504 1.596.504.672 0 1.223-.168 1.652-.504.448-.336.747-.775.896-1.316.168-.56.271-.99.308-1.288a7.32 7.32 0 00.056-.924c0-2.875-.942-4.312-2.828-4.312-.84 0-1.53.345-2.072 1.036-.522.69-.784 1.755-.784 3.192zm20.375 3.136h3.892c.037.523.242.98.616 1.372.373.373.952.56 1.736.56.69 0 1.222-.159 1.596-.476.392-.336.588-.737.588-1.204 0-.355-.14-.653-.42-.896-.262-.261-.775-.495-1.54-.7l-2.576-.7c-.448-.13-.812-.252-1.092-.364a10.85 10.85 0 01-1.092-.616 2.761 2.761 0 01-1.036-1.176c-.243-.504-.364-1.092-.364-1.764 0-1.363.569-2.436 1.708-3.22 1.138-.803 2.632-1.204 4.48-1.204 1.53 0 2.79.355 3.78 1.064 1.008.71 1.54 1.745 1.596 3.108h-3.78c-.075-1.12-.747-1.68-2.016-1.68-.579 0-1.055.13-1.428.392a1.155 1.155 0 00-.532 1.008c0 .43.14.737.42.924.28.168.784.355 1.512.56l2.548.7c2.52.69 3.78 2.007 3.78 3.948 0 1.325-.57 2.473-1.708 3.444-1.12.952-2.716 1.428-4.788 1.428-2.128 0-3.743-.579-4.844-1.736-.635-.672-.98-1.596-1.036-2.772zM256.322 28h-3.752a12.112 12.112 0 01-.14-1.932c-1.046 1.512-2.455 2.268-4.228 2.268-1.568 0-2.744-.373-3.528-1.12-.822-.821-1.232-1.857-1.232-3.108 0-2.016.998-3.481 2.996-4.396 1.157-.523 3.024-.784 5.6-.784 0-.859-.066-1.484-.196-1.876-.28-.784-.896-1.176-1.848-1.176-.691 0-1.214.261-1.568.784-.206.317-.308.737-.308 1.26h-4.06c.056-1.493.588-2.604 1.596-3.332 1.064-.765 2.492-1.148 4.284-1.148 2.314 0 3.994.607 5.04 1.82.653.784.98 1.941.98 3.472l.028 5.684c0 1.344.112 2.539.336 3.584zm-4.284-6.664c-1.363-.112-2.464.037-3.304.448-.84.41-1.26 1.027-1.26 1.848 0 .523.177.99.532 1.4.354.41.849.616 1.484.616.709 0 1.297-.27 1.764-.812.336-.41.55-.868.644-1.372.093-.523.14-1.232.14-2.128zM259.924 28V16.8h-2.1v-2.94h2.1v-1.932c0-1.419.346-2.52 1.036-3.304.691-.803 1.97-1.204 3.836-1.204.71 0 1.456.047 2.24.14v2.884a8.267 8.267 0 00-.868-.084c-.504 0-.914.056-1.232.168-.298.112-.513.28-.644.504-.112.224-.186.41-.224.56-.018.15-.028.355-.028.616v1.652h2.632v2.94h-2.632V28h-4.116zm21.868-6.02H272.3c0 2.52.962 3.78 2.884 3.78 1.326 0 2.147-.653 2.464-1.96h3.78c-.093 1.213-.541 2.24-1.344 3.08-1.045 1.101-2.697 1.652-4.956 1.652-2.184 0-3.845-.588-4.984-1.764-1.213-1.27-1.82-3.108-1.82-5.516 0-3.099.98-5.33 2.94-6.692 1.176-.784 2.502-1.176 3.976-1.176 1.158 0 2.25.27 3.276.812 1.027.523 1.839 1.39 2.436 2.604.654 1.344.934 3.07.84 5.18zm-9.352-2.604h5.124c0-.28-.018-.541-.056-.784a5.226 5.226 0 00-.28-1.008 1.782 1.782 0 00-.756-.98c-.354-.261-.812-.392-1.372-.392-.858 0-1.512.299-1.96.896-.429.597-.662 1.353-.7 2.268zm18.2-5.516h4.396l2.604 10.668 2.996-10.668h4.564l2.968 10.668 2.772-10.668h4.116L310.212 28h-4.508l-2.912-10.472L299.824 28h-4.564l-4.62-14.14zM329.439 28h-3.752a12.112 12.112 0 01-.14-1.932c-1.046 1.512-2.455 2.268-4.228 2.268-1.568 0-2.744-.373-3.528-1.12-.822-.821-1.232-1.857-1.232-3.108 0-2.016.998-3.481 2.996-4.396 1.157-.523 3.024-.784 5.6-.784 0-.859-.066-1.484-.196-1.876-.28-.784-.896-1.176-1.848-1.176-.691 0-1.214.261-1.568.784-.206.317-.308.737-.308 1.26h-4.06c.056-1.493.588-2.604 1.596-3.332 1.064-.765 2.492-1.148 4.284-1.148 2.314 0 3.994.607 5.04 1.82.653.784.98 1.941.98 3.472l.028 5.684c0 1.344.112 2.539.336 3.584zm-4.284-6.664c-1.363-.112-2.464.037-3.304.448-.84.41-1.26 1.027-1.26 1.848 0 .523.177.99.532 1.4.354.41.849.616 1.484.616.709 0 1.297-.27 1.764-.812.336-.41.55-.868.644-1.372.093-.523.14-1.232.14-2.128zm15.922 3.752v2.716a12.27 12.27 0 01-3.22.448c-.784 0-1.465-.103-2.044-.308-.56-.205-.97-.43-1.232-.672-.261-.243-.466-.57-.616-.98-.149-.43-.233-.756-.252-.98a11.184 11.184 0 01-.028-.868v-7.756h-2.716v-2.744h2.716v-2.772l4.116-1.512v4.284h3.36v2.744h-3.36v6.384c0 .41.01.71.028.896.038.187.112.392.224.616a.954.954 0 00.56.476c.262.075.616.112 1.064.112.43 0 .896-.028 1.4-.084zm15.391-3.108h-9.492c0 2.52.962 3.78 2.884 3.78 1.326 0 2.147-.653 2.464-1.96h3.78c-.093 1.213-.541 2.24-1.344 3.08-1.045 1.101-2.697 1.652-4.956 1.652-2.184 0-3.845-.588-4.984-1.764-1.213-1.27-1.82-3.108-1.82-5.516 0-3.099.98-5.33 2.94-6.692 1.176-.784 2.502-1.176 3.976-1.176 1.158 0 2.25.27 3.276.812 1.027.523 1.839 1.39 2.436 2.604.654 1.344.934 3.07.84 5.18zm-9.352-2.604h5.124c0-.28-.018-.541-.056-.784a5.226 5.226 0 00-.28-1.008 1.782 1.782 0 00-.756-.98c-.354-.261-.812-.392-1.372-.392-.858 0-1.512.299-1.96.896-.429.597-.662 1.353-.7 2.268zM359.203 28V17.332c0-1.083-.066-2.259-.196-3.528h3.892l.084 2.716c.168-.392.336-.719.504-.98.186-.261.457-.55.812-.868.354-.336.83-.579 1.428-.728.597-.15 1.288-.205 2.072-.168V17.5c-.99-.093-1.811-.056-2.464.112-.635.168-1.092.457-1.372.868-.262.41-.43.803-.504 1.176-.075.355-.112.812-.112 1.372V28h-4.144zM10.136 54.088v2.716a12.275 12.275 0 01-3.22.448c-.784 0-1.465-.103-2.044-.308-.56-.205-.97-.43-1.232-.672-.261-.243-.467-.57-.616-.98-.15-.43-.233-.756-.252-.98a10.856 10.856 0 01-.028-.868v-7.756H.028v-2.744h2.716v-2.772L6.86 38.66v4.284h3.36v2.744H6.86v6.384c0 .41.01.71.028.896.037.187.112.392.224.616a.953.953 0 00.56.476c.261.075.616.112 1.064.112.43 0 .896-.028 1.4-.084zm1.923-4.032c0-.915.121-1.792.364-2.632a8.572 8.572 0 011.176-2.38c.541-.765 1.306-1.372 2.296-1.82.99-.467 2.146-.7 3.472-.7 2.427 0 4.256.71 5.488 2.128 1.232 1.4 1.848 3.164 1.848 5.292 0 2.147-.635 3.948-1.904 5.404-1.25 1.437-3.09 2.156-5.516 2.156-2.11 0-3.846-.644-5.208-1.932-1.344-1.288-2.016-3.127-2.016-5.516zm4.256.028c0 3.024 1.036 4.536 3.108 4.536.99 0 1.745-.364 2.268-1.092.523-.728.784-1.979.784-3.752 0-2.987-1.036-4.48-3.108-4.48-2.035 0-3.052 1.596-3.052 4.788zm32.834-2.212h-4.06c-.187-1.736-.793-2.604-1.82-2.604-1.456 0-2.184 1.503-2.184 4.508 0 2.147.345 3.593 1.036 4.34.299.317.672.476 1.12.476.15 0 .299-.028.448-.084.168-.056.364-.159.588-.308.224-.168.41-.448.56-.84.168-.41.27-.905.308-1.484h4.088c-.093 1.83-.7 3.22-1.82 4.172-1.027.877-2.37 1.316-4.032 1.316-2.11 0-3.715-.625-4.816-1.876-1.195-1.381-1.792-3.239-1.792-5.572 0-1.213.168-2.287.504-3.22.355-.933.775-1.652 1.26-2.156a6.033 6.033 0 011.708-1.204c.653-.317 1.223-.523 1.708-.616a7.86 7.86 0 011.428-.14c1.512 0 2.847.439 4.004 1.316 1.157.877 1.745 2.203 1.764 3.976zM51.725 57V36.784h4.116v8.008c1.008-1.419 2.37-2.128 4.088-2.128 1.755 0 3.127.635 4.116 1.904.616.859.924 2.137.924 3.836V57h-4.116v-8.456c0-2.053-.775-3.08-2.324-3.08-.71 0-1.335.233-1.876.7-.523.448-.784 1.176-.784 2.184L55.897 57h-4.172zM68.59 40.396v-3.612h4.424v3.612H68.59zM68.73 57V42.832h4.144V57H68.73zm7.793 0V36.756h4.144V57h-4.144zm17.145-12.404v-7.812h4.172v17.92c0 .821.037 1.587.112 2.296h-4.2l-.112-2.044c-.392.71-.868 1.241-1.428 1.596-.747.485-1.661.728-2.744.728-1.885 0-3.36-.616-4.424-1.848-1.064-1.25-1.596-2.977-1.596-5.18 0-2.315.57-4.153 1.708-5.516 1.157-1.381 2.67-2.072 4.536-2.072 1.717 0 3.043.644 3.976 1.932zm-6.02 5.544c0 1.288.233 2.352.7 3.192.467.84 1.185 1.26 2.156 1.26.579 0 1.101-.15 1.568-.448a2.984 2.984 0 001.064-1.148c.448-.859.672-1.97.672-3.332 0-1.363-.28-2.417-.84-3.164-.541-.747-1.288-1.12-2.24-1.12-.653 0-1.204.177-1.652.532-.43.336-.747.784-.952 1.344-.187.56-.317 1.064-.392 1.512-.056.448-.084.905-.084 1.372zM101.433 57V46.332c0-1.083-.065-2.259-.196-3.528h3.892l.084 2.716c.168-.392.336-.719.504-.98.187-.261.458-.55.812-.868.355-.336.831-.579 1.428-.728.598-.15 1.288-.205 2.072-.168V46.5c-.989-.093-1.81-.056-2.464.112-.634.168-1.092.457-1.372.868-.261.41-.429.803-.504 1.176-.074.355-.112.812-.112 1.372V57h-4.144zm23.215-6.02h-9.492c0 2.52.961 3.78 2.884 3.78 1.325 0 2.147-.653 2.464-1.96h3.78c-.093 1.213-.541 2.24-1.344 3.08-1.045 1.101-2.697 1.652-4.956 1.652-2.184 0-3.845-.588-4.984-1.764-1.213-1.27-1.82-3.108-1.82-5.516 0-3.099.98-5.33 2.94-6.692 1.176-.784 2.501-1.176 3.976-1.176 1.157 0 2.249.27 3.276.812 1.027.523 1.839 1.39 2.436 2.604.653 1.344.933 3.07.84 5.18zm-9.352-2.604h5.124c0-.28-.019-.541-.056-.784-.037-.261-.131-.597-.28-1.008a1.79 1.79 0 00-.756-.98c-.355-.261-.812-.392-1.372-.392-.859 0-1.512.299-1.96.896-.429.597-.663 1.353-.7 2.268zM127.439 57V45.38c0-1.064-.028-1.923-.084-2.576h3.976l.112 2.128c1.008-1.643 2.538-2.464 4.592-2.464 1.232 0 2.193.28 2.884.84.709.541 1.185 1.148 1.427 1.82.262.728.393 2.137.393 4.228V57h-4.228v-8.792c0-.728-.075-1.241-.224-1.54-.392-.803-1.064-1.204-2.016-1.204s-1.671.364-2.156 1.092c-.336.485-.504 1.204-.504 2.156V57h-4.172zm24.714-16.604v-3.612h4.424v3.612h-4.424zm.14 16.604V42.832h4.144V57h-4.144zm7.849 0V45.38c0-1.064-.028-1.923-.084-2.576h3.976l.112 2.128c1.008-1.643 2.538-2.464 4.592-2.464 1.232 0 2.193.28 2.884.84.709.541 1.185 1.148 1.428 1.82.261.728.392 2.137.392 4.228V57h-4.228v-8.792c0-.728-.075-1.241-.224-1.54-.392-.803-1.064-1.204-2.016-1.204s-1.671.364-2.156 1.092c-.336.485-.504 1.204-.504 2.156V57h-4.172zm24.91 0V45.38c0-1.064-.028-1.923-.084-2.576h3.976l.112 2.128c1.008-1.643 2.538-2.464 4.592-2.464 1.232 0 2.193.28 2.884.84.709.541 1.185 1.148 1.428 1.82.261.728.392 2.137.392 4.228V57h-4.228v-8.792c0-.728-.075-1.241-.224-1.54-.392-.803-1.064-1.204-2.016-1.204s-1.671.364-2.156 1.092c-.336.485-.504 1.204-.504 2.156V57h-4.172zm29.885-6.02h-9.492c0 2.52.961 3.78 2.884 3.78 1.325 0 2.147-.653 2.464-1.96h3.78c-.093 1.213-.541 2.24-1.344 3.08-1.045 1.101-2.697 1.652-4.956 1.652-2.184 0-3.845-.588-4.984-1.764-1.213-1.27-1.82-3.108-1.82-5.516 0-3.099.98-5.33 2.94-6.692 1.176-.784 2.501-1.176 3.976-1.176 1.157 0 2.249.27 3.276.812 1.027.523 1.839 1.39 2.436 2.604.653 1.344.933 3.07.84 5.18zm-9.352-2.604h5.124c0-.28-.019-.541-.056-.784-.037-.261-.131-.597-.28-1.008a1.79 1.79 0 00-.756-.98c-.355-.261-.812-.392-1.372-.392-.859 0-1.512.299-1.96.896-.429.597-.663 1.353-.7 2.268zm24.911 2.604h-9.492c0 2.52.961 3.78 2.884 3.78 1.325 0 2.146-.653 2.464-1.96h3.78c-.094 1.213-.542 2.24-1.344 3.08-1.046 1.101-2.698 1.652-4.956 1.652-2.184 0-3.846-.588-4.984-1.764-1.214-1.27-1.82-3.108-1.82-5.516 0-3.099.98-5.33 2.94-6.692 1.176-.784 2.501-1.176 3.976-1.176 1.157 0 2.249.27 3.276.812 1.026.523 1.838 1.39 2.436 2.604.653 1.344.933 3.07.84 5.18zm-9.352-2.604h5.124c0-.28-.019-.541-.056-.784a5.376 5.376 0 00-.28-1.008 1.79 1.79 0 00-.756-.98c-.355-.261-.812-.392-1.372-.392-.859 0-1.512.299-1.96.896-.43.597-.663 1.353-.7 2.268zm21.438-3.78v-7.812h4.172v17.92c0 .821.037 1.587.112 2.296h-4.2l-.112-2.044c-.392.71-.868 1.241-1.428 1.596-.747.485-1.661.728-2.744.728-1.885 0-3.36-.616-4.424-1.848-1.064-1.25-1.596-2.977-1.596-5.18 0-2.315.569-4.153 1.708-5.516 1.157-1.381 2.669-2.072 4.536-2.072 1.717 0 3.043.644 3.976 1.932zm-6.02 5.544c0 1.288.233 2.352.7 3.192.467.84 1.185 1.26 2.156 1.26.579 0 1.101-.15 1.568-.448a2.984 2.984 0 001.064-1.148c.448-.859.672-1.97.672-3.332 0-1.363-.28-2.417-.84-3.164-.541-.747-1.288-1.12-2.24-1.12-.653 0-1.204.177-1.652.532a2.953 2.953 0 00-.952 1.344c-.187.56-.317 1.064-.392 1.512-.056.448-.084.905-.084 1.372z" fill="#fff"/></svg>