<svg width="34" height="35" viewBox="0 0 34 35" fill="none" xmlns="http://www.w3.org/2000/svg"><path d="M13.68 1.077c-.024.083-.14.543-.26 1.027-.116.478-.242.998-.283 1.15-.158.598-.214.82-.46 1.84-.143.58-.287 1.184-.329 1.335-.042.152-.102.392-.139.53-.111.437-.672 2.682-.714 2.853-.111.483-.195.819-.334 1.357-.176.681-.167.672-.78.833-.166.042-.384.101-.486.134a37.87 37.87 0 01-.44.133c-.14.037-.548.152-.905.253-.357.106-.775.221-.928.263-.153.041-.361.1-.463.133l-.441.134c-.255.069-1.34.377-1.785.506-.242.073-.501.147-.974.28-.153.042-.339.097-.418.12-.074.023-.357.101-.626.18-.269.073-.589.17-.719.207-.315.087-.644.184-.974.276a7.78 7.78 0 00-.394.115c-.065.018-.25.073-.417.115-.167.046-.33.087-.362.096-.102.028-.042.116.153.226l.997.543c.14.074.278.152.302.17.027.019.25.138.505.272.25.133.529.285.626.336.483.271 1.243.69 2.129 1.173.107.055.292.161.417.226.12.069.353.197.52.285.167.087.375.202.464.253.088.05.269.147.394.216.13.07.431.235.672.369.241.133.575.317.742.405.167.087.4.22.524.29.12.073.237.133.26.133.019 0 .074.041.12.092.08.087.08.106-.023.515-.055.235-.13.53-.167.658-.037.125-.24.953-.459 1.841-.218.884-.426 1.726-.463 1.864-.038.138-.214.851-.395 1.587-.324 1.321-.431 1.758-.51 2.025-.023.074-.05.212-.07.3-.018.087-.05.22-.074.299-.023.073-.25.984-.505 2.024a193.56 193.56 0 01-.668 2.67l-.162.644c-.051.202-.107.414-.125.47-.014.059-.01.105.013.105.024 0 .752-.732 1.619-1.625 2.351-2.425 2.764-2.848 3.45-3.552.348-.354.85-.874 1.118-1.15.264-.281 1.039-1.077 1.716-1.772.677-.695 1.563-1.611 1.971-2.039.404-.423.765-.768.798-.768.032 0 .334.046.334.046l.301.115s.093-.01.71.326c.528.295 1.586.87 1.818.999.139.074.338.184.44.24.102.06.283.16.409.225.12.064.315.175.44.239.12.064.302.166.404.226.102.055.301.165.44.239.14.078.445.244.673.368.672.373 1.136.626 1.6.879.139.074.347.189.463.248.2.11.534.295.965.53.232.124.431.234 1.262.69 1.024.566 1.08.594 1.344.74.14.075.348.19.464.25.2.11.534.294.965.529.552.299.65.354.82.45.103.056.302.166.441.24.232.129 1.29.704 1.823.998 1.071.59 1.336.727 1.359.71.009-.015-.2-.374-.46-.802a25.298 25.298 0 01-.51-.85 3.273 3.273 0 00-.139-.231 1661.526 1661.526 0 00-3.042-5.012c-.028-.036-.186-.299-.352-.575a1542.436 1542.436 0 01-3.038-5.007 179.19 179.19 0 01-.38-.62 2.344 2.344 0 01-.116-.19 95.013 95.013 0 00-1.067-1.767c-.57-.934-1.034-1.74-1.025-1.785.014-.092.923-1.05 3.488-3.677.361-.368.862-.884 1.117-1.15.255-.267.988-1.022 1.623-1.68 2.375-2.448 3.353-3.46 3.943-4.064.329-.345.575-.63.542-.644-.05-.014-.51.101-.96.244-.102.032-.31.097-.464.138-.153.041-.329.092-.394.115-.065.019-.25.074-.417.115-.167.046-.395.106-.51.143-.204.06-.919.267-1.438.414l-.394.115c-.075.023-.255.074-.395.11-.139.042-.357.102-.486.143-.446.129-1.53.437-1.786.506-.14.042-.339.102-.44.134-.103.032-.311.092-.464.133-.153.042-.57.157-.928.263-.357.1-.765.216-.904.253-.14.041-.339.1-.44.133-.103.032-.32.092-.488.138a6.701 6.701 0 00-.426.124 4.23 4.23 0 01-.279.083c-.157.042-1.02.281-1.382.387-.19.06-.412.12-.974.276-.7.198-1.015.276-1.034.258a423.651 423.651 0 01-2.55-4.188 175.56 175.56 0 00-1.285-2.117c-.673-1.1-1.253-2.057-1.29-2.13-.083-.162-.13-.157-.19.022z" fill="#fff" opacity=".25"/></svg>