<svg width="83" height="84" viewBox="0 0 83 84" fill="none" xmlns="http://www.w3.org/2000/svg"><path d="M51.93 12.614c-.112.107-.712.71-1.34 1.344-.617.632-1.286 1.319-1.489 1.515-.79.777-1.078 1.067-2.392 2.417-.752.762-1.526 1.56-1.73 1.755-.202.196-.514.51-.698.688-.571.572-3.491 3.52-3.712 3.744a85.548 85.548 0 01-1.757 1.787c-.894.889-.872.883-1.947.576a17.727 17.727 0 00-.86-.236 62.605 62.605 0 01-.79-.194 152.4 152.4 0 00-1.603-.43 80.948 80.948 0 01-1.647-.438 25.54 25.54 0 00-.825-.215 64.231 64.231 0 01-.79-.193 348.92 348.92 0 00-3.17-.84 85.89 85.89 0 01-1.733-.45c-.27-.076-.602-.159-.743-.195-.133-.032-.634-.168-1.113-.291-.475-.13-1.049-.272-1.28-.333-.558-.151-1.145-.301-1.729-.458a13.57 13.57 0 00-.703-.18c-.115-.03-.447-.114-.738-.201-.295-.081-.579-.164-.636-.18-.18-.05-.17.14.023.486l1.01 1.74c.142.24.28.486.299.535.025.054.252.44.515.876.256.433.537.919.638 1.085.48.855 1.246 2.189 2.141 3.736.11.181.294.512.424.725.12.215.352.624.524.91.172.286.382.652.469.81.086.158.271.47.397.69.133.224.437.752.679 1.176.242.424.578 1.01.75 1.296.172.286.4.702.526.922.115.222.235.42.27.44.028.017.075.131.098.251.039.206.022.235-.51.773-.3.31-.685.696-.86.861-.17.158-1.243 1.248-2.392 2.417a448.646 448.646 0 01-2.42 2.448c-.184.179-1.108 1.117-2.061 2.086-1.71 1.739-2.274 2.315-2.64 2.654-.102.093-.272.28-.38.398-.109.117-.281.293-.388.393-.103.092-1.288 1.288-2.633 2.658-2.385 2.421-2.72 2.759-3.472 3.503-.196.2-.575.579-.84.844-.263.265-.543.54-.622.609-.076.08-.111.155-.076.175.035.021 1.812-.445 3.948-1.032 5.796-1.602 6.811-1.88 8.5-2.34.853-.23 2.091-.577 2.753-.758.659-.193 2.566-.716 4.231-1.172a606.54 606.54 0 004.864-1.35c1.002-.287 1.867-.49 1.917-.46.049.03.463.373.463.373l.35.45s.149.07.773 1.147c.53.932 1.6 2.776 1.832 3.184.143.24.343.59.447.768.099.185.28.505.41.717.123.209.316.555.446.768.123.208.304.528.403.713.104.177.304.528.447.767.138.247.449.78.678 1.177.675 1.183 1.144 1.993 1.613 2.803.142.24.352.606.473.803.2.35.536.936.972 1.689.237.401.437.752 1.274 2.206 1.03 1.8 1.089 1.893 1.353 2.359.143.24.353.606.473.803.2.35.536.937.973 1.689.56.96.656 1.134.827 1.438.104.177.304.528.447.768.232.408 1.303 2.252 1.838 3.189 1.08 1.878 1.352 2.33 1.405 2.322.026-.012.041-.754.043-1.648-.002-.906 0-1.704.012-1.773.006-.074.008-.284.002-.48a3056.768 3056.768 0 00.014-10.47c-.009-.083-.006-.63-.004-1.206.006-.583.005-1.123.004-1.2-.007-.197.007-7.945.013-9.26-.003-.569-.004-1.157-.003-1.3a4.191 4.191 0 01-.002-.396c.013-.07.017-1.732.014-3.687-.002-1.955.038-3.615.095-3.677.106-.13 2.364-.778 8.67-2.498.887-.239 2.12-.578 2.753-.757.632-.18 2.438-.677 4.006-1.114 5.853-1.616 8.268-2.287 9.715-2.681.817-.233 1.452-.449 1.416-.5-.065-.067-.866-.306-1.679-.494-.184-.043-.56-.133-.83-.208-.269-.075-.582-.157-.702-.18-.115-.031-.447-.114-.738-.202-.295-.08-.694-.194-.904-.243-.364-.093-1.636-.422-2.559-.666-.249-.062-.562-.144-.703-.18a22.81 22.81 0 01-.698-.187c-.25-.063-.634-.168-.87-.222-.792-.205-2.72-.715-3.17-.84a62.605 62.605 0 00-.79-.194c-.184-.042-.555-.14-.825-.214a81.128 81.128 0 00-1.646-.438c-.634-.168-1.358-.36-1.603-.43a62.204 62.204 0 00-.79-.194c-.184-.043-.569-.148-.864-.229-.291-.087-.634-.168-.76-.195a7.375 7.375 0 01-.498-.125c-.277-.08-1.804-.493-2.45-.658-.342-.08-.735-.19-1.728-.458-1.243-.33-1.793-.495-1.804-.54-.015-.087-.02-8.298-.001-8.758.01-.129.01-2.12.006-4.423-.004-2.302 0-4.3.013-4.448.022-.323-.053-.358-.31-.137z" fill="#fff" opacity=".4"/></svg>