<svg width="41" height="41" viewBox="0 0 41 41" fill="none" xmlns="http://www.w3.org/2000/svg"><path d="M12.33 31.997c.061-.035.397-.235.749-.446.346-.211.723-.44.835-.505.441-.256.602-.352 1.341-.804.422-.253.857-.52.97-.584.113-.065.288-.169.39-.227.32-.19 1.956-1.17 2.08-1.245.346-.216.59-.363.985-.595.5-.294.49-.294.94-.031.122.073.284.165.362.205l.335.179c.102.06.407.23.674.379.27.146.58.322.694.387.113.065.27.151.348.192.078.04.23.122.335.179a166.78 166.78 0 002.067 1.147c.113.065.254.14.313.173.057.03.267.149.47.26.2.114.442.244.54.298.234.132.483.268.728.406.114.065.246.138.297.162.049.027.189.103.31.176.125.07.243.14.268.154.075.043.091-.043.042-.22a509.8 509.8 0 00-.265-.896 3.425 3.425 0 01-.076-.274 12.98 12.98 0 00-.137-.452c-.068-.224-.142-.474-.169-.56-.123-.438-.322-1.124-.557-1.92-.03-.095-.076-.265-.112-.375-.03-.11-.09-.32-.136-.468a13.526 13.526 0 01-.123-.417c-.022-.08-.07-.242-.104-.355a51.277 51.277 0 01-.177-.605 40.89 40.89 0 00-.196-.668c-.047-.147-.104-.36-.137-.473a1.013 1.013 0 00-.073-.229c-.011-.01-.02-.067-.017-.123.005-.097.016-.108.314-.287.17-.104.384-.232.48-.285.095-.051.697-.414 1.341-.804.643-.387 1.255-.756 1.357-.814.102-.06.621-.372 1.156-.695.959-.579 1.276-.771 1.477-.88.057-.03.154-.094.215-.134a3.87 3.87 0 01.218-.131c.056-.03.72-.427 1.475-.884 1.338-.806 1.526-.918 1.945-1.164.11-.067.323-.192.47-.28.148-.088.304-.18.347-.2.043-.027.067-.057.054-.07-.014-.014-.865-.011-1.89.003-2.785.043-3.273.05-4.083.06-.41.004-1.005.015-1.323.019-.317.01-1.233.022-2.033.032-.8.01-1.85.028-2.337.04-.482.011-.894.002-.913-.017a7.047 7.047 0 01-.168-.221l-.109-.243s-.06-.048-.223-.602c-.136-.48-.417-1.429-.477-1.639-.039-.124-.09-.304-.118-.395a8.376 8.376 0 00-.106-.369c-.033-.107-.082-.285-.118-.395-.032-.108-.079-.272-.103-.366-.028-.092-.08-.272-.118-.396-.035-.126-.117-.4-.177-.605a205.7 205.7 0 00-.42-1.442c-.039-.124-.093-.312-.126-.414l-.254-.87c-.063-.206-.114-.387-.333-1.135-.267-.925-.284-.973-.352-1.213-.038-.124-.093-.312-.125-.414l-.254-.87c-.148-.494-.172-.583-.216-.739l-.117-.395c-.06-.21-.341-1.16-.48-1.642-.282-.965-.355-1.2-.38-1.202-.013.002-.1.333-.199.733-.098.405-.185.762-.199.792A47.401 47.401 0 0119 4.19c-.124.502-.946 3.858-.978 3.997-.005.038-.066.282-.13.54a1260.127 1260.127 0 01-1.148 4.68c-.06.254-.124.517-.14.582a1.907 1.907 0 01-.042.177c-.014.03-.197.773-.409 1.648-.212.876-.41 1.614-.443 1.635-.062.046-1.15.074-4.177.11-.425.004-1.018.013-1.322.02l-1.925.032c-2.812.043-3.972.063-4.667.07-.393.01-.703.033-.692.06.022.038.356.238.702.416.078.041.237.125.35.19.114.065.246.138.297.162.05.027.19.103.31.176.125.07.292.168.381.214.154.084.691.379 1.08.595l.297.163c.057.03.191.105.294.165.105.057.267.149.367.2.335.184 1.147.636 1.336.744.105.057.256.138.335.179.078.04.235.127.348.192.113.065.424.24.694.387.267.149.572.32.674.379.105.057.257.138.335.178.078.041.24.133.364.203.122.073.268.15.321.176.052.025.146.076.21.114.117.068.76.43 1.032.58.146.075.31.17.729.405.523.292.753.43.753.452-.003.04-.896 3.715-.954 3.92-.02.056-.236.947-.486 1.978-.249 1.03-.469 1.925-.49 1.99-.045.142-.016.166.124.097z" fill="#fff" opacity=".1"/></svg>