<svg width="90" height="90" viewBox="0 0 90 90" fill="none" xmlns="http://www.w3.org/2000/svg"><path fill="#1CABE2" d="M0 0h90v90H0z"/><path d="M18.007 58.082V53.61H17v-.549h1.007v-1.07c0-.86.348-1.248 1.205-1.248.193.016.384.052.57.108v.48a2.216 2.216 0 00-.369-.04c-.817 0-.838.41-.807 1.13v.64h1.14v.55h-1.14v4.467l-.599.004zM24.623 55.572c0 1.32-.737 2.658-2.33 2.658-1.591 0-2.33-1.334-2.33-2.658 0-1.323.737-2.658 2.325-2.658 1.589 0 2.33 1.335 2.33 2.658h.005zm-2.335-2.108c-1.205 0-1.683 1.18-1.683 2.108 0 .929.478 2.11 1.683 2.11s1.684-1.181 1.684-2.11c0-.928-.48-2.108-1.684-2.108zM26.088 58.082h-.598v-3.888c0-.391-.029-.79-.05-1.129h.618l.03.736h.02a1.291 1.291 0 011.124-.889c.19 0 .4 0 .599.01v.572c-.12-.01-.25-.04-.369-.04-.885 0-1.355.64-1.374 1.6v3.028zM30.732 55.708c.02 1.07.508 1.97 1.733 1.97a1.487 1.487 0 001.444-1.2h.627c-.308 1.2-1.056 1.748-2.26 1.748-1.494 0-2.192-1.288-2.192-2.657 0-1.37.747-2.658 2.231-2.658 1.674 0 2.28 1.23 2.28 2.797h-3.863zm3.217-.55c-.07-.968-.587-1.698-1.624-1.698-.975 0-1.494.82-1.574 1.699h3.198zM35.403 53.065l1.723 4.187 1.663-4.187h.657l-1.982 5.017h-.678l-2.04-5.017h.657zM40.218 55.708c.019 1.07.507 1.97 1.733 1.97a1.486 1.486 0 001.444-1.2h.627c-.308 1.2-1.057 1.748-2.261 1.748-1.494 0-2.191-1.288-2.191-2.657 0-1.37.746-2.658 2.23-2.658 1.675 0 2.28 1.23 2.28 2.797h-3.862zm3.217-.55c-.07-.968-.588-1.698-1.625-1.698-.975 0-1.494.82-1.573 1.699h3.198zM45.608 58.082h-.596v-3.888c0-.391-.03-.79-.05-1.129h.618l.028.738h.021a1.289 1.289 0 011.125-.889c.2 0 .4 0 .599.01v.572c-.12-.01-.251-.04-.369-.04-.887 0-1.355.64-1.376 1.6v3.026zM48.635 53.065l1.684 4.197 1.674-4.197h.646L49.882 60h-.658l.757-1.918-2.072-5.017h.726zM58.335 54.604c-.049-.763-.537-1.144-1.364-1.144-.916 0-1.484.953-1.484 2.097 0 1.144.57 2.118 1.484 2.118.777 0 1.315-.48 1.364-1.168h.648c-.16 1.144-.817 1.716-1.951 1.716-1.495 0-2.19-1.29-2.19-2.658 0-1.37.746-2.658 2.228-2.658 1.026 0 1.864.62 1.913 1.69l-.648.007zM60.414 53.824h.021a1.713 1.713 0 011.564-.91c1.632 0 1.761 1.45 1.761 2.03v3.138h-.596V54.84c0-.867-.498-1.378-1.315-1.378-.986 0-1.435.829-1.435 1.729v2.889h-.596v-7.213h.596v2.957zM65.421 51.616h-.697v-.75h.697v.75zm-.05 1.449v5.017h-.596v-5.017h.597zM67.137 58.082h-.599v-7.215h.599v7.215zM71.84 57.342l-.02-.04a2.036 2.036 0 01-1.71.928c-1.483 0-2.05-1.418-2.05-2.67 0-1.3.57-2.638 2.05-2.638a1.998 1.998 0 011.71.91l.02-.021v-2.937h.598v6.084c0 .391.029.79.05 1.131h-.618l-.03-.74v-.007zm-1.633-3.878c-1.14 0-1.504 1.06-1.504 2.019 0 .928.27 2.198 1.415 2.198 1.304 0 1.71-1.089 1.71-2.229 0-1.018-.448-1.988-1.613-1.988h-.008zM17.088 47.564v-.303H72.44v.303H17.088zM65.326 30.007a5.21 5.21 0 00-2.9.885 5.236 5.236 0 00-1.922 2.352 5.257 5.257 0 001.135 5.709 5.205 5.205 0 005.69 1.134 5.225 5.225 0 002.343-1.93 5.252 5.252 0 00-.652-6.614 5.218 5.218 0 00-3.69-1.536h-.004zm4.072 2.317c-.269.18-.55.344-.84.488a5.626 5.626 0 00-.623-.98c.213-.13.417-.276.608-.437.322.273.61.584.855.929zm-2.197-1.74c.419.172.812.398 1.17.674-.179.15-.37.286-.57.408a5.496 5.496 0 00-.858-.797c.095-.088.183-.183.264-.284h-.006zm.405 1.19c-.28.152-.575.276-.88.368a7.853 7.853 0 00-.435-.854c.17-.074.33-.167.477-.278.306.223.587.478.838.762v.002zm-.617-1.27c-.07.086-.148.165-.232.237a5.287 5.287 0 00-.874-.484c.377.038.748.122 1.106.247zm-.409.382a2.179 2.179 0 01-.399.225 7.622 7.622 0 00-.504-.706c.316.131.62.292.905.48h-.002zm-1.14-.442c.195.235.375.482.54.74a2.084 2.084 0 01-.54.095v-.835zm0 1.052c.224-.01.445-.052.657-.122.16.268.303.547.428.833a4.739 4.739 0 01-1.085.15v-.865.004zm-.217-1.043v.826a2.2 2.2 0 01-.532-.096 8.1 8.1 0 01.532-.73zm-.752.658a2.107 2.107 0 01-.401-.225c.284-.188.585-.348.9-.477-.18.224-.346.458-.5.702zm.3-.852a5.454 5.454 0 00-.882.488 2.432 2.432 0 01-.23-.237c.36-.126.733-.21 1.112-.252zm3.578 8.993c-.695-.38-.709-.913-.67-1.107.037-.195.172-.113.258-.113.456 0 .936-.135 1.52-.742.667-.682.878-2.2-.148-3.191-1.104-1.066-2.28-.88-3.04.08a1.153 1.153 0 01-.861.328c-.487-.017-.18.366-.18.446 0 .08-.075.137-.119.124-.163-.048-.099.19-.099.272a.11.11 0 01-.102.111c-.205 0-.148.19-.143.236a.192.192 0 01-.08.172.443.443 0 00-.142.322c0 .223.203.382.543.631a.81.81 0 01.38.668c-.001.216.032.431.1.637.09.223.08.63-.39.65-.57.023-1.589.482-1.674.513a2.02 2.02 0 01-1.085.072 5.344 5.344 0 01-.511-.416.79.79 0 01.165-.646c.18.143.407.211.635.19a7.448 7.448 0 001.052-.154.281.281 0 01.228 0c.3.109.71.141.876-.432.168-.574-.228-.414-.277-.382-.05.033-.118.017-.093-.03.074-.147-.036-.132-.1-.138a.744.744 0 00-.436.216.148.148 0 01-.16.044c-.212-.107-.845.047-1.041-.298a11.895 11.895 0 00-.253-1.731.235.235 0 01.025-.227c.16-.244.604.017.844.011a.43.43 0 00.414-.224c.074-.096.131-.042.17-.07.04-.026 0-.102.024-.138.022-.037.04-.02.087-.061.048-.042 0-.138.02-.174.071-.109.265-.023.147-.303a.456.456 0 01.112-.433c.14-.19.679-.942-.271-1.733-.907-.753-1.824-.692-2.417-.05-.593.643-.295 1.585-.234 1.833a.522.522 0 01-.32.572c-.29.16-.562.352-.81.572.019-.984.327-1.94.885-2.75a4.99 4.99 0 012.252-1.8c.08.101.169.196.264.284-.21.153-.663.561-.663.561s.062.01.12.025l.125.034s.4-.341.589-.479c.146.113.306.207.475.28-.091.155-.32.586-.32.586l.101.063a.896.896 0 01.078.06s.249-.47.342-.628c.21.07.429.11.65.12v.864c-.124 0-.439-.017-.57-.03h-.08l.044.066c.031.046.06.095.084.145l.009.017h.02c.094 0 .38.02.49.021v1.571h.216v-.389c.319-.015.583-.036.904-.065h.014l.28-.248-.153.014c-.338.044-.635.065-.905.08h-.14v-.997c.396-.008.79-.063 1.172-.164.105.26.302.888.302.888l.206-.065s-.19-.625-.303-.884c.325-.102.639-.235.937-.399.241.294.449.614.62.954-.154.072-.435.171-.435.171.133.015.266.042.395.08l.13-.057.06.135.28.126-.031-.078-.116-.275c.3-.149.591-.317.87-.505a5.034 5.034 0 01-1.163 6.746l.021.015zM59.631 31.401l-.081.073c-.306.27-1.006.99-.897 1.777l.01.055.035.156.097-.09c.428-.392.75-1.06.882-1.828l.036-.217-.082.074zM58.21 32.76l-.034.096c-.092.25-.156.511-.19.776-.067.52-.052 1.257.399 1.806l.05.064.052.067.067-.334c.074-.59-.025-1.828-.24-2.381l-.076-.19-.034.093.006.004zM57.691 34.89v.098c-.038.528-.011 1.836 1.043 2.528l.126.082v-.149c-.017-.496-.595-1.977-1.028-2.507l-.122-.149v.097h-.019zM57.874 37.228l.017.09c.156.75.864 1.965 1.96 2.318l.149.05-.053-.149c-.206-.563-1.26-1.87-1.94-2.301l-.152-.098.019.09zM60.074 32.532l-.086.053c-.817.498-1.199 1.104-1.168 1.852v.17l.118-.1c.44-.366.993-1.302 1.157-1.834l.059-.19-.088.053.008-.004zM59.595 34.162l-.063.057c-.209.19-.883.921-.826 1.813.012.15.043.297.093.439l.047.143.088-.122c.323-.458.76-1.66.728-2.22v-.17l-.061.06h-.006zM59.584 35.785c-.319.44-.495.966-.504 1.51.012.362.129.713.337 1.01l.07.107.06-.114c.147-.277.265-1.179.248-1.89-.001-.203-.026-.405-.075-.602l-.045-.159-.091.138zM60.025 37.373l-.021.07c-.1.308-.147.63-.143.954a1.887 1.887 0 00.91 1.609l.1.063.02-.134v-.106c-.015-.563-.433-1.981-.76-2.414l-.091-.118-.023.07.008.006zM58.875 39.57l.042.07c.44.74 1.185 1.693 2.58 1.447l.116-.019-.066-.1c-.26-.38-1.952-1.345-2.55-1.444l-.164-.027.042.072zM60.938 41.446l-.22.059.211.085c.886.365 1.997.473 2.643.256.218-.083.414-.218.57-.393 1.14.118 2.197 1.064 2.816 1.838l.034.038.048-.015a.742.742 0 00.222-.156l.042-.048-.038-.051a5.596 5.596 0 00-1.71-1.394c-.91-.446-2.518-.793-4.623-.22h.005zM60.984 39.08l.013.074c.133.839.472 1.939 1.883 1.817h.09l-.023-.088c-.095-.381-1.387-1.489-1.84-1.8l-.134-.07.011.074v-.008zM70.958 31.327l.038.217c.131.763.452 1.436.882 1.829l.097.09.034-.157.011-.055c.106-.788-.593-1.507-.899-1.777l-.081-.073-.082-.074zM72.427 32.667l-.074.19c-.217.554-.316 1.791-.242 2.382l.069.334.051-.067.05-.065c.45-.549.465-1.285.398-1.805a3.775 3.775 0 00-.19-.776l-.036-.096-.034-.093.008-.004zM72.974 34.793l-.124.149c-.43.53-1.009 2.011-1.028 2.507v.149l.124-.082c1.055-.692 1.081-2 1.045-2.528v-.195h-.017zM72.816 37.138l-.152.098c-.678.43-1.735 1.739-1.94 2.301l-.055.149.152-.05c1.095-.353 1.805-1.567 1.96-2.318l.018-.09.017-.09zM70.551 32.446l.057.19c.152.536.686 1.482 1.12 1.858l.117.103.01-.172c.043-.745-.327-1.36-1.14-1.874l-.086-.055-.078-.05zM71.015 34.109v.17c-.023.558.405 1.761.728 2.219l.087.122.048-.143c.05-.142.081-.29.093-.439.059-.892-.618-1.613-.827-1.813l-.06-.057-.063-.06h-.006zM70.998 35.647l-.048.159a2.47 2.47 0 00-.072.602c-.017.711.099 1.613.245 1.89l.061.114.072-.107a1.88 1.88 0 00.335-1.01 2.635 2.635 0 00-.504-1.51l-.044-.069-.045-.069zM70.624 37.302l-.092.119c-.327.432-.745 1.851-.76 2.413v.107l.023.134.099-.063a1.878 1.878 0 00.908-1.61 2.885 2.885 0 00-.142-.953l-.023-.07-.021-.07.008-.007zM71.838 39.5l-.162.028c-.598.099-2.291 1.058-2.552 1.445l-.064.099.116.019c1.394.246 2.14-.707 2.578-1.447l.042-.07.042-.073z" fill="#fff"/><path d="M65.11 41.665a5.597 5.597 0 00-1.701 1.394l-.04.051.044.048a.72.72 0 00.222.156l.047.015.033-.038c.619-.774 1.681-1.716 2.816-1.838.155.175.351.31.57.393.644.217 1.755.109 2.643-.255l.209-.086-.219-.06c-2.107-.571-3.715-.226-4.625.22zM69.698 39.005l-.135.07c-.452.311-1.744 1.42-1.84 1.8l-.022.088h.09c1.411.122 1.751-.978 1.884-1.817l.023-.149v.008zM33.612 30.378H35.4v1.632h-1.787v-1.632zm.141 11.44v-7.955h1.5v7.947l-1.5.008zM22.436 33.869h1.5v7.949h-1.458v-1.173h-.033c-.598.997-1.609 1.41-2.715 1.41-1.655 0-2.603-1.269-2.603-2.86v-5.326h1.501v4.703c0 1.377.316 2.392 1.75 2.392.616 0 1.452-.317 1.767-1.145.2-.602.301-1.233.3-1.868v-4.082h-.01zM26.928 35.041h.032c.506-.997 1.61-1.409 2.398-1.409.553 0 2.998.141 2.998 2.693v5.493H30.86v-5.003c0-1.314-.553-2.027-1.816-2.027a2.054 2.054 0 00-1.452.585c-.22.221-.63.572-.63 2.122v4.323h-1.5v-7.95h1.467v1.173zM41.53 36.418c-.08-.992-.549-1.682-1.615-1.682-1.425 0-1.976 1.242-1.976 3.099 0 1.857.551 3.1 1.976 3.1.986 0 1.598-.643 1.676-1.779h1.492c-.128 1.779-1.444 2.86-3.185 2.86-2.523 0-3.527-1.792-3.527-4.122s1.16-4.248 3.654-4.248c1.663 0 2.915 1.054 2.991 2.768l-1.486.004zM45.321 38.117c-.11 1.386.454 2.818 1.974 2.818 1.161 0 1.74-.456 1.912-1.607h1.57c-.236 1.796-1.616 2.692-3.497 2.692-2.523 0-3.528-1.793-3.528-4.123s1.16-4.248 3.654-4.248c2.35.05 3.464 1.541 3.464 3.73v.738H45.32zm3.98-1.037c.033-1.32-.57-2.344-2.006-2.344-1.24 0-1.974 1.05-1.974 2.344h3.98zM52.557 41.79v-6.865h-1.355v-1.041h1.355v-1.697c.047-1.731 1.347-2.187 2.46-2.187.36.021.717.073 1.068.156v1.242c-.252-.014-.501-.048-.76-.048-.845 0-1.33.223-1.284 1.087v1.447h1.818v1.041h-1.818v6.864h-1.484z" fill="#fff"/></svg>