<svg width="36" height="36" viewBox="0 0 36 36" fill="none" xmlns="http://www.w3.org/2000/svg"><path d="M27.898 26.082a66.306 66.306 0 00-.338-.7c-.161-.325-.336-.677-.384-.782a50.253 50.253 0 00-.611-1.253c-.193-.395-.397-.802-.445-.907-.048-.105-.127-.269-.172-.364-.143-.299-.888-1.828-.945-1.944a34.624 34.624 0 01-.453-.922c-.222-.467-.223-.457.046-.836.075-.102.17-.239.212-.305l.186-.283c.06-.086.237-.344.39-.569.152-.228.333-.49.4-.585.067-.095.156-.227.199-.294.042-.066.126-.194.185-.282a146.487 146.487 0 001.186-1.744c.067-.096.145-.214.179-.264.03-.048.153-.226.268-.397.117-.168.252-.373.308-.455.137-.198.277-.408.42-.615.066-.095.142-.207.167-.25.028-.041.107-.16.182-.262.072-.105.144-.204.158-.225.045-.063-.03-.084-.193-.055l-.82.164a11.888 11.888 0 00-.664.131c-.204.044-.433.09-.511.107-.401.074-1.028.197-1.756.342-.087.02-.241.047-.342.07-.101.018-.293.054-.428.084-.136.03-.308.063-.382.076-.073.013-.221.044-.325.064-.105.022-.354.07-.553.11-.2.038-.475.091-.61.12-.136.03-.33.064-.433.085a.906.906 0 00-.21.047c-.01.009-.06.011-.111.005-.086-.012-.095-.023-.23-.302-.08-.158-.177-.359-.217-.449-.038-.087-.314-.65-.611-1.253-.294-.6-.575-1.173-.619-1.269-.044-.095-.282-.58-.528-1.08-.44-.897-.587-1.194-.669-1.381-.021-.053-.07-.143-.102-.201a141.782 141.782 0 01-1.655-3.4l-.213-.44a8.373 8.373 0 01-.151-.324c-.02-.04-.045-.064-.058-.053-.013.01-.078.766-.146 1.678-.18 2.474-.214 2.907-.268 3.628-.03.363-.066.892-.087 1.174a170.44 170.44 0 01-.132 1.807c-.053.71-.12 1.644-.149 2.078-.027.428-.068.793-.087.809-.018.015-.21.131-.21.131l-.224.077s-.048.05-.555.15c-.438.084-1.306.258-1.498.295-.113.024-.278.056-.362.073a7.484 7.484 0 00-.337.065c-.098.02-.26.05-.361.073-.099.02-.249.049-.335.063l-.361.073c-.116.022-.367.073-.554.11-.555.107-.937.183-1.318.259-.113.024-.286.057-.38.078l-.794.157c-.19.04-.354.071-1.038.206-.846.164-.89.175-1.11.216-.112.024-.285.058-.378.079-.165.031-.44.085-.795.156-.453.092-.534.107-.676.133-.084.017-.249.049-.362.073-.192.037-1.06.211-1.5.297-.883.173-1.098.22-1.102.24.001.013.289.117.637.235.354.12.665.225.69.24a42.641 42.641 0 01.786.269c.439.15 3.365 1.145 3.487 1.184.033.007.246.08.47.158a1153.183 1153.183 0 014.08 1.389 125.197 125.197 0 01.664.222 70.4 70.4 0 001.437.493c.763.257 1.406.492 1.422.522.036.059-.025 1.026-.23 3.716-.03.377-.07.904-.088 1.175-.018.27-.075 1.04-.122 1.71-.183 2.5-.257 3.53-.305 4.148-.022.35-.026.626-.001.619.035-.017.24-.298.426-.59.043-.066.13-.201.197-.297a5.74 5.74 0 00.168-.25c.028-.041.106-.16.18-.262.073-.104.173-.245.221-.32.087-.13.393-.584.616-.912l.168-.25a9.62 9.62 0 01.17-.248c.06-.09.154-.226.208-.31.19-.283.657-.968.768-1.127.06-.089.143-.216.186-.283.042-.066.132-.198.199-.294.066-.095.248-.357.4-.584.153-.226.329-.483.39-.57.059-.088.143-.216.185-.282.043-.066.138-.203.21-.307.075-.102.154-.226.182-.272a3.09 3.09 0 01.118-.177c.07-.098.443-.64.597-.87.08-.123.177-.261.42-.614.301-.442.442-.634.461-.633.036.006 3.242 1.09 3.419 1.157.049.021.826.285 1.725.587.9.303 1.679.569 1.735.593.123.051.147.027.096-.103z" fill="#fff" opacity=".4"/></svg>