<svg width="40" height="40" viewBox="0 0 40 40" fill="none" xmlns="http://www.w3.org/2000/svg"><path d="M12.23 31.65a74.8 74.8 0 00.752-.446c.347-.21.724-.44.837-.503.441-.256.603-.352 1.343-.803.423-.253.859-.52.972-.583.113-.064.288-.168.39-.227.32-.189 1.96-1.167 2.084-1.242.347-.215.592-.362.988-.594.5-.293.49-.293.941-.031.122.073.284.165.362.205.079.04.23.122.336.178.102.06.408.23.676.379.27.145.581.321.695.386.113.065.27.151.348.192.079.04.23.121.336.178a167.074 167.074 0 002.07 1.145c.114.065.255.14.315.173.056.03.267.149.47.26.2.113.444.242.54.296.236.133.485.268.731.405.113.065.246.138.297.163.05.027.19.102.311.175.125.07.244.14.268.154.076.043.092-.043.042-.22l-.265-.894a3.345 3.345 0 01-.076-.274 13.092 13.092 0 00-.137-.45c-.068-.224-.142-.474-.17-.56a166.26 166.26 0 00-.558-1.917c-.03-.094-.076-.263-.112-.373-.03-.11-.09-.32-.136-.467a13.807 13.807 0 01-.123-.416c-.022-.08-.071-.242-.104-.355a49.948 49.948 0 01-.178-.604 40.39 40.39 0 00-.197-.666c-.046-.148-.104-.36-.137-.473a1.006 1.006 0 00-.073-.228c-.011-.01-.02-.067-.017-.123.005-.097.016-.107.315-.286a15.5 15.5 0 01.481-.285c.095-.05.698-.413 1.344-.802.643-.387 1.257-.755 1.359-.813.102-.059.622-.37 1.157-.693.962-.578 1.28-.77 1.481-.88.057-.029.154-.093.215-.133a114.418 114.418 0 001.696-1.013 161.33 161.33 0 011.95-1.161c.11-.067.322-.192.47-.28.148-.088.305-.179.348-.2.043-.027.067-.056.053-.07-.013-.013-.866-.01-1.894.004-2.79.043-3.278.049-4.09.06-.41.003-1.006.014-1.325.018-.318.01-1.235.022-2.037.033-.801.01-1.853.027-2.341.039-.483.011-.896.002-.915-.017-.02-.019-.168-.22-.168-.22l-.11-.242s-.059-.049-.223-.602c-.137-.478-.418-1.426-.478-1.635-.039-.124-.09-.304-.118-.395a8.337 8.337 0 00-.107-.368c-.032-.107-.082-.285-.117-.395-.033-.107-.08-.271-.104-.365l-.118-.395c-.035-.126-.117-.4-.177-.604-.175-.607-.299-1.023-.421-1.44-.039-.123-.093-.31-.126-.413-.052-.18-.14-.48-.255-.867-.062-.207-.114-.387-.333-1.133-.268-.924-.285-.972-.353-1.211-.038-.124-.093-.312-.126-.414l-.254-.867c-.148-.494-.172-.583-.216-.739l-.118-.394c-.06-.21-.341-1.158-.48-1.638-.282-.964-.356-1.198-.38-1.2-.014.002-.102.332-.2.73-.098.405-.186.762-.2.791a1354.905 1354.905 0 00-1.203 4.89c-.005.038-.066.282-.13.54a1241.542 1241.542 0 01-1.15 4.67 140.56 140.56 0 01-.183.758c-.013.03-.197.772-.409 1.646-.213.873-.412 1.61-.444 1.631-.062.046-1.152.074-4.185.11-.426.004-1.02.012-1.324.02l-1.93.032c-2.816.043-3.979.062-4.675.07-.394.01-.704.033-.693.06.022.037.357.237.703.415.078.04.238.125.351.19.114.064.247.137.298.162.049.026.19.102.31.175.125.07.293.167.382.213.154.084.692.378 1.082.595.105.056.238.13.297.162.057.03.192.105.295.164.105.057.268.149.368.2.335.184 1.149.635 1.338.743.106.057.257.138.335.178.079.041.236.127.35.192.113.065.424.24.694.386.268.149.573.32.676.379l.335.178c.079.04.241.132.365.202.122.073.268.149.322.176.052.024.146.076.211.113.116.068.76.43 1.033.578.146.076.311.17.73.406.525.291.755.429.755.45-.003.04-.898 3.71-.956 3.913-.02.056-.237.946-.486 1.975-.25 1.029-.47 1.921-.492 1.985-.045.142-.015.166.125.097z" fill="#fff" opacity=".1"/></svg>