<svg width="18" height="18" viewBox="0 0 18 18" fill="none" xmlns="http://www.w3.org/2000/svg"><path d="M11.156 17.743c.012-.042.07-.272.13-.513.058-.24.12-.5.142-.576.079-.299.106-.41.23-.92.071-.29.143-.591.164-.667l.07-.265.357-1.426c.055-.242.097-.41.167-.68.088-.34.083-.335.39-.416.083-.02.192-.05.243-.066.05-.017.15-.046.22-.067.07-.018.274-.076.452-.127.179-.053.387-.11.464-.13.076-.022.18-.051.232-.068l.22-.066a104.464 104.464 0 001.38-.394c.076-.02.17-.048.209-.06.037-.011.178-.05.313-.09.134-.036.294-.084.359-.103.158-.043.322-.092.487-.138.076-.02.165-.046.197-.057.032-.01.125-.037.209-.058l.18-.048c.052-.014.021-.058-.076-.113l-.498-.271a7.745 7.745 0 00-.404-.22l-.313-.17c-.241-.135-.622-.344-1.064-.586-.054-.028-.146-.08-.21-.113a9.384 9.384 0 00-.259-.142 8.445 8.445 0 01-.232-.127l-.197-.108a32.086 32.086 0 01-.336-.184c-.12-.067-.287-.159-.371-.203-.083-.043-.2-.11-.262-.145a.613.613 0 00-.13-.066c-.01 0-.037-.021-.06-.046-.04-.044-.04-.053.011-.258a57.666 57.666 0 00.313-1.25l.232-.931c.019-.07.107-.426.197-.794.163-.66.216-.88.256-1.013.011-.036.025-.106.034-.15a69.324 69.324 0 00.29-1.162c.227-.92.26-1.048.334-1.334l.081-.322c.026-.101.054-.207.063-.235.007-.03.005-.052-.007-.052s-.376.365-.81.812A753.364 753.364 0 0112.829 3.4c-.174.177-.424.437-.558.575-.133.14-.52.539-.858.886-.339.348-.782.805-.986 1.02-.202.211-.383.384-.399.384-.016 0-.167-.023-.167-.023l-.15-.058s-.047.005-.355-.163c-.265-.147-.793-.435-.91-.5-.069-.036-.169-.092-.22-.12a5.031 5.031 0 00-.204-.112c-.06-.032-.157-.087-.22-.12a7.075 7.075 0 01-.202-.112c-.05-.028-.15-.083-.22-.12l-.336-.184c-.336-.186-.568-.313-.8-.44-.07-.036-.174-.094-.232-.124a75.02 75.02 0 00-.482-.264c-.116-.062-.216-.118-.631-.345l-.673-.37-.231-.125a75.02 75.02 0 00-.483-.265c-.276-.15-.324-.177-.41-.225l-.22-.12c-.116-.064-.645-.352-.912-.5-.536-.294-.668-.363-.68-.354-.004.007.1.187.23.4.132.217.248.408.255.426a29.51 29.51 0 01.292.483c.163.27 1.253 2.065 1.3 2.138.013.019.092.15.175.288l.174.287A764.118 764.118 0 015.25 8.171a47.537 47.537 0 00.591.978c.286.467.518.87.513.893-.007.046-.461.524-1.744 1.838l-.559.575c-.127.134-.493.511-.811.84l-1.971 2.032c-.165.172-.288.315-.271.322.025.007.255-.05.48-.122.05-.016.155-.048.231-.069.077-.02.165-.046.198-.058.032-.009.125-.036.208-.057.084-.023.197-.053.255-.071.102-.03.46-.134.72-.207l.196-.058c.037-.011.128-.037.197-.055.07-.021.179-.05.244-.072.222-.064.765-.218.893-.253l.22-.066c.05-.017.155-.046.232-.067.076-.02.285-.078.464-.131l.452-.127c.07-.02.169-.05.22-.067.051-.016.16-.046.243-.069.084-.02.18-.05.214-.062.032-.011.095-.03.139-.041.079-.02.51-.14.691-.193.095-.03.206-.06.487-.139.35-.098.508-.137.517-.128.016.018 1.213 1.98 1.275 2.093.017.033.307.509.643 1.059.336.55.626 1.029.644 1.065.042.08.065.078.095-.011z" fill="#fff" opacity=".35"/></svg>