<svg width="127" height="29" viewBox="0 0 127 29" fill="none" xmlns="http://www.w3.org/2000/svg"><path fill="#1CABE2" d="M0 0h127v29H0z"/><path d="M11.51 20V9.892h4.27c1.745 0 3.028.28 3.85.84 1.269.868 1.903 2.263 1.903 4.186 0 1.176-.214 2.156-.644 2.94-.429.784-1.134 1.367-2.114 1.75-.69.261-1.68.392-2.968.392H11.51zm2.87-8.19v6.244h1.203c.99-.01 1.746-.257 2.268-.742.523-.495.784-1.302.784-2.422 0-.579-.088-1.073-.266-1.484-.168-.42-.364-.728-.588-.924a2.122 2.122 0 00-.84-.448c-.345-.112-.606-.173-.784-.182a6.614 6.614 0 00-.672-.028l-1.106-.014zm8.33 3.178c0-.233.013-.48.041-.742a9.85 9.85 0 01.168-.98c.084-.401.224-.803.42-1.204.206-.401.458-.751.756-1.05.924-.933 2.24-1.4 3.948-1.4.775 0 1.466.112 2.072.336.607.215 1.097.495 1.47.84.383.345.696.76.938 1.246.243.476.411.957.504 1.442.094.476.14.975.14 1.498 0 .775-.107 1.475-.322 2.1-.214.616-.494 1.12-.84 1.512a4.456 4.456 0 01-1.218.966c-.466.252-.938.43-1.414.532a6.824 6.824 0 01-1.47.154 6.34 6.34 0 01-1.96-.294 5.333 5.333 0 01-1.638-.91c-.494-.401-.886-.947-1.176-1.638-.28-.7-.42-1.503-.42-2.408zm2.883-.014c0 2.137.78 3.206 2.338 3.206 1.56 0 2.338-1.083 2.338-3.248 0-1.083-.214-1.937-.644-2.562-.354-.485-.914-.728-1.68-.728-1.568 0-2.352 1.11-2.352 3.332zM34.75 20V9.892h3.864l3.416 7.532-.028-7.532h2.45V20h-3.78l-3.486-7.854.029 7.854h-2.465zm10.837 0l3.99-10.108h3.416L56.982 20h-3.164l-.7-2.03h-4.046L48.386 20h-2.8zm4.144-3.892h2.744l-1.302-4.242h-.042l-1.4 4.242zM59.07 20v-8.106h-3.08V9.892h9.059v2.002h-3.15V20H59.07zm7.084 0V9.92h7.589v1.932h-4.816v2.1h4.535v1.932h-4.535v2.156h4.927V20h-7.7zm13.972 0V9.892h3.864l3.416 7.532-.028-7.532h2.45V20h-3.78l-3.486-7.854.029 7.854h-2.465zm11.285-5.012c0-.233.014-.48.042-.742a9.85 9.85 0 01.168-.98c.084-.401.224-.803.42-1.204.205-.401.457-.751.756-1.05.924-.933 2.24-1.4 3.948-1.4.774 0 1.465.112 2.072.336.606.215 1.096.495 1.47.84.382.345.695.76.938 1.246.242.476.41.957.504 1.442.093.476.14.975.14 1.498 0 .775-.108 1.475-.322 2.1-.215.616-.495 1.12-.84 1.512a4.458 4.458 0 01-1.218.966c-.467.252-.938.43-1.414.532a6.824 6.824 0 01-1.47.154 6.34 6.34 0 01-1.96-.294 5.333 5.333 0 01-1.638-.91c-.495-.401-.887-.947-1.176-1.638-.28-.7-.42-1.503-.42-2.408zm2.884-.014c0 2.137.779 3.206 2.338 3.206 1.558 0 2.338-1.083 2.338-3.248 0-1.083-.215-1.937-.644-2.562-.355-.485-.915-.728-1.68-.728-1.568 0-2.352 1.11-2.352 3.332zM104.347 20l-1.722-10.108h2.786l.938 7.364 1.652-7.364h3.43l1.498 7.308.938-7.308h2.534L114.665 20h-3.36l-1.75-7.49-1.862 7.49h-3.346z" fill="#fff"/></svg>