<svg width="23" height="23" viewBox="0 0 23 23" fill="none" xmlns="http://www.w3.org/2000/svg"><path d="M18.118 15.71c-.02-.035-.137-.225-.26-.424-.123-.196-.257-.409-.294-.473-.15-.25-.206-.34-.469-.758-.148-.24-.303-.485-.34-.55-.038-.063-.1-.162-.133-.22-.11-.18-.682-1.107-.726-1.176a22.125 22.125 0 01-.347-.558c-.172-.283-.172-.277-.024-.535.041-.07.093-.163.116-.207a15.52 15.52 0 01.313-.579c.083-.154.182-.332.218-.397.037-.065.086-.154.108-.2l.1-.19a94.061 94.061 0 00.646-1.185c.037-.065.08-.145.098-.18.017-.032.084-.152.146-.268.064-.114.137-.254.168-.31l.228-.417c.037-.064.078-.14.091-.17.016-.027.058-.108.1-.177l.086-.153c.025-.044-.025-.052-.126-.023l-.512.156a7.466 7.466 0 00-.415.126c-.128.04-.271.083-.32.1-.251.072-.643.19-1.099.328-.053.017-.15.045-.213.066a9.021 9.021 0 00-.268.08c-.085.027-.192.06-.238.073-.046.012-.139.041-.203.06-.066.022-.222.068-.346.105a23.1 23.1 0 00-.382.116c-.084.028-.206.061-.27.08a.583.583 0 00-.131.044c-.006.006-.039.011-.071.01-.056-.002-.062-.008-.166-.177a53.617 53.617 0 00-.636-1.03l-.475-.768a78.529 78.529 0 00-.404-.654c-.338-.543-.45-.722-.514-.836-.018-.032-.055-.087-.078-.122a90.992 90.992 0 01-1.27-2.058l-.165-.266a5.311 5.311 0 01-.116-.196c-.016-.025-.033-.038-.04-.03-.008.007-.002.492.013 1.076l.058 2.324c.004.233.014.572.019.753.007.18.02.702.03 1.157.01.456.027 1.054.037 1.331.01.275.006.51-.005.52-.01.011-.125.097-.125.097l-.139.063s-.027.034-.344.131c-.274.08-.817.246-.937.282l-.226.069a4.775 4.775 0 00-.21.063c-.062.02-.163.048-.226.069-.062.02-.156.047-.21.061l-.226.07c-.072.02-.229.069-.346.104-.347.103-.586.176-.824.248l-.237.074c-.103.03-.275.082-.497.15-.118.037-.221.067-.649.196-.529.158-.556.168-.693.208-.07.022-.179.054-.237.074-.103.03-.275.082-.497.15l-.423.127c-.052.016-.155.046-.226.069-.12.035-.663.201-.938.283-.552.166-.686.21-.687.223.001.008.191.056.421.11.233.053.438.1.455.108a28.775 28.775 0 01.519.121c.289.068 2.218.516 2.298.533.022.003.162.036.31.071a755.138 755.138 0 013.025.702 45.061 45.061 0 001.05.246c.503.115.927.224.94.243.026.035.048.654.087 2.377.005.242.013.58.02.753.005.173.017.667.03 1.096.04 1.6.059 2.261.068 2.657.007.224.022.4.038.393.021-.012.134-.204.234-.402.023-.044.07-.136.107-.2.036-.065.078-.141.091-.17.015-.028.058-.109.1-.178.039-.071.094-.167.12-.218.047-.088.213-.396.335-.619.032-.06.073-.135.09-.17.018-.032.06-.11.094-.168.032-.06.083-.153.112-.21.104-.192.358-.657.42-.765l.1-.192c.022-.045.071-.134.108-.2.036-.064.135-.242.217-.397.084-.153.18-.327.214-.386l.1-.192.114-.208a3.17 3.17 0 00.1-.184c.013-.03.042-.084.063-.12.038-.067.242-.435.326-.591.043-.084.096-.178.229-.418.164-.3.242-.431.254-.431.023 0 2.136.488 2.253.52.033.01.545.128 1.138.264.592.136 1.106.256 1.143.268.082.024.096.007.055-.072z" fill="#fff" opacity=".3"/></svg>