<svg width="36" height="36" viewBox="0 0 36 36" fill="none" xmlns="http://www.w3.org/2000/svg"><path d="M27.812 25.79c-.026-.058-.179-.371-.34-.7-.16-.324-.336-.675-.384-.78-.195-.41-.268-.561-.613-1.251-.193-.394-.397-.8-.445-.906l-.172-.363c-.145-.298-.89-1.825-.948-1.94a34.304 34.304 0 01-.454-.921c-.223-.466-.224-.457.046-.835a7.55 7.55 0 00.212-.304c.042-.066.127-.194.186-.283l.391-.567c.152-.228.333-.489.4-.584.067-.095.157-.227.199-.293.042-.066.127-.194.186-.282a149.688 149.688 0 001.187-1.74c.067-.096.145-.214.18-.264.03-.048.153-.225.268-.396.117-.168.252-.373.308-.454.137-.198.277-.407.42-.614.067-.095.142-.206.168-.25.028-.04.107-.159.182-.26.072-.105.144-.205.158-.225.045-.064-.03-.085-.193-.055l-.82.163c-.114.024-.23.046-.252.046-.024.003-.207.04-.414.085-.205.043-.434.088-.513.106a154.1 154.1 0 00-1.759.34c-.086.02-.241.048-.343.07-.1.018-.293.055-.428.084-.136.03-.309.063-.382.076-.074.013-.222.044-.326.064-.106.022-.354.07-.554.109-.2.038-.476.092-.611.121-.136.03-.33.063-.434.083a.914.914 0 00-.21.048c-.01.008-.061.011-.111.005-.087-.013-.095-.023-.232-.301-.08-.159-.177-.36-.217-.449a85.25 85.25 0 00-.612-1.251c-.295-.6-.576-1.172-.62-1.267-.045-.095-.283-.579-.53-1.078-.442-.896-.588-1.192-.67-1.379-.022-.052-.072-.143-.103-.2a141.55 141.55 0 01-1.66-3.395l-.212-.44a8.247 8.247 0 01-.152-.323c-.02-.04-.045-.064-.058-.053-.013.011-.078.765-.145 1.675-.18 2.47-.214 2.902-.268 3.621-.029.363-.066.891-.087 1.173a170.6 170.6 0 01-.131 1.804c-.054.709-.12 1.64-.149 2.073-.027.428-.068.792-.086.808-.019.015-.211.13-.211.13l-.225.078s-.048.049-.556.15c-.438.083-1.308.257-1.5.293-.114.024-.279.056-.363.073a7.352 7.352 0 00-.337.065c-.099.02-.261.05-.362.072-.099.02-.25.049-.335.063-.084.017-.25.049-.363.073-.115.021-.367.072-.554.11-.557.106-.939.181-1.32.257-.114.024-.287.058-.38.079-.166.031-.441.085-.796.155-.19.04-.355.071-1.04.206-.848.163-.892.174-1.111.215-.114.024-.286.058-.38.079-.165.031-.441.085-.796.156-.454.091-.535.106-.678.132l-.362.073c-.192.036-1.062.21-1.503.295-.885.173-1.1.22-1.104.24.002.013.29.117.639.235.354.119.666.225.692.239a44.322 44.322 0 01.788.269c.438.15 3.37 1.144 3.492 1.183.033.008.247.081.472.158a1117.006 1117.006 0 014.088 1.388 116.656 116.656 0 01.664.221c.025.015.675.236 1.44.493.765.257 1.408.492 1.425.522.035.058-.025 1.024-.23 3.708-.03.378-.07.903-.087 1.173-.018.27-.075 1.04-.122 1.708-.183 2.494-.257 3.524-.304 4.14-.023.349-.026.625-.002.617.036-.016.24-.296.428-.588.042-.066.13-.2.196-.296.067-.095.143-.207.169-.25.028-.041.106-.16.181-.261.073-.105.173-.245.22-.32l.617-.91.169-.25a9.52 9.52 0 01.17-.247c.06-.089.154-.225.208-.31.19-.281.658-.965.77-1.124.058-.088.143-.216.185-.282.043-.066.132-.198.2-.293.066-.096.248-.357.4-.584.153-.225.33-.482.39-.568.06-.088.144-.216.186-.282.043-.066.138-.202.21-.307a4.88 4.88 0 00.183-.27c.025-.044.079-.123.118-.178.07-.097.443-.637.598-.867.079-.123.176-.261.42-.613.302-.441.443-.633.462-.632.036.006 3.247 1.088 3.425 1.156.049.021.828.284 1.729.587.9.302 1.681.568 1.737.592.124.051.148.027.097-.103z" fill="#fff" opacity=".4"/></svg>