<svg width="40" height="40" viewBox="0 0 40 40" fill="none" xmlns="http://www.w3.org/2000/svg"><path d="M31.629 27.527a77.006 77.006 0 00-.459-.743c-.216-.343-.452-.715-.518-.827a56.624 56.624 0 00-.826-1.328c-.26-.418-.535-.848-.6-.96-.067-.112-.174-.285-.234-.386a921.44 921.44 0 00-1.279-2.06 38.63 38.63 0 01-.612-.976c-.302-.495-.302-.484-.047-.94.07-.122.16-.286.2-.365.039-.079.117-.232.172-.338.058-.103.223-.412.367-.681.142-.273.312-.586.375-.7.063-.115.147-.273.186-.352l.173-.338a166.371 166.371 0 001.111-2.088c.063-.115.136-.256.168-.316.029-.058.144-.27.251-.475.11-.201.236-.447.289-.545.128-.237.26-.488.393-.736.063-.114.133-.248.157-.3.026-.049.1-.19.17-.313l.15-.27c.042-.076-.044-.09-.22-.039l-.891.28c-.123.04-.25.079-.273.082-.027.006-.225.07-.45.144-.222.072-.47.15-.556.179-.436.13-1.118.341-1.91.59-.093.031-.262.08-.372.118-.11.032-.318.096-.465.144-.147.05-.334.107-.415.13l-.353.11c-.115.038-.385.122-.602.188-.216.066-.516.16-.663.208-.147.049-.358.11-.47.145-.113.029-.215.063-.228.077-.01.011-.067.02-.123.019-.097-.004-.108-.014-.292-.31-.107-.167-.238-.38-.293-.476-.053-.093-.426-.689-.826-1.327-.398-.636-.777-1.243-.837-1.344-.06-.101-.381-.615-.713-1.144-.596-.95-.793-1.264-.906-1.463-.03-.056-.096-.152-.137-.213a115.818 115.818 0 00-1.043-1.676 160.272 160.272 0 01-1.196-1.927c-.069-.109-.198-.32-.288-.465a9.32 9.32 0 01-.206-.344c-.028-.042-.058-.066-.07-.052-.014.013.002.865.035 1.891.09 2.785.105 3.273.129 4.084.01.409.032 1.004.041 1.322.015.318.043 1.234.067 2.034.024.8.06 1.85.08 2.338.02.482.017.894-.002.913-.018.02-.218.172-.218.172l-.24.113s-.047.06-.598.233c-.477.145-1.42.442-1.63.506-.123.04-.302.095-.393.124a8.123 8.123 0 00-.366.113c-.107.035-.284.087-.393.124-.107.035-.27.084-.364.11-.091.03-.27.084-.393.124-.126.038-.399.125-.602.188-.605.185-1.02.315-1.434.445-.123.04-.31.098-.412.133-.179.055-.479.147-.864.269-.206.066-.385.12-1.128.352l-1.207.373c-.123.04-.31.098-.412.133-.179.055-.478.147-.864.268-.492.156-.58.182-.735.229-.091.029-.27.084-.393.124-.209.064-1.153.361-1.632.509-.96.297-1.193.375-1.195.4.003.013.334.095.735.186.407.091.765.173.795.185.032.01.127.033.216.05a1392.356 1392.356 0 004.7 1.069c.038.004.283.06.542.12.261.062.504.116.539.124.089.017 3.566.809 4.156.945l.585.13c.067.013.145.03.178.04.03.013.776.183 1.654.38.878.198 1.619.384 1.64.416.047.061.094 1.149.182 4.177.011.425.03 1.018.042 1.322.012.305.04 1.172.066 1.926.09 2.812.13 3.973.15 4.668.016.393.044.702.07.691.038-.022.232-.36.405-.71.039-.078.12-.239.183-.353.063-.115.134-.248.157-.3.027-.05.1-.19.17-.314.069-.125.163-.294.208-.384.081-.155.367-.698.576-1.09.055-.107.126-.24.158-.3.028-.057.102-.194.16-.297.054-.107.144-.27.193-.37.178-.339.616-1.16.721-1.35.055-.106.134-.259.173-.338.04-.079.123-.237.186-.351.063-.115.233-.429.375-.701.144-.27.31-.578.367-.682l.173-.337c.039-.08.128-.243.196-.368.071-.123.144-.27.17-.325a3.48 3.48 0 01.11-.212c.066-.118.418-.766.562-1.042.073-.147.165-.313.393-.736.283-.528.417-.76.438-.76.04.001 3.728.832 3.933.887.057.018.951.22 1.986.452 1.034.231 1.931.436 1.996.457.143.042.167.012.095-.126z" fill="#fff" opacity=".1"/></svg>