<svg width="41" height="40" viewBox="0 0 41 40" fill="none" xmlns="http://www.w3.org/2000/svg"><path d="M32.37 27.642a74.676 74.676 0 00-.46-.74c-.217-.341-.454-.712-.52-.823a56.575 56.575 0 00-.83-1.322c-.26-.416-.536-.845-.602-.957-.066-.111-.174-.283-.235-.384a873.767 873.767 0 00-1.283-2.05 38.41 38.41 0 01-.614-.973c-.304-.493-.303-.482-.048-.936.071-.122.16-.285.2-.364l.174-.336c.058-.103.224-.41.368-.679.143-.271.314-.584.377-.698.063-.114.147-.271.187-.35l.173-.336a164.448 164.448 0 001.117-2.08c.063-.114.136-.255.168-.315.029-.056.145-.268.253-.472.11-.2.237-.445.29-.543.128-.236.26-.486.394-.733.063-.114.134-.247.158-.298.026-.05.1-.19.171-.313l.15-.268c.043-.077-.044-.09-.221-.039l-.895.28c-.123.04-.25.077-.274.08-.027.006-.225.07-.45.144l-.56.178c-.437.13-1.122.34-1.917.588-.094.031-.264.08-.374.117-.11.032-.32.096-.467.144-.148.05-.336.107-.416.13-.08.023-.242.075-.355.11-.115.037-.387.12-.604.187-.218.066-.519.158-.666.207-.148.048-.36.11-.473.144-.113.029-.215.063-.228.077-.011.011-.067.02-.124.019-.097-.004-.108-.014-.293-.308-.107-.167-.24-.38-.294-.475a95.151 95.151 0 00-.83-1.322c-.4-.633-.78-1.237-.84-1.338-.06-.1-.383-.612-.716-1.139-.598-.946-.796-1.258-.91-1.457-.03-.056-.095-.151-.137-.212a3.881 3.881 0 01-.135-.215c-.03-.055-.44-.71-.912-1.454-.831-1.32-.947-1.505-1.2-1.918-.07-.109-.199-.318-.29-.464-.09-.146-.185-.3-.207-.342-.027-.042-.057-.066-.07-.052-.014.013.003.861.035 1.883.09 2.774.105 3.26.13 4.067.01.408.031 1 .04 1.317.016.316.044 1.229.068 2.025.024.797.059 1.843.079 2.328.02.48.017.891-.002.91-.018.02-.218.171-.218.171l-.242.113s-.047.06-.6.233c-.479.144-1.427.44-1.637.503-.123.04-.303.095-.394.124a8.337 8.337 0 00-.368.113c-.108.034-.285.086-.395.123-.108.035-.271.084-.366.11-.09.029-.27.083-.394.123-.127.038-.4.124-.605.188-.607.184-1.023.314-1.44.443-.123.04-.311.098-.413.132a128 128 0 00-.868.268c-.206.066-.386.12-1.133.351-.924.282-.972.3-1.211.372-.124.04-.312.098-.414.132-.18.055-.48.147-.868.268-.494.155-.582.181-.738.227-.092.029-.272.084-.395.124-.21.063-1.158.36-1.639.507-.964.296-1.197.373-1.2.398.003.013.336.095.739.186.408.09.768.171.798.184.032.01.127.032.216.05a1371.349 1371.349 0 004.72 1.064c.038.003.284.06.544.12l.541.122c.09.017 3.581.806 4.174.94l.587.13c.067.013.146.03.178.04.03.013.78.182 1.661.379.882.196 1.626.382 1.648.413.047.061.093 1.145.181 4.16.011.424.03 1.014.042 1.317.012.303.04 1.167.066 1.918.09 2.8.13 3.956.15 4.648.016.392.044.7.07.689.038-.023.233-.36.407-.707.04-.078.12-.238.184-.352.063-.114.134-.247.158-.299.026-.049.1-.19.171-.312.069-.125.163-.294.208-.383.082-.155.369-.695.58-1.086.054-.106.126-.239.157-.298.029-.057.103-.193.16-.296.056-.106.145-.27.195-.37.18-.336.619-1.153.724-1.343.056-.106.134-.258.174-.337.04-.079.124-.236.187-.35.063-.114.234-.426.376-.698.145-.268.31-.575.369-.678l.174-.337c.039-.079.128-.242.197-.366a5.52 5.52 0 00.171-.323c.024-.052.074-.147.11-.212.066-.117.42-.763.564-1.037.074-.147.166-.313.395-.733.284-.527.419-.758.44-.758.04.001 3.744.829 3.95.883.056.018.954.22 1.993.45 1.038.23 1.94.434 2.004.454.144.043.168.013.096-.125z" fill="#fff" opacity=".1"/></svg>