<svg width="34" height="34" viewBox="0 0 34 34" fill="none" xmlns="http://www.w3.org/2000/svg"><path d="M33.86 13.679c-.082-.023-.542-.14-1.026-.26-.478-.116-.998-.241-1.15-.283-.598-.157-.82-.213-1.84-.459-.58-.144-1.184-.287-1.335-.33-.152-.041-.392-.101-.53-.138-.437-.112-2.682-.673-2.853-.715-.483-.11-.819-.194-1.357-.333-.681-.177-.672-.168-.833-.78a10.156 10.156 0 00-.134-.487 36.021 36.021 0 01-.133-.44c-.037-.14-.152-.547-.253-.905a46.75 46.75 0 01-.263-.927 14.666 14.666 0 00-.133-.464 34.334 34.334 0 01-.133-.44c-.07-.256-.378-1.34-.507-1.786-.073-.241-.147-.5-.28-.974-.042-.153-.097-.338-.12-.417-.023-.074-.101-.357-.18-.626-.073-.27-.17-.59-.207-.72-.087-.315-.184-.644-.276-.973a7.777 7.777 0 00-.115-.394c-.018-.065-.073-.25-.115-.418C20.041.243 20 .081 19.991.05c-.028-.103-.116-.042-.226.153l-.543.997c-.074.139-.152.278-.17.301-.019.028-.138.25-.272.506-.133.25-.285.528-.336.626-.271.482-.69 1.243-1.173 2.128-.055.107-.161.293-.226.418-.069.12-.198.352-.285.52-.087.166-.203.375-.253.463-.05.088-.147.269-.216.394-.07.13-.235.432-.369.673-.133.24-.317.575-.405.742-.087.167-.22.399-.29.524-.073.12-.133.236-.133.26 0 .018-.041.074-.092.12-.087.079-.106.079-.515-.023-.235-.056-.53-.13-.658-.167-.125-.037-.953-.241-1.841-.46-.884-.217-1.726-.426-1.864-.463a177.17 177.17 0 00-1.588-.394c-1.32-.325-1.757-.431-2.024-.51-.074-.024-.212-.051-.3-.07a4.71 4.71 0 01-.299-.074c-.073-.023-.984-.25-2.024-.506a193.94 193.94 0 01-2.67-.667l-.644-.163a11.29 11.29 0 01-.47-.125C.047 5.238 0 5.242 0 5.266c0 .023.732.751 1.624 1.619 2.426 2.35 2.849 2.764 3.553 3.45.354.348.874.849 1.15 1.118.281.264 1.077 1.039 1.772 1.716.695.677 1.61 1.563 2.039 1.97.423.404.768.766.768.798 0 .033-.046.334-.046.334l-.115.302s.01.093-.326.71c-.295.528-.87 1.585-.999 1.817-.074.14-.184.339-.24.44-.06.103-.16.284-.225.409-.064.12-.175.315-.24.44-.063.121-.165.302-.225.404l-.239.44c-.078.14-.244.446-.368.673a250.98 250.98 0 00-.879 1.6c-.074.14-.189.348-.248.464-.11.2-.295.533-.53.965-.124.231-.234.43-.69 1.261-.566 1.025-.594 1.08-.74 1.345-.074.14-.19.348-.25.464-.11.2-.294.533-.529.964-.299.552-.354.65-.45.821-.056.102-.166.302-.24.44-.129.233-.704 1.29-.998 1.823-.59 1.072-.728 1.336-.71 1.36.015.009.374-.2.802-.46.432-.264.814-.496.85-.51a3.26 3.26 0 00.231-.14 1667.479 1667.479 0 005.011-3.042c.037-.027.3-.185.576-.352a1533.628 1533.628 0 015.007-3.038l.62-.38a2.35 2.35 0 01.19-.116c.036-.014.832-.496 1.767-1.067.934-.57 1.74-1.034 1.785-1.024.092.013 1.05.922 3.677 3.487.368.362.884.863 1.15 1.118.267.255 1.022.988 1.68 1.623 2.448 2.375 3.46 3.353 4.064 3.942.345.33.63.575.644.543.014-.051-.101-.51-.244-.96-.032-.102-.097-.311-.138-.464a7.815 7.815 0 00-.115-.394c-.018-.065-.074-.25-.115-.418-.046-.167-.106-.394-.143-.51-.06-.204-.267-.918-.414-1.438l-.115-.394a12.726 12.726 0 01-.11-.394c-.042-.14-.102-.357-.143-.487-.129-.445-.437-1.53-.506-1.785l-.134-.441c-.032-.102-.092-.31-.133-.464-.042-.153-.157-.57-.263-.927a87.2 87.2 0 01-.253-.905c-.041-.139-.1-.338-.133-.44-.032-.102-.092-.32-.138-.487a6.722 6.722 0 00-.124-.427 4.227 4.227 0 01-.083-.278c-.042-.158-.281-1.02-.387-1.382-.06-.19-.12-.413-.276-.974-.198-.7-.276-1.016-.258-1.034.037-.033 3.963-2.426 4.188-2.551a177.95 177.95 0 002.117-1.285c1.1-.672 2.057-1.252 2.13-1.29.162-.083.157-.129-.022-.19z" fill="#fff" opacity=".25"/></svg>