<svg width="42" height="43" viewBox="0 0 42 43" fill="none" xmlns="http://www.w3.org/2000/svg"><path d="M13.468 6.185c-.001.086.006.56.014 1.059.012.492.025 1.027.024 1.185.003.618.006.846.033 1.897.01.597.028 1.217.027 1.374-.002.158.002.405.002.548.005.45.044 2.766.048 2.94.017.496.023.843.028 1.399.006.703.012.692-.537 1.006-.15.084-.346.198-.436.256l-.391.243c-.125.071-.49.288-.808.479-.318.194-.691.414-.828.493-.137.08-.323.192-.414.25l-.39.242c-.23.133-1.198.712-1.594.952-.214.134-.446.272-.868.524-.138.08-.302.18-.373.224-.065.041-.318.19-.558.335-.24.141-.525.317-.64.387-.283.166-.576.345-.87.519a7.88 7.88 0 00-.351.213c-.058.035-.223.136-.373.22-.15.087-.296.17-.325.186-.091.054-.01.122.206.179l1.104.266c.153.035.308.074.335.086.032.01.277.069.558.131.277.064.585.139.692.163.536.137 1.379.344 2.36.582.116.025.323.08.46.11.135.035.392.099.576.14.184.041.415.099.513.125.098.026.298.072.437.106.143.033.477.115.745.182.267.066.637.157.82.198.185.042.443.11.582.145.136.04.263.067.285.061.018-.004.083.021.14.058.1.064.104.082.111.504.007.241.012.545.01.679-.004.13.013.983.032 1.897.017.91.034 1.778.033 1.92 0 .144.014.878.03 1.637.028 1.36.038 1.81.03 2.088-.003.077.006.218.01.307.005.09.009.227.006.308-.003.077.013 1.016.036 2.087.036 1.896.04 2.162.044 2.752.004.156.007.455.01.664.003.209.004.428 0 .486.002.061.019.105.041.099.023-.007.537-.902 1.144-1.99 1.644-2.951 1.933-3.467 2.414-4.325.244-.433.594-1.065.782-1.402.183-.34.725-1.309 1.2-2.156.474-.846 1.093-1.96 1.376-2.48.28-.514.54-.94.572-.949.031-.009.334-.042.334-.042l.321.033s.088-.033.77.132c.587.147 1.757.429 2.014.493.154.035.375.09.488.117.113.031.314.082.452.112.133.031.35.087.487.117.133.031.334.082.448.113.113.027.334.082.488.117.154.04.493.12.744.182.746.186 1.26.31 1.773.434.153.035.385.092.512.12.221.055.591.146 1.069.261.256.06.477.115 1.396.34 1.136.281 1.197.293 1.49.367.154.035.386.092.513.12.221.055.591.146 1.068.261.61.146.72.174.91.223.113.027.334.082.487.117.257.065 1.427.346 2.019.493 1.187.29 1.478.356 1.495.332.006-.016-.289-.308-.65-.655-.367-.349-.69-.658-.713-.69a3.305 3.305 0 00-.194-.186 1689.905 1689.905 0 00-4.234-4.053c-.036-.028-.256-.24-.489-.464a1536.265 1536.265 0 01-4.228-4.05c-.231-.218-.47-.445-.527-.501a2.312 2.312 0 01-.161-.152 95.882 95.882 0 00-1.487-1.43c-.793-.755-1.449-1.413-1.452-1.46-.01-.092.62-1.253 2.418-4.456.255-.45.605-1.077.783-1.4.177-.325.69-1.244 1.133-2.044 1.66-2.98 2.344-4.212 2.757-4.947.23-.419.393-.758.358-.763-.053 0-.467.23-.864.484-.09.058-.276.174-.413.254-.137.08-.294.174-.35.213-.058.035-.223.136-.374.22-.15.087-.353.204-.456.27-.181.11-.818.495-1.281.772l-.351.213c-.066.042-.228.138-.352.21-.124.075-.32.19-.434.263-.397.24-1.365.82-1.594.952l-.39.243c-.09.058-.277.17-.414.25-.137.079-.51.298-.828.493-.319.19-.683.407-.808.479-.124.076-.301.185-.391.243-.09.058-.285.172-.435.26-.15.083-.319.19-.38.23-.057.04-.168.107-.247.152-.142.081-.913.536-1.235.732-.168.107-.368.223-.87.52-.625.372-.909.53-.932.516-.04-.027-3.366-3.199-3.546-3.384-.048-.054-.854-.824-1.787-1.712a145.835 145.835 0 01-1.796-1.724c-.123-.134-.166-.118-.178.071z" fill="#fff" opacity=".2"/></svg>