<svg width="84" height="84" viewBox="0 0 84 84" fill="none" xmlns="http://www.w3.org/2000/svg"><path d="M70.589 52.952c-.107-.112-.71-.712-1.344-1.34-.632-.618-1.318-1.287-1.514-1.49-.778-.792-1.067-1.08-2.416-2.395-.762-.752-1.56-1.526-1.756-1.73-.195-.203-.509-.515-.688-.699-.572-.572-3.519-3.494-3.743-3.715a85.502 85.502 0 01-1.786-1.758c-.889-.895-.883-.873-.576-1.949.087-.29.193-.676.236-.86.042-.184.13-.542.193-.79.07-.245.262-.97.43-1.604.16-.639.361-1.377.436-1.647.075-.27.172-.641.215-.825.043-.185.131-.542.194-.79.124-.45.633-2.379.838-3.172.105-.433.227-.895.45-1.734.075-.27.158-.602.194-.743.032-.133.168-.634.29-1.114.131-.475.272-1.049.333-1.28.151-.558.301-1.146.458-1.73.075-.27.156-.583.18-.703.03-.115.113-.447.2-.738.081-.295.164-.58.18-.637.05-.18-.14-.17-.486.024l-1.739 1.009c-.239.142-.485.281-.535.3-.053.024-.439.251-.875.514-.432.256-.918.538-1.084.639-.855.48-2.188 1.245-3.734 2.14-.181.111-.512.295-.725.425-.215.119-.623.351-.909.523a29.34 29.34 0 01-.81.47c-.157.086-.47.27-.69.397-.223.133-.751.436-1.175.678-.424.243-1.01.578-1.295.75-.286.173-.701.4-.92.527-.223.115-.42.235-.441.27-.017.028-.131.074-.251.098-.206.038-.234.021-.772-.51-.31-.302-.697-.686-.861-.861-.158-.17-1.248-1.244-2.417-2.394a448.118 448.118 0 01-2.447-2.422 322.178 322.178 0 00-2.086-2.062c-1.738-1.71-2.314-2.276-2.654-2.641-.092-.103-.279-.273-.397-.382a8.626 8.626 0 01-.393-.388 252.459 252.459 0 00-2.657-2.634c-2.421-2.387-2.759-2.723-3.502-3.475-.2-.196-.58-.576-.845-.84s-.54-.544-.608-.623c-.08-.076-.155-.111-.176-.076-.02.035.445 1.813 1.034 3.95 1.602 5.8 1.88 6.815 2.34 8.504.231.854.578 2.093.759 2.755.192.66.716 2.567 1.172 4.233a604.92 604.92 0 001.351 4.867c.286 1.002.49 1.868.46 1.917-.03.05-.373.463-.373.463l-.45.35s-.07.15-1.145.774c-.932.53-2.775 1.6-3.183 1.832-.24.143-.59.343-.768.447-.184.099-.504.28-.716.41-.209.123-.555.316-.767.446-.209.123-.528.304-.713.403-.177.104-.528.304-.767.447-.246.138-.779.449-1.175.678-1.183.675-1.992 1.144-2.802 1.613-.24.142-.605.352-.802.473-.35.2-.937.536-1.688.972-.402.237-.752.437-2.205 1.274-1.8 1.03-1.892 1.089-2.358 1.353-.24.143-.605.353-.802.474-.35.2-.936.536-1.688.972-.96.56-1.133.657-1.438.827-.177.104-.528.304-.767.447-.408.232-2.25 1.303-3.187 1.839-1.877 1.079-2.328 1.352-2.321 1.404.013.027.754.042 1.648.044.905-.002 1.702 0 1.772.012.073.006.283.008.48.002.185-.004.875 0 1.536.005 1.122.005 8.62.016 8.93.011.082-.008.628-.004 1.204-.002.583.006 1.123.005 1.2.003.196-.006 7.94.01 9.255.016.569-.003 1.156-.003 1.3-.003a4.18 4.18 0 01.396-.001c.069.012 1.73.017 3.685.015 1.954-.002 3.613.038 3.675.095.13.106.779 2.366 2.499 8.675.239.888.578 2.122.758 2.754.18.633.677 2.44 1.114 4.009 1.616 5.855 2.288 8.272 2.682 9.72.233.817.45 1.453.5 1.416.067-.064.306-.866.494-1.679.043-.184.133-.56.208-.83.075-.27.156-.583.18-.703.03-.115.113-.447.2-.738.081-.295.195-.695.243-.904.093-.365.421-1.638.665-2.56.062-.25.144-.563.18-.703.032-.134.118-.455.187-.7.062-.248.168-.634.222-.869.205-.793.713-2.72.838-3.17.062-.25.15-.607.194-.791.042-.185.14-.556.214-.826.075-.27.276-1.008.437-1.647.167-.634.36-1.358.43-1.603.062-.249.15-.606.193-.79.043-.185.148-.57.229-.865.087-.291.167-.635.195-.761.023-.12.08-.343.125-.498.079-.277.492-1.804.656-2.45.08-.343.19-.736.458-1.73.33-1.243.495-1.793.54-1.804.086-.015 8.293-.018 8.753 0 .129.011 2.12.012 4.42.009 2.302-.004 4.3.001 4.447.013.323.022.358-.053.137-.31z" fill="#fff" opacity=".4"/></svg>