<svg width="271" height="78" viewBox="0 0 271 78" fill="none" xmlns="http://www.w3.org/2000/svg"><path d="M24.544 9.24h5.973l4.917 10.857L40.45 9.24h5.247l-8.052 15.081V33h-5.05v-8.745L24.545 9.24zm19.195 15.576c0-1.078.143-2.112.428-3.102.308-.99.77-1.925 1.386-2.805.639-.902 1.54-1.617 2.707-2.145 1.166-.55 2.53-.825 4.092-.825 2.86 0 5.016.836 6.468 2.508 1.452 1.65 2.178 3.729 2.178 6.237 0 2.53-.748 4.653-2.244 6.369-1.474 1.694-3.642 2.541-6.502 2.541-2.486 0-4.532-.759-6.138-2.277-1.583-1.518-2.375-3.685-2.375-6.501zm5.016.033c0 3.564 1.22 5.346 3.662 5.346 1.166 0 2.057-.429 2.673-1.287.616-.858.924-2.332.924-4.422 0-3.52-1.22-5.28-3.663-5.28-2.398 0-3.596 1.881-3.596 5.643zm15.751-8.514h4.95v10.923c.022.22.077.528.165.924.088.374.22.671.396.891.176.22.43.418.76.594.351.176.78.264 1.286.264.616 0 1.122-.099 1.518-.297.418-.198.726-.418.924-.66.22-.264.385-.66.495-1.188.11-.55.165-1.001.165-1.353.022-.374.033-.935.033-1.683v-8.415h5.016v10.989c.022 1.034.033 1.903.033 2.607.022.682.033 1.133.033 1.353.022.22.033.385.033.495.022.396.066.803.132 1.221h-4.752l-.165-2.211c-1.21 1.76-2.849 2.64-4.917 2.64-1.078 0-2.068-.209-2.97-.627-.88-.44-1.562-.979-2.046-1.617-.726-.902-1.089-2.398-1.089-4.488V16.335zM84.846 33V20.427c0-1.276-.078-2.662-.232-4.158h4.587l.1 3.201c.197-.462.395-.847.593-1.155.22-.308.54-.649.957-1.023.418-.396.98-.682 1.683-.858.704-.176 1.518-.242 2.442-.198v4.389c-1.166-.11-2.134-.066-2.904.132-.748.198-1.287.539-1.617 1.023-.308.484-.506.946-.594 1.386-.088.418-.132.957-.132 1.617V33h-4.884zm33.23-16.599h4.587a41.917 41.917 0 00-.231 4.125v12.309c0 4.488-2.772 6.732-8.316 6.732-4.664 0-7.106-1.782-7.326-5.346h4.686c.198 1.54 1.166 2.31 2.904 2.31.77 0 1.43-.187 1.98-.561.55-.374.902-.913 1.056-1.617.132-.528.209-1.848.231-3.96-1.144 1.518-2.64 2.277-4.488 2.277-2.244 0-3.982-.814-5.214-2.442-1.21-1.628-1.815-3.542-1.815-5.742 0-2.266.616-4.202 1.848-5.808 1.254-1.628 3.014-2.442 5.28-2.442 2.024 0 3.575.792 4.653 2.376l.165-2.211zm-7.062 8.085c0 .418.022.814.066 1.188.044.352.154.858.33 1.518.176.638.506 1.155.99 1.551.506.396 1.133.594 1.881.594.792 0 1.441-.198 1.947-.594.528-.396.88-.913 1.056-1.551.198-.66.319-1.166.363-1.518.044-.352.066-.715.066-1.089 0-3.388-1.111-5.082-3.333-5.082-.99 0-1.804.407-2.442 1.221-.616.814-.924 2.068-.924 3.762zm31.13 1.419h-11.187c0 2.97 1.133 4.455 3.399 4.455 1.562 0 2.53-.77 2.904-2.31h4.455c-.11 1.43-.638 2.64-1.584 3.63-1.232 1.298-3.179 1.947-5.841 1.947-2.574 0-4.532-.693-5.874-2.079-1.43-1.496-2.145-3.663-2.145-6.501 0-3.652 1.155-6.281 3.465-7.887 1.386-.924 2.948-1.386 4.686-1.386a8.16 8.16 0 013.861.957c1.21.616 2.167 1.639 2.871 3.069.77 1.584 1.1 3.619.99 6.105zm-11.022-3.069h6.039c0-.33-.022-.638-.066-.924-.044-.308-.154-.704-.33-1.188a2.107 2.107 0 00-.891-1.155c-.418-.308-.957-.462-1.617-.462-1.012 0-1.782.352-2.31 1.056-.506.704-.781 1.595-.825 2.673zM145.433 33V19.305c0-1.254-.033-2.266-.099-3.036h4.686l.132 2.508c1.188-1.936 2.992-2.904 5.412-2.904 1.452 0 2.585.33 3.399.99.836.638 1.397 1.353 1.683 2.145.308.858.462 2.519.462 4.983V33h-4.983V22.638c0-.858-.088-1.463-.264-1.815-.462-.946-1.254-1.419-2.376-1.419-1.122 0-1.969.429-2.541 1.287-.396.572-.594 1.419-.594 2.541V33h-4.917zm35.222-7.095h-11.187c0 2.97 1.133 4.455 3.399 4.455 1.562 0 2.53-.77 2.904-2.31h4.455c-.11 1.43-.638 2.64-1.584 3.63-1.232 1.298-3.179 1.947-5.841 1.947-2.574 0-4.532-.693-5.874-2.079-1.43-1.496-2.145-3.663-2.145-6.501 0-3.652 1.155-6.281 3.465-7.887 1.386-.924 2.948-1.386 4.686-1.386a8.16 8.16 0 013.861.957c1.21.616 2.167 1.639 2.871 3.069.77 1.584 1.1 3.619.99 6.105zm-11.022-3.069h6.039c0-.33-.022-.638-.066-.924-.044-.308-.154-.704-.33-1.188a2.107 2.107 0 00-.891-1.155c-.418-.308-.957-.462-1.617-.462-1.012 0-1.782.352-2.31 1.056-.506.704-.781 1.595-.825 2.673zM183.877 33V20.427c0-1.276-.077-2.662-.231-4.158h4.587l.099 3.201c.198-.462.396-.847.594-1.155.22-.308.539-.649.957-1.023.418-.396.979-.682 1.683-.858.704-.176 1.518-.242 2.442-.198v4.389c-1.166-.11-2.134-.066-2.904.132-.748.198-1.287.539-1.617 1.023-.308.484-.506.946-.594 1.386-.088.418-.132.957-.132 1.617V33h-4.884zm11.488-8.184c0-1.078.143-2.112.429-3.102.308-.99.77-1.925 1.386-2.805.638-.902 1.54-1.617 2.706-2.145 1.166-.55 2.53-.825 4.092-.825 2.86 0 5.016.836 6.468 2.508 1.452 1.65 2.178 3.729 2.178 6.237 0 2.53-.748 4.653-2.244 6.369-1.474 1.694-3.641 2.541-6.501 2.541-2.486 0-4.532-.759-6.138-2.277-1.584-1.518-2.376-3.685-2.376-6.501zm5.016.033c0 3.564 1.221 5.346 3.663 5.346 1.166 0 2.057-.429 2.673-1.287.616-.858.924-2.332.924-4.422 0-3.52-1.221-5.28-3.663-5.28-2.398 0-3.597 1.881-3.597 5.643zm14.728 3.333h4.587c.044.616.286 1.155.726 1.617.44.44 1.122.66 2.046.66.814 0 1.441-.187 1.881-.561.462-.396.693-.869.693-1.419 0-.418-.165-.77-.495-1.056-.308-.308-.913-.583-1.815-.825l-3.036-.825a14.534 14.534 0 01-1.287-.429 12.78 12.78 0 01-1.287-.726 3.26 3.26 0 01-1.221-1.386c-.286-.594-.429-1.287-.429-2.079 0-1.606.671-2.871 2.013-3.795 1.342-.946 3.102-1.419 5.28-1.419 1.804 0 3.289.418 4.455 1.254 1.188.836 1.815 2.057 1.881 3.663h-4.455c-.088-1.32-.88-1.98-2.376-1.98-.682 0-1.243.154-1.683.462a1.362 1.362 0 00-.627 1.188c0 .506.165.869.495 1.089.33.198.924.418 1.782.66l3.003.825c2.97.814 4.455 2.365 4.455 4.653 0 1.562-.671 2.915-2.013 4.059-1.32 1.122-3.201 1.683-5.643 1.683-2.508 0-4.411-.682-5.709-2.046-.748-.792-1.155-1.881-1.221-3.267zm17.523-14.751V9.174h5.214v4.257h-5.214zM232.797 33V16.302h4.884V33h-4.884zm18.986-3.432v3.201a14.469 14.469 0 01-3.795.528c-.924 0-1.727-.121-2.409-.363-.66-.242-1.144-.506-1.452-.792-.308-.286-.55-.671-.726-1.155-.176-.506-.275-.891-.297-1.155a12.798 12.798 0 01-.033-1.023v-9.141h-3.201v-3.234h3.201v-3.267l4.851-1.782v5.049h3.96v3.234h-3.96v7.524c0 .484.011.836.033 1.056.044.22.132.462.264.726.132.264.352.451.66.561.308.088.726.132 1.254.132.506 0 1.056-.033 1.65-.099zm1.342-13.233h5.28l3.663 11.55 3.729-11.55h4.851l-6.303 16.368-2.013 6.633h-4.917l2.112-6.27-6.402-16.731zm-218.6 35h5.181l3.07 12.573 3.53-12.573h5.38l3.497 12.573 3.267-12.573h4.851L57.592 68H52.28l-3.432-12.342L45.35 68H39.97l-5.445-16.665zm31.142-2.904v-4.257h5.213v4.257h-5.213zM65.832 68V51.302h4.884V68h-4.884zm9.184 0V44.141H79.9V68h-4.884zm9.185 0V44.141h4.884V68H84.2zm18.204 0V44.207h4.884v9.141c1.144-1.496 2.717-2.244 4.719-2.244 2.09 0 3.817.792 5.181 2.376 1.386 1.562 2.079 3.707 2.079 6.435 0 1.496-.209 2.805-.627 3.927-.396 1.122-.935 2.002-1.617 2.64a7.164 7.164 0 01-2.211 1.386 6.858 6.858 0 01-2.508.462c-2.31 0-3.982-.891-5.016-2.673-.066 1.21-.121 1.991-.165 2.343h-4.719zm11.88-7.92c0-3.806-1.199-5.709-3.597-5.709-2.398 0-3.597 1.716-3.597 5.148 0 1.826.352 3.223 1.056 4.191.704.946 1.628 1.419 2.772 1.419.638 0 1.177-.154 1.617-.462.462-.308.803-.649 1.023-1.023.22-.396.385-.869.495-1.419.132-.572.198-.99.198-1.254.022-.286.033-.583.033-.891zm8.459 7.92V55.427c0-1.276-.077-2.662-.231-4.158h4.587l.099 3.201c.198-.462.396-.847.594-1.155.22-.308.539-.649.957-1.023.418-.396.979-.682 1.683-.858.704-.176 1.518-.242 2.442-.198v4.389c-1.166-.11-2.134-.066-2.904.132-.748.198-1.287.539-1.617 1.023-.308.484-.506.946-.594 1.386-.088.418-.132.957-.132 1.617V68h-4.884zm12.661-19.569v-4.257h5.214v4.257h-5.214zM135.57 68V51.302h4.884V68h-4.884zm9.25 0V54.305c0-1.254-.033-2.266-.099-3.036h4.686l.132 2.508c1.188-1.936 2.992-2.904 5.412-2.904 1.452 0 2.585.33 3.399.99.836.638 1.397 1.353 1.683 2.145.308.858.462 2.519.462 4.983V68h-4.983V57.638c0-.858-.088-1.463-.264-1.815-.462-.946-1.254-1.419-2.376-1.419-1.122 0-1.969.429-2.541 1.287-.396.572-.594 1.419-.594 2.541V68h-4.917zm31.328-16.599h4.587a41.917 41.917 0 00-.231 4.125v12.309c0 4.488-2.772 6.732-8.316 6.732-4.664 0-7.106-1.782-7.326-5.346h4.686c.198 1.54 1.166 2.31 2.904 2.31.77 0 1.43-.187 1.98-.561.55-.374.902-.913 1.056-1.617.132-.528.209-1.848.231-3.96-1.144 1.518-2.64 2.277-4.488 2.277-2.244 0-3.982-.814-5.214-2.442-1.21-1.628-1.815-3.542-1.815-5.742 0-2.266.616-4.202 1.848-5.808 1.254-1.628 3.014-2.442 5.28-2.442 2.024 0 3.575.792 4.653 2.376l.165-2.211zm-7.062 8.085c0 .418.022.814.066 1.188.044.352.154.858.33 1.518.176.638.506 1.155.99 1.551.506.396 1.133.594 1.881.594.792 0 1.441-.198 1.947-.594.528-.396.88-.913 1.056-1.551.198-.66.319-1.166.363-1.518.044-.352.066-.715.066-1.089 0-3.388-1.111-5.082-3.333-5.082-.99 0-1.804.407-2.442 1.221-.616.814-.924 2.068-.924 3.762zM194.419 68V44.174h4.851v9.438c1.188-1.672 2.794-2.508 4.818-2.508 2.068 0 3.685.748 4.851 2.244.726 1.012 1.089 2.519 1.089 4.521V68h-4.851v-9.966c0-2.42-.913-3.63-2.739-3.63-.836 0-1.573.275-2.211.825-.616.528-.924 1.386-.924 2.574L199.336 68h-4.917zm19.282-8.184c0-1.078.143-2.112.429-3.102.308-.99.77-1.925 1.386-2.805.638-.902 1.54-1.617 2.706-2.145 1.166-.55 2.53-.825 4.092-.825 2.86 0 5.016.836 6.468 2.508 1.452 1.65 2.178 3.729 2.178 6.237 0 2.53-.748 4.653-2.244 6.369-1.474 1.694-3.641 2.541-6.501 2.541-2.486 0-4.532-.759-6.138-2.277-1.584-1.518-2.376-3.685-2.376-6.501zm5.016.033c0 3.564 1.221 5.346 3.663 5.346 1.166 0 2.057-.429 2.673-1.287.616-.858.924-2.332.924-4.422 0-3.52-1.221-5.28-3.663-5.28-2.398 0-3.597 1.881-3.597 5.643zm15.752-8.514h4.752l.132 2.376c1.034-1.804 2.728-2.706 5.082-2.706 2.156 0 3.85.748 5.082 2.244 1.232 1.496 1.848 3.52 1.848 6.072 0 2.508-.638 4.62-1.914 6.336-1.276 1.716-3.058 2.574-5.346 2.574-2.002 0-3.553-.715-4.653-2.145v8.316h-4.983V51.335zm8.382 13.695c1.144 0 2.024-.495 2.64-1.485.616-.99.924-2.332.924-4.026 0-.594-.044-1.155-.132-1.683a9.086 9.086 0 00-.462-1.716 2.993 2.993 0 00-1.056-1.419c-.462-.374-1.034-.561-1.716-.561-.99 0-1.881.44-2.673 1.32-.77.88-1.155 2.332-1.155 4.356 0 .462.022.891.066 1.287.066.396.198.946.396 1.65a3.174 3.174 0 001.089 1.65c.55.418 1.243.627 2.079.627zm27.071-4.125h-11.187c0 2.97 1.133 4.455 3.399 4.455 1.562 0 2.53-.77 2.904-2.31h4.455c-.11 1.43-.638 2.64-1.584 3.63-1.232 1.298-3.179 1.947-5.841 1.947-2.574 0-4.532-.693-5.874-2.079-1.43-1.496-2.145-3.663-2.145-6.501 0-3.652 1.155-6.281 3.465-7.887 1.386-.924 2.948-1.386 4.686-1.386a8.16 8.16 0 013.861.957c1.21.616 2.167 1.639 2.871 3.069.77 1.584 1.1 3.619.99 6.105zM258.9 57.836h6.039c0-.33-.022-.638-.066-.924-.044-.308-.154-.704-.33-1.188a2.107 2.107 0 00-.891-1.155c-.418-.308-.957-.462-1.617-.462-1.012 0-1.782.352-2.31 1.056-.506.704-.781 1.595-.825 2.673z" fill="#fff"/></svg>