<svg width="162" height="41" viewBox="0 0 162 41" fill="none" xmlns="http://www.w3.org/2000/svg"><path fill="#1CABE2" d="M0 0h162v41H0z"/><path d="M21.582 26V14.448h4.88c1.995 0 3.461.32 4.4.96 1.45.992 2.176 2.587 2.176 4.784 0 1.344-.245 2.464-.736 3.36-.49.896-1.296 1.563-2.416 2-.79.299-1.92.448-3.392.448h-4.912zm3.28-9.36v7.136h1.376c1.13-.01 1.995-.293 2.592-.848.597-.565.896-1.488.896-2.768 0-.661-.101-1.227-.304-1.696-.192-.48-.416-.832-.672-1.056-.245-.224-.565-.395-.96-.512-.395-.128-.693-.197-.896-.208a7.581 7.581 0 00-.768-.032l-1.264-.016zm9.52 3.632c0-.267.016-.55.048-.848.032-.299.096-.672.192-1.12.096-.459.256-.917.48-1.376.235-.459.523-.859.864-1.2 1.056-1.067 2.56-1.6 4.512-1.6.886 0 1.675.128 2.368.384.694.245 1.254.565 1.68.96.438.395.795.87 1.072 1.424.278.544.47 1.093.576 1.648a8.88 8.88 0 01.16 1.712c0 .885-.123 1.685-.368 2.4-.245.704-.565 1.28-.96 1.728a5.096 5.096 0 01-1.392 1.104 6.104 6.104 0 01-1.616.608 7.802 7.802 0 01-1.68.176c-.8 0-1.546-.112-2.24-.336a6.094 6.094 0 01-1.872-1.04c-.565-.459-1.013-1.083-1.344-1.872-.32-.8-.48-1.717-.48-2.752zm3.296-.016c0 2.443.89 3.664 2.672 3.664s2.672-1.237 2.672-3.712c0-1.237-.245-2.213-.736-2.928-.405-.555-1.045-.832-1.92-.832-1.792 0-2.688 1.27-2.688 3.808zM48.142 26V14.448h4.416l3.904 8.608-.032-8.608h2.8V26h-4.32l-3.984-8.976.032 8.976h-2.816zm12.384 0l4.56-11.552h3.904L73.55 26h-3.616l-.8-2.32H64.51L63.726 26h-3.2zm4.736-4.448h3.136l-1.488-4.848h-.048l-1.6 4.848zM75.938 26v-9.264h-3.52v-2.288H82.77v2.288h-3.6V26h-3.232zm8.096 0V14.48h8.672v2.208h-5.504v2.4h5.184v2.208h-5.184v2.464h5.632V26h-8.8zm15.968 0V14.448h4.416l3.904 8.608-.032-8.608h2.8V26h-4.32l-3.984-8.976.032 8.976h-2.816zm12.896-5.728c0-.267.016-.55.048-.848.032-.299.096-.672.192-1.12.096-.459.256-.917.48-1.376.234-.459.522-.859.864-1.2 1.056-1.067 2.56-1.6 4.512-1.6.885 0 1.674.128 2.368.384.693.245 1.253.565 1.68.96.437.395.794.87 1.072 1.424.277.544.469 1.093.576 1.648.106.544.16 1.115.16 1.712 0 .885-.123 1.685-.368 2.4-.246.704-.566 1.28-.96 1.728a5.096 5.096 0 01-1.392 1.104 6.113 6.113 0 01-1.616.608 7.812 7.812 0 01-1.68.176c-.8 0-1.547-.112-2.24-.336a6.087 6.087 0 01-1.872-1.04c-.566-.459-1.014-1.083-1.344-1.872-.32-.8-.48-1.717-.48-2.752zm3.296-.016c0 2.443.89 3.664 2.672 3.664 1.781 0 2.672-1.237 2.672-3.712 0-1.237-.246-2.213-.736-2.928-.406-.555-1.046-.832-1.92-.832-1.792 0-2.688 1.27-2.688 3.808zM127.682 26l-1.968-11.552h3.184l1.072 8.416 1.888-8.416h3.92l1.712 8.352 1.072-8.352h2.896L139.474 26h-3.84l-2-8.56-2.128 8.56h-3.824z" fill="#fff"/></svg>