<svg width="271" height="34" viewBox="0 0 271 34" fill="none" xmlns="http://www.w3.org/2000/svg"><path d="M3.07 21.32v-6.26h-2v-1.1h2v-2.14l1.2-.52v2.66h2.28v1.1H4.27v6.72c-.027.947.433 1.42 1.38 1.42.44 0 .786-.04 1.04-.12v1.04c-.454.12-.86.18-1.22.18-.387 0-.727-.033-1.02-.1a1.49 1.49 0 01-.68-.34 4.118 4.118 0 01-.42-.44c-.094-.133-.16-.333-.2-.6a11.49 11.49 0 01-.08-.62v-.68-.2zm12.28.58c.573-.867.86-1.84.86-2.92 0-1.08-.287-2.053-.86-2.92-.574-.867-1.414-1.3-2.52-1.3-1.107 0-1.947.433-2.52 1.3-.574.867-.86 1.84-.86 2.92 0 1.08.286 2.053.86 2.92.573.867 1.413 1.3 2.52 1.3 1.106 0 1.946-.433 2.52-1.3zm-6-6.66c.813-1.053 1.973-1.58 3.48-1.58 1.506 0 2.66.527 3.46 1.58.813 1.053 1.22 2.3 1.22 3.74 0 1.44-.407 2.687-1.22 3.74-.8 1.053-1.954 1.58-3.46 1.58-1.507 0-2.667-.527-3.48-1.58-.8-1.053-1.2-2.3-1.2-3.74 0-1.44.4-2.687 1.2-3.74zm23.84 1.8h-1.3c-.094-1.52-1.007-2.28-2.74-2.28-.894 0-1.614.407-2.16 1.22-.547.813-.82 1.807-.82 2.98 0 1.187.273 2.193.82 3.02.546.813 1.266 1.22 2.16 1.22.773 0 1.406-.213 1.9-.64.506-.44.786-1.007.84-1.7h1.3c-.32 2.293-1.627 3.44-3.92 3.44-1.414 0-2.5-.513-3.26-1.54-.76-1.04-1.14-2.3-1.14-3.78 0-1.467.393-2.72 1.18-3.76.786-1.04 1.886-1.56 3.3-1.56 1.066 0 1.96.307 2.68.92.72.6 1.106 1.42 1.16 2.46zm3.56-7.48v5.92h.04c.68-1.213 1.726-1.82 3.14-1.82.626 0 1.166.107 1.62.32.466.213.813.467 1.04.76.24.293.426.647.56 1.06.146.413.233.76.26 1.04.04.28.06.573.06.88V24h-1.2v-6.48c0-.867-.234-1.54-.7-2.02-.467-.493-1.114-.74-1.94-.74-.934 0-1.647.333-2.14 1-.494.667-.74 1.487-.74 2.46V24h-1.2V9.56h1.2zm9.932 4.4h1.2V24h-1.2V13.96zm1.3-4.4v1.5h-1.4v-1.5h1.4zm4.334 0V24h-1.2V9.56h1.2zm10.094 9.18c0-1.133-.267-2.08-.8-2.84-.534-.76-1.347-1.14-2.44-1.14-.72 0-1.32.213-1.8.64a3.168 3.168 0 00-.96 1.5 6.548 6.548 0 00-.26 1.9c0 .52.04 1.02.12 1.5.093.467.233.933.42 1.4.2.453.493.82.88 1.1.4.267.873.4 1.42.4.826 0 1.506-.22 2.04-.66.533-.44.893-.973 1.08-1.6.2-.64.3-1.373.3-2.2zm.1 5.26l-.06-1.48-.04-.08c-.854 1.24-2 1.86-3.44 1.86-.707 0-1.34-.16-1.9-.48-.547-.32-.98-.74-1.3-1.26a7.026 7.026 0 01-.7-1.7 8.227 8.227 0 01-.22-1.92c0-.92.126-1.76.38-2.52a4.36 4.36 0 011.36-1.96c.64-.533 1.433-.8 2.38-.8.693 0 1.353.16 1.98.48.64.32 1.126.767 1.46 1.34l.04-.04V9.56h1.2v12.18c0 .373.033 1.127.1 2.26h-1.24zm5.333-6.04V24h-1.2v-7.78c0-.253-.033-1.007-.1-2.26h1.24l.06 1.48h.04c.187-.507.487-.927.9-1.26a2.218 2.218 0 011.36-.52c.267-.013.667-.007 1.2.02v1.16c-.053 0-.167-.013-.34-.04a2.832 2.832 0 00-.4-.04c-.867 0-1.54.287-2.02.86-.467.573-.713 1.353-.74 2.34zm13.569 1.3h-7.76c.026 1.16.32 2.107.88 2.84.573.733 1.44 1.1 2.6 1.1.706 0 1.326-.227 1.86-.68a2.975 2.975 0 001.04-1.72h1.26c-.6 2.333-2.114 3.5-4.54 3.5-1.414 0-2.5-.513-3.26-1.54-.76-1.04-1.14-2.3-1.14-3.78 0-1.467.393-2.72 1.18-3.76.786-1.04 1.886-1.56 3.3-1.56 1.586 0 2.746.513 3.48 1.54.733 1.013 1.1 2.367 1.1 4.06zm-7.72-1.1h6.42c-.08-1.027-.394-1.847-.94-2.46-.547-.627-1.32-.94-2.32-.94-.92 0-1.654.327-2.2.98-.547.653-.867 1.46-.96 2.42zm11.573.06V24h-1.2v-7.78c0-.373-.034-1.127-.1-2.26h1.24l.06 1.48.04.04c.68-1.213 1.726-1.82 3.14-1.82.627 0 1.167.107 1.62.32.466.213.813.467 1.04.76.24.293.426.647.56 1.06.146.413.233.76.26 1.04.04.28.06.573.06.88V24h-1.2v-6.48c0-.867-.233-1.54-.7-2.02-.467-.493-1.113-.74-1.94-.74-.933 0-1.647.333-2.14 1-.493.667-.74 1.487-.74 2.46zm15.14-1.76c0-.96.36-1.667 1.08-2.12.72-.453 1.586-.68 2.6-.68 2.306 0 3.526.927 3.66 2.78h-1.3c-.107-1.12-.934-1.68-2.48-1.68-.627 0-1.16.133-1.6.4-.44.267-.66.673-.66 1.22 0 .28.066.513.2.7.146.187.373.347.68.48.306.12.62.227.94.32.333.08.773.193 1.32.34.56.147 1.066.3 1.52.46.52.187.933.493 1.24.92.306.413.46.887.46 1.42 0 1.067-.414 1.88-1.24 2.44-.827.56-1.82.84-2.98.84a5.406 5.406 0 01-1.76-.28c-.534-.187-1-.52-1.4-1-.4-.48-.607-1.067-.62-1.76h1.3c.04.693.32 1.193.84 1.5.52.293 1.166.44 1.94.44.706 0 1.32-.167 1.84-.5.52-.347.78-.847.78-1.5 0-.413-.16-.76-.48-1.04-.307-.28-.614-.467-.92-.56a18.442 18.442 0 00-1.44-.36 3.733 3.733 0 00-.34-.08c-.494-.12-.894-.227-1.2-.32a6.114 6.114 0 01-.96-.46c-.347-.2-.607-.46-.78-.78-.16-.32-.24-.7-.24-1.14zm18.8 2.8h-7.76c.026 1.16.32 2.107.88 2.84.573.733 1.44 1.1 2.6 1.1.706 0 1.326-.227 1.86-.68a2.98 2.98 0 001.04-1.72h1.26c-.6 2.333-2.114 3.5-4.54 3.5-1.414 0-2.5-.513-3.26-1.54-.76-1.04-1.14-2.3-1.14-3.78 0-1.467.393-2.72 1.18-3.76.786-1.04 1.886-1.56 3.3-1.56 1.586 0 2.746.513 3.48 1.54.733 1.013 1.1 2.367 1.1 4.06zm-7.72-1.1h6.42c-.08-1.027-.394-1.847-.94-2.46-.547-.627-1.32-.94-2.32-.94-.92 0-1.654.327-2.2.98-.547.653-.867 1.46-.96 2.42zm10.793 3.04c0 .653.213 1.153.64 1.5.426.333.966.5 1.62.5 2.16 0 3.16-1.42 3-4.26-.12 0-.394.007-.82.02-.414 0-.74.007-.98.02-.24.013-.56.04-.96.08-.4.04-.727.113-.98.22-.254.093-.507.22-.76.38-.254.16-.447.373-.58.64-.12.253-.18.553-.18.9zm5.26-3.36v-.92c-.054-.787-.28-1.34-.68-1.66-.387-.333-.954-.5-1.7-.5-1.507 0-2.327.58-2.46 1.74h-1.28c.28-1.893 1.533-2.84 3.76-2.84 1.146 0 2.026.273 2.64.82.626.547.933 1.38.92 2.5v4.76c0 .253.033 1.007.1 2.26h-1.24l-.04-1.48h-.04l-.06.14c-.227.44-.647.827-1.26 1.16-.6.32-1.227.48-1.88.48-.96 0-1.76-.28-2.4-.84-.627-.56-.94-1.313-.94-2.26 0-.667.18-1.253.54-1.76a3.41 3.41 0 011.48-1.14c.4-.173.84-.287 1.32-.34.48-.067 1.08-.1 1.8-.1.733 0 1.206-.007 1.42-.02zm5.52.12V24h-1.2v-7.78c0-.253-.034-1.007-.1-2.26h1.24l.06 1.48h.04c.186-.507.486-.927.9-1.26a2.216 2.216 0 011.36-.52 13.14 13.14 0 011.2.02v1.16c-.054 0-.167-.013-.34-.04a2.844 2.844 0 00-.4-.04c-.867 0-1.54.287-2.02.86-.467.573-.714 1.353-.74 2.34zm12.748-.92h-1.3c-.093-1.52-1.006-2.28-2.74-2.28-.893 0-1.613.407-2.16 1.22-.546.813-.82 1.807-.82 2.98 0 1.187.274 2.193.82 3.02.547.813 1.267 1.22 2.16 1.22.774 0 1.407-.213 1.9-.64.507-.44.787-1.007.84-1.7h1.3c-.32 2.293-1.626 3.44-3.92 3.44-1.413 0-2.5-.513-3.26-1.54-.76-1.04-1.14-2.3-1.14-3.78 0-1.467.394-2.72 1.18-3.76.787-1.04 1.887-1.56 3.3-1.56 1.067 0 1.96.307 2.68.92.72.6 1.107 1.42 1.16 2.46zm3.56-7.48v5.92h.04c.68-1.213 1.727-1.82 3.14-1.82.627 0 1.167.107 1.62.32.467.213.814.467 1.04.76.24.293.427.647.56 1.06.147.413.234.76.26 1.04.04.28.06.573.06.88V24h-1.2v-6.48c0-.867-.233-1.54-.7-2.02-.466-.493-1.113-.74-1.94-.74-.933 0-1.646.333-2.14 1-.493.667-.74 1.487-.74 2.46V24h-1.2V9.56h1.2zm9.934 4.4h1.2V24h-1.2V13.96zm1.3-4.4v1.5h-1.4v-1.5h1.4zm4.313 8.66V24h-1.2v-7.78c0-.373-.033-1.127-.1-2.26h1.24l.06 1.48.04.04c.68-1.213 1.727-1.82 3.14-1.82.627 0 1.167.107 1.62.32.467.213.814.467 1.04.76.24.293.427.647.56 1.06.147.413.234.76.26 1.04.04.28.06.573.06.88V24h-1.2v-6.48c0-.867-.233-1.54-.7-2.02-.466-.493-1.113-.74-1.94-.74-.933 0-1.646.333-2.14 1-.493.667-.74 1.487-.74 2.46zm16.834.54c0-1.053-.287-1.98-.86-2.78-.56-.813-1.347-1.22-2.36-1.22-.68 0-1.267.213-1.76.64-.48.427-.827.94-1.04 1.54-.2.587-.3 1.207-.3 1.86 0 1.053.266 1.993.8 2.82.546.827 1.326 1.24 2.34 1.24 1.066 0 1.86-.407 2.38-1.22.533-.813.8-1.773.8-2.88zm0-3.32l.06-1.48h1.24c-.067 1.133-.1 1.887-.1 2.26v6.26c0 .52-.007.913-.02 1.18 0 .267-.04.62-.12 1.06-.067.453-.174.813-.32 1.08-.134.267-.34.547-.62.84-.28.307-.627.553-1.04.74-.64.307-1.4.46-2.28.46-.68 0-1.3-.08-1.86-.24a3.214 3.214 0 01-1.48-.86c-.427-.413-.64-.947-.64-1.6h1.3c.066.547.373.947.92 1.2.546.267 1.186.4 1.92.4.813 0 1.52-.26 2.12-.78.6-.52.906-1.187.92-2v-1.88h-.04c-.28.573-.727 1.033-1.34 1.38-.614.333-1.254.5-1.92.5-1.44 0-2.52-.473-3.24-1.42-.72-.947-1.08-2.16-1.08-3.64 0-.96.14-1.82.42-2.58.28-.76.746-1.393 1.4-1.9.666-.507 1.486-.76 2.46-.76 1.346 0 2.446.62 3.3 1.86l.04-.08zM193.566 24h-1.2v-8.94h-2.02v-1.1h2.02v-2.14c0-.867.187-1.5.56-1.9.387-.4 1.007-.6 1.86-.6.107 0 .487.073 1.14.22v.96a4.844 4.844 0 00-.74-.08c-.746 0-1.213.167-1.4.5-.186.333-.26.92-.22 1.76v1.28h2.28v1.1h-2.28V24zm11.08-2.1c.574-.867.86-1.84.86-2.92 0-1.08-.286-2.053-.86-2.92-.573-.867-1.413-1.3-2.52-1.3-1.106 0-1.946.433-2.52 1.3-.573.867-.86 1.84-.86 2.92 0 1.08.287 2.053.86 2.92.574.867 1.414 1.3 2.52 1.3 1.107 0 1.947-.433 2.52-1.3zm-6-6.66c.814-1.053 1.974-1.58 3.48-1.58 1.507 0 2.66.527 3.46 1.58.814 1.053 1.22 2.3 1.22 3.74 0 1.44-.406 2.687-1.22 3.74-.8 1.053-1.953 1.58-3.46 1.58-1.506 0-2.666-.527-3.48-1.58-.8-1.053-1.2-2.3-1.2-3.74 0-1.44.4-2.687 1.2-3.74zm11.834 2.72V24h-1.2v-7.78c0-.253-.034-1.007-.1-2.26h1.24l.06 1.48h.04c.186-.507.486-.927.9-1.26a2.216 2.216 0 011.36-.52 13.14 13.14 0 011.2.02v1.16c-.054 0-.167-.013-.34-.04a2.844 2.844 0 00-.4-.04c-.867 0-1.54.287-2.02.86-.467.573-.714 1.353-.74 2.34zm11.066-4l3 8.46h.04l3.04-8.46h1.42l2.96 8.38h.04l2.9-8.38h1.32L232.526 24h-1.14l-3.08-8.66h-.04l-3.14 8.66h-1.22l-3.68-10.04h1.32zm17.04 7.24c0 .653.214 1.153.64 1.5.427.333.967.5 1.62.5 2.16 0 3.16-1.42 3-4.26-.12 0-.393.007-.82.02-.413 0-.74.007-.98.02-.24.013-.56.04-.96.08-.4.04-.726.113-.98.22-.253.093-.506.22-.76.38-.253.16-.446.373-.58.64-.12.253-.18.553-.18.9zm5.26-3.36v-.92c-.053-.787-.28-1.34-.68-1.66-.386-.333-.953-.5-1.7-.5-1.506 0-2.326.58-2.46 1.74h-1.28c.28-1.893 1.534-2.84 3.76-2.84 1.147 0 2.027.273 2.64.82.627.547.934 1.38.92 2.5v4.76c0 .253.034 1.007.1 2.26h-1.24l-.04-1.48h-.04l-.06.14c-.226.44-.646.827-1.26 1.16-.6.32-1.226.48-1.88.48-.96 0-1.76-.28-2.4-.84-.626-.56-.94-1.313-.94-2.26 0-.667.18-1.253.54-1.76a3.42 3.42 0 011.48-1.14c.4-.173.84-.287 1.32-.34.48-.067 1.08-.1 1.8-.1.734 0 1.207-.007 1.42-.02zm5.18 3.48v-6.26h-2v-1.1h2v-2.14l1.2-.52v2.66h2.28v1.1h-2.28v6.72c-.026.947.434 1.42 1.38 1.42.44 0 .787-.04 1.04-.12v1.04c-.453.12-.86.18-1.22.18-.386 0-.726-.033-1.02-.1a1.493 1.493 0 01-.68-.34 4.187 4.187 0 01-.42-.44c-.093-.133-.16-.333-.2-.6-.04-.267-.066-.473-.08-.62v-.68-.2zm14.261-2.06h-7.76c.026 1.16.32 2.107.88 2.84.573.733 1.44 1.1 2.6 1.1.706 0 1.326-.227 1.86-.68a2.98 2.98 0 001.04-1.72h1.26c-.6 2.333-2.114 3.5-4.54 3.5-1.414 0-2.5-.513-3.26-1.54-.76-1.04-1.14-2.3-1.14-3.78 0-1.467.393-2.72 1.18-3.76.786-1.04 1.886-1.56 3.3-1.56 1.586 0 2.746.513 3.48 1.54.733 1.013 1.1 2.367 1.1 4.06zm-7.72-1.1h6.42c-.08-1.027-.394-1.847-.94-2.46-.547-.627-1.32-.94-2.32-.94-.92 0-1.654.327-2.2.98-.547.653-.867 1.46-.96 2.42zm11.573-.2V24h-1.2v-7.78c0-.253-.033-1.007-.1-2.26h1.24l.06 1.48h.04a2.86 2.86 0 01.9-1.26 2.219 2.219 0 011.36-.52c.267-.013.667-.007 1.2.02v1.16c-.053 0-.167-.013-.34-.04a2.83 2.83 0 00-.4-.04c-.867 0-1.54.287-2.02.86-.467.573-.713 1.353-.74 2.34z" fill="#fff"/></svg>