<svg width="48" height="49" viewBox="0 0 48 49" fill="none" xmlns="http://www.w3.org/2000/svg"><path d="M30.397 8.812c-.066.056-.42.371-.791.703-.365.33-.76.69-.88.792-.467.406-.637.557-1.415 1.264-.444.399-.902.816-1.022.918-.12.103-.304.266-.412.36-.338.299-2.064 1.84-2.194 1.957-.363.338-.621.568-1.039.935-.528.464-.515.462-1.112.25-.161-.06-.375-.133-.477-.163-.103-.031-.301-.094-.44-.138a87.09 87.09 0 00-.889-.3 46.853 46.853 0 01-.914-.306c-.15-.051-.356-.12-.458-.15-.102-.031-.3-.094-.439-.138-.25-.087-1.32-.443-1.76-.587a48.45 48.45 0 01-.963-.316c-.15-.052-.334-.11-.412-.136-.074-.023-.352-.118-.618-.204-.264-.091-.582-.191-.71-.234-.31-.105-.636-.21-.96-.32a7.677 7.677 0 00-.39-.127c-.065-.021-.25-.08-.41-.14-.164-.056-.322-.113-.354-.124-.1-.034-.099.072 0 .273l.519 1.01c.074.14.145.283.153.311.013.031.13.256.265.51.132.251.277.533.329.63.246.496.64 1.271 1.1 2.17.057.105.15.297.218.421.06.125.18.362.269.529.088.166.196.379.24.47.045.092.14.273.205.401.068.13.224.437.349.683.124.246.296.587.385.753.089.166.206.407.27.535.058.129.12.244.14.257.015.01.038.076.048.144.016.116.005.132-.31.413-.177.163-.404.365-.507.45-.1.082-.735.652-1.414 1.264-.677.608-1.322 1.187-1.43 1.28-.109.094-.655.585-1.219 1.092-1.01.91-1.344 1.21-1.56 1.387-.06.048-.16.146-.225.208a4.668 4.668 0 01-.23.206c-.06.048-.76.673-1.555 1.39a194.258 194.258 0 01-2.052 1.832l-.496.441c-.156.139-.321.283-.368.318-.045.041-.067.082-.048.095.02.013 1.033-.182 2.25-.432 3.307-.682 3.886-.8 4.849-.995.486-.098 1.193-.245 1.57-.322.376-.084 1.464-.306 2.414-.5.95-.193 2.197-.451 2.774-.576.572-.123 1.065-.204 1.091-.186.027.018.25.226.25.226l.185.265s.082.045.403.67c.271.541.822 1.612.94 1.85.074.139.177.342.23.446.051.107.144.292.21.416.064.121.163.322.23.446.064.121.157.307.207.414.053.103.156.306.23.446.07.143.23.452.349.683.346.687.587 1.157.828 1.628.073.14.181.352.243.467.103.203.275.544.5.98.122.234.224.438.654 1.282.53 1.045.56 1.1.695 1.37.074.14.182.352.244.467.103.204.275.544.5.981.287.558.337.659.424.835.054.103.156.307.23.446.12.238.67 1.309.945 1.853.554 1.09.695 1.353.724 1.351.016-.006.045-.42.071-.92.025-.507.048-.954.057-.992a60.049 60.049 0 01.06-1.128c.035-.629.25-4.825.257-5-.002-.045.015-.351.032-.673.02-.327.034-.629.036-.672.002-.11.228-4.445.268-5.18.014-.319.03-.648.035-.728 0-.084.005-.18.01-.222.01-.038.058-.968.112-2.062.053-1.094.123-2.021.156-2.054.064-.068 1.353-.348 4.949-1.077.506-.101 1.21-.245 1.57-.322.36-.078 1.39-.289 2.285-.476 3.339-.687 4.716-.973 5.542-1.14.466-.1.83-.198.81-.228-.034-.04-.478-.203-.93-.339-.103-.03-.311-.095-.461-.147a7.677 7.677 0 00-.39-.127c-.064-.02-.249-.08-.41-.14-.164-.055-.385-.134-.502-.169-.202-.065-.909-.296-1.42-.467-.139-.044-.313-.101-.39-.127a13.163 13.163 0 01-.389-.13c-.138-.044-.352-.118-.482-.156-.44-.145-1.51-.5-1.76-.587a36.09 36.09 0 00-.44-.138c-.102-.03-.308-.099-.458-.15-.15-.053-.559-.193-.913-.306a87.7 87.7 0 01-.89-.3 36.243 36.243 0 00-.44-.138c-.102-.03-.315-.104-.48-.16a6.633 6.633 0 00-.422-.137 4.273 4.273 0 01-.276-.089c-.154-.054-1.001-.342-1.36-.458-.19-.058-.408-.134-.96-.32-.69-.231-.994-.344-.999-.37-.006-.048.223-4.643.246-4.9.01-.071.066-1.186.128-2.474.063-1.289.122-2.407.132-2.489.022-.18-.02-.202-.17-.088z" fill="#fff" opacity=".2"/></svg>