<svg width="44" height="44" viewBox="0 0 44 44" fill="none" xmlns="http://www.w3.org/2000/svg"><path d="M23.725 5.284c-.047.072-.297.475-.559.899-.255.42-.532.878-.618 1.01-.332.522-.452.715-.996 1.614-.313.509-.633 1.04-.719 1.171-.086.132-.216.342-.293.462-.239.383-1.455 2.352-1.546 2.502-.253.426-.434.721-.73 1.192-.375.595-.363.59-.995.556a10.26 10.26 0 00-.504-.02 34.7 34.7 0 01-.46-.008 88.625 88.625 0 00-.939-.034 46.493 46.493 0 01-.963-.032 14.504 14.504 0 00-.482-.014c-.107 0-.315-.004-.46-.007-.264-.011-1.392-.048-1.855-.06a48.743 48.743 0 01-1.013-.03c-.158-.006-.352-.01-.434-.012-.078 0-.37-.012-.65-.02-.28-.011-.613-.017-.748-.021-.327-.013-.67-.02-1.012-.033a7.755 7.755 0 00-.41-.01c-.068-.003-.261-.007-.433-.018-.173-.007-.34-.017-.374-.018-.105-.005-.074.097.078.261.178.188.518.543.785.821.11.113.219.23.235.254.021.026.197.208.4.413.197.203.416.432.494.51.377.406.974 1.036 1.672 1.766.085.085.23.242.329.342.094.102.275.296.408.43.133.134.296.307.365.382.069.075.212.222.31.326.103.105.34.355.529.555.189.201.451.478.584.612.132.134.313.332.411.436.093.107.185.199.207.206.018.006.058.062.087.124.049.108.043.125-.179.484-.124.207-.284.465-.358.577-.073.107-.52.834-.996 1.614-.476.775-.93 1.514-1.008 1.635-.077.12-.461.746-.857 1.393-.71 1.16-.944 1.543-1.1 1.774-.045.063-.113.186-.157.264a4.702 4.702 0 01-.162.262c-.044.063-.537.862-1.096 1.776a194.016 194.016 0 01-1.446 2.34c-.081.133-.24.387-.35.564-.11.178-.227.362-.261.41-.032.052-.041.097-.02.105.023.007.938-.47 2.035-1.056 2.976-1.596 3.498-1.873 4.365-2.335.44-.232 1.074-.575 1.414-.757.337-.187 1.316-.71 2.172-1.166.856-.456 1.978-1.059 2.497-1.343.512-.28.962-.5.993-.49.03.01.304.146.304.146l.252.202s.091.019.577.527c.414.441 1.247 1.311 1.429 1.504.11.113.266.279.347.362.079.089.22.24.32.34.095.098.247.262.347.362.095.098.237.25.316.337.08.084.237.25.347.362.109.117.35.368.529.556.527.56.893.942 1.258 1.324.11.112.274.286.366.378.156.166.419.443.758.797.183.19.34.355.992 1.042.805.851.85.894 1.057 1.115.11.113.274.286.366.378.157.166.419.443.758.798.436.453.512.535.646.68.08.083.236.249.347.361.181.194 1.014 1.063 1.433 1.506.842.888 1.052 1.1 1.08 1.089.012-.01-.078-.416-.195-.903-.12-.492-.226-.927-.228-.966a3.263 3.263 0 00-.062-.262 1723.693 1723.693 0 00-1.378-5.7c-.015-.044-.086-.342-.161-.656a1487.857 1487.857 0 01-1.374-5.695c-.077-.31-.156-.629-.174-.707a2.359 2.359 0 01-.054-.215c-.002-.04-.22-.945-.48-2.009-.26-1.063-.457-1.972-.434-2.013.041-.083 1.197-.719 4.438-2.442.456-.241 1.09-.58 1.414-.757.324-.176 1.25-.672 2.056-1.106 3.004-1.61 4.244-2.278 4.988-2.673.418-.229.739-.426.712-.449-.044-.028-.517-.058-.988-.06-.107 0-.326-.002-.484-.009a7.756 7.756 0 00-.41-.01c-.068-.002-.261-.006-.433-.018-.173-.007-.408-.019-.53-.019-.212-.005-.955-.025-1.495-.043-.145-.002-.328-.008-.41-.01-.078 0-.265-.007-.409-.015-.145-.002-.37-.012-.507-.012-.463-.013-1.59-.049-1.855-.06a36.316 36.316 0 00-.46-.008c-.107 0-.324-.006-.482-.014-.158-.007-.591-.024-.963-.032-.371-.012-.795-.026-.939-.034a36.528 36.528 0 00-.46-.007c-.107 0-.333-.01-.506-.016a6.756 6.756 0 00-.444-.012c-.069.003-.199 0-.29-.005a95.822 95.822 0 00-1.434-.052c-.199-.001-.43-.012-1.011-.034-.727-.024-1.052-.045-1.064-.069-.02-.045-1.108-4.513-1.159-4.766-.011-.071-.274-1.155-.581-2.408a145.644 145.644 0 01-.582-2.422c-.03-.18-.076-.189-.188-.036z" fill="#fff" opacity=".1"/></svg>