<svg width="27" height="26" viewBox="0 0 27 26" fill="none" xmlns="http://www.w3.org/2000/svg"><path d="M20.423 6.659a49.25 49.25 0 00-.569.162c-.264.078-.55.163-.635.185-.334.091-.456.126-1.019.293-.32.093-.652.192-.737.215-.085.022-.218.06-.295.08l-1.58.454c-.264.081-.45.135-.749.219-.379.105-.372.107-.62-.144a5.599 5.599 0 00-.201-.198l-.188-.176a47.594 47.594 0 00-.375-.367c-.15-.143-.323-.313-.386-.376a8.199 8.199 0 00-.194-.187l-.188-.175a113.145 113.145 0 00-1.151-1.116c-.063-.062-.141-.136-.175-.168l-.261-.253c-.111-.11-.247-.237-.301-.29-.13-.128-.27-.26-.406-.394a4.41 4.41 0 00-.166-.158c-.027-.026-.105-.1-.172-.17l-.148-.148c-.042-.042-.067.012-.066.137l.016.635a8.88 8.88 0 00.012.514l.012.397c.004.31.014.795.028 1.36.003.066.003.186.007.264 0 .078.003.226.007.332.005.105.007.238.008.295 0 .057.003.171.005.251.003.082.007.275.01.429.003.154.007.367.011.472.005.106.005.255.007.335a.688.688 0 00.008.163c.005.01 0 .048-.011.084-.02.063-.03.068-.256.133-.129.04-.292.086-.365.104-.07.017-.528.15-1.018.293-.488.142-.954.277-1.031.298-.077.02-.471.135-.878.254-.73.212-.97.283-1.122.32-.042.01-.116.034-.164.05a109.566 109.566 0 01-2.763.795l-.357.101c-.112.033-.23.065-.262.071-.032.01-.053.025-.047.037.007.01.564.158 1.238.328 1.83.459 2.15.54 2.682.675.268.069.66.166.869.219.21.049.81.2 1.336.334.525.133 1.215.305 1.536.383.318.076.586.155.595.17.009.016.07.175.07.175l.03.178s.03.043.04.435c.005.338.022 1.011.025 1.16l.007.28c0 .066.001.182.005.26.003.077.004.202.008.28.002.077.004.193.003.26.002.064.004.192.008.28 0 .089.006.283.01.428.007.43.014.725.021 1.02.004.088.007.222.01.295.002.127.006.34.014.615l.018.803.018.859c.003.088.006.221.01.294.002.127.006.34.013.615.01.35.01.413.011.523l.007.28.027 1.163c.014.683.021.85.037.856.009 0 .124-.201.259-.447.135-.249.255-.468.269-.485a972.15 972.15 0 001.646-3.008c.01-.024.092-.173.18-.331l.18-.33a860.711 860.711 0 011.586-2.9c.02-.043.046-.09.059-.11.014-.017.264-.473.556-1.011.293-.538.552-.988.577-.996.049-.02.766.153 2.753.658.279.072.668.17.868.219.2.048.77.192 1.266.315 1.848.463 2.61.653 3.067.77.259.062.465.101.463.082-.008-.029-.192-.219-.386-.397a7.404 7.404 0 01-.197-.185 4.394 4.394 0 00-.166-.159c-.027-.026-.105-.1-.172-.17-.069-.068-.161-.16-.211-.207-.086-.082-.386-.37-.602-.58-.06-.055-.133-.126-.166-.158a7.113 7.113 0 01-.164-.16c-.058-.056-.148-.144-.205-.195-.186-.18-.639-.619-.743-.723a19.56 19.56 0 00-.188-.176 8.206 8.206 0 01-.194-.187 25.813 25.813 0 00-.386-.375c-.149-.145-.319-.31-.375-.367a21.155 21.155 0 00-.188-.176c-.044-.04-.134-.129-.203-.197a3.758 3.758 0 00-.179-.171 2.341 2.341 0 01-.118-.112c-.064-.065-.42-.415-.573-.56-.082-.076-.173-.167-.405-.395-.292-.283-.418-.414-.414-.428.009-.026 1.238-2.283 1.312-2.407.022-.034.321-.581.665-1.215.344-.633.645-1.182.67-1.22.055-.086.04-.107-.064-.086z" fill="#fff" opacity=".2"/></svg>