<svg width="42" height="43" viewBox="0 0 42 43" fill="none" xmlns="http://www.w3.org/2000/svg"><path d="M15.46 7.305c.056.052.351.348.661.66.304.31.634.646.734.743.39.381.532.523 1.18 1.186.37.374.752.765.852.861.1.096.254.25.344.338.282.28 1.722 1.727 1.83 1.837.303.316.518.533.867.877.44.436.43.433.965.277.145-.044.337-.098.429-.12.092-.022.27-.067.393-.1.122-.035.483-.133.799-.219.318-.082.685-.184.82-.222.134-.039.32-.088.41-.11.093-.022.27-.067.394-.1a179.938 179.938 0 012.443-.657c.134-.039.3-.081.37-.1.066-.016.316-.085.554-.148.237-.067.523-.139.637-.17.279-.077.571-.153.862-.233.134-.039.29-.08.35-.092.057-.016.223-.059.368-.103.147-.041.288-.084.317-.091.09-.026.084.068-.014.24-.115.198-.336.572-.508.865-.072.119-.142.242-.151.266-.013.027-.127.218-.26.435-.129.215-.27.457-.322.54-.242.425-.627 1.088-1.079 1.857-.056.09-.148.254-.214.36-.06.107-.177.31-.263.453-.087.142-.193.324-.237.402-.043.079-.137.234-.2.343-.067.111-.22.374-.342.585-.122.21-.292.502-.378.644-.087.142-.202.349-.266.458-.057.11-.118.209-.136.22-.014.008-.037.064-.05.124-.02.102-.011.116.251.38.148.152.338.342.424.422.084.078.613.613 1.18 1.186.564.57 1.102 1.114 1.193 1.202.09.088.546.548 1.016 1.024.842.853 1.12 1.136 1.3 1.302.052.045.135.137.189.195.053.058.138.144.191.193.05.045.635.633 1.298 1.305a171.369 171.369 0 001.711 1.718c.097.099.284.285.414.415s.268.265.307.299c.038.039.055.076.038.086-.018.01-.9-.213-1.959-.495-2.874-.769-3.378-.902-4.215-1.123-.424-.11-1.037-.277-1.366-.364-.326-.093-1.272-.344-2.098-.563-.826-.218-1.91-.51-2.412-.648-.497-.138-.927-.235-.951-.22-.025.015-.232.186-.232.186l-.176.225s-.074.035-.389.57c-.266.463-.806 1.38-.923 1.583-.072.119-.173.293-.225.382-.05.091-.141.25-.207.356-.062.104-.16.276-.225.382-.062.103-.153.262-.203.354-.052.088-.153.262-.225.381-.07.123-.226.388-.342.585-.34.588-.576.99-.813 1.394l-.238.399c-.101.174-.27.465-.49.84-.12.199-.22.373-.642 1.096-.52.894-.55.94-.683 1.172-.072.12-.177.301-.238.4-.1.174-.27.465-.49.839-.282.478-.331.564-.417.715-.052.088-.153.262-.225.381-.117.204-.657 1.12-.927 1.586-.544.933-.681 1.158-.707 1.154-.013-.006-.018-.373-.015-.815.004-.448.007-.843 0-.877a1491.89 1491.89 0 01.036-5.418c.006-.04.006-.31.008-.596a1354.505 1354.505 0 00.034-5.175l.006-.644c.004-.073.005-.159.003-.195-.006-.034-.002-.857.008-1.824.009-.967-.005-1.788-.033-1.819-.052-.063-1.172-.375-4.3-1.2-.44-.115-1.051-.278-1.365-.364-.313-.087-1.209-.325-1.987-.535-2.902-.776-4.1-1.098-4.818-1.287-.405-.112-.72-.217-.701-.242.032-.034.431-.155.836-.251.092-.022.279-.068.413-.107.135-.038.29-.08.35-.092.058-.015.223-.058.368-.102.147-.041.346-.1.45-.124.182-.047.815-.215 1.275-.34l.35-.092c.066-.016.226-.06.348-.095.124-.032.316-.086.433-.113.395-.105 1.355-.365 1.579-.429l.393-.099c.092-.022.277-.071.411-.11.135-.038.502-.14.82-.222.316-.086.677-.184.799-.22l.393-.099c.092-.022.284-.076.43-.117.146-.044.317-.085.38-.1.06-.011.17-.04.248-.063.138-.04.898-.251 1.22-.335.17-.042.366-.097.86-.234.62-.168.894-.252.9-.275.007-.043.043-4.105.035-4.332-.004-.064.004-1.05.015-2.189s.017-2.127.012-2.2c-.01-.16.027-.178.154-.07z" fill="#fff" opacity=".4"/></svg>