<svg width="29" height="29" viewBox="0 0 29 29" fill="none" xmlns="http://www.w3.org/2000/svg"><path d="M23.809 10.736l-.413.466c-.194.216-.405.45-.465.52-.239.275-.328.376-.743.834-.234.263-.48.533-.54.603l-.21.244-1.15 1.294c-.199.215-.334.367-.55.613-.273.312-.271.304-.147.656.035.095.078.22.096.281l.08.259c.028.08.107.317.176.524.066.21.148.45.178.539l.089.27.08.259a116.111 116.111 0 01.529 1.604l.08.243c.013.044.068.208.12.365.052.155.11.343.136.418l.187.566c.03.088.064.191.075.23.012.038.046.147.081.242l.073.208c.02.059-.042.058-.16 0l-.593-.305a9.25 9.25 0 01-.481-.246l-.37-.194c-.291-.145-.745-.376-1.273-.647-.062-.034-.174-.089-.247-.128a11.04 11.04 0 01-.31-.159 10.17 10.17 0 00-.276-.141c-.054-.026-.16-.082-.235-.12l-.4-.206a28.685 28.685 0 01-.443-.227c-.097-.052-.239-.12-.313-.159a.717.717 0 01-.15-.082c-.007-.009-.046-.022-.085-.028-.069-.01-.078-.003-.243.182-.096.105-.214.239-.265.3-.048.06-.383.433-.742.834-.357.4-.698.78-.752.844-.055.064-.344.387-.642.719-.534.596-.711.793-.815.92-.028.036-.086.095-.122.133a81.135 81.135 0 01-.937 1.053c-.745.833-.848.95-1.076 1.211l-.26.293c-.081.092-.166.19-.187.217-.024.026-.048.04-.056.028-.007-.011.108-.608.255-1.327.402-1.95.472-2.29.587-2.858.057-.288.144-.704.19-.926.049-.222.18-.863.294-1.424.114-.56.266-1.295.34-1.636.072-.337.12-.627.11-.643-.011-.016-.133-.147-.133-.147l-.155-.11s-.026-.047-.393-.236c-.318-.16-.946-.484-1.085-.554l-.262-.135a5.98 5.98 0 01-.244-.124c-.071-.037-.19-.095-.262-.135a8.315 8.315 0 00-.243-.122l-.261-.135-.401-.205c-.403-.204-.68-.346-.955-.488-.082-.043-.207-.106-.274-.143-.12-.06-.32-.162-.576-.294-.136-.072-.256-.132-.751-.385-.614-.311-.645-.33-.804-.41-.082-.043-.207-.106-.274-.143-.12-.06-.319-.162-.575-.294-.328-.17-.387-.198-.49-.25-.06-.031-.18-.091-.262-.135-.14-.07-.768-.394-1.087-.556-.64-.326-.794-.409-.793-.426.004-.01.247-.027.541-.042.297-.015.56-.03.582-.035a982.649 982.649 0 013.596-.19c.027.002.207-.008.396-.019a874.757 874.757 0 003.862-.203c.049 0 .106-.003.13-.006.022-.006.568-.035 1.21-.067s1.186-.074 1.206-.094c.04-.037.205-.797.635-2.918.059-.298.144-.713.19-.925l.28-1.348c.405-1.968.574-2.78.672-3.268.059-.274.117-.489.134-.478.023.02.12.282.198.549.018.06.056.183.086.271.03.089.064.191.075.23.012.038.046.147.082.242.032.096.078.227.099.296.038.119.173.535.273.837l.074.23c.014.044.049.149.077.229.026.081.068.207.091.284.084.26.293.89.344 1.037l.08.26c.018.06.058.181.088.27.03.088.113.329.18.538.068.207.147.444.175.524l.08.26c.018.06.061.185.094.282.035.095.069.207.08.249.01.04.034.112.052.163.032.09.2.59.269.801.033.112.078.24.187.566.135.407.201.586.216.589.029.004 2.726-.134 2.876-.148.042-.005.696-.039 1.453-.077a86.617 86.617 0 001.46-.079c.106-.012.119.012.052.1z" fill="#fff" opacity=".1"/></svg>