<svg width="26" height="27" viewBox="0 0 26 27" fill="none" xmlns="http://www.w3.org/2000/svg"><path d="M19.283 6.744c-.011.047-.084.302-.16.57-.077.264-.162.551-.184.637-.09.334-.125.456-.29 1.02-.093.321-.191.654-.213.739-.022.085-.06.218-.08.295-.068.243-.423 1.488-.45 1.582-.08.266-.134.452-.217.752-.104.379-.106.372.145.621.069.067.158.157.198.201.04.045.12.13.176.189.057.056.222.226.367.376.143.15.313.323.375.386.063.063.147.15.187.195.04.044.12.13.176.188a114.431 114.431 0 011.115 1.155l.168.174.253.263c.11.11.237.247.29.302.128.13.26.27.394.406.062.063.133.137.158.166.027.027.101.106.17.173.068.07.135.135.148.148.042.042-.012.068-.137.067l-.633-.017a8.888 8.888 0 01-.513-.012l-.397-.013c-.309-.003-.793-.013-1.356-.028-.067-.003-.186-.003-.264-.007-.078 0-.226-.003-.331-.008a9.509 9.509 0 00-.295-.007c-.057 0-.171-.004-.25-.006a35.423 35.423 0 00-.428-.01 27.236 27.236 0 01-.472-.011c-.105-.005-.255-.005-.334-.007a.687.687 0 01-.163-.008c-.009-.005-.047 0-.084.01-.063.021-.068.03-.132.257-.039.13-.085.293-.103.366-.017.07-.149.529-.29 1.02-.142.489-.275.955-.296 1.033-.02.077-.134.472-.252.88-.21.73-.281.972-.317 1.123-.01.042-.035.117-.05.164a110.196 110.196 0 00-.788 2.768l-.101.358c-.032.112-.064.23-.07.262-.01.033-.025.054-.036.048-.012-.007-.16-.565-.33-1.24-.461-1.834-.543-2.155-.679-2.688-.07-.27-.167-.662-.22-.87-.05-.21-.202-.814-.336-1.34-.133-.526-.307-1.218-.385-1.54-.077-.318-.155-.586-.171-.595-.016-.01-.175-.072-.175-.072l-.177-.028s-.043-.03-.434-.04c-.338-.006-1.01-.024-1.158-.027l-.28-.007c-.065 0-.181-.001-.26-.005-.076-.003-.2-.004-.28-.008a7.78 7.78 0 00-.257-.004l-.28-.007c-.089-.001-.283-.007-.428-.01-.429-.008-.723-.015-1.018-.023-.088-.003-.22-.006-.294-.01-.127-.002-.34-.006-.613-.013-.147-.005-.274-.007-.803-.02-.653-.012-.688-.015-.856-.017-.088-.004-.221-.006-.294-.01l-.614-.014c-.35-.01-.412-.01-.522-.011l-.28-.008c-.148-.002-.82-.02-1.16-.027-.682-.015-.848-.022-.854-.037 0-.01.2-.125.445-.26.249-.135.467-.255.484-.269A32.336 32.336 0 002.24 16a942.61 942.61 0 012.447-1.344c.023-.01.173-.093.33-.18a839.624 839.624 0 003.22-1.769c.043-.02.09-.045.11-.058.017-.014.472-.264 1.008-.557.536-.293.985-.553.993-.578.019-.048-.154-.767-.662-2.758-.072-.28-.17-.67-.22-.87l-.316-1.27c-.466-1.85-.657-2.615-.774-3.072-.063-.26-.103-.467-.083-.464.028.007.218.192.396.387.04.044.123.134.186.197.062.063.133.137.158.166.027.027.101.106.17.173.068.069.161.161.207.212l.58.603.158.166c.03.032.103.108.16.164.056.06.145.15.196.206.18.187.618.64.722.745l.176.188c.04.045.125.132.187.195.063.063.232.236.375.387.145.15.31.32.367.376l.176.188c.04.044.13.134.197.203.07.067.144.15.172.18.025.03.075.082.111.118.065.065.415.422.56.575.076.082.167.173.395.406.283.293.414.419.428.415a234.17 234.17 0 002.4-1.314c.034-.022.58-.32 1.21-.665a80.587 80.587 0 001.218-.671c.085-.055.106-.04.085.064z" fill="#fff" opacity=".34"/></svg>