<svg width="160" height="42" viewBox="0 0 160 42" fill="none" xmlns="http://www.w3.org/2000/svg"><path d="M1.296 18V4.986h4.032l4.878 10.242V4.986h2.592V18H8.964L3.924 7.2V18H1.296zm13.47-6.318c0-.912.108-1.764.324-2.556a7.658 7.658 0 011.026-2.196c.468-.684 1.116-1.224 1.944-1.62.84-.396 1.824-.594 2.952-.594 2.004 0 3.528.588 4.572 1.764 1.104 1.26 1.656 2.892 1.656 4.896 0 .972-.144 1.92-.432 2.844-.288.924-.69 1.674-1.206 2.25-1.104 1.236-2.646 1.854-4.626 1.854-1.932 0-3.468-.594-4.608-1.782-1.068-1.14-1.602-2.76-1.602-4.86zm2.916-.09c0 1.584.324 2.796.972 3.636.516.696 1.302 1.044 2.358 1.044 1.104 0 1.914-.402 2.43-1.206.588-.876.882-2.118.882-3.726 0-.912-.108-1.686-.324-2.322-.516-1.536-1.506-2.304-2.97-2.304-1.02 0-1.818.366-2.394 1.098-.636.78-.954 2.04-.954 3.78zM32.142 18V7.146h-3.87v-2.16h10.547v2.16h-3.87V18h-2.807zm13.223 0V4.986h8.712V7.11h-5.922v3.096H53.7v2.124h-5.544v3.51h6.12V18h-8.91zm10.968 0V4.986h4.032l4.878 10.242V4.986h2.592V18h-3.834l-5.04-10.8V18h-2.628zm13.47-6.318c0-.912.108-1.764.324-2.556a7.658 7.658 0 011.026-2.196c.468-.684 1.116-1.224 1.944-1.62.84-.396 1.824-.594 2.952-.594 2.004 0 3.528.588 4.572 1.764 1.104 1.26 1.656 2.892 1.656 4.896 0 .972-.144 1.92-.432 2.844-.288.924-.69 1.674-1.206 2.25-1.104 1.236-2.646 1.854-4.626 1.854-1.932 0-3.468-.594-4.608-1.782-1.068-1.14-1.602-2.76-1.602-4.86zm2.916-.09c0 1.584.324 2.796.972 3.636.516.696 1.302 1.044 2.358 1.044 1.104 0 1.914-.402 2.43-1.206.588-.876.882-2.118.882-3.726 0-.912-.108-1.686-.324-2.322-.516-1.536-1.506-2.304-2.97-2.304-1.02 0-1.818.366-2.394 1.098-.636.78-.954 2.04-.954 3.78zm11.634-6.57h2.79v7.92c0 .36.006.66.018.9.024.228.09.504.198.828.108.324.252.582.432.774.192.192.474.36.846.504.372.132.816.198 1.332.198 1.188 0 2.028-.378 2.52-1.134.276-.408.414-1.146.414-2.214V5.022h2.718v8.118c0 .924-.174 1.734-.522 2.43-.336.684-.792 1.212-1.368 1.584a6.436 6.436 0 01-1.8.828 7.37 7.37 0 01-2.016.27c-2.328 0-3.96-.75-4.896-2.25a3.708 3.708 0 01-.558-1.386c-.072-.48-.108-1.086-.108-1.818V5.022zm25.583 3.96h-2.898c-.024-.552-.144-.99-.36-1.314-.42-.672-1.146-1.008-2.178-1.008-.744 0-1.386.162-1.926.486a2.887 2.887 0 00-1.17 1.26 6.938 6.938 0 00-.54 1.566 7.982 7.982 0 00-.162 1.638c0 1.548.36 2.712 1.08 3.492.672.744 1.692 1.116 3.06 1.116.84 0 1.548-.084 2.124-.252V13.23h-2.52v-2.16h5.31v6.498c-1.44.48-3.024.72-4.752.72-2.508 0-4.35-.576-5.526-1.728-1.152-1.128-1.728-2.748-1.728-4.86 0-2.244.63-3.984 1.89-5.22 1.26-1.236 2.904-1.854 4.932-1.854 1.992 0 3.468.546 4.428 1.638.6.684.912 1.59.936 2.718zM112.282 18V4.986h2.79v5.202h4.914V4.986h2.826V18h-2.79v-5.706h-4.95V18h-2.79zM.522 34.372h2.502c.024.336.156.63.396.882.24.24.612.36 1.116.36.444 0 .786-.102 1.026-.306.252-.216.378-.474.378-.774 0-.228-.09-.42-.27-.576-.168-.168-.498-.318-.99-.45l-1.656-.45a7.928 7.928 0 01-.702-.234 6.971 6.971 0 01-.702-.396 1.778 1.778 0 01-.666-.756C.798 31.348.72 30.97.72 30.538c0-.876.366-1.566 1.098-2.07.732-.516 1.692-.774 2.88-.774.984 0 1.794.228 2.43.684.648.456.99 1.122 1.026 1.998h-2.43c-.048-.72-.48-1.08-1.296-1.08-.372 0-.678.084-.918.252a.743.743 0 00-.342.648c0 .276.09.474.27.594.18.108.504.228.972.36l1.638.45c1.62.444 2.43 1.29 2.43 2.538 0 .852-.366 1.59-1.098 2.214-.72.612-1.746.918-3.078.918-1.368 0-2.406-.372-3.114-1.116-.408-.432-.63-1.026-.666-1.782zM18.036 37h-2.412a7.836 7.836 0 01-.09-1.242c-.672.972-1.578 1.458-2.718 1.458-1.008 0-1.764-.24-2.268-.72-.528-.528-.792-1.194-.792-1.998 0-1.296.642-2.238 1.926-2.826.744-.336 1.944-.504 3.6-.504 0-.552-.042-.954-.126-1.206-.18-.504-.576-.756-1.188-.756-.444 0-.78.168-1.008.504-.132.204-.198.474-.198.81h-2.61c.036-.96.378-1.674 1.026-2.142.684-.492 1.602-.738 2.754-.738 1.488 0 2.568.39 3.24 1.17.42.504.63 1.248.63 2.232l.018 3.654c0 .864.072 1.632.216 2.304zm-2.754-4.284c-.876-.072-1.584.024-2.124.288-.54.264-.81.66-.81 1.188 0 .336.114.636.342.9.228.264.546.396.954.396.456 0 .834-.174 1.134-.522a1.93 1.93 0 00.414-.882c.06-.336.09-.792.09-1.368zM20.352 37v-7.2h-1.35v-1.89h1.35v-1.242c0-.912.222-1.62.666-2.124.444-.516 1.266-.774 2.466-.774.456 0 .936.03 1.44.09v1.854a5.33 5.33 0 00-.558-.054c-.324 0-.588.036-.792.108a.768.768 0 00-.414.324c-.072.144-.12.264-.144.36a3.374 3.374 0 00-.018.396v1.062h1.692v1.89h-1.692V37h-2.646zm14.058-3.87h-6.102c0 1.62.618 2.43 1.854 2.43.852 0 1.38-.42 1.584-1.26h2.43c-.06.78-.348 1.44-.864 1.98-.672.708-1.734 1.062-3.186 1.062-1.404 0-2.472-.378-3.204-1.134-.78-.816-1.17-1.998-1.17-3.546 0-1.992.63-3.426 1.89-4.302.756-.504 1.608-.756 2.556-.756a4.45 4.45 0 012.106.522c.66.336 1.182.894 1.566 1.674.42.864.6 1.974.54 3.33zm-6.012-1.674h3.294c0-.18-.012-.348-.036-.504a3.407 3.407 0 00-.18-.648 1.15 1.15 0 00-.486-.63c-.228-.168-.522-.252-.882-.252-.552 0-.972.192-1.26.576-.276.384-.426.87-.45 1.458zm11.7-3.546h2.826l1.674 6.858 1.926-6.858h2.934l1.908 6.858 1.782-6.858h2.646L52.68 37h-2.898l-1.872-6.732L46.002 37h-2.934l-2.97-9.09zM65.04 37h-2.412a7.836 7.836 0 01-.09-1.242c-.672.972-1.578 1.458-2.718 1.458-1.008 0-1.764-.24-2.268-.72-.528-.528-.792-1.194-.792-1.998 0-1.296.642-2.238 1.926-2.826.744-.336 1.944-.504 3.6-.504 0-.552-.042-.954-.126-1.206-.18-.504-.576-.756-1.188-.756-.444 0-.78.168-1.008.504-.132.204-.198.474-.198.81h-2.61c.036-.96.378-1.674 1.026-2.142.684-.492 1.602-.738 2.754-.738 1.488 0 2.568.39 3.24 1.17.42.504.63 1.248.63 2.232l.018 3.654c0 .864.072 1.632.216 2.304zm-2.754-4.284c-.876-.072-1.584.024-2.124.288-.54.264-.81.66-.81 1.188 0 .336.114.636.342.9.228.264.546.396.954.396.456 0 .834-.174 1.134-.522a1.93 1.93 0 00.414-.882c.06-.336.09-.792.09-1.368zm10.236 2.412v1.746a7.892 7.892 0 01-2.07.288c-.504 0-.942-.066-1.314-.198-.36-.132-.624-.276-.792-.432a1.576 1.576 0 01-.396-.63c-.096-.276-.15-.486-.162-.63a6.98 6.98 0 01-.018-.558v-4.986h-1.746v-1.764h1.746v-1.782l2.646-.972v2.754h2.16v1.764h-2.16v4.104c0 .264.006.456.018.576.024.12.072.252.144.396a.613.613 0 00.36.306c.168.048.396.072.684.072.276 0 .576-.018.9-.054zm9.894-1.998h-6.102c0 1.62.618 2.43 1.854 2.43.852 0 1.38-.42 1.584-1.26h2.43c-.06.78-.348 1.44-.864 1.98-.672.708-1.734 1.062-3.186 1.062-1.404 0-2.472-.378-3.204-1.134-.78-.816-1.17-1.998-1.17-3.546 0-1.992.63-3.426 1.89-4.302.756-.504 1.608-.756 2.556-.756a4.45 4.45 0 012.106.522c.66.336 1.182.894 1.566 1.674.42.864.6 1.974.54 3.33zm-6.012-1.674h3.294c0-.18-.012-.348-.036-.504a3.407 3.407 0 00-.18-.648 1.15 1.15 0 00-.486-.63c-.228-.168-.522-.252-.882-.252-.552 0-.972.192-1.26.576-.276.384-.426.87-.45 1.458zM84.174 37v-6.858c0-.696-.042-1.452-.126-2.268h2.502l.054 1.746c.108-.252.216-.462.324-.63.12-.168.294-.354.522-.558.228-.216.534-.372.918-.468a4.61 4.61 0 011.332-.108v2.394c-.636-.06-1.164-.036-1.584.072-.408.108-.702.294-.882.558a2.246 2.246 0 00-.324.756 4.415 4.415 0 00-.072.882V37h-2.664z" fill="#fff"/></svg>