<svg width="21" height="21" viewBox="0 0 21 21" fill="none" xmlns="http://www.w3.org/2000/svg"><path d="M17.163 7.568c-.023.028-.153.174-.29.327-.135.15-.283.314-.325.364-.167.193-.23.263-.52.584-.164.184-.335.373-.377.422-.042.05-.11.126-.148.17-.123.14-.757.853-.805.906-.139.15-.234.257-.385.43-.19.218-.19.212-.103.458.025.067.055.155.067.198a14.045 14.045 0 00.18.548c.046.146.103.315.125.377.021.062.049.146.061.189l.057.18a86.611 86.611 0 01.37 1.124l.056.17.083.255c.037.109.079.24.096.293l.131.396c.021.062.045.134.052.162.009.026.033.102.058.168l.05.146c.014.041-.03.041-.112 0a310.495 310.495 0 01-.542-.277 6.571 6.571 0 01-.21-.109l-.258-.135a83.22 83.22 0 01-.891-.453c-.044-.024-.123-.062-.173-.09a7.421 7.421 0 01-.217-.11 6.91 6.91 0 00-.194-.1l-.164-.084-.28-.144c-.102-.051-.242-.122-.31-.159-.068-.036-.167-.084-.22-.11a.505.505 0 01-.105-.059c-.004-.006-.031-.015-.06-.02-.047-.006-.053-.002-.169.128a48.48 48.48 0 01-.705.794l-.527.591c-.038.045-.24.27-.448.503-.374.418-.498.556-.57.644-.02.025-.061.067-.086.093a80.037 80.037 0 00-1.41 1.585l-.181.205a4.59 4.59 0 00-.131.152c-.017.019-.034.028-.04.02a18.89 18.89 0 01.179-.93c.281-1.364.33-1.603.41-2 .04-.201.102-.492.134-.648.034-.156.126-.604.205-.997.08-.392.187-.906.238-1.145.051-.236.085-.44.077-.45-.007-.011-.093-.103-.093-.103l-.108-.076s-.019-.034-.275-.166c-.223-.112-.663-.339-.76-.388l-.183-.095a4.175 4.175 0 01-.171-.086c-.05-.026-.133-.067-.183-.095a5.676 5.676 0 00-.17-.085c-.043-.022-.126-.064-.183-.095-.06-.029-.186-.095-.281-.143a105.97 105.97 0 01-.669-.341l-.191-.1a59.694 59.694 0 01-.403-.207l-.526-.27c-.43-.217-.452-.23-.563-.286l-.192-.1a61.913 61.913 0 01-.402-.206c-.23-.118-.27-.139-.343-.175l-.184-.094-.76-.39c-.448-.228-.556-.286-.555-.298a3.58 3.58 0 01.378-.03c.208-.01.392-.02.407-.024a24.147 24.147 0 00.464-.025l2.054-.108c.019.001.144-.006.277-.013l.276-.015a627.423 627.423 0 002.427-.127 38.97 38.97 0 01.938-.051c.45-.023.83-.052.844-.066.029-.026.144-.558.445-2.042.041-.21.1-.5.133-.649l.196-.943c.284-1.378.402-1.946.47-2.287.042-.193.082-.343.094-.335.017.014.084.198.14.384.012.042.038.128.06.19.02.062.044.134.051.161.009.027.033.103.058.17.023.067.055.158.069.206.027.084.121.375.191.586l.052.161c.01.031.034.105.054.16.018.058.048.146.064.2l.24.726.057.18c.012.043.04.128.062.19.02.062.078.23.125.377a15.742 15.742 0 01.18.548c.012.042.042.13.065.198.024.067.048.145.056.174.007.028.024.08.036.115.022.063.14.412.188.56.024.079.055.169.131.396.095.285.14.41.152.413.02.002 1.907-.094 2.013-.104.03-.003.487-.027 1.016-.053.53-.027.99-.051 1.023-.056.074-.009.083.008.036.07z" fill="#fff" opacity=".2"/></svg>