<svg width="19" height="20" viewBox="0 0 19 20" fill="none" xmlns="http://www.w3.org/2000/svg"><path d="M16.098 13.49l-.467-.007c-.217-.006-.453-.012-.523-.012a30.047 30.047 0 01-.836-.015c-.263-.005-.537-.013-.606-.012l-.241-.002c-.2-.002-1.22-.02-1.297-.022-.219-.008-.371-.011-.617-.013-.31-.003-.305-.006-.443.236a4.318 4.318 0 01-.112.192c-.026.04-.074.118-.107.173a36.33 36.33 0 01-.211.357c-.086.14-.182.304-.217.365a6.39 6.39 0 01-.11.182l-.107.173a87.493 87.493 0 01-.65 1.086c-.034.06-.079.133-.098.164l-.147.246c-.062.107-.14.232-.17.283l-.229.383c-.035.06-.076.13-.094.155-.015.026-.06.099-.096.165-.039.066-.075.13-.082.143-.024.04-.054.005-.08-.09l-.117-.488a6.916 6.916 0 01-.096-.395c-.029-.122-.062-.258-.072-.305-.061-.237-.153-.609-.258-1.042-.011-.052-.035-.143-.049-.204a8.295 8.295 0 01-.062-.254 7.442 7.442 0 00-.055-.226c-.012-.044-.032-.132-.047-.193l-.08-.33c-.03-.117-.07-.28-.089-.362-.018-.081-.049-.195-.064-.256a.544.544 0 01-.027-.126c.002-.008-.01-.037-.026-.062-.028-.044-.036-.046-.222-.05a50.068 50.068 0 01-1.136-.02c-.4-.007-.783-.015-.846-.015-.063 0-.387-.006-.722-.014-.6-.013-.798-.017-.92-.014-.034.001-.096-.003-.136-.005a85.116 85.116 0 00-2.27-.04l-.292-.005a4.863 4.863 0 00-.214 0c-.027-.001-.046-.008-.044-.018.003-.01.398-.237.877-.504l1.906-1.064.617-.344c.15-.081.577-.32.95-.529.373-.209.864-.482 1.093-.606.226-.124.415-.239.418-.252.004-.014.019-.148.019-.148l-.015-.142s.014-.038-.058-.34c-.066-.259-.19-.775-.22-.889l-.05-.215a4.456 4.456 0 01-.05-.2c-.014-.059-.04-.154-.052-.215a6.25 6.25 0 00-.05-.198c-.012-.05-.037-.147-.052-.215-.018-.068-.054-.218-.08-.329-.083-.33-.138-.556-.193-.783l-.053-.226a66.46 66.46 0 01-.116-.472c-.026-.113-.05-.21-.15-.616-.125-.502-.13-.53-.163-.659l-.053-.226a66.6 66.6 0 01-.116-.472c-.064-.27-.077-.317-.099-.401l-.051-.215c-.029-.114-.154-.63-.218-.892-.13-.524-.158-.652-.148-.66.007-.003.136.128.29.287.153.163.29.305.304.315a26.048 26.048 0 00.345.36c.192.2 1.474 1.54 1.526 1.597.012.016.106.113.205.216l.205.214a677.335 677.335 0 001.804 1.888 42.11 42.11 0 01.699.728c.333.35.623.64.644.642.04.004.552-.274 1.963-1.066.198-.112.474-.266.617-.344.143-.078.548-.304.9-.5 1.314-.731 1.856-1.032 2.18-1.214.185-.101.334-.173.336-.158 0 .024-.1.206-.213.381-.025.04-.076.122-.111.182s-.077.13-.094.155c-.015.026-.06.098-.097.165-.038.066-.09.156-.119.201-.048.08-.218.36-.34.565l-.094.155c-.018.03-.06.1-.091.156-.034.054-.084.14-.117.19-.105.176-.36.603-.418.704a16.96 16.96 0 01-.107.172c-.026.04-.075.122-.11.183-.035.06-.132.225-.217.365-.084.14-.18.301-.211.357l-.107.172c-.025.04-.076.126-.114.192-.037.066-.084.14-.102.167a1.845 1.845 0 00-.067.11c-.035.062-.235.402-.322.544-.047.075-.098.163-.228.384-.164.276-.233.401-.228.411.012.018 1.412 1.488 1.494 1.567.024.021.364.378.756.79.392.413.734.77.761.794.06.054.052.073-.031.079z" fill="#fff" opacity=".2"/></svg>