<svg width="21" height="21" viewBox="0 0 21 21" fill="none" xmlns="http://www.w3.org/2000/svg"><path d="M18.129 9.456l-.423.264c-.198.12-.413.25-.475.291-.246.157-.337.214-.76.47-.24.148-.489.3-.551.34l-.217.138c-.18.113-1.107.686-1.177.73-.201.119-.34.204-.561.344-.28.177-.278.171-.262.469.005.08.009.187.01.238 0 .05 0 .148.002.216l.015.442c.004.176.012.38.015.454.003.074.006.177.006.227l.003.217a91.815 91.815 0 01.04 1.35c.004.075.006.166.007.205l.008.306c.006.131.008.289.01.352.006.154.01.316.015.477.003.074.006.16.005.193 0 .032.002.123.008.204l.008.176c.002.05-.046.035-.123-.037-.088-.084-.255-.243-.385-.369a7.503 7.503 0 01-.313-.298l-.24-.233c-.19-.177-.487-.458-.83-.786-.04-.04-.113-.108-.16-.155a8.232 8.232 0 01-.202-.192 7.97 7.97 0 00-.18-.172c-.035-.032-.104-.1-.153-.146-.049-.048-.166-.16-.26-.248a23.048 23.048 0 01-.288-.275c-.063-.063-.155-.147-.204-.194a.578.578 0 01-.097-.097c-.003-.008-.03-.027-.059-.04-.05-.024-.058-.021-.227.084a55.346 55.346 0 01-1.03.64c-.366.223-.714.438-.77.474-.057.037-.351.218-.656.405-.545.335-.726.446-.834.52-.03.02-.088.052-.124.073a92.59 92.59 0 00-2.06 1.276l-.266.165c-.084.052-.17.108-.193.124-.024.015-.046.02-.05.009-.002-.01.222-.442.498-.96.752-1.402.883-1.648 1.1-2.056.11-.207.272-.506.357-.667.088-.159.335-.62.55-1.024.215-.403.499-.932.633-1.176.132-.242.235-.454.23-.468a3.96 3.96 0 00-.068-.143l-.094-.119s-.01-.043-.248-.271c-.207-.195-.616-.587-.706-.672l-.17-.164a4.772 4.772 0 01-.16-.15c-.046-.045-.123-.117-.17-.164a6.702 6.702 0 00-.158-.148l-.17-.163-.261-.25c-.263-.247-.443-.42-.622-.59-.053-.053-.134-.13-.178-.173a70.384 70.384 0 01-.374-.357l-.49-.467-.523-.496-.177-.173a70.688 70.688 0 01-.375-.356c-.213-.205-.251-.24-.32-.304-.038-.038-.116-.111-.17-.163l-.706-.674C.962 5.343.862 5.244.867 5.23c.005-.006.196.036.425.09.231.057.435.107.454.108a27.417 27.417 0 00.516.123c.288.068 2.207.531 2.286.551.02.008.16.04.308.076l.308.073a715.211 715.211 0 002.702.653 44.689 44.689 0 011.045.25c.5.121.927.214.946.203.04-.02.339-.565 1.151-2.092.114-.215.273-.513.357-.666l.521-.97 1.26-2.35c.107-.197.2-.348.21-.336.014.021.028.243.028.466 0 .05.001.153.005.227.003.075.005.161.004.194.001.032.003.123.008.203.003.082.009.192.009.25.002.1.011.45.02.704 0 .068.003.155.004.193 0 .037.003.125.006.193.002.068.006.175.006.239.006.218.022.749.027.873.002.069.003.167.003.217 0 .05.003.153.007.227.003.075.01.278.014.454.006.174.012.374.016.442l.003.216c0 .05.004.157.007.239.005.08.006.174.005.209 0 .032 0 .094.003.136.004.077.02.498.024.676 0 .094.005.202.014.476.012.343.021.495.032.501.021.01 2.122.52 2.24.543.034.006.544.129 1.133.273.588.143 1.1.266 1.138.272.084.015.089.036.017.089z" fill="#fff" opacity=".3"/></svg>