<svg width="89" height="46" viewBox="0 0 89 46" fill="none" xmlns="http://www.w3.org/2000/svg"><path d="M2.46 19h-.975V8.17h.975v4.755h5.91V8.17h.975V19H8.37v-5.175H2.46V19zm15.91-3.555h-5.82c.02.87.24 1.58.66 2.13.43.55 1.08.825 1.95.825.53 0 .995-.17 1.395-.51.41-.34.67-.77.78-1.29h.945c-.45 1.75-1.585 2.625-3.405 2.625-1.06 0-1.875-.385-2.445-1.155-.57-.78-.855-1.725-.855-2.835 0-1.1.295-2.04.885-2.82.59-.78 1.415-1.17 2.475-1.17 1.19 0 2.06.385 2.61 1.155.55.76.825 1.775.825 3.045zm-5.79-.825h4.815c-.06-.77-.295-1.385-.705-1.845-.41-.47-.99-.705-1.74-.705-.69 0-1.24.245-1.65.735-.41.49-.65 1.095-.72 1.815zm8.695-6.45V19h-.9V8.17h.9zm3.16 6.885c0 .62.07 1.17.21 1.65.15.47.425.87.825 1.2.4.33.91.495 1.53.495.41 0 .76-.1 1.05-.3.3-.21.525-.485.675-.825.16-.35.27-.7.33-1.05.07-.36.105-.735.105-1.125 0-.52-.07-.995-.21-1.425a2.332 2.332 0 00-.735-1.125c-.36-.32-.81-.48-1.35-.48-.82 0-1.43.285-1.83.855-.4.57-.6 1.28-.6 2.13zm0 2.775v4.05h-.9v-8.715c0-.19-.025-.755-.075-1.695h.93l.045 1.11.03.03c.25-.43.61-.765 1.08-1.005.48-.24.98-.36 1.5-.36.71 0 1.305.2 1.785.6.48.4.815.89 1.005 1.47.2.57.3 1.2.3 1.89 0 .5-.06.98-.18 1.44-.11.45-.285.875-.525 1.275-.23.39-.55.705-.96.945-.4.24-.86.36-1.38.36-1.11 0-1.985-.465-2.625-1.395h-.03zM36.45 8.17h.975v7.005c.04.98.325 1.75.855 2.31s1.24.84 2.13.84c.89 0 1.6-.28 2.13-.84.53-.56.815-1.33.855-2.31V8.17h.975v7.02c-.02 1.21-.37 2.185-1.05 2.925-.67.74-1.64 1.11-2.91 1.11-1.27 0-2.245-.37-2.925-1.11-.67-.74-1.015-1.715-1.035-2.925V8.17zM47.2 19V8.17h1.11l5.97 9.525h.03V8.17h.975V19h-1.23l-5.85-9.36h-.03V19H47.2zm12.025 0h-.974V8.125h.974V19zM70 10.705h-1.05c-.08-.62-.36-1.085-.84-1.395-.47-.31-1.04-.465-1.71-.465-.66 0-1.235.14-1.725.42-.49.28-.87.66-1.14 1.14-.26.47-.45.97-.57 1.5-.12.52-.18 1.08-.18 1.68 0 .6.06 1.165.18 1.695.12.52.31 1.02.57 1.5.27.47.65.845 1.14 1.125.49.28 1.065.42 1.725.42.65 0 1.225-.165 1.725-.495.5-.33.815-.815.945-1.455h1.05c-.15.88-.58 1.575-1.29 2.085-.71.51-1.52.765-2.43.765-.79 0-1.495-.15-2.115-.45a3.98 3.98 0 01-1.47-1.245 5.924 5.924 0 01-.81-1.785 8.3 8.3 0 01-.27-2.16c0-.76.09-1.47.27-2.13.19-.67.465-1.27.825-1.8.37-.53.86-.945 1.47-1.245.61-.31 1.31-.465 2.1-.465.97 0 1.795.23 2.475.69.68.46 1.055 1.15 1.125 2.07zM79.015 19h-6.66V8.17h6.435v.9h-5.46v3.885h5.25v.9h-5.25V18.1h5.685v.9zm3.38 0h-.975V8.17h6.12v.9h-5.145v3.825h4.965v.9h-4.965V19zM6.93 32.78h-.975c-.07-1.14-.755-1.71-2.055-1.71-.67 0-1.21.305-1.62.915-.41.61-.615 1.355-.615 2.235 0 .89.205 1.645.615 2.265.41.61.95.915 1.62.915.58 0 1.055-.16 1.425-.48.38-.33.59-.755.63-1.275h.975c-.24 1.72-1.22 2.58-2.94 2.58-1.06 0-1.875-.385-2.445-1.155-.57-.78-.855-1.725-.855-2.835 0-1.1.295-2.04.885-2.82.59-.78 1.415-1.17 2.475-1.17.8 0 1.47.23 2.01.69.54.45.83 1.065.87 1.845zm2.67-5.61v4.44h.03c.51-.91 1.295-1.365 2.355-1.365.47 0 .875.08 1.215.24.35.16.61.35.78.57.18.22.32.485.42.795.11.31.175.57.195.78.03.21.045.43.045.66V38h-.9v-4.86c0-.65-.175-1.155-.525-1.515-.35-.37-.835-.555-1.455-.555-.7 0-1.235.25-1.605.75-.37.5-.555 1.115-.555 1.845V38h-.9V27.17h.9zm7.75 8.73c0 .49.16.865.48 1.125.32.25.725.375 1.215.375 1.62 0 2.37-1.065 2.25-3.195-.09 0-.295.005-.615.015-.31 0-.555.005-.735.015-.18.01-.42.03-.72.06s-.545.085-.735.165c-.19.07-.38.165-.57.285-.19.12-.335.28-.435.48-.09.19-.135.415-.135.675zm3.945-2.52v-.69c-.04-.59-.21-1.005-.51-1.245-.29-.25-.715-.375-1.275-.375-1.13 0-1.745.435-1.845 1.305h-.96c.21-1.42 1.15-2.13 2.82-2.13.86 0 1.52.205 1.98.615.47.41.7 1.035.69 1.875v3.57c0 .19.025.755.075 1.695h-.93l-.03-1.11h-.03l-.045.105c-.17.33-.485.62-.945.87-.45.24-.92.36-1.41.36-.72 0-1.32-.21-1.8-.63-.47-.42-.705-.985-.705-1.695 0-.5.135-.94.405-1.32.28-.38.65-.665 1.11-.855.3-.13.63-.215.99-.255.36-.05.81-.075 1.35-.075.55 0 .905-.005 1.065-.015zm4.14.285V38h-.9v-5.835c0-.28-.025-.845-.075-1.695h.93l.045 1.11.03.03c.51-.91 1.295-1.365 2.355-1.365.47 0 .875.08 1.215.24.35.16.61.35.78.57.18.22.32.485.42.795.11.31.175.57.195.78.03.21.045.43.045.66V38h-.9v-4.86c0-.65-.175-1.155-.525-1.515-.35-.37-.835-.555-1.455-.555-.7 0-1.235.25-1.605.75-.37.5-.555 1.115-.555 1.845zm12.625.405c0-.79-.215-1.485-.645-2.085-.42-.61-1.01-.915-1.77-.915-.51 0-.95.16-1.32.48-.36.32-.62.705-.78 1.155-.15.44-.225.905-.225 1.395 0 .79.2 1.495.6 2.115.41.62.995.93 1.755.93.8 0 1.395-.305 1.785-.915.4-.61.6-1.33.6-2.16zm0-2.49l.045-1.11h.93c-.05.85-.075 1.415-.075 1.695V36.86c0 .39-.005.685-.015.885 0 .2-.03.465-.09.795-.05.34-.13.61-.24.81-.1.2-.255.41-.465.63-.21.23-.47.415-.78.555-.48.23-1.05.345-1.71.345-.51 0-.975-.06-1.395-.18-.42-.11-.79-.325-1.11-.645-.32-.31-.48-.71-.48-1.2h.975c.05.41.28.71.69.9.41.2.89.3 1.44.3.61 0 1.14-.195 1.59-.585.45-.39.68-.89.69-1.5v-1.41h-.03c-.21.43-.545.775-1.005 1.035-.46.25-.94.375-1.44.375-1.08 0-1.89-.355-2.43-1.065-.54-.71-.81-1.62-.81-2.73 0-.72.105-1.365.315-1.935.21-.57.56-1.045 1.05-1.425.5-.38 1.115-.57 1.845-.57 1.01 0 1.835.465 2.475 1.395l.03-.06zm9.49 2.865h-5.82c.02.87.24 1.58.66 2.13.43.55 1.08.825 1.95.825.53 0 .995-.17 1.395-.51.41-.34.67-.77.78-1.29h.945c-.45 1.75-1.585 2.625-3.405 2.625-1.06 0-1.875-.385-2.445-1.155-.57-.78-.855-1.725-.855-2.835 0-1.1.295-2.04.885-2.82.59-.78 1.415-1.17 2.475-1.17 1.19 0 2.06.385 2.61 1.155.55.76.825 1.775.825 3.045zm-5.79-.825h4.815c-.06-.77-.295-1.385-.705-1.845-.41-.47-.99-.705-1.74-.705-.69 0-1.24.245-1.65.735-.41.49-.65 1.095-.72 1.815zm11.97-3.15h.9V38h-.9v-7.53zm.975-3.3v1.125h-1.05V27.17h1.05zm2.98 8.82v-4.695h-1.5v-.825h1.5v-1.605l.9-.39v1.995h1.71v.825h-1.71v5.04c-.02.71.325 1.065 1.035 1.065.33 0 .59-.03.78-.09v.78c-.34.09-.645.135-.915.135-.29 0-.545-.025-.765-.075-.21-.05-.38-.135-.51-.255s-.235-.23-.315-.33c-.07-.1-.12-.25-.15-.45a8.62 8.62 0 01-.06-.465v-.51-.15z" fill="#fff"/></svg>