<svg width="43" height="44" viewBox="0 0 43 44" fill="none" xmlns="http://www.w3.org/2000/svg"><path d="M4.586 20.272c.072.047.475.298.899.56.42.256.878.533 1.01.62.522.332.715.452 1.614.997.509.314 1.04.634 1.171.72.132.086.342.217.462.294.383.24 2.352 1.458 2.501 1.55.427.252.722.434 1.192.73.596.376.59.364.557.997-.01.172-.02.397-.02.504 0 .108-.004.316-.007.46-.007.145-.02.569-.033.94-.007.372-.024.805-.031.964-.007.158-.013.375-.014.482 0 .107-.003.315-.006.46a201.34 201.34 0 00-.06 1.856c-.002.252-.011.522-.027 1.014-.007.158-.01.352-.013.434 0 .078-.012.37-.019.651-.011.279-.016.613-.02.748-.013.327-.02.67-.033 1.012a7.8 7.8 0 00-.01.41c-.002.068-.006.262-.017.434l-.017.374c-.005.105.097.075.26-.077l.82-.785a4.09 4.09 0 01.254-.236c.026-.02.207-.196.412-.399.203-.198.432-.417.51-.494.405-.377 1.034-.974 1.763-1.671.085-.085.242-.23.341-.33.103-.093.296-.275.43-.408.134-.132.306-.296.381-.364.075-.069.222-.212.326-.31.105-.103.354-.34.555-.529.2-.19.476-.451.61-.584.134-.132.332-.313.435-.41.107-.093.2-.186.206-.208.006-.018.062-.058.124-.087.108-.048.125-.043.484.18.207.124.465.284.576.359.108.073.835.52 1.615.998.775.476 1.514.932 1.634 1.009.12.077.747.462 1.393.859 1.16.711 1.544.946 1.774 1.102.063.045.186.114.264.158.078.044.195.116.262.162.063.044.862.538 1.776 1.098 1.615.993 1.841 1.134 2.34 1.449.133.081.387.24.564.35.178.11.362.228.41.263.052.031.097.04.104.019.007-.022-.469-.939-1.056-2.037-1.597-2.98-1.875-3.501-2.338-4.37-.232-.439-.575-1.075-.757-1.415-.187-.337-.71-1.318-1.167-2.175a340.71 340.71 0 00-1.344-2.498c-.281-.514-.5-.964-.49-.994.01-.031.145-.305.145-.305l.2-.252s.02-.091.527-.577c.44-.414 1.31-1.246 1.502-1.428.113-.11.278-.267.362-.347.088-.079.24-.22.338-.32.098-.096.263-.248.362-.347.098-.096.25-.237.337-.316.084-.08.25-.237.362-.347.116-.109.367-.35.554-.529.56-.527.94-.892 1.323-1.257.112-.11.285-.274.377-.366l.797-.758c.188-.183.354-.34 1.04-.992.85-.805.893-.85 1.113-1.056.112-.11.285-.274.377-.367.166-.156.443-.418.797-.758.452-.434.535-.51.679-.645.083-.08.249-.236.361-.347.193-.181 1.062-1.014 1.504-1.432.886-.842 1.098-1.052 1.087-1.08-.01-.013-.415.077-.902.194-.492.12-.926.225-.965.227a3.23 3.23 0 00-.262.063 1659.515 1659.515 0 00-5.696 1.373c-.043.016-.341.086-.655.16a1499.764 1499.764 0 01-5.69 1.37c-.31.078-.629.156-.707.175-.08.023-.174.046-.215.053-.04.002-.944.219-2.007.478-1.063.26-1.97.456-2.011.433-.084-.041-.72-1.199-2.445-4.442-.241-.457-.58-1.091-.757-1.416-.177-.324-.674-1.252-1.108-2.058-1.612-3.008-2.28-4.249-2.675-4.993-.229-.42-.426-.74-.45-.714-.028.045-.057.517-.058.99 0 .106-.002.325-.009.483a7.802 7.802 0 00-.01.411c-.002.067-.006.261-.017.433-.007.173-.019.408-.019.53-.005.212-.024.956-.041 1.495l-.01.411c0 .078-.007.266-.014.41-.003.145-.012.37-.012.507-.012.463-.048 1.591-.06 1.855a37.82 37.82 0 00-.006.46c0 .108-.006.325-.013.483-.007.159-.024.592-.032.964-.012.371-.026.795-.033.939-.003.145-.006.353-.006.46 0 .107-.01.333-.017.507a6.771 6.771 0 00-.01.444c.002.069-.001.2-.006.29a95.868 95.868 0 00-.051 1.435c0 .2-.011.43-.032 1.012-.024.728-.045 1.052-.069 1.064a421.1 421.1 0 01-4.762 1.156c-.071.011-1.154.274-2.406.58-1.251.305-2.339.567-2.42.58-.179.03-.189.076-.036.188z" fill="#fff" opacity=".1"/></svg>