<svg width="48" height="48" viewBox="0 0 48 48" fill="none" xmlns="http://www.w3.org/2000/svg"><path d="M7.872 17.604c.056.066.37.421.702.793.33.366.69.763.792.883.405.467.557.638 1.263 1.417.398.445.815.904.917 1.024.102.12.266.305.36.413.298.339 1.838 2.068 1.955 2.199.337.364.567.622.934 1.04.464.53.462.517.25 1.115-.059.161-.132.375-.163.478-.03.102-.093.301-.137.44a88.63 88.63 0 00-.299.89c-.113.355-.252.765-.304.915-.052.15-.12.357-.15.46-.031.102-.094.3-.138.439-.086.25-.44 1.321-.584 1.762-.075.241-.16.498-.316.964-.052.15-.11.335-.135.413-.023.074-.117.352-.204.619-.09.264-.19.583-.232.711-.105.31-.21.638-.32.962a7.81 7.81 0 00-.126.39c-.021.065-.08.25-.14.41-.055.165-.112.322-.123.355-.034.1.072.099.273 0l1.008-.519a4.12 4.12 0 01.31-.153c.031-.013.255-.13.509-.266.25-.132.532-.276.629-.328.495-.246 1.268-.64 2.165-1.1.106-.057.297-.151.42-.218.126-.061.362-.18.528-.27.167-.088.379-.196.47-.24.091-.045.273-.14.4-.205.13-.068.436-.224.682-.349.246-.124.585-.297.752-.385.166-.09.406-.206.533-.27.129-.059.244-.121.257-.14.01-.016.076-.038.143-.048.117-.016.132-.006.413.31.163.178.364.405.45.508.082.101.651.736 1.263 1.417.607.678 1.186 1.326 1.28 1.434.092.108.583.656 1.09 1.22.908 1.014 1.21 1.348 1.386 1.564.047.06.146.161.208.226.061.064.153.166.205.23.048.06.673.762 1.389 1.559a195.276 195.276 0 011.83 2.056l.44.497c.14.157.283.322.318.368.042.046.083.068.096.049.013-.02-.183-1.034-.433-2.255-.683-3.311-.8-3.892-.997-4.856-.097-.487-.246-1.195-.323-1.573-.083-.377-.306-1.466-.5-2.418-.193-.951-.452-2.2-.576-2.78-.123-.571-.205-1.065-.187-1.092.018-.027.226-.25.226-.25l.264-.185s.044-.082.668-.403c.54-.271 1.61-.822 1.847-.941.139-.074.342-.177.445-.23.107-.05.292-.143.415-.21.121-.064.322-.163.446-.23.12-.064.306-.156.413-.207.102-.053.306-.156.445-.23.143-.07.451-.23.682-.348.685-.347 1.155-.588 1.625-.829.139-.074.351-.181.465-.244.204-.102.543-.275.98-.5.232-.121.436-.224 1.278-.654 1.044-.53 1.098-.56 1.368-.695.14-.074.351-.182.466-.244.203-.103.543-.275.98-.5.556-.288.657-.337.833-.425.103-.053.306-.156.445-.23.237-.119 1.306-.67 1.849-.945 1.088-.554 1.35-.695 1.349-.725-.006-.015-.42-.045-.92-.07a25.06 25.06 0 01-.99-.059 3.258 3.258 0 00-.268-.014 1672.328 1672.328 0 00-5.85-.307c-.045.003-.35-.015-.672-.032-.326-.02-.628-.035-.671-.037-.11-.002-4.438-.23-5.172-.271-.318-.015-.647-.031-.727-.036-.083 0-.18-.005-.221-.01-.038-.01-.967-.059-2.06-.113-1.092-.055-2.017-.125-2.05-.158-.069-.064-.349-1.355-1.079-4.957-.1-.507-.245-1.212-.322-1.573-.078-.362-.29-1.393-.476-2.29-.689-3.343-.976-4.723-1.143-5.55-.1-.467-.198-.831-.227-.812-.04.034-.203.479-.338.931-.03.103-.095.312-.146.462a7.91 7.91 0 00-.127.39c-.021.065-.08.25-.14.411-.055.164-.133.386-.168.502-.065.203-.295.91-.466 1.423-.043.139-.1.313-.126.391-.023.074-.082.253-.13.388-.044.139-.117.353-.156.484-.144.44-.498 1.512-.585 1.762-.044.139-.106.337-.137.44-.03.102-.098.309-.15.459-.052.15-.191.56-.305.915-.116.352-.25.755-.298.89l-.138.44c-.03.103-.103.317-.16.48-.059.162-.116.353-.136.424a4.262 4.262 0 01-.088.277 97.282 97.282 0 00-.457 1.361c-.058.191-.133.409-.32.961-.229.691-.341.996-.367 1.001-.049.006-4.636-.226-4.893-.25-.071-.009-1.184-.066-2.47-.13a145.495 145.495 0 01-2.485-.133c-.18-.022-.202.02-.088.17z" fill="#fff" opacity=".2"/></svg>