<svg width="406" height="66" viewBox="0 0 406 66" fill="none" xmlns="http://www.w3.org/2000/svg"><path d="M2.016 28V7.756h6.272l7.588 15.932V7.756h4.032V28h-5.964l-7.84-16.8V28H2.016zm20.953-9.828c0-1.419.168-2.744.504-3.976.355-1.232.887-2.37 1.596-3.416.728-1.064 1.736-1.904 3.024-2.52 1.307-.616 2.837-.924 4.592-.924 3.117 0 5.488.915 7.112 2.744 1.717 1.96 2.576 4.499 2.576 7.616 0 1.512-.224 2.987-.672 4.424-.448 1.437-1.073 2.604-1.876 3.5-1.717 1.923-4.116 2.884-7.196 2.884-3.005 0-5.395-.924-7.168-2.772-1.661-1.773-2.492-4.293-2.492-7.56zm4.536-.14c0 2.464.504 4.35 1.512 5.656.803 1.083 2.025 1.624 3.668 1.624 1.717 0 2.977-.625 3.78-1.876.915-1.363 1.372-3.295 1.372-5.796 0-1.419-.168-2.623-.504-3.612-.803-2.39-2.343-3.584-4.62-3.584-1.587 0-2.828.57-3.724 1.708-.99 1.213-1.484 3.173-1.484 5.88zM49.998 28V11.116h-6.02v-3.36h16.408v3.36h-6.02V28h-4.368zm20.57 0V7.756H84.12v3.304h-9.212v4.816h8.624v3.304h-8.624v5.46h9.52V28h-13.86zm17.061 0V7.756h6.272l7.588 15.932V7.756h4.032V28h-5.964l-7.84-16.8V28H87.63zm20.953-9.828c0-1.419.168-2.744.504-3.976a11.93 11.93 0 011.596-3.416c.728-1.064 1.736-1.904 3.024-2.52 1.307-.616 2.838-.924 4.592-.924 3.118 0 5.488.915 7.112 2.744 1.718 1.96 2.576 4.499 2.576 7.616 0 1.512-.224 2.987-.672 4.424-.448 1.437-1.073 2.604-1.876 3.5-1.717 1.923-4.116 2.884-7.196 2.884-3.005 0-5.394-.924-7.168-2.772-1.661-1.773-2.492-4.293-2.492-7.56zm4.536-.14c0 2.464.504 4.35 1.512 5.656.803 1.083 2.026 1.624 3.668 1.624 1.718 0 2.978-.625 3.78-1.876.915-1.363 1.372-3.295 1.372-5.796 0-1.419-.168-2.623-.504-3.612-.802-2.39-2.342-3.584-4.62-3.584-1.586 0-2.828.57-3.724 1.708-.989 1.213-1.484 3.173-1.484 5.88zm18.097-10.22h4.34v12.32c0 .56.01 1.027.028 1.4.038.355.14.784.308 1.288.168.504.392.905.672 1.204.299.299.738.56 1.316.784.579.205 1.27.308 2.072.308 1.848 0 3.155-.588 3.92-1.764.43-.635.644-1.783.644-3.444V7.812h4.228V20.44c0 1.437-.27 2.697-.812 3.78-.522 1.064-1.232 1.885-2.128 2.464a9.998 9.998 0 01-2.8 1.288c-.989.28-2.034.42-3.136.42-3.621 0-6.16-1.167-7.616-3.5a5.773 5.773 0 01-.868-2.156c-.112-.747-.168-1.69-.168-2.828V7.812zm39.797 6.16h-4.508c-.037-.859-.224-1.54-.56-2.044-.653-1.045-1.782-1.568-3.388-1.568-1.157 0-2.156.252-2.996.756-.821.485-1.428 1.139-1.82 1.96a10.79 10.79 0 00-.84 2.436 12.417 12.417 0 00-.252 2.548c0 2.408.56 4.219 1.68 5.432 1.046 1.157 2.632 1.736 4.76 1.736 1.307 0 2.408-.13 3.304-.392V20.58h-3.92v-3.36h8.26v10.108c-2.24.747-4.704 1.12-7.392 1.12-3.901 0-6.766-.896-8.596-2.688-1.792-1.755-2.688-4.275-2.688-7.56 0-3.49.98-6.197 2.94-8.12 1.96-1.923 4.518-2.884 7.672-2.884 3.099 0 5.395.85 6.888 2.548.934 1.064 1.419 2.473 1.456 4.228zM174.661 28V7.756h4.34v8.092h7.644V7.756h4.396V28h-4.34v-8.876h-7.7V28h-4.34zM.812 52.912h3.892c.037.523.243.98.616 1.372.373.373.952.56 1.736.56.69 0 1.223-.159 1.596-.476.392-.336.588-.737.588-1.204 0-.355-.14-.653-.42-.896-.261-.261-.775-.495-1.54-.7l-2.576-.7c-.448-.13-.812-.252-1.092-.364a10.85 10.85 0 01-1.092-.616 2.766 2.766 0 01-1.036-1.176c-.243-.504-.364-1.092-.364-1.764 0-1.363.57-2.436 1.708-3.22 1.139-.803 2.632-1.204 4.48-1.204 1.53 0 2.79.355 3.78 1.064 1.008.71 1.54 1.745 1.596 3.108h-3.78c-.075-1.12-.747-1.68-2.016-1.68-.579 0-1.055.13-1.428.392a1.156 1.156 0 00-.532 1.008c0 .43.14.737.42.924.28.168.784.355 1.512.56l2.548.7c2.52.69 3.78 2.007 3.78 3.948 0 1.325-.57 2.473-1.708 3.444-1.12.952-2.716 1.428-4.788 1.428-2.128 0-3.743-.579-4.844-1.736-.635-.672-.98-1.596-1.036-2.772zM28.056 57h-3.752a12.194 12.194 0 01-.14-1.932c-1.045 1.512-2.455 2.268-4.228 2.268-1.568 0-2.744-.373-3.528-1.12-.821-.821-1.232-1.857-1.232-3.108 0-2.016.999-3.481 2.996-4.396 1.157-.523 3.024-.784 5.6-.784 0-.859-.065-1.484-.196-1.876-.28-.784-.896-1.176-1.848-1.176-.69 0-1.213.261-1.568.784-.205.317-.308.737-.308 1.26h-4.06c.056-1.493.588-2.604 1.596-3.332 1.064-.765 2.492-1.148 4.284-1.148 2.315 0 3.995.607 5.04 1.82.653.784.98 1.941.98 3.472l.028 5.684c0 1.344.112 2.539.336 3.584zm-4.284-6.664c-1.363-.112-2.464.037-3.304.448-.84.41-1.26 1.027-1.26 1.848 0 .523.177.99.532 1.4.355.41.85.616 1.484.616.71 0 1.297-.27 1.764-.812a3 3 0 00.644-1.372c.093-.523.14-1.232.14-2.128zM31.659 57V45.8h-2.1v-2.94h2.1v-1.932c0-1.419.345-2.52 1.036-3.304.69-.803 1.969-1.204 3.836-1.204.709 0 1.456.047 2.24.14v2.884a8.291 8.291 0 00-.868-.084c-.504 0-.915.056-1.232.168-.3.112-.514.28-.644.504a2.88 2.88 0 00-.224.56 5.24 5.24 0 00-.028.616v1.652h2.632v2.94h-2.632V57h-4.116zm21.868-6.02h-9.492c0 2.52.961 3.78 2.884 3.78 1.325 0 2.147-.653 2.464-1.96h3.78c-.093 1.213-.541 2.24-1.344 3.08-1.046 1.101-2.698 1.652-4.956 1.652-2.184 0-3.846-.588-4.984-1.764-1.213-1.27-1.82-3.108-1.82-5.516 0-3.099.98-5.33 2.94-6.692 1.176-.784 2.501-1.176 3.976-1.176 1.157 0 2.25.27 3.276.812 1.027.523 1.839 1.39 2.436 2.604.653 1.344.933 3.07.84 5.18zm-9.352-2.604h5.124c0-.28-.019-.541-.056-.784-.038-.261-.13-.597-.28-1.008a1.788 1.788 0 00-.756-.98c-.355-.261-.812-.392-1.372-.392-.859 0-1.512.299-1.96.896-.43.597-.663 1.353-.7 2.268zm18.2-5.516h4.395l2.604 10.668L72.37 42.86h4.564l2.968 10.668 2.772-10.668h4.116L81.946 57h-4.508l-2.912-10.472L71.558 57h-4.564l-4.62-14.14zM101.172 57h-3.752a12.194 12.194 0 01-.14-1.932c-1.045 1.512-2.455 2.268-4.228 2.268-1.568 0-2.744-.373-3.528-1.12-.821-.821-1.232-1.857-1.232-3.108 0-2.016.999-3.481 2.996-4.396 1.157-.523 3.024-.784 5.6-.784 0-.859-.065-1.484-.196-1.876-.28-.784-.896-1.176-1.848-1.176-.69 0-1.213.261-1.568.784-.205.317-.308.737-.308 1.26h-4.06c.056-1.493.588-2.604 1.596-3.332 1.064-.765 2.492-1.148 4.284-1.148 2.315 0 3.995.607 5.04 1.82.654.784.98 1.941.98 3.472l.028 5.684c0 1.344.112 2.539.336 3.584zm-4.284-6.664c-1.362-.112-2.464.037-3.304.448-.84.41-1.26 1.027-1.26 1.848 0 .523.177.99.532 1.4.355.41.85.616 1.484.616.71 0 1.297-.27 1.764-.812a3 3 0 00.644-1.372c.094-.523.14-1.232.14-2.128zm15.923 3.752v2.716a12.28 12.28 0 01-3.22.448c-.784 0-1.466-.103-2.044-.308-.56-.205-.971-.43-1.232-.672-.262-.243-.467-.57-.616-.98-.15-.43-.234-.756-.252-.98a10.702 10.702 0 01-.028-.868v-7.756h-2.716v-2.744h2.716v-2.772l4.116-1.512v4.284h3.36v2.744h-3.36v6.384c0 .41.009.71.028.896.037.187.112.392.224.616a.951.951 0 00.56.476c.261.075.616.112 1.064.112.429 0 .896-.028 1.4-.084zm15.391-3.108h-9.492c0 2.52.961 3.78 2.884 3.78 1.325 0 2.146-.653 2.464-1.96h3.78c-.094 1.213-.542 2.24-1.344 3.08-1.046 1.101-2.698 1.652-4.956 1.652-2.184 0-3.846-.588-4.984-1.764-1.214-1.27-1.82-3.108-1.82-5.516 0-3.099.98-5.33 2.94-6.692 1.176-.784 2.501-1.176 3.976-1.176 1.157 0 2.249.27 3.276.812 1.026.523 1.838 1.39 2.436 2.604.653 1.344.933 3.07.84 5.18zm-9.352-2.604h5.124c0-.28-.019-.541-.056-.784a5.376 5.376 0 00-.28-1.008 1.79 1.79 0 00-.756-.98c-.355-.261-.812-.392-1.372-.392-.859 0-1.512.299-1.96.896-.43.597-.663 1.353-.7 2.268zM130.937 57V46.332c0-1.083-.065-2.259-.196-3.528h3.892l.084 2.716c.168-.392.336-.719.504-.98.187-.261.458-.55.812-.868.355-.336.831-.579 1.428-.728.598-.15 1.288-.205 2.072-.168V46.5c-.989-.093-1.81-.056-2.464.112-.634.168-1.092.457-1.372.868-.261.41-.429.803-.504 1.176-.074.355-.112.812-.112 1.372V57h-4.144z" fill="#fff"/></svg>