<svg width="35" height="34" viewBox="0 0 35 34" fill="none" xmlns="http://www.w3.org/2000/svg"><path d="M34.124 13.68a88.27 88.27 0 00-1.026-.26c-.479-.116-.999-.242-1.15-.283-.599-.158-.82-.214-1.841-.46-.58-.143-1.183-.287-1.335-.329-.152-.042-.39-.102-.529-.139-.437-.111-2.683-.672-2.853-.714-.483-.111-.82-.195-1.358-.334-.68-.176-.672-.167-.833-.78a10.182 10.182 0 00-.133-.486 34.334 34.334 0 01-.133-.44c-.037-.14-.152-.548-.254-.905-.105-.357-.22-.775-.262-.928a14.639 14.639 0 00-.133-.463 36.11 36.11 0 01-.134-.441c-.069-.255-.377-1.34-.506-1.785-.074-.242-.147-.501-.28-.974-.042-.153-.097-.339-.12-.418-.023-.074-.102-.357-.18-.626-.073-.269-.17-.589-.207-.719-.087-.315-.184-.644-.276-.974a7.801 7.801 0 00-.115-.394c-.018-.065-.074-.25-.115-.417-.046-.167-.088-.33-.097-.362-.027-.102-.115-.042-.225.153-.125.227-.36.659-.543.997-.074.14-.152.278-.17.302-.019.027-.139.25-.272.505l-.336.626c-.271.483-.69 1.243-1.173 2.129-.056.107-.162.292-.226.417-.069.12-.198.353-.285.52-.088.167-.203.375-.253.464-.051.088-.148.269-.217.394-.069.13-.234.431-.368.672-.133.241-.317.575-.405.742-.087.167-.22.4-.29.524-.073.12-.133.237-.133.26 0 .019-.042.074-.092.12-.088.08-.106.08-.516-.023-.234-.055-.529-.13-.658-.167-.124-.037-.952-.24-1.84-.459-.884-.218-1.726-.426-1.864-.463-.138-.038-.852-.214-1.588-.395-1.32-.324-1.758-.431-2.025-.51-.073-.023-.211-.05-.299-.07a4.71 4.71 0 01-.299-.074c-.074-.023-.985-.25-2.025-.505-1.84-.455-2.098-.52-2.669-.668-.152-.037-.442-.111-.644-.162a11.286 11.286 0 01-.47-.125c-.06-.014-.105-.01-.105.013 0 .024.731.752 1.624 1.619 2.425 2.351 2.849 2.764 3.553 3.45.354.348.874.85 1.15 1.118.281.264 1.077 1.039 1.772 1.716.695.677 1.61 1.563 2.039 1.971.423.404.768.765.768.798 0 .032-.046.334-.046.334l-.115.301s.01.093-.327.71c-.294.528-.87 1.586-.998 1.818-.074.139-.184.338-.24.44-.06.102-.16.283-.225.409-.065.12-.175.315-.24.44-.064.12-.165.302-.225.404-.055.102-.166.301-.24.44l-.367.673c-.373.672-.626 1.136-.88 1.6-.073.139-.188.347-.248.463-.11.2-.294.534-.529.965-.124.232-.235.431-.69 1.262-.566 1.024-.594 1.08-.741 1.344-.074.14-.189.348-.249.464-.11.2-.294.534-.529.965-.299.552-.354.65-.45.82-.056.103-.167.302-.24.441-.129.232-.704 1.29-.999 1.823-.589 1.071-.727 1.336-.708 1.359.013.009.372-.2.8-.46.433-.264.815-.496.852-.51.036-.018.138-.078.23-.139a1669.22 1669.22 0 005.011-3.042c.037-.028.3-.186.575-.352.281-.167.539-.325.576-.348.092-.06 3.8-2.31 4.431-2.69.272-.167.552-.339.621-.38.07-.047.152-.098.19-.116.036-.014.832-.497 1.766-1.067s1.74-1.034 1.786-1.025c.092.014 1.049.923 3.677 3.488.368.361.883.862 1.15 1.117.267.255 1.022.988 1.68 1.623 2.448 2.375 3.46 3.353 4.063 3.943.345.329.63.575.644.542.014-.05-.1-.51-.243-.96-.033-.102-.097-.31-.138-.464a7.709 7.709 0 00-.116-.394c-.018-.065-.073-.25-.114-.417-.046-.167-.106-.395-.143-.51-.06-.204-.267-.919-.414-1.438-.042-.14-.092-.316-.115-.394a13.062 13.062 0 01-.11-.395c-.042-.139-.102-.357-.143-.486-.13-.446-.438-1.53-.507-1.786a36.17 36.17 0 00-.133-.44c-.032-.103-.092-.311-.134-.464-.041-.153-.156-.57-.262-.928a86.335 86.335 0 01-.253-.904 34.29 34.29 0 00-.134-.44c-.032-.103-.091-.32-.137-.488a6.688 6.688 0 00-.125-.426 4.23 4.23 0 01-.083-.279c-.041-.157-.28-1.02-.386-1.382-.06-.19-.12-.412-.276-.974-.198-.7-.276-1.015-.258-1.034.037-.032 3.962-2.425 4.188-2.55a175.25 175.25 0 002.117-1.285c1.1-.673 2.057-1.253 2.13-1.29.161-.083.157-.13-.023-.19z" fill="#fff" opacity=".25"/></svg>