<svg width="43" height="43" viewBox="0 0 43 43" fill="none" xmlns="http://www.w3.org/2000/svg"><path d="M23.595 4.293a89.5 89.5 0 00-.559.898c-.256.421-.533.879-.619 1.01-.331.523-.452.716-.996 1.615-.313.509-.633 1.04-.719 1.171-.085.132-.216.342-.293.462-.238.383-1.455 2.352-1.546 2.502-.253.426-.434.72-.73 1.191-.375.596-.363.59-.995.557-.172-.011-.398-.02-.505-.02l-.46-.008a86.621 86.621 0 00-.938-.033 46.667 46.667 0 01-.964-.033 14.76 14.76 0 00-.482-.013c-.107 0-.315-.004-.46-.007-.264-.012-1.392-.048-1.855-.06a49.321 49.321 0 01-1.013-.03c-.158-.007-.352-.01-.434-.013-.078 0-.37-.012-.65-.019-.28-.012-.614-.017-.748-.021-.327-.013-.67-.02-1.012-.033a7.844 7.844 0 00-.41-.01c-.068-.003-.261-.007-.433-.018-.173-.007-.34-.017-.374-.018-.106-.005-.075.097.077.261l.785.821c.11.113.22.23.236.254.02.026.197.208.4.412.197.204.416.433.494.511.377.405.974 1.036 1.671 1.765.085.085.23.243.33.342.093.103.275.296.408.43.132.134.296.307.365.382.068.075.211.222.31.326.102.105.34.355.528.555.19.201.452.478.584.612.133.134.313.332.412.436.092.106.184.199.206.206.018.005.059.062.087.124.049.107.043.125-.178.484-.124.207-.284.465-.359.576-.073.108-.519.835-.996 1.615-.476.775-.93 1.514-1.008 1.634-.077.12-.461.747-.857 1.393-.71 1.16-.945 1.544-1.1 1.774-.045.064-.114.187-.158.264a4.699 4.699 0 01-.161.263c-.045.063-.538.862-1.097 1.775a192.695 192.695 0 01-1.446 2.34c-.081.134-.24.387-.35.565-.11.177-.228.362-.262.409-.031.053-.04.098-.019.105.022.007.938-.469 2.035-1.056 2.976-1.595 3.498-1.873 4.366-2.335.439-.232 1.074-.575 1.414-.757.337-.187 1.316-.71 2.172-1.166.856-.456 1.978-1.06 2.497-1.343.512-.28.962-.5.993-.49.03.01.304.146.304.146l.252.201s.091.02.577.527c.414.442 1.247 1.311 1.429 1.505.11.112.266.278.347.362.079.088.22.24.32.339.096.098.248.262.347.362.096.098.237.25.316.337.08.084.237.25.347.362.109.117.35.368.53.555.527.56.892.942 1.257 1.325.11.112.274.285.366.377.156.166.419.443.758.798.183.189.34.355.992 1.041.805.851.85.894 1.057 1.115.11.113.274.286.366.378.157.166.419.443.758.798.435.452.511.535.645.679.081.084.237.25.348.362.181.193 1.014 1.063 1.433 1.506.842.887 1.052 1.099 1.08 1.088.012-.01-.078-.416-.195-.902-.12-.493-.226-.927-.228-.967a3.24 3.24 0 00-.062-.261c-.027-.1-.116-.477-.201-.837-.146-.612-1.133-4.695-1.177-4.864-.015-.043-.085-.34-.16-.655a1529.805 1529.805 0 01-1.374-5.694c-.077-.31-.156-.63-.174-.708a2.359 2.359 0 01-.053-.215c-.003-.039-.22-.944-.48-2.008-.26-1.063-.457-1.972-.435-2.013.042-.083 1.198-.719 4.439-2.443.456-.24 1.09-.58 1.414-.756.324-.177 1.251-.673 2.056-1.107 3.005-1.61 4.245-2.277 4.989-2.673.418-.228.74-.425.712-.449-.044-.028-.516-.058-.988-.059-.107 0-.326-.002-.484-.01a7.757 7.757 0 00-.41-.01c-.068-.002-.261-.006-.433-.017-.173-.007-.408-.02-.53-.02-.212-.004-.955-.024-1.495-.042l-.41-.01c-.078 0-.265-.008-.409-.015-.145-.003-.371-.012-.507-.012-.463-.013-1.59-.049-1.855-.06a36.473 36.473 0 00-.46-.008c-.107 0-.324-.006-.482-.013-.159-.007-.591-.025-.964-.033a86.524 86.524 0 01-.938-.033 36.5 36.5 0 00-.46-.007c-.107 0-.333-.01-.506-.017a6.689 6.689 0 00-.444-.011c-.069.002-.2 0-.29-.006a96.065 96.065 0 00-1.434-.052c-.2 0-.43-.011-1.012-.033-.727-.024-1.051-.046-1.063-.069a423.68 423.68 0 01-1.16-4.766c-.01-.07-.274-1.155-.58-2.407a145.65 145.65 0 01-.582-2.422c-.03-.18-.076-.189-.188-.036z" fill="#fff" opacity=".1"/></svg>