<svg width="48" height="48" viewBox="0 0 48 48" fill="none" xmlns="http://www.w3.org/2000/svg"><path d="M30.383 7.816c-.065.056-.42.371-.791.703-.365.33-.761.69-.88.792-.468.406-.638.557-1.415 1.264-.445.398-.903.816-1.023.918-.12.102-.304.266-.412.36-.338.298-2.064 1.84-2.195 1.957-.363.337-.621.568-1.039.935-.528.464-.515.461-1.112.25-.161-.06-.375-.133-.477-.164-.103-.03-.301-.094-.44-.138a87.904 87.904 0 00-.89-.3 45.932 45.932 0 01-.913-.305c-.15-.052-.356-.12-.459-.15-.102-.031-.3-.094-.439-.138-.25-.087-1.32-.443-1.76-.587-.24-.075-.497-.16-.963-.316-.15-.052-.334-.11-.412-.136-.074-.023-.352-.117-.618-.204-.264-.09-.583-.19-.711-.234-.31-.105-.636-.21-.96-.32a7.757 7.757 0 00-.39-.126c-.065-.022-.249-.08-.41-.14-.164-.056-.322-.113-.354-.124-.1-.034-.099.072 0 .273l.519 1.01c.073.14.144.282.153.31.013.032.13.256.265.51.132.251.277.534.33.63.245.496.638 1.27 1.099 2.17.057.105.15.297.218.42.06.126.18.363.269.529.088.166.196.379.24.47.045.092.14.274.205.401.068.13.224.437.349.683.124.246.296.587.385.753.09.166.206.407.27.535.059.129.12.243.14.256.015.01.038.076.048.144.016.117.006.132-.309.413a19.05 19.05 0 01-.508.45c-.1.083-.735.653-1.414 1.264-.677.608-1.323 1.187-1.431 1.28-.109.094-.655.585-1.219 1.092-1.01.91-1.345 1.21-1.56 1.387-.06.048-.161.146-.225.208a4.774 4.774 0 01-.23.206c-.06.048-.76.673-1.556 1.39a193.127 193.127 0 01-2.053 1.831c-.116.105-.34.303-.496.442-.156.138-.321.282-.367.317-.046.042-.068.083-.048.096.019.013 1.032-.182 2.25-.433 3.307-.681 3.886-.8 4.85-.995.486-.097 1.193-.245 1.57-.322.376-.083 1.464-.306 2.414-.5.95-.193 2.198-.451 2.775-.576.572-.123 1.065-.204 1.092-.186.027.018.25.226.25.226l.184.265s.082.044.403.67c.271.54.822 1.612.941 1.849.074.139.176.343.23.446.05.107.143.292.21.416.064.121.163.322.23.446.063.121.156.307.207.414.053.103.156.306.23.446.07.142.23.452.348.683.346.686.587 1.157.828 1.627.074.14.182.352.244.467.103.203.275.544.5.98.121.234.224.438.654 1.282.529 1.045.56 1.099.695 1.37.074.139.181.351.244.466.102.204.275.544.5.98.287.559.337.66.424.836.053.103.156.307.23.446.119.237.67 1.308.945 1.852.554 1.09.695 1.353.724 1.351.016-.006.045-.42.071-.92.025-.507.048-.954.057-.992a57.636 57.636 0 01.06-1.128c.035-.628.251-4.824.258-4.998-.003-.046.014-.352.032-.674a1537.642 1537.642 0 01.304-5.85c.015-.32.03-.648.035-.729 0-.083.005-.18.01-.221.01-.038.058-.968.112-2.062.054-1.094.123-2.02.157-2.053.063-.069 1.353-.349 4.95-1.078.505-.1 1.209-.245 1.57-.322.36-.077 1.39-.289 2.286-.475 3.339-.688 4.717-.974 5.542-1.141.467-.1.83-.198.81-.228-.034-.04-.478-.203-.93-.338-.102-.031-.31-.095-.46-.147a7.787 7.787 0 00-.391-.127c-.064-.022-.248-.08-.41-.14-.163-.056-.385-.134-.502-.17-.202-.065-.908-.296-1.42-.466-.139-.044-.313-.102-.391-.127a13.52 13.52 0 01-.388-.13c-.138-.045-.352-.118-.482-.157-.44-.144-1.511-.5-1.76-.586a35.515 35.515 0 00-.44-.138c-.102-.03-.309-.099-.458-.15-.15-.053-.56-.193-.914-.306a85.401 85.401 0 01-.89-.3 35.545 35.545 0 00-.44-.137c-.102-.031-.315-.104-.48-.16a6.681 6.681 0 00-.422-.138 4.193 4.193 0 01-.276-.088 96.852 96.852 0 00-1.36-.459c-.19-.057-.408-.133-.96-.32-.69-.23-.995-.343-1-.369-.006-.048.223-4.642.247-4.899.009-.071.066-1.185.128-2.474.063-1.288.122-2.406.132-2.488.022-.18-.019-.202-.17-.088z" fill="#fff" opacity=".2"/></svg>