<svg width="84" height="84" viewBox="0 0 84 84" fill="none" xmlns="http://www.w3.org/2000/svg"><path d="M70.77 52.927c-.106-.111-.71-.712-1.343-1.34-.632-.617-1.319-1.286-1.515-1.49-.777-.79-1.067-1.078-2.416-2.393-.762-.752-1.56-1.526-1.755-1.73-.196-.203-.51-.515-.689-.698-.572-.572-3.519-3.494-3.743-3.714a85.919 85.919 0 01-1.787-1.758c-.888-.895-.882-.873-.575-1.948.087-.291.192-.677.235-.86.043-.185.132-.542.194-.791.07-.245.262-.969.43-1.603.16-.638.362-1.377.437-1.647.075-.27.172-.64.215-.825.042-.184.131-.542.193-.79.125-.45.634-2.378.84-3.171.104-.434.226-.895.45-1.734.074-.27.157-.602.194-.743.031-.133.167-.634.29-1.113.131-.476.272-1.05.333-1.28.151-.558.3-1.146.458-1.73.075-.27.156-.583.18-.703.03-.115.113-.447.2-.738.081-.295.165-.58.18-.637.05-.18-.14-.17-.486.024l-1.739 1.009c-.24.143-.486.281-.535.3-.053.024-.44.251-.876.514-.432.257-.918.538-1.084.639-.855.48-2.188 1.245-3.734 2.14-.182.111-.513.295-.725.425-.216.119-.624.351-.91.523-.286.173-.652.383-.81.47-.157.086-.47.27-.69.397-.223.133-.752.437-1.175.679-.424.242-1.01.578-1.296.75-.286.172-.701.4-.92.526-.223.115-.42.235-.441.27-.017.028-.131.074-.251.098-.206.039-.234.022-.772-.51-.311-.302-.697-.686-.862-.86a210.97 210.97 0 00-2.416-2.394 444.886 444.886 0 01-2.448-2.421 327.808 327.808 0 00-2.086-2.062c-1.738-1.71-2.314-2.275-2.654-2.64-.092-.103-.28-.273-.397-.382a8.523 8.523 0 01-.393-.388 253.79 253.79 0 00-2.658-2.633c-2.42-2.386-2.758-2.723-3.502-3.474-.2-.196-.579-.576-.844-.84-.266-.264-.541-.543-.61-.622-.079-.077-.154-.112-.175-.077-.02.035.446 1.813 1.034 3.95 1.601 5.798 1.879 6.813 2.34 8.502.23.854.577 2.092.758 2.754.193.66.716 2.566 1.172 4.233a602.39 602.39 0 001.351 4.865c.286 1.002.49 1.868.46 1.917-.03.05-.373.463-.373.463l-.45.35s-.07.15-1.146.774c-.932.53-2.775 1.6-3.184 1.832-.24.143-.59.343-.767.447-.185.099-.504.28-.717.41-.208.123-.555.316-.767.446-.209.123-.528.304-.713.403-.177.104-.528.304-.767.447-.247.138-.779.449-1.176.678-1.183.675-1.992 1.144-2.802 1.613-.24.142-.606.352-.803.473-.35.2-.936.536-1.688.972-.401.237-.752.437-2.205 1.274-1.8 1.03-1.893 1.089-2.359 1.353-.24.143-.605.353-.802.473-.35.2-.937.536-1.689.973-.96.56-1.133.657-1.437.827-.178.104-.528.304-.768.447-.408.232-2.251 1.303-3.188 1.839-1.877 1.079-2.329 1.352-2.321 1.404.013.027.754.042 1.648.043.905-.001 1.703 0 1.772.013.074.006.284.008.48.001.185-.003.876 0 1.537.005 1.122.005 8.62.015 8.931.01.082-.007.629-.004 1.205-.002.583.006 1.122.005 1.2.004.196-.007 7.942.008 9.256.014a281.12 281.12 0 011.301-.003c.148-.006.322-.007.395-.001.07.013 1.732.017 3.686.014 1.954-.002 3.614.039 3.676.095.13.106.779 2.366 2.499 8.674.238.887.578 2.121.757 2.754.18.632.677 2.438 1.114 4.007 1.616 5.854 2.288 8.27 2.682 9.718.233.817.449 1.453.5 1.416.067-.064.306-.866.494-1.679.043-.184.133-.56.208-.83.075-.27.157-.583.18-.702.03-.116.113-.448.201-.739.08-.295.194-.694.243-.904.093-.364.421-1.637.665-2.559.062-.249.144-.563.18-.703.032-.134.118-.454.187-.699.063-.249.168-.634.222-.869.205-.793.714-2.721.839-3.171.062-.249.15-.606.193-.79.043-.184.14-.556.215-.826.075-.27.276-1.008.437-1.646.168-.635.36-1.359.43-1.603.062-.25.15-.606.194-.79.042-.185.148-.57.228-.865.088-.292.168-.635.196-.761.023-.12.08-.343.124-.498.08-.277.493-1.804.658-2.45.08-.343.19-.735.457-1.73.33-1.242.495-1.792.54-1.803.087-.015 8.295-.018 8.756 0 .128.01 2.12.011 4.42.007 2.302-.004 4.3.002 4.448.013.323.022.358-.052.136-.309z" fill="#fff" opacity=".4"/></svg>