<svg width="42" height="43" viewBox="0 0 42 43" fill="none" xmlns="http://www.w3.org/2000/svg"><path d="M13.33 6.189c-.001.086.006.56.014 1.058.012.493.026 1.027.024 1.185.003.619.006.846.033 1.897.011.597.028 1.217.027 1.374-.001.158.003.405.002.548.006.45.045 2.766.049 2.94.017.496.023.842.028 1.399.006.703.012.692-.537 1.006-.15.083-.346.198-.436.255-.09.058-.267.167-.391.243-.125.072-.49.289-.808.48-.318.194-.691.413-.828.493-.137.08-.323.191-.414.249l-.39.243c-.23.133-1.198.712-1.594.951a49.45 49.45 0 01-.868.524c-.137.08-.302.18-.373.224-.065.041-.318.19-.558.335-.24.141-.525.317-.64.386-.283.167-.576.345-.87.52a7.88 7.88 0 00-.35.213c-.059.034-.224.136-.374.219-.15.088-.296.17-.325.187-.091.053-.01.122.206.178l1.104.267c.153.035.308.074.335.086.032.01.278.068.559.131.276.064.584.139.691.162.536.138 1.38.345 2.36.583.117.025.323.08.461.11.134.035.392.1.575.14.184.042.416.099.514.125.098.026.298.072.437.107.143.032.477.114.744.18.268.067.638.159.822.2.184.041.442.11.58.144.136.04.264.068.286.062.018-.005.083.02.14.057.1.065.104.082.111.504.007.241.012.545.01.68-.005.129.013.982.032 1.896.018.91.034 1.778.034 1.92 0 .144.014.879.03 1.637.027 1.36.037 1.81.03 2.088-.003.077.006.218.01.307.005.089.008.226.006.308-.003.077.013 1.016.036 2.087.036 1.896.04 2.162.045 2.751l.01.665c.002.208.003.427 0 .485.002.062.018.105.04.1.023-.007.537-.902 1.144-1.99 1.644-2.951 1.933-3.467 2.414-4.325.244-.433.594-1.065.782-1.401.183-.34.725-1.31 1.2-2.156.474-.847 1.092-1.96 1.376-2.48.28-.514.54-.94.572-.949.031-.008.334-.042.334-.042l.32.033s.088-.033.77.132c.588.147 1.758.43 2.015.494.153.035.375.09.487.117.114.03.315.082.453.112.133.03.35.087.487.117.133.03.334.082.448.113.113.027.334.082.488.117.154.04.493.12.744.181.746.186 1.26.31 1.773.435.154.035.385.092.512.12.221.055.591.146 1.069.261.256.06.477.115 1.397.34 1.136.281 1.197.294 1.49.367.154.035.385.093.512.12.222.055.592.147 1.07.262.61.146.718.174.908.223.113.026.335.081.488.117.257.064 1.427.346 2.019.492 1.187.292 1.478.356 1.495.333.006-.016-.289-.309-.65-.655-.367-.35-.69-.658-.713-.69a3.234 3.234 0 00-.194-.186 1682.899 1682.899 0 00-4.234-4.053c-.037-.029-.257-.241-.49-.465a1530.125 1530.125 0 01-4.229-4.05l-.527-.5a2.341 2.341 0 01-.16-.153 94.595 94.595 0 00-1.488-1.43c-.793-.755-1.449-1.413-1.452-1.46-.01-.093.62-1.253 2.418-4.455.254-.45.605-1.077.782-1.401.177-.324.69-1.243 1.133-2.043 1.661-2.98 2.344-4.212 2.757-4.947.23-.418.393-.758.358-.763-.053 0-.467.23-.864.485-.09.057-.276.173-.413.253a7.83 7.83 0 00-.35.213c-.058.035-.223.136-.374.22-.15.087-.353.204-.456.27-.181.11-.818.495-1.281.772l-.351.213c-.066.042-.228.138-.352.21-.124.075-.32.19-.434.263-.397.24-1.365.819-1.594.952-.123.076-.3.185-.39.243-.09.057-.277.17-.414.249-.137.08-.51.299-.828.494-.319.19-.683.407-.808.478l-.391.243c-.09.058-.285.172-.435.26-.15.083-.319.19-.38.23-.057.04-.168.107-.247.152-.142.081-.913.536-1.235.732-.168.107-.368.223-.87.519-.625.373-.909.53-.932.517-.04-.027-3.367-3.2-3.546-3.385-.048-.053-.854-.823-1.788-1.712a144.94 144.94 0 01-1.796-1.724c-.123-.134-.166-.117-.178.072z" fill="#fff" opacity=".2"/></svg>