<svg width="85" height="83" viewBox="0 0 85 83" fill="none" xmlns="http://www.w3.org/2000/svg"><path d="M71.51 51.95c-.106-.111-.709-.711-1.343-1.34-.632-.617-1.318-1.286-1.514-1.49-.778-.79-1.067-1.078-2.417-2.393-.762-.752-1.56-1.526-1.755-1.73-.196-.203-.51-.515-.688-.698-.572-.572-3.52-3.493-3.744-3.714a85.683 85.683 0 01-1.786-1.758c-.889-.895-.883-.872-.576-1.948.087-.29.193-.676.236-.86.043-.185.131-.542.194-.79.069-.245.262-.97.43-1.604.16-.638.361-1.376.436-1.646.075-.27.172-.642.215-.826.043-.184.131-.541.194-.79.125-.45.633-2.378.838-3.17.106-.434.228-.895.45-1.735.076-.27.159-.602.195-.742.032-.134.168-.634.291-1.114.13-.475.272-1.049.333-1.28.15-.558.3-1.146.457-1.73.075-.27.157-.583.18-.702.03-.116.114-.447.201-.738.08-.296.164-.58.18-.637.05-.18-.14-.17-.486.023l-1.74 1.01c-.239.142-.485.28-.534.299-.054.025-.44.252-.876.515-.432.256-.918.538-1.084.638-.855.48-2.189 1.246-3.735 2.142-.181.11-.512.293-.725.424-.216.119-.624.35-.91.523a29.61 29.61 0 01-.81.469c-.157.087-.47.271-.69.397-.223.133-.751.437-1.175.68-.424.241-1.01.577-1.296.75-.285.171-.7.4-.92.525-.223.115-.42.236-.441.27-.017.029-.131.075-.251.098-.206.04-.234.022-.772-.51-.31-.3-.697-.685-.861-.86a210.97 210.97 0 00-2.417-2.393 450.403 450.403 0 01-2.448-2.422 322.148 322.148 0 00-2.086-2.061c-1.738-1.71-2.314-2.275-2.654-2.64-.092-.104-.279-.273-.397-.382a8.577 8.577 0 01-.393-.388 254.37 254.37 0 00-2.658-2.633c-2.42-2.387-2.758-2.723-3.502-3.474-.2-.196-.579-.576-.844-.84-.266-.264-.54-.544-.61-.623-.079-.076-.154-.111-.175-.076-.02.035.446 1.813 1.034 3.95 1.601 5.797 1.879 6.813 2.34 8.502.23.853.577 2.092.758 2.754.193.659.716 2.566 1.172 4.233a605.84 605.84 0 001.351 4.865c.286 1.002.49 1.868.46 1.917-.03.049-.373.463-.373.463l-.45.35s-.07.15-1.146.774c-.932.529-2.775 1.6-3.184 1.832-.24.142-.59.343-.767.446-.185.1-.504.28-.717.41-.208.123-.555.316-.767.447-.209.123-.528.303-.713.403-.177.103-.528.303-.767.446-.247.139-.779.45-1.176.679-1.183.674-1.993 1.143-2.802 1.612-.24.143-.606.353-.803.473-.35.2-.936.536-1.688.973-.402.236-.752.437-2.205 1.273-1.8 1.03-1.893 1.09-2.359 1.354-.24.143-.605.352-.803.473-.35.2-.936.536-1.688.973-.96.56-1.133.656-1.438.827-.177.103-.528.303-.767.446-.408.233-2.252 1.303-3.188 1.84-1.877 1.078-2.329 1.351-2.322 1.403.013.027.755.042 1.649.044.905-.002 1.703 0 1.772.012.073.006.284.008.48.002.185-.004.875 0 1.536.005 1.123.005 8.621.015 8.932.01.082-.008.628-.005 1.205-.003.583.006 1.122.005 1.2.004.196-.006 7.942.009 9.256.014.57-.002 1.157-.003 1.3-.002.15-.007.323-.008.396-.002.07.013 1.732.017 3.686.015 1.954-.002 3.614.038 3.676.095.13.106.779 2.365 2.499 8.673.238.887.578 2.121.757 2.754.18.632.677 2.438 1.114 4.007 1.616 5.854 2.288 8.27 2.682 9.718.233.817.449 1.453.5 1.416.067-.064.306-.866.494-1.679.043-.184.133-.56.208-.83.075-.27.157-.583.18-.702.03-.116.114-.447.201-.739.08-.295.194-.694.243-.904.093-.364.421-1.636.665-2.559.062-.249.144-.562.18-.703.032-.134.118-.454.187-.699.063-.249.168-.634.222-.869.205-.793.714-2.72.839-3.17.062-.25.15-.607.194-.791.042-.184.14-.556.214-.826.075-.27.276-1.008.437-1.646.168-.634.36-1.359.43-1.603.062-.25.15-.606.194-.79.043-.185.148-.57.228-.865a11.7 11.7 0 00.196-.761c.023-.12.08-.343.124-.498.08-.277.493-1.804.658-2.45.08-.343.19-.735.457-1.729.33-1.243.495-1.793.54-1.804.087-.015 8.295-.018 8.756 0 .128.01 2.12.011 4.421.007 2.302-.003 4.3.002 4.447.013.323.023.358-.052.137-.309z" fill="#fff" opacity=".4"/></svg>