<svg width="253" height="83" viewBox="0 0 253 83" fill="none" xmlns="http://www.w3.org/2000/svg"><path d="M65.463 25V7.6h3.72V25h-3.72zm13.928-2.496v2.328c-.944.256-1.864.384-2.76.384-.672 0-1.256-.088-1.752-.264-.48-.176-.832-.368-1.056-.576-.224-.208-.4-.488-.528-.84-.128-.368-.2-.648-.216-.84a9.307 9.307 0 01-.024-.744v-6.648h-2.328v-2.352h2.328v-2.376l3.528-1.296v3.672h2.88v2.352h-2.88v5.472c0 .352.008.608.024.768.032.16.096.336.192.528a.817.817 0 00.48.408c.224.064.528.096.912.096.368 0 .768-.024 1.2-.072zm1.576-8.904l1.704-5.928h3.504L83.487 13.6h-2.52zm4.659 7.896h3.336c.032.448.208.84.528 1.176.32.32.816.48 1.488.48.592 0 1.048-.136 1.368-.408.336-.288.504-.632.504-1.032 0-.304-.12-.56-.36-.768-.224-.224-.664-.424-1.32-.6l-2.208-.6a10.57 10.57 0 01-.936-.312 9.295 9.295 0 01-.936-.528 2.37 2.37 0 01-.888-1.008c-.208-.432-.312-.936-.312-1.512 0-1.168.488-2.088 1.464-2.76.976-.688 2.256-1.032 3.84-1.032 1.312 0 2.392.304 3.24.912.864.608 1.32 1.496 1.368 2.664h-3.24c-.064-.96-.64-1.44-1.728-1.44-.496 0-.904.112-1.224.336a.99.99 0 00-.456.864c0 .368.12.632.36.792.24.144.672.304 1.296.48l2.184.6c2.16.592 3.24 1.72 3.24 3.384 0 1.136-.488 2.12-1.464 2.952-.96.816-2.328 1.224-4.104 1.224-1.824 0-3.208-.496-4.152-1.488-.544-.576-.84-1.368-.888-2.376zm30.535-1.656h-8.136c0 2.16.824 3.24 2.472 3.24 1.136 0 1.84-.56 2.112-1.68h3.24c-.08 1.04-.464 1.92-1.152 2.64-.896.944-2.312 1.416-4.248 1.416-1.872 0-3.296-.504-4.272-1.512-1.04-1.088-1.56-2.664-1.56-4.728 0-2.656.84-4.568 2.52-5.736 1.008-.672 2.144-1.008 3.408-1.008.992 0 1.928.232 2.808.696.88.448 1.576 1.192 2.088 2.232.56 1.152.8 2.632.72 4.44zm-8.016-2.232h4.392c0-.24-.016-.464-.048-.672a4.542 4.542 0 00-.24-.864 1.532 1.532 0 00-.648-.84c-.304-.224-.696-.336-1.176-.336-.736 0-1.296.256-1.68.768-.368.512-.568 1.16-.6 1.944zM128.993 25h-3.216c-.08-.496-.12-1.048-.12-1.656-.896 1.296-2.104 1.944-3.624 1.944-1.344 0-2.352-.32-3.024-.96-.704-.704-1.056-1.592-1.056-2.664 0-1.728.856-2.984 2.568-3.768.992-.448 2.592-.672 4.8-.672 0-.736-.056-1.272-.168-1.608-.24-.672-.768-1.008-1.584-1.008-.592 0-1.04.224-1.344.672-.176.272-.264.632-.264 1.08h-3.48c.048-1.28.504-2.232 1.368-2.856.912-.656 2.136-.984 3.672-.984 1.984 0 3.424.52 4.32 1.56.56.672.84 1.664.84 2.976l.024 4.872c0 1.152.096 2.176.288 3.072zm-3.672-5.712c-1.168-.096-2.112.032-2.832.384-.72.352-1.08.88-1.08 1.584 0 .448.152.848.456 1.2.304.352.728.528 1.272.528.608 0 1.112-.232 1.512-.696.288-.352.472-.744.552-1.176.08-.448.12-1.056.12-1.824zm5.656 2.208h3.336c.032.448.208.84.528 1.176.32.32.816.48 1.488.48.592 0 1.048-.136 1.368-.408.336-.288.504-.632.504-1.032 0-.304-.12-.56-.36-.768-.224-.224-.664-.424-1.32-.6l-2.208-.6a10.57 10.57 0 01-.936-.312 9.295 9.295 0 01-.936-.528 2.37 2.37 0 01-.888-1.008c-.208-.432-.312-.936-.312-1.512 0-1.168.488-2.088 1.464-2.76.976-.688 2.256-1.032 3.84-1.032 1.312 0 2.392.304 3.24.912.864.608 1.32 1.496 1.368 2.664h-3.24c-.064-.96-.64-1.44-1.728-1.44-.496 0-.904.112-1.224.336a.99.99 0 00-.456.864c0 .368.12.632.36.792.24.144.672.304 1.296.48l2.184.6c2.16.592 3.24 1.72 3.24 3.384 0 1.136-.488 2.12-1.464 2.952-.96.816-2.328 1.224-4.104 1.224-1.824 0-3.208-.496-4.152-1.488-.544-.576-.84-1.368-.888-2.376zm11.64-8.616h3.84l2.664 8.4 2.712-8.4h3.528l-4.584 11.904-1.464 4.824h-3.576l1.536-4.56-4.656-12.168zm28.368 9.624v2.328c-.944.256-1.864.384-2.76.384-.672 0-1.256-.088-1.752-.264-.48-.176-.832-.368-1.056-.576-.224-.208-.4-.488-.528-.84-.128-.368-.2-.648-.216-.84a9.307 9.307 0 01-.024-.744v-6.648h-2.328v-2.352h2.328v-2.376l3.528-1.296v3.672h2.88v2.352h-2.88v5.472c0 .352.008.608.024.768.032.16.096.336.192.528a.817.817 0 00.48.408c.224.064.528.096.912.096.368 0 .768-.024 1.2-.072zm1.648-3.456c0-.784.104-1.536.312-2.256.224-.72.56-1.4 1.008-2.04.464-.656 1.12-1.176 1.968-1.56.848-.4 1.84-.6 2.976-.6 2.08 0 3.648.608 4.704 1.824 1.056 1.2 1.584 2.712 1.584 4.536 0 1.84-.544 3.384-1.632 4.632-1.072 1.232-2.648 1.848-4.728 1.848-1.808 0-3.296-.552-4.464-1.656-1.152-1.104-1.728-2.68-1.728-4.728zm3.648.024c0 2.592.888 3.888 2.664 3.888.848 0 1.496-.312 1.944-.936.448-.624.672-1.696.672-3.216 0-2.56-.888-3.84-2.664-3.84-1.744 0-2.616 1.368-2.616 4.104zM194.417 25V7.696h3.552v6.648c.832-1.088 1.976-1.632 3.432-1.632 1.52 0 2.776.576 3.768 1.728 1.008 1.136 1.512 2.696 1.512 4.68 0 1.088-.152 2.04-.456 2.856-.288.816-.68 1.456-1.176 1.92a5.21 5.21 0 01-1.608 1.008 4.988 4.988 0 01-1.824.336c-1.68 0-2.896-.648-3.648-1.944-.048.88-.088 1.448-.12 1.704h-3.432zm8.64-5.76c0-2.768-.872-4.152-2.616-4.152-1.744 0-2.616 1.248-2.616 3.744 0 1.328.256 2.344.768 3.048.512.688 1.184 1.032 2.016 1.032.464 0 .856-.112 1.176-.336.336-.224.584-.472.744-.744.16-.288.28-.632.36-1.032.096-.416.144-.72.144-.912.016-.208.024-.424.024-.648zm6.151 5.76v-9.144c0-.928-.056-1.936-.168-3.024h3.336l.072 2.328a5.78 5.78 0 01.432-.84c.16-.224.392-.472.696-.744.304-.288.712-.496 1.224-.624s1.104-.176 1.776-.144V16c-.848-.08-1.552-.048-2.112.096-.544.144-.936.392-1.176.744a2.995 2.995 0 00-.432 1.008 5.887 5.887 0 00-.096 1.176V25h-3.552zm9.209-14.232V7.672h3.792v3.096h-3.792zm.12 14.232V12.856h3.552V25h-3.552zm6.727 0v-9.96c0-.912-.024-1.648-.072-2.208h3.408l.096 1.824c.864-1.408 2.176-2.112 3.936-2.112 1.056 0 1.88.24 2.472.72.608.464 1.016.984 1.224 1.56.224.624.336 1.832.336 3.624V25h-3.624v-7.536c0-.624-.064-1.064-.192-1.32-.336-.688-.912-1.032-1.728-1.032s-1.432.312-1.848.936c-.288.416-.432 1.032-.432 1.848V25h-3.576zm22.784-12.072h3.336a30.485 30.485 0 00-.168 3v8.952c0 3.264-2.016 4.896-6.048 4.896-3.392 0-5.168-1.296-5.328-3.888h3.408c.144 1.12.848 1.68 2.112 1.68.56 0 1.04-.136 1.44-.408.4-.272.656-.664.768-1.176.096-.384.152-1.344.168-2.88-.832 1.104-1.92 1.656-3.264 1.656-1.632 0-2.896-.592-3.792-1.776-.88-1.184-1.32-2.576-1.32-4.176 0-1.648.448-3.056 1.344-4.224.912-1.184 2.192-1.776 3.84-1.776 1.472 0 2.6.576 3.384 1.728l.12-1.608zm-5.136 5.88c0 .304.016.592.048.864.032.256.112.624.24 1.104.128.464.368.84.72 1.128.368.288.824.432 1.368.432.576 0 1.048-.144 1.416-.432.384-.288.64-.664.768-1.128.144-.48.232-.848.264-1.104.032-.256.048-.52.048-.792 0-2.464-.808-3.696-2.424-3.696-.72 0-1.312.296-1.776.888-.448.592-.672 1.504-.672 2.736zM103.016 46.496h3.336c.032.448.208.84.528 1.176.32.32.816.48 1.488.48.592 0 1.048-.136 1.368-.408.336-.288.504-.632.504-1.032 0-.304-.12-.56-.36-.768-.224-.224-.664-.424-1.32-.6l-2.208-.6a10.57 10.57 0 01-.936-.312 9.295 9.295 0 01-.936-.528 2.37 2.37 0 01-.888-1.008c-.208-.432-.312-.936-.312-1.512 0-1.168.488-2.088 1.464-2.76.976-.688 2.256-1.032 3.84-1.032 1.312 0 2.392.304 3.24.912.864.608 1.32 1.496 1.368 2.664h-3.24c-.064-.96-.64-1.44-1.728-1.44-.496 0-.904.112-1.224.336a.99.99 0 00-.456.864c0 .368.12.632.36.792.24.144.672.304 1.296.48l2.184.6c2.16.592 3.24 1.72 3.24 3.384 0 1.136-.488 2.12-1.464 2.952-.96.816-2.328 1.224-4.104 1.224-1.824 0-3.208-.496-4.152-1.488-.544-.576-.84-1.368-.888-2.376zM126.368 50h-3.216c-.08-.496-.12-1.048-.12-1.656-.896 1.296-2.104 1.944-3.624 1.944-1.344 0-2.352-.32-3.024-.96-.704-.704-1.056-1.592-1.056-2.664 0-1.728.856-2.984 2.568-3.768.992-.448 2.592-.672 4.8-.672 0-.736-.056-1.272-.168-1.608-.24-.672-.768-1.008-1.584-1.008-.592 0-1.04.224-1.344.672-.176.272-.264.632-.264 1.08h-3.48c.048-1.28.504-2.232 1.368-2.856.912-.656 2.136-.984 3.672-.984 1.984 0 3.424.52 4.32 1.56.56.672.84 1.664.84 2.976l.024 4.872c0 1.152.096 2.176.288 3.072zm-3.672-5.712c-1.168-.096-2.112.032-2.832.384-.72.352-1.08.88-1.08 1.584 0 .448.152.848.456 1.2.304.352.728.528 1.272.528.608 0 1.112-.232 1.512-.696.288-.352.472-.744.552-1.176.08-.448.12-1.056.12-1.824zm6.76 5.712v-9.6h-1.8v-2.52h1.8v-1.656c0-1.216.296-2.16.888-2.832.592-.688 1.688-1.032 3.288-1.032.608 0 1.248.04 1.92.12v2.472a7.107 7.107 0 00-.744-.072c-.432 0-.784.048-1.056.144-.256.096-.44.24-.552.432a2.47 2.47 0 00-.192.48 4.498 4.498 0 00-.024.528v1.416h2.256v2.52h-2.256V50h-3.528zm18.744-5.16h-8.136c0 2.16.824 3.24 2.472 3.24 1.136 0 1.84-.56 2.112-1.68h3.24c-.08 1.04-.464 1.92-1.152 2.64-.896.944-2.312 1.416-4.248 1.416-1.872 0-3.296-.504-4.272-1.512-1.04-1.088-1.56-2.664-1.56-4.728 0-2.656.84-4.568 2.52-5.736 1.008-.672 2.144-1.008 3.408-1.008.992 0 1.928.232 2.808.696.88.448 1.576 1.192 2.088 2.232.56 1.152.8 2.632.72 4.44zm-8.016-2.232h4.392c0-.24-.016-.464-.048-.672a4.542 4.542 0 00-.24-.864 1.532 1.532 0 00-.648-.84c-.304-.224-.696-.336-1.176-.336-.736 0-1.296.256-1.68.768-.368.512-.568 1.16-.6 1.944zm15.6-4.728h3.768l2.232 9.144 2.568-9.144h3.912l2.544 9.144 2.376-9.144h3.528L172.56 50h-3.864l-2.496-8.976L163.656 50h-3.912l-3.96-12.12zM189.04 50h-3.216c-.08-.496-.12-1.048-.12-1.656-.896 1.296-2.104 1.944-3.624 1.944-1.344 0-2.352-.32-3.024-.96-.704-.704-1.056-1.592-1.056-2.664 0-1.728.856-2.984 2.568-3.768.992-.448 2.592-.672 4.8-.672 0-.736-.056-1.272-.168-1.608-.24-.672-.768-1.008-1.584-1.008-.592 0-1.04.224-1.344.672-.176.272-.264.632-.264 1.08h-3.48c.048-1.28.504-2.232 1.368-2.856.912-.656 2.136-.984 3.672-.984 1.984 0 3.424.52 4.32 1.56.56.672.84 1.664.84 2.976l.024 4.872c0 1.152.096 2.176.288 3.072zm-3.672-5.712c-1.168-.096-2.112.032-2.832.384-.72.352-1.08.88-1.08 1.584 0 .448.152.848.456 1.2.304.352.728.528 1.272.528.608 0 1.112-.232 1.512-.696.288-.352.472-.744.552-1.176.08-.448.12-1.056.12-1.824zm13.648 3.216v2.328c-.944.256-1.864.384-2.76.384-.672 0-1.256-.088-1.752-.264-.48-.176-.832-.368-1.056-.576-.224-.208-.4-.488-.528-.84-.128-.368-.2-.648-.216-.84a9.307 9.307 0 01-.024-.744v-6.648h-2.328v-2.352h2.328v-2.376l3.528-1.296v3.672h2.88v2.352h-2.88v5.472c0 .352.008.608.024.768.032.16.096.336.192.528a.817.817 0 00.48.408c.224.064.528.096.912.096.368 0 .768-.024 1.2-.072zm13.192-2.664h-8.136c0 2.16.824 3.24 2.472 3.24 1.136 0 1.84-.56 2.112-1.68h3.24c-.08 1.04-.464 1.92-1.152 2.64-.896.944-2.312 1.416-4.248 1.416-1.872 0-3.296-.504-4.272-1.512-1.04-1.088-1.56-2.664-1.56-4.728 0-2.656.84-4.568 2.52-5.736 1.008-.672 2.144-1.008 3.408-1.008.992 0 1.928.232 2.808.696.88.448 1.576 1.192 2.088 2.232.56 1.152.8 2.632.72 4.44zm-8.016-2.232h4.392c0-.24-.016-.464-.048-.672a4.542 4.542 0 00-.24-.864 1.532 1.532 0 00-.648-.84c-.304-.224-.696-.336-1.176-.336-.736 0-1.296.256-1.68.768-.368.512-.568 1.16-.6 1.944zM214.552 50v-9.144c0-.928-.056-1.936-.168-3.024h3.336l.072 2.328a5.78 5.78 0 01.432-.84c.16-.224.392-.472.696-.744.304-.288.712-.496 1.224-.624s1.104-.176 1.776-.144V41c-.848-.08-1.552-.048-2.112.096-.544.144-.936.392-1.176.744a2.995 2.995 0 00-.432 1.008 5.887 5.887 0 00-.096 1.176V50h-3.552zm23.136-2.496v2.328c-.944.256-1.864.384-2.76.384-.672 0-1.256-.088-1.752-.264-.48-.176-.832-.368-1.056-.576-.224-.208-.4-.488-.528-.84-.128-.368-.2-.648-.216-.84a9.307 9.307 0 01-.024-.744v-6.648h-2.328v-2.352h2.328v-2.376l3.528-1.296v3.672h2.88v2.352h-2.88v5.472c0 .352.008.608.024.768.032.16.096.336.192.528a.817.817 0 00.48.408c.224.064.528.096.912.096.368 0 .768-.024 1.2-.072zm1.648-3.456c0-.784.104-1.536.312-2.256.224-.72.56-1.4 1.008-2.04.464-.656 1.12-1.176 1.968-1.56.848-.4 1.84-.6 2.976-.6 2.08 0 3.648.608 4.704 1.824 1.056 1.2 1.584 2.712 1.584 4.536 0 1.84-.544 3.384-1.632 4.632-1.072 1.232-2.648 1.848-4.728 1.848-1.808 0-3.296-.552-4.464-1.656-1.152-1.104-1.728-2.68-1.728-4.728zm3.648.024c0 2.592.888 3.888 2.664 3.888.848 0 1.496-.312 1.944-.936.448-.624.672-1.696.672-3.216 0-2.56-.888-3.84-2.664-3.84-1.744 0-2.616 1.368-2.616 4.104zM82.104 67.176h-3.48c-.16-1.488-.68-2.232-1.56-2.232-1.248 0-1.872 1.288-1.872 3.864 0 1.84.296 3.08.888 3.72.256.272.576.408.96.408.128 0 .256-.024.384-.072.144-.048.312-.136.504-.264.192-.144.352-.384.48-.72.144-.352.232-.776.264-1.272h3.504c-.08 1.568-.6 2.76-1.56 3.576-.88.752-2.032 1.128-3.456 1.128-1.808 0-3.184-.536-4.128-1.608-1.024-1.184-1.536-2.776-1.536-4.776 0-1.04.144-1.96.432-2.76.304-.8.664-1.416 1.08-1.848.432-.432.92-.776 1.464-1.032.56-.272 1.048-.448 1.464-.528.432-.08.84-.12 1.224-.12 1.296 0 2.44.376 3.432 1.128.992.752 1.496 1.888 1.512 3.408zM84.312 75V57.672h3.528v6.864c.864-1.216 2.032-1.824 3.504-1.824 1.504 0 2.68.544 3.528 1.632.528.736.792 1.832.792 3.288V75h-3.528v-7.248c0-1.76-.664-2.64-1.992-2.64-.608 0-1.144.2-1.608.6-.448.384-.672 1.008-.672 1.872L87.888 75h-3.576zm14.456-14.232v-3.096h3.792v3.096h-3.792zM98.888 75V62.856h3.552V75h-3.552zm6.68 0V57.648h3.552V75h-3.552zm14.696-10.632v-6.696h3.576v15.36c0 .704.032 1.36.096 1.968h-3.6l-.096-1.752c-.336.608-.744 1.064-1.224 1.368-.64.416-1.424.624-2.352.624-1.616 0-2.88-.528-3.792-1.584-.912-1.072-1.368-2.552-1.368-4.44 0-1.984.488-3.56 1.464-4.728.992-1.184 2.288-1.776 3.887-1.776 1.473 0 2.609.552 3.409 1.656zm-5.16 4.752c0 1.104.2 2.016.6 2.736.4.72 1.016 1.08 1.848 1.08a2.44 2.44 0 001.344-.384c.4-.256.704-.584.912-.984.384-.736.576-1.688.576-2.856s-.24-2.072-.72-2.712c-.464-.64-1.104-.96-1.921-.96-.559 0-1.031.152-1.415.456a2.53 2.53 0 00-.816 1.152c-.16.48-.272.912-.336 1.296a9.473 9.473 0 00-.072 1.176zM126.919 75v-9.144c0-.928-.056-1.936-.168-3.024h3.336l.072 2.328a5.78 5.78 0 01.432-.84c.16-.224.392-.472.696-.744.304-.288.712-.496 1.224-.624s1.104-.176 1.776-.144V66c-.848-.08-1.552-.048-2.112.096-.544.144-.936.392-1.176.744a2.995 2.995 0 00-.432 1.008 5.887 5.887 0 00-.096 1.176V75h-3.552zm19.899-5.16h-8.136c0 2.16.824 3.24 2.472 3.24 1.136 0 1.84-.56 2.112-1.68h3.24c-.08 1.04-.464 1.92-1.152 2.64-.896.944-2.312 1.416-4.248 1.416-1.872 0-3.296-.504-4.272-1.512-1.04-1.088-1.56-2.664-1.56-4.728 0-2.656.84-4.568 2.52-5.736 1.008-.672 2.144-1.008 3.408-1.008.992 0 1.928.232 2.808.696.88.448 1.576 1.192 2.088 2.232.56 1.152.8 2.632.72 4.44zm-8.016-2.232h4.392c0-.24-.016-.464-.048-.672a4.542 4.542 0 00-.24-.864 1.532 1.532 0 00-.648-.84c-.304-.224-.696-.336-1.176-.336-.736 0-1.296.256-1.68.768-.368.512-.568 1.16-.6 1.944zM149.21 75v-9.96c0-.912-.024-1.648-.072-2.208h3.408l.096 1.824c.864-1.408 2.176-2.112 3.936-2.112 1.056 0 1.88.24 2.472.72.608.464 1.016.984 1.224 1.56.224.624.336 1.832.336 3.624V75h-3.624v-7.536c0-.624-.064-1.064-.192-1.32-.336-.688-.912-1.032-1.728-1.032s-1.432.312-1.848.936c-.288.416-.432 1.032-.432 1.848V75h-3.576zm21.183-14.232v-3.096h3.792v3.096h-3.792zm.12 14.232V62.856h3.552V75h-3.552zm6.728 0v-9.96c0-.912-.024-1.648-.072-2.208h3.408l.096 1.824c.864-1.408 2.176-2.112 3.936-2.112 1.056 0 1.88.24 2.472.72.608.464 1.016.984 1.224 1.56.224.624.336 1.832.336 3.624V75h-3.624v-7.536c0-.624-.064-1.064-.192-1.32-.336-.688-.912-1.032-1.728-1.032s-1.432.312-1.848.936c-.288.416-.432 1.032-.432 1.848V75h-3.576zm21.351 0v-9.96c0-.912-.024-1.648-.072-2.208h3.408l.096 1.824c.864-1.408 2.176-2.112 3.936-2.112 1.056 0 1.88.24 2.472.72.608.464 1.016.984 1.224 1.56.224.624.336 1.832.336 3.624V75h-3.624v-7.536c0-.624-.064-1.064-.192-1.32-.336-.688-.912-1.032-1.728-1.032s-1.432.312-1.848.936c-.288.416-.432 1.032-.432 1.848V75h-3.576zm25.616-5.16h-8.136c0 2.16.824 3.24 2.472 3.24 1.136 0 1.84-.56 2.112-1.68h3.24c-.08 1.04-.464 1.92-1.152 2.64-.896.944-2.312 1.416-4.248 1.416-1.872 0-3.296-.504-4.272-1.512-1.04-1.088-1.56-2.664-1.56-4.728 0-2.656.84-4.568 2.52-5.736 1.008-.672 2.144-1.008 3.408-1.008.992 0 1.928.232 2.808.696.88.448 1.576 1.192 2.088 2.232.56 1.152.8 2.632.72 4.44zm-8.016-2.232h4.392c0-.24-.016-.464-.048-.672a4.542 4.542 0 00-.24-.864 1.532 1.532 0 00-.648-.84c-.304-.224-.696-.336-1.176-.336-.736 0-1.296.256-1.68.768-.368.512-.568 1.16-.6 1.944zm21.352 2.232h-8.136c0 2.16.824 3.24 2.472 3.24 1.136 0 1.84-.56 2.112-1.68h3.24c-.08 1.04-.464 1.92-1.152 2.64-.896.944-2.312 1.416-4.248 1.416-1.872 0-3.296-.504-4.272-1.512-1.04-1.088-1.56-2.664-1.56-4.728 0-2.656.84-4.568 2.52-5.736 1.008-.672 2.144-1.008 3.408-1.008.992 0 1.928.232 2.808.696.88.448 1.576 1.192 2.088 2.232.56 1.152.8 2.632.72 4.44zm-8.016-2.232h4.392c0-.24-.016-.464-.048-.672a4.542 4.542 0 00-.24-.864 1.532 1.532 0 00-.648-.84c-.304-.224-.696-.336-1.176-.336-.736 0-1.296.256-1.68.768-.368.512-.568 1.16-.6 1.944zm18.376-3.24v-6.696h3.576v15.36c0 .704.032 1.36.096 1.968h-3.6l-.096-1.752c-.336.608-.744 1.064-1.224 1.368-.64.416-1.424.624-2.352.624-1.616 0-2.88-.528-3.792-1.584-.912-1.072-1.368-2.552-1.368-4.44 0-1.984.488-3.56 1.464-4.728.992-1.184 2.288-1.776 3.888-1.776 1.472 0 2.608.552 3.408 1.656zm-5.16 4.752c0 1.104.2 2.016.6 2.736.4.72 1.016 1.08 1.848 1.08a2.44 2.44 0 001.344-.384c.4-.256.704-.584.912-.984.384-.736.576-1.688.576-2.856s-.24-2.072-.72-2.712c-.464-.64-1.104-.96-1.92-.96-.56 0-1.032.152-1.416.456a2.53 2.53 0 00-.816 1.152c-.16.48-.272.912-.336 1.296a9.473 9.473 0 00-.072 1.176z" fill="#fff"/></svg>