<svg width="146" height="57" viewBox="0 0 146 57" fill="none" xmlns="http://www.w3.org/2000/svg"><path d="M5.574.732c-.191.405-.382.903-.43 1.09-.096.265-.27.343-1.067.436-1.878.218-1.878.218-.796 1.028l.94.7-.398.935c-.924 2.165-1.02 2.445-.812 2.29.111-.078.764-.592 1.464-1.106.685-.53 1.322-.92 1.433-.857.096.062.923.654 1.815 1.34.907.67 1.671 1.199 1.703 1.168.016-.032-.318-.857-.732-1.838-.43-.981-.812-1.9-.86-2.04-.063-.172.35-.577 1.385-1.355.796-.623 1.417-1.122 1.37-1.122-.033 0-.844.11-1.8.234-.939.14-1.75.202-1.814.156-.048-.047-.24-.452-.43-.904-.191-.436-.414-.825-.51-.856-.08-.016-.286.296-.461.7zM99.288 2.57c0 .046.222.622.509 1.277l.509 1.183-.397.327c-.223.171-.653.53-.956.763l-.54.436.477-.077c.27-.047.811-.125 1.21-.187l.748-.094.286.732.287.732.35-.763c.366-.841.589-.981 1.433-.981.589 0 .7-.203.27-.452-.891-.514-.891-.53-.461-1.588.223-.53.398-.997.366-1.028-.032-.016-.43.233-.908.576-.461.343-.923.576-1.018.514a26.546 26.546 0 01-1.083-.779c-.86-.638-1.082-.763-1.082-.592zM13.884 6.354c-.828.514-1.783 1.666-2.356 2.85-1.512 3.13-2.69 8.58-3.152 14.623-.175 2.352-.318 2.804-.812 2.804-.334 0 .112-5.856.844-11.058.255-1.837.462-3.566.462-3.846 0-.981-.844-1.355-3.662-1.62-2.085-.187-2.388-.078-2.881 1.028C1.372 13.237.91 16.959.91 22.504c0 4.407.16 6.619.717 9.967 1.225 7.475 3.916 11.867 7.29 11.914.685 0 1.863-.53 1.863-.841 0-.11-.27-.794-.621-1.51-.812-1.745-1.369-3.256-1.83-5.093-.51-1.931-.924-4.75-.86-5.732.047-.732.063-.763.605-.856.302-.047.7-.14.875-.187.287-.093.462.187 1.544 2.352 4.665 9.375 10.3 15.978 15.441 18.065 1.592.654 3.296.904 4.601.67 2.117-.358 2.85-1.869.907-1.885-.286 0-.939-.17-1.432-.373-3.311-1.34-7.514-6.199-12.067-13.97-1.241-2.133-3.661-6.728-3.661-6.961 0-.094.334-.343.764-.592 1.099-.623 3.168-2.243 4.187-3.286 3.024-3.068 4.441-6.245 4.441-9.936 0-2.99-.732-5.56-1.974-6.9-.891-.965-1.624-1.152-4.712-1.23-2.372-.062-2.674-.031-3.104.234zm2.61 2.056c1.481.731 2.245 2.491 2.245 5.108-.016 3.675-2.18 7.148-6.415 10.232-1.194.887-2.802 1.869-2.881 1.775-.096-.109.35-4.205.7-6.447.94-6.012 2.245-9.843 3.677-10.793.462-.312.669-.358 1.322-.265.43.047 1.034.218 1.353.39zM27.494 6.696c0 .28.112.312 1.114.312h1.115l.032 2.834.047 2.85h.796l.048-2.85.032-2.834h1.035c.923 0 1.034-.031 1.034-.312 0-.295-.111-.311-2.626-.311-2.515 0-2.627.016-2.627.311zM33.735 9.531c.048 3.146.048 3.162.414 3.208.35.047.35.016.35-1.495 0-1.324.048-1.604.334-1.962.24-.296.478-.405.844-.405.86 0 1.035.343 1.083 2.18.047 1.558.063 1.636.413 1.682.35.047.35.031.35-1.9 0-1.915 0-1.946-.413-2.258-.287-.218-.653-.327-1.099-.327-.445 0-.812.109-1.098.327l-.414.312V7.647c0-1.246 0-1.262-.398-1.262h-.398l.032 3.146zM52.456 7.397c-.144.639-.191 1.06-.096 1.106.223.14.51-.218.971-1.23l.414-.888h-.525c-.494 0-.526.016-.764 1.012zM74.773 9.578c0 3.084.016 3.193.319 3.193.207 0 .318-.11.318-.296 0-.28.016-.28.59 0 .7.358 1.145.373 1.878.078.796-.328 1.082-.997 1.002-2.305-.047-.888-.127-1.122-.477-1.464-.525-.53-1.608-.67-2.324-.312l-.51.265V7.553c0-1.137-.016-1.168-.398-1.168h-.398v3.193zm2.802-.498c.59.498.716 1.806.239 2.554-.287.436-.414.514-.955.514-1.019 0-1.417-.608-1.305-1.947.11-1.277 1.146-1.853 2.021-1.121zM85.645 7.273c-.111.031-.206.28-.206.53 0 .373-.064.451-.398.451-.287 0-.398.078-.398.312 0 .233.111.311.397.311h.398v1.791c0 1.994.064 2.103 1.178 2.103.462 0 .574-.063.574-.296 0-.218-.128-.327-.43-.359l-.446-.046-.048-1.604-.047-1.589h1.926v1.698c0 1.962.111 2.196 1.13 2.196.51 0 .62-.047.62-.312 0-.218-.11-.311-.381-.311-.51 0-.573-.234-.573-1.885V8.877h.477c.366 0 .478-.062.478-.311 0-.25-.112-.312-.478-.312-.446 0-.477-.047-.477-.545 0-.296-.064-.545-.144-.545-.413 0-.652.234-.652.623 0 .374-.08.452-.43.498a4.914 4.914 0 01-.955-.015c-.478-.047-.526-.094-.526-.577 0-.513-.127-.607-.588-.42zM39.815 8.55c-.668.405-.907 1.043-.828 2.29.064.934.112 1.09.573 1.479.94.825 2.834.53 3.184-.483.16-.42.144-.467-.159-.467-.175 0-.525.202-.764.467-.27.296-.605.467-.86.467-.589 0-1.21-.638-1.21-1.246v-.467h3.232l-.111-.748c-.128-1.027-.765-1.588-1.815-1.588-.446 0-.94.109-1.242.296zm1.958.53c.096.108.239.373.287.607l.111.436h-1.21c-1.066 0-1.21-.031-1.21-.28 0-.873 1.37-1.387 2.022-.764zM44.336 8.363c-.032.078-.032 1.09 0 2.274.048 2.118.048 2.149.398 2.102.335-.047.35-.14.43-1.65.08-1.776.239-2.057 1.146-2.057.382 0 .446-.062.446-.404 0-.374-.048-.405-.51-.312-.27.047-.62.203-.78.343-.238.202-.27.202-.35-.094-.08-.296-.668-.451-.78-.202zM48.397 8.566c-.669.389-.892.825-.908 1.868-.031 1.636.605 2.337 2.118 2.337.62 0 .891-.094 1.273-.405.59-.483.653-.997.127-.997a.588.588 0 00-.509.342c-.223.483-.907.701-1.433.468-.43-.187-.955-1.168-.796-1.433.064-.094.812-.156 1.704-.156h1.608l-.112-.67c-.207-1.199-.748-1.666-1.974-1.666-.318 0-.812.14-1.098.312zm1.974.514c.095.109.207.358.238.576.048.373.016.39-1.098.436-1.242.046-1.385-.063-.987-.763.319-.592 1.353-.717 1.847-.25zM54.46 8.534c-1.146.717-.748 1.791.828 2.258 1.162.343 1.433.577 1.194 1.013-.334.623-1.624.545-1.846-.11-.064-.217-.24-.326-.494-.326-.525 0-.51.514.032 1.043.366.358.493.39 1.528.327 1.29-.062 1.72-.39 1.72-1.293 0-.67-.383-.965-1.608-1.292-.971-.25-1.02-.296-1.02-.732 0-.405.064-.467.462-.514.653-.078 1.21.093 1.21.358 0 .14.16.234.398.234.287 0 .398-.078.398-.28 0-.826-1.846-1.262-2.802-.686zM61.242 10.512v2.258h.398c.398 0 .398 0 .398-1.541 0-1.308.048-1.589.334-1.947.24-.296.478-.405.844-.405.86 0 1.035.343 1.083 2.18.047 1.558.063 1.636.413 1.682.35.047.35.031.35-1.728 0-.997-.047-1.916-.095-2.056-.27-.685-1.815-.919-2.515-.374l-.414.312V8.58c0-.249-.095-.327-.398-.327h-.398v2.258zM67.355 8.55c-.876.514-1.258 1.978-.796 3.037.35.81.955 1.184 1.942 1.184 1.066 0 1.48-.187 1.958-.857.318-.467.366-.685.302-1.526-.063-1.044-.398-1.667-1.05-1.963-.59-.264-1.8-.202-2.356.125zm1.926.42c.35.14.716.888.716 1.464 0 1.262-.923 2.103-1.894 1.714-.478-.187-.573-.328-.828-1.153-.191-.623.08-1.573.541-1.884.35-.25 1.003-.312 1.465-.14zM80.87 8.566c-.67.389-.892.825-.908 1.868-.032 1.636.605 2.337 2.117 2.337.621 0 .892-.094 1.274-.405.589-.483.652-.997.127-.997a.589.589 0 00-.51.342c-.222.483-.907.701-1.432.468-.43-.187-.955-1.168-.796-1.433.064-.094.812-.156 1.703-.156h1.608l-.111-.67c-.207-1.199-.748-1.666-1.974-1.666-.319 0-.812.14-1.099.312zm1.973.514c.096.109.207.358.24.576.047.373.015.39-1.1.436-1.24.046-1.384-.063-.986-.763.318-.592 1.353-.717 1.846-.25zM91.632 8.612c-.924.608-1.194 1.978-.621 3.193.35.748.764.966 1.91.966.605 0 .876-.094 1.258-.405.62-.499.652-.997.095-.997-.239 0-.398.093-.398.218 0 .311-.62.716-1.066.716-.51 0-1.147-.623-1.194-1.168l-.048-.467 1.64-.047c1.798-.046 1.782-.03 1.448-1.168-.318-1.137-1.91-1.573-3.024-.84zm1.655.28c.446.234.59.437.59.873 0 .342-.064.358-1.115.358-1.067 0-1.114-.016-1.114-.358 0-.374.35-.763.796-.935.366-.124.477-.124.843.063zM96.169 8.457c-.032.109-.048 1.105-.032 2.227.048 1.915.064 2.009.382 2.055.334.047.35-.03.414-1.542.048-1.417.096-1.604.43-1.868.207-.172.573-.296.828-.296.382 0 .461-.063.461-.39 0-.28-.08-.389-.318-.389-.382 0-1.114.327-1.114.498 0 .063-.064.125-.16.125-.08 0-.159-.14-.159-.311 0-.359-.589-.452-.732-.11zM103.348 12.941c-.112.172-.557 2.882-1.353 8.317a549.855 549.855 0 01-.557 3.613l-.08.343-.605-.343c-.525-.311-.812-.343-2.738-.343-1.99 0-2.213.032-3.025.405-3.104 1.433-5.667 6.168-5.985 11.011-.096 1.666-.573 3.1-1.942 5.98-1.385 2.944-1.847 1.745-2.054-5.295-.095-3.473-.127-3.83-.413-4.19-.526-.653-1.465-.98-2.85-.98-1.082 0-1.273.047-1.703.405-.287.233-.51.591-.557.887-.032.28-.16 1.075-.255 1.791-.207 1.48-1.035 4.361-1.783 6.183-.907 2.227-1.369 2.757-2.006 2.32-1.225-.825-1.066-6.431.287-10.387 1.003-2.928 2.77-5.42 4.362-6.167.97-.468 1.894-.436 2.308.078.43.53.812 1.79.812 2.647 0 .919.127 1.153.62 1.153.621 0 .812-.265.812-1.122 0-1.79-.605-3.301-1.608-4.018-.907-.638-2.021-.825-4.584-.747-2.006.046-2.229.093-3.009.483-2.34 1.199-4.186 3.986-5.237 7.88-.541 1.993-.685 5.622-.302 7.242.668 2.74 2.435 4.298 4.918 4.298.51 0 1.115-.093 1.37-.218.843-.436 1.798-1.65 2.674-3.489.573-1.168.923-1.713.987-1.572.063.124.318.934.573 1.806.844 2.99 2.197 4.843 3.693 5.124 1.305.233 2.579-1.028 4.155-4.112l.891-1.744.51 1.075c.939 1.993 2.578 3.114 4.76 3.255 1.941.124 3.135-.639 4.807-3.022.493-.716.955-1.261 1.019-1.199.063.078.366.7.684 1.402 3.025 6.946 6.718 11.664 10.236 13.097.446.187.86.343.907.343.287 0-.032-.748-1.082-2.632-2.675-4.766-4.171-8.706-5.142-13.55-.398-2.008-.43-2.366-.43-6.634.016-4.205.032-4.672.43-6.852.239-1.293.509-2.741.589-3.224.08-.498.446-2.071.812-3.504.35-1.448.684-2.944.732-3.333.08-.67.064-.732-.557-1.246-1.178-.996-3.757-1.76-4.091-1.215zm-3.9 13.534c.35.343.414 1.448.159 2.881-.143.872.048 1.168.748 1.168h.382l-.111 1.667c-.144 2.6-.844 4.75-2.627 8.176-1.448 2.757-2.18 3.395-2.977 2.57-1.066-1.106-1.353-3.27-.923-6.806.653-5.202 2.15-8.706 4.155-9.718.62-.327.812-.312 1.194.062zM46.438 14.172c0 .42.047.467.477.467s.478-.047.478-.467c0-.42-.048-.467-.478-.467s-.477.046-.477.467zM68.088 16.897v3.193h.398c.398 0 .398-.031.398-1.215 0-1.993.334-2.679 1.321-2.679.716 0 .892.405.94 2.18.047 1.636.047 1.636.445 1.636h.398V18.19c0-1.651-.032-1.869-.334-2.15-.462-.451-1.465-.576-2.102-.248-.27.14-.525.202-.557.124-.047-.062-.08-.514-.08-1.012-.015-.483-.015-.966-.015-1.044-.016-.093-.191-.155-.414-.155h-.398v3.192zM43.939 14.592c-.111.031-.207.28-.207.53 0 .374-.064.451-.398.451-.525 0-.557.577-.032.654.335.047.35.125.398 1.745.016.95.128 1.806.223 1.915.096.11.478.203.86.203.589 0 .7-.047.7-.296 0-.218-.127-.327-.43-.358l-.445-.047-.048-1.604-.048-1.589h.494c.366 0 .477-.062.477-.311 0-.25-.111-.312-.477-.312-.446 0-.478-.046-.478-.545 0-.53-.127-.623-.589-.436zM65.51 14.655c-.16.078-.287.327-.287.53 0 .264-.096.388-.35.42-.542.077-.59.591-.064.591h.414v1.698c0 2.009.127 2.243 1.177 2.165.765-.063.94-.483.223-.56-.557-.063-.636-.343-.573-1.979l.048-1.246.525-.046c.717-.078.653-.561-.095-.623-.462-.047-.51-.094-.51-.592 0-.56-.08-.607-.509-.358zM50.386 15.87c-.494.389-.605.404-.605.093 0-.14-.144-.234-.398-.234h-.414l.047 2.134.048 2.149h.398c.398 0 .398-.016.43-1.402.032-.778.08-1.557.127-1.728.096-.42.892-.748 1.433-.623.557.14.716.638.716 2.367 0 1.464 0 1.464.398 1.464h.398v-1.604c0-1.48.032-1.636.367-1.947.461-.42 1.13-.436 1.544-.031.27.265.318.514.318 1.947v1.635h.796v-1.776c0-1.635-.032-1.822-.366-2.195-.462-.53-1.449-.686-2.15-.328-.286.14-.509.343-.509.436 0 .094-.175.016-.382-.17-.573-.53-1.64-.608-2.197-.188zM58.202 15.932c-.685.451-1.003 1.308-.876 2.367.048.42.223.95.382 1.168.398.514 1.306.841 2.006.716 1.114-.202 2.102-1.495 1.162-1.495-.254 0-.445.14-.557.39-.35.747-1.608.7-2.022-.078-.461-.888-.398-.935 1.354-.935 1.814 0 1.878-.046 1.591-1.059-.35-1.339-1.846-1.853-3.04-1.074zm1.958.53c.16.14.286.42.286.622 0 .343-.047.358-1.21.358-1.177 0-1.193-.015-1.082-.358.175-.591.557-.887 1.146-.887.319 0 .7.109.86.264zM74.343 15.73c-.335.14-.685.59-.685.918 0 .327.669.171.987-.218.175-.218.462-.39.669-.39.51 0 1.05.437 1.05.842 0 .327-.095.373-.923.467-1.242.14-1.894.545-2.038 1.261-.143.748.303 1.34 1.13 1.558.494.124.701.093 1.21-.187.478-.265.621-.28.621-.11 0 .125.16.219.398.219h.398v-1.682c0-2.025-.08-2.32-.652-2.601-.494-.25-1.624-.296-2.165-.078zm2.021 2.49c0 .53-.445 1.2-.86 1.31-.493.124-1.13-.11-1.273-.468-.254-.67.319-1.121 1.465-1.137.573-.015.668.031.668.296zM80.346 15.682a1.745 1.745 0 00-.51.327c-.254.218-.286.203-.286-.015 0-.171-.127-.265-.398-.265h-.398v4.36h.382c.382 0 .382-.03.446-1.65.047-1.51.08-1.666.43-1.947.445-.358.939-.373 1.416-.046.319.218.35.358.35 1.946v1.698h.796v-1.838c-.016-1.9-.08-2.149-.748-2.492-.35-.187-1.066-.233-1.48-.078zM46.598 17.91v2.18h.796v-4.36h-.796v2.18zM27.097 18.003c.08.56.048.654-.27.794l-.35.156.461.218c.255.125.51.39.557.608l.096.389.223-.343c.175-.264.286-.296.589-.186.637.233.764.155.382-.234l-.366-.39.35-.56c.19-.312.318-.592.27-.639-.031-.046-.334.047-.668.203l-.59.28-.397-.467-.382-.467.095.638z" fill="#fff"/><path d="M86.618 18.268c.095.53.08.607-.207.685-.446.11-.414.296.047.42.24.063.414.25.478.5.111.388.127.404.414.14.255-.219.398-.234.796-.11.557.203.605.11.143-.374l-.35-.358.35-.576c.414-.67.335-.825-.207-.467-.525.327-.716.311-1.178-.11l-.398-.342.112.592zM53.968 23.547c-1.8.452-3.757 5.358-5.397 13.518l-.462 2.259-.047-1.402c-.032-.779.032-2.18.111-3.13.096-.935.175-2.274.175-2.975 0-1.215-.016-1.277-.51-1.744-.636-.608-2.196-1.106-3.47-1.106-1.146 0-1.432.25-1.146.981.144.327.223 1.76.255 4.158l.048 3.66-.78 1.916c-1.003 2.491-1.672 3.768-1.958 3.768-.637 0-.876-1.448-1.019-6.416-.143-4.688-.16-4.75-1.337-5.28-.844-.373-2.786-.404-3.454-.062-.605.312-.733.577-.86 1.807-.207 2.087-1.48 6.447-2.436 8.316-1.082 2.118-1.926 1.807-2.308-.856-.302-2.025.191-5.794 1.098-8.41 1.354-3.878 3.582-6.385 5.683-6.385.685 0 .749.03 1.115.654.398.67.732 2.071.732 3.037 0 .467.048.514.462.514.796 0 1.018-.374.891-1.464-.239-2.18-.86-3.333-2.212-4.034-.606-.311-.876-.343-3.439-.343s-2.834.032-3.439.343c-3.279 1.713-5.635 6.432-5.89 11.805-.222 4.672 1.513 7.46 4.808 7.678.923.062 1.226.015 1.783-.265.875-.436 1.847-1.729 2.738-3.644.382-.826.732-1.51.78-1.51.048 0 .303.731.557 1.634.446 1.62 1.401 3.754 1.958 4.361.494.545 1.226.981 1.83 1.09 1.322.25 2.548-.965 4.108-4.033.525-1.013.97-1.76 1.019-1.636.032.125.19.608.35 1.075.382 1.2.748 1.869 1.369 2.445 1.321 1.246 3.39 1.324 3.088.125-.063-.218.112-1.418.366-2.695.27-1.261.748-3.66 1.067-5.326 1.321-6.961 2.244-9.905 3.247-10.434.255-.125.335-.094.494.187.255.482.095 3.675-.414 7.989-.59 4.983-.669 6.9-.334 7.771.54 1.37 2.451 2.539 3.947 2.399.446-.032.605-.172 1.02-.873.588-.95 1.67-3.52 2.642-6.23.732-2.024.875-2.086.907-.404.048 2.694 1.21 6.027 2.515 7.257.7.67 1.258.904 2.102.904.955 0 .987-.14.636-2.492-.382-2.6-.43-5.685-.095-8.207.255-2.04.19-2.804-.319-3.349-.461-.53-1.576-.919-2.817-1.012l-1.146-.094-.605.686c-.844.965-1.513 2.336-2.977 6.136-.828 2.118-1.194 2.756-1.035 1.79.287-1.79.478-4.485.462-6.93-.016-3.083-.287-4.61-1.083-5.933-.748-1.246-2.149-1.9-3.374-1.589zM140.678 24.217c-.557.405-1.656 1.822-2.213 2.897-.175.311-.382.716-.478.872-.668 1.168-2.547 6.012-3.597 9.266-.446 1.355-.86 2.461-.923 2.461-.08 0-.112-1.947-.096-4.33.032-3.239-.016-4.407-.159-4.672-.382-.685-1.497-1.043-3.311-1.043-1.337 0-1.672.047-1.911.28-.254.25-.254.296 0 .717.207.342.271.84.287 2.071 0 .872.064 2.196.127 2.928.08.732.096 1.386.048 1.48a.759.759 0 00-.127.31c-.048.328-1.656 4.143-2.133 5.047-1.115 2.165-1.56.747-1.736-5.467-.143-4.718-.143-4.75-1.416-5.295-.908-.39-2.643-.42-3.391-.046-.557.295-.7.591-.844 1.946-.318 2.82-2.021 7.974-3.04 9.173-1.178 1.355-2.07-1.121-1.719-4.78.461-4.782 2.133-8.893 4.33-10.7 1.05-.841 1.846-1.2 2.61-1.137.589.047.701.109 1.035.685.223.405.43 1.2.557 2.103l.191 1.464.478-.047c.7-.062.907-.436.827-1.433-.191-2.274-.811-3.364-2.34-4.111-1.353-.67-5.444-.639-6.829.062-2.595 1.293-4.584 4.579-5.619 9.266-.303 1.433-.255 5.093.095 6.23.542 1.744 1.417 2.897 2.707 3.535.716.358 2.149.53 3.04.374 1.003-.187 1.99-1.324 3.056-3.504.51-1.028.956-1.885 1.003-1.885.048 0 .303.748.542 1.667 1.4 5.061 3.916 6.806 6.16 4.267.605-.685 2.85-4.828 2.85-5.248 0-.39.27-.218.366.218.048.233.239.825.414 1.292.812 2.103 2.101 3.255 3.629 3.255h.844l.541-1.074c.525-.997 1.894-4.953 3.693-10.528 1.178-3.707 1.656-5.124 1.767-5.218.048-.046.048.125 0 .39-.366 1.697-.939 6.977-1.019 9.282-.095 2.974.016 3.831.701 5.17.796 1.558 2.308 2.679 3.82 2.866 1.162.124 1.274-.078.844-1.698-.207-.84-.366-2.04-.43-3.395-.095-2.258 0-3.146.924-8.098 1.13-5.996 1.162-6.432.509-7.055-1.242-1.152-3.614-1.557-4.664-.81zM124.918 51.455v3.209h.796v-1.558c0-1.464.032-1.604.398-1.947.43-.436.987-.498 1.448-.17.255.186.303.45.351 1.946.063 1.713.063 1.729.445 1.729s.382 0 .382-1.776c0-1.542-.047-1.822-.318-2.165-.462-.576-1.257-.685-2.069-.311l-.621.311-.048-1.183c-.048-1.09-.08-1.184-.398-1.23l-.366-.047v3.192zM135.535 48.372c-.063.062-.111 1.51-.111 3.208v3.084h.796l-.032-3.146c-.048-2.71-.08-3.162-.287-3.209-.143-.015-.302 0-.366.063zM144.02 49.244c0 .545.047 1.667.111 2.492.08 1.34.127 1.526.398 1.526.255 0 .286-.124.286-.98 0-.53.048-1.652.112-2.493l.095-1.51h-1.002v.965zM45.53 49.431c-.207.405-.446.685-.557.654-.112-.047-.414-.109-.685-.171l-.477-.11.445.468c.35.358.43.545.335.872-.096.39-.08.405.334.25.382-.14.51-.11.828.17l.366.343v-.42c0-.343.111-.468.477-.608.526-.202.637-.42.207-.42-.525 0-.748-.28-.828-1.028l-.095-.716-.35.716zM114.22 49.229c-.176.093-.287.342-.287.607 0 .39-.064.467-.398.467-.509 0-.541.42-.032.499.335.046.35.124.43 1.837.08 1.713.096 1.791.478 1.978.605.312 1.178.203 1.241-.249.032-.218 0-.327-.111-.265-.096.063-.319.031-.494-.062-.302-.156-.318-.296-.286-1.682l.048-1.51.445-.047c.239-.032.43-.14.43-.265s-.191-.234-.43-.265c-.382-.047-.445-.124-.493-.638-.048-.608-.112-.654-.541-.405zM117.817 50.365c-1.146.499-1.624 1.916-1.083 3.177.701 1.651 3.232 1.713 4.028.11.509-1.013.191-2.477-.637-3.084-.541-.39-1.671-.483-2.308-.203zm1.926.904c.382.436.43.607.366 1.323-.095 1.028-.573 1.605-1.337 1.605-.86 0-1.226-.437-1.305-1.527-.064-.903-.048-.98.414-1.433.668-.638 1.289-.638 1.862.032zM131.493 50.256c-.653.125-1.274.888-1.37 1.713-.111.81.064 1.791.383 2.165.971 1.152 3.486.7 3.486-.623 0-.405-.557-.28-.924.218-.382.498-1.034.623-1.623.312-.255-.125-.637-.904-.637-1.262 0-.078.764-.14 1.687-.14h1.704l-.112-.732c-.175-1.277-1.241-1.947-2.594-1.65zm1.432.779c.128.156.271.42.303.592.047.28-.048.311-1.099.358-1.082.047-1.162.015-1.162-.28 0-.795 1.401-1.277 1.958-.67zM139.451 50.459c-.557.249-.685.249-.685.078 0-.156-.159-.234-.43-.234h-.445l.047 3.053c.048 3.036.048 3.036.398 2.99.319-.047.351-.156.398-1.028.048-.966.048-.966.398-.732.462.311 1.465.296 2.038-.031.605-.358.939-1.09.939-2.072 0-1.12-.35-1.79-1.13-2.086-.764-.312-.716-.312-1.528.062zm1.034.405c.796.218 1.099 1.869.51 2.819-.271.436-.398.514-.955.514-.414 0-.749-.11-.94-.296-.684-.67-.525-2.461.271-2.882.494-.264.605-.28 1.114-.155zM144.02 54.274c0 .327.079.39.477.39.398 0 .478-.063.478-.39s-.08-.39-.478-.39c-.398 0-.477.063-.477.39z" fill="#fff"/></svg>