<svg width="118" height="46" viewBox="0 0 118 46" fill="none" xmlns="http://www.w3.org/2000/svg"><path d="M4.296.59a6.761 6.761 0 00-.347.88c-.076.214-.217.277-.859.353-1.512.176-1.512.176-.64.83l.756.565-.32.754c-.744 1.747-.821 1.973-.655 1.847.09-.063.616-.477 1.18-.892.551-.427 1.064-.742 1.154-.691.077.05.743.528 1.461 1.08.731.541 1.347.968 1.372.943.013-.025-.256-.691-.59-1.483a46.672 46.672 0 01-.692-1.646c-.051-.139.282-.465 1.115-1.094.642-.502 1.142-.905 1.103-.905-.026 0-.68.088-1.449.189-.756.113-1.41.163-1.461.126-.039-.038-.193-.365-.346-.73-.154-.351-.334-.666-.41-.69-.065-.013-.231.238-.372.565zM79.77 2.074c0 .037.18.502.41 1.03l.41.956-.32.263c-.18.139-.526.428-.77.616l-.436.352.385-.063c.218-.037.654-.1.974-.15l.603-.076.23.59.231.592.283-.616c.294-.679.474-.792 1.153-.792.475 0 .564-.163.218-.365-.718-.414-.718-.427-.371-1.281.18-.428.32-.805.294-.83-.025-.013-.346.189-.73.465-.372.277-.744.465-.82.415-.078-.05-.475-.327-.873-.629-.692-.515-.871-.615-.871-.477zM10.988 5.128c-.667.415-1.436 1.345-1.898 2.3-1.218 2.526-2.166 6.925-2.538 11.802-.141 1.897-.257 2.262-.654 2.262-.27 0 .09-4.726.68-8.924.205-1.483.371-2.878.371-3.104 0-.792-.68-1.093-2.948-1.307-1.68-.151-1.923-.063-2.32.83-.77 1.696-1.142 4.7-1.142 9.174 0 3.557.128 5.342.577 8.044.987 6.033 3.154 9.577 5.872 9.615.551 0 1.5-.428 1.5-.679 0-.088-.218-.641-.5-1.22-.654-1.407-1.103-2.626-1.475-4.109-.41-1.558-.743-3.833-.692-4.625.039-.59.051-.616.487-.691.244-.038.564-.113.705-.151.231-.076.372.15 1.244 1.898 3.756 7.566 8.295 12.895 12.436 14.579 1.282.528 2.654.729 3.705.54 1.705-.289 2.295-1.508.73-1.52-.23 0-.756-.139-1.153-.302-2.667-1.081-6.051-5.002-9.718-11.274-1-1.722-2.949-5.43-2.949-5.618 0-.075.27-.276.616-.477.884-.503 2.551-1.81 3.372-2.652 2.435-2.476 3.576-5.04 3.576-8.019 0-2.413-.59-4.487-1.59-5.568-.717-.779-1.307-.93-3.794-.993-1.91-.05-2.154-.025-2.5.189zm2.102 1.659c1.193.59 1.808 2.01 1.808 4.122-.013 2.966-1.756 5.77-5.167 8.258-.961.716-2.256 1.508-2.32 1.432-.077-.087.282-3.393.564-5.203.756-4.851 1.808-7.943 2.962-8.71.371-.251.538-.289 1.064-.213.346.037.833.176 1.09.314zM21.95 5.404c0 .227.089.252.897.252h.897l.026 2.287.038 2.3h.641l.039-2.3.025-2.287h.834c.743 0 .833-.025.833-.252 0-.238-.09-.251-2.115-.251-2.026 0-2.116.013-2.116.251zM26.975 7.692c.038 2.539.038 2.551.333 2.589.282.038.282.013.282-1.207 0-1.068.039-1.294.27-1.583.192-.239.384-.327.679-.327.692 0 .833.277.872 1.76.038 1.256.051 1.32.333 1.357.282.038.282.025.282-1.533 0-1.546 0-1.571-.333-1.823-.231-.176-.526-.264-.885-.264s-.654.088-.884.264l-.334.252V6.17c0-1.005 0-1.018-.32-1.018h-.32l.025 2.539zM42.053 5.97c-.116.515-.154.855-.077.892.18.113.41-.176.782-.993l.333-.716h-.423c-.398 0-.423.013-.615.817zM60.025 7.73c0 2.488.013 2.576.257 2.576.167 0 .256-.088.256-.239 0-.226.013-.226.475 0 .564.29.923.302 1.512.063.641-.264.872-.804.808-1.86-.038-.716-.102-.905-.384-1.181-.424-.428-1.295-.54-1.872-.252l-.41.214v-.955c0-.918-.013-.943-.321-.943h-.32V7.73zm2.257-.403c.474.403.577 1.458.192 2.062-.23.352-.333.414-.77.414-.82 0-1.14-.49-1.05-1.57.09-1.031.923-1.496 1.628-.906zM68.782 5.87c-.09.025-.166.226-.166.427 0 .301-.052.364-.32.364-.232 0-.321.063-.321.252 0 .188.09.251.32.251h.32V8.61c0 1.61.052 1.697.95 1.697.371 0 .46-.05.46-.239 0-.176-.102-.264-.345-.289l-.36-.037-.038-1.295-.038-1.282h1.552v1.37c0 1.584.089 1.772.91 1.772.41 0 .5-.038.5-.251 0-.176-.09-.252-.308-.252-.41 0-.462-.188-.462-1.52V7.164h.385c.295 0 .384-.05.384-.251s-.09-.252-.384-.252c-.36 0-.385-.037-.385-.44 0-.238-.051-.44-.115-.44-.334 0-.526.19-.526.503 0 .302-.064.365-.346.402a3.95 3.95 0 01-.77-.012c-.384-.038-.422-.076-.422-.465 0-.415-.103-.49-.475-.34zM31.872 6.9c-.539.326-.73.842-.667 1.847.052.754.09.88.462 1.194.756.666 2.282.427 2.564-.39.128-.339.115-.376-.128-.376-.141 0-.423.163-.616.377-.218.238-.487.377-.692.377-.474 0-.974-.516-.974-1.006v-.377H34.423l-.09-.603c-.102-.83-.615-1.282-1.461-1.282-.36 0-.757.088-1 .239zm1.577.427c.077.088.192.302.23.49l.09.352h-.974c-.859 0-.974-.025-.974-.226 0-.704 1.102-1.119 1.628-.616zM35.513 6.75c-.025.062-.025.88 0 1.834.039 1.71.039 1.735.32 1.697.27-.038.283-.113.347-1.332.064-1.433.192-1.66.923-1.66.308 0 .36-.05.36-.326 0-.302-.04-.327-.411-.251-.218.037-.5.163-.628.276-.193.163-.218.163-.282-.075-.065-.24-.539-.365-.629-.164zM38.782 6.913c-.538.314-.717.666-.73 1.508-.026 1.32.487 1.885 1.705 1.885.5 0 .718-.075 1.026-.327.474-.39.525-.804.102-.804a.474.474 0 00-.41.277c-.18.39-.731.565-1.154.377-.346-.151-.77-.943-.641-1.157.051-.075.654-.125 1.372-.125h1.295l-.09-.54c-.167-.969-.603-1.346-1.59-1.346a2.04 2.04 0 00-.885.252zm1.59.414c.077.088.167.29.193.465.038.302.012.315-.885.352-1 .038-1.115-.05-.795-.615.256-.478 1.09-.579 1.487-.202zM43.667 6.888c-.923.578-.602 1.445.667 1.822.936.277 1.154.465.962.817-.27.503-1.308.44-1.487-.088-.052-.176-.193-.264-.398-.264-.423 0-.41.415.026.842.294.29.397.314 1.23.264 1.039-.05 1.385-.314 1.385-1.043 0-.54-.308-.78-1.295-1.043-.782-.201-.82-.239-.82-.59 0-.328.05-.378.372-.416.525-.063.974.076.974.29 0 .113.128.188.32.188.231 0 .32-.063.32-.226 0-.666-1.486-1.018-2.256-.553zM49.129 8.484v1.822h.32c.32 0 .32 0 .32-1.244 0-1.056.04-1.282.27-1.571.192-.239.385-.327.68-.327.692 0 .833.277.871 1.76.039 1.257.052 1.32.334 1.357.282.038.282.025.282-1.395 0-.804-.039-1.546-.077-1.66-.218-.552-1.462-.74-2.026-.3l-.333.25v-.25c0-.202-.077-.265-.32-.265h-.321v1.823zM54.052 6.9c-.705.415-1.013 1.596-.641 2.451.282.653.77.955 1.564.955.859 0 1.192-.15 1.577-.691.256-.377.295-.553.243-1.232-.05-.842-.32-1.345-.846-1.583-.474-.214-1.448-.164-1.897.1zm1.551.34c.282.113.577.716.577 1.18 0 1.019-.743 1.698-1.526 1.383-.384-.15-.461-.264-.666-.93-.154-.502.064-1.269.436-1.52.282-.201.807-.252 1.18-.114zM64.937 6.913c-.539.314-.718.666-.731 1.508-.026 1.32.487 1.885 1.705 1.885.5 0 .718-.075 1.026-.327.474-.39.525-.804.102-.804a.474.474 0 00-.41.277c-.18.39-.73.565-1.154.377-.346-.151-.769-.943-.64-1.157.05-.075.653-.125 1.371-.125h1.295l-.09-.54c-.166-.969-.602-1.346-1.59-1.346a2.04 2.04 0 00-.884.252zm1.59.414c.076.088.166.29.192.465.038.302.013.315-.885.352-1 .038-1.115-.05-.795-.615.257-.478 1.09-.579 1.487-.202zM73.603 6.95c-.744.49-.962 1.597-.5 2.577.282.603.615.78 1.538.78.487 0 .705-.076 1.013-.328.5-.402.526-.804.077-.804-.192 0-.32.075-.32.176 0 .251-.5.578-.86.578-.41 0-.922-.503-.961-.943l-.038-.377 1.32-.037c1.449-.038 1.436-.025 1.167-.943-.257-.917-1.539-1.27-2.436-.679zm1.333.227c.36.188.474.352.474.703 0 .277-.05.29-.897.29-.859 0-.897-.013-.897-.29 0-.301.282-.615.64-.754.296-.1.385-.1.68.05zM77.257 6.824c-.025.088-.038.893-.025 1.798.038 1.546.05 1.621.307 1.659.27.037.282-.026.334-1.245.038-1.143.076-1.294.346-1.508.166-.138.461-.239.666-.239.308 0 .372-.05.372-.314 0-.226-.064-.314-.256-.314-.308 0-.898.264-.898.402 0 .05-.05.1-.128.1-.064 0-.128-.112-.128-.25 0-.29-.474-.365-.59-.089zM83.039 10.444c-.09.138-.449 2.325-1.09 6.712a375.18 375.18 0 01-.449 2.916l-.064.276-.487-.276c-.423-.252-.654-.277-2.205-.277-1.603 0-1.782.025-2.436.327-2.5 1.156-4.564 4.977-4.82 8.886-.078 1.344-.462 2.5-1.565 4.826-1.115 2.375-1.487 1.407-1.654-4.273-.077-2.803-.102-3.092-.333-3.381-.423-.528-1.18-.792-2.295-.792-.872 0-1.025.038-1.372.327-.23.188-.41.477-.448.716-.026.226-.128.867-.205 1.445-.167 1.194-.834 3.52-1.436 4.99-.731 1.797-1.103 2.225-1.616 1.873-.987-.666-.859-5.191.231-8.383.808-2.363 2.23-4.374 3.513-4.977.782-.378 1.526-.352 1.859.062.346.428.654 1.446.654 2.137 0 .742.102.93.5.93.5 0 .654-.214.654-.905 0-1.445-.488-2.664-1.295-3.242-.731-.516-1.629-.667-3.693-.604-1.615.038-1.794.076-2.423.39-1.884.968-3.371 3.217-4.218 6.36-.435 1.608-.55 4.537-.243 5.844.538 2.212 1.961 3.469 3.961 3.469.41 0 .898-.076 1.103-.176.68-.352 1.449-1.333 2.154-2.816.461-.942.743-1.382.795-1.27.05.102.256.755.461 1.459.68 2.413 1.77 3.909 2.975 4.135 1.05.188 2.076-.83 3.346-3.318l.718-1.408.41.867c.756 1.61 2.077 2.514 3.833 2.627 1.564.1 2.526-.515 3.872-2.438.397-.578.77-1.018.82-.968.052.063.295.566.552 1.131 2.436 5.606 5.41 9.414 8.243 10.57.36.151.693.277.731.277.23 0-.025-.604-.872-2.124-2.153-3.846-3.359-7.026-4.14-10.935-.321-1.621-.347-1.91-.347-5.354.013-3.393.026-3.77.346-5.53.193-1.043.41-2.212.475-2.602.064-.402.359-1.671.653-2.827.283-1.17.552-2.376.59-2.69.064-.54.052-.59-.448-1.005-.95-.805-3.026-1.42-3.295-.98zm-3.141 10.922c.282.276.333 1.169.128 2.325-.115.704.038.943.602.943h.308l-.09 1.345c-.115 2.099-.68 3.833-2.115 6.598-1.167 2.224-1.756 2.74-2.397 2.074-.86-.893-1.09-2.64-.744-5.493.526-4.197 1.73-7.025 3.346-7.842.5-.264.654-.252.962.05zM37.205 11.437c0 .34.038.377.385.377.346 0 .384-.038.384-.377 0-.34-.038-.377-.384-.377-.347 0-.385.038-.385.377zM54.64 13.636v2.577h.321c.32 0 .32-.025.32-.98 0-1.61.27-2.162 1.065-2.162.577 0 .718.327.756 1.76.039 1.319.039 1.319.36 1.319h.32v-1.47c0-1.333-.026-1.509-.27-1.735-.371-.364-1.18-.465-1.692-.201-.218.113-.423.163-.449.1-.038-.05-.064-.414-.064-.816-.013-.39-.013-.78-.013-.842-.012-.076-.153-.126-.333-.126h-.32v2.576zM35.193 11.776c-.09.025-.167.226-.167.428 0 .301-.051.364-.32.364-.424 0-.45.465-.026.528.269.038.282.1.32 1.408.013.766.103 1.457.18 1.545.077.088.384.164.692.164.474 0 .564-.038.564-.239 0-.176-.102-.264-.346-.289l-.359-.038-.038-1.294-.039-1.282h.398c.294 0 .384-.05.384-.252 0-.2-.09-.25-.384-.25-.36 0-.385-.039-.385-.44 0-.428-.103-.503-.474-.353zM52.565 11.827c-.129.063-.231.264-.231.427 0 .214-.077.314-.282.34-.436.062-.475.477-.051.477h.333v1.37c0 1.621.102 1.81.948 1.747.616-.05.757-.39.18-.452-.449-.05-.513-.277-.462-1.597l.039-1.005.423-.038c.577-.063.526-.452-.077-.502-.372-.038-.41-.076-.41-.478 0-.452-.064-.49-.41-.29zM40.385 12.807c-.397.314-.487.327-.487.075 0-.113-.115-.188-.32-.188h-.334l.039 1.722.038 1.734h.32c.321 0 .321-.012.347-1.131.025-.629.064-1.257.102-1.395.077-.34.718-.604 1.154-.503.449.113.577.515.577 1.91 0 1.182 0 1.182.32 1.182h.321v-1.295c0-1.194.026-1.32.295-1.57.372-.34.91-.353 1.244-.026.218.214.256.415.256 1.571v1.32h.641V14.78c0-1.32-.026-1.47-.295-1.772-.372-.427-1.167-.553-1.73-.264-.231.113-.41.277-.41.352 0 .075-.142.012-.309-.138-.461-.428-1.32-.49-1.769-.151zM46.68 12.857c-.55.365-.807 1.056-.705 1.91.039.34.18.768.308.944.32.414 1.051.678 1.615.578.898-.164 1.693-1.207.936-1.207-.205 0-.359.113-.448.314-.283.604-1.295.566-1.629-.063-.371-.716-.32-.754 1.09-.754 1.462 0 1.513-.037 1.282-.854-.282-1.081-1.487-1.496-2.449-.867zm1.577.428c.129.113.231.34.231.503 0 .276-.038.289-.974.289-.949 0-.962-.013-.872-.29.141-.477.449-.716.923-.716.256 0 .564.088.692.214zM59.68 12.694c-.27.113-.551.477-.551.741s.538.139.795-.176c.14-.175.371-.314.538-.314.41 0 .846.352.846.679 0 .264-.077.302-.743.377-1 .113-1.526.44-1.641 1.018-.116.603.243 1.08.91 1.257.397.1.564.075.974-.151.385-.214.5-.226.5-.088 0 .1.129.176.32.176h.321v-1.357c0-1.634-.064-1.873-.525-2.1-.398-.2-1.308-.238-1.744-.062zm1.628 2.01c0 .428-.359.968-.692 1.056-.397.101-.91-.088-1.026-.377-.205-.54.257-.904 1.18-.917.461-.013.538.025.538.239zM64.513 12.656c-.103.038-.295.15-.41.264-.206.176-.231.163-.231-.013 0-.138-.103-.213-.321-.213h-.32v3.519h.307c.308 0 .308-.025.36-1.332.038-1.22.063-1.345.345-1.571.36-.29.757-.302 1.141-.038.257.176.282.289.282 1.57v1.37h.641V14.73c-.012-1.534-.064-1.735-.602-2.011-.282-.15-.86-.189-1.192-.063zM37.334 14.453v1.76h.641v-3.52h-.641v1.76zM21.629 14.529c.064.452.038.528-.218.64l-.282.127.372.176c.205.1.41.314.448.49l.077.314.18-.277c.14-.213.23-.238.474-.15.513.188.616.125.308-.189l-.295-.314.282-.453c.154-.251.256-.477.218-.515-.026-.038-.27.038-.539.163l-.474.227-.32-.377-.308-.377.077.515z" fill="#fff"/><path d="M69.565 14.743c.076.427.064.49-.167.553-.36.088-.333.238.038.339a.54.54 0 01.385.402c.09.314.103.327.333.113.205-.176.32-.188.641-.088.45.164.487.088.116-.301l-.282-.29.282-.464c.333-.54.269-.667-.167-.377-.423.263-.577.25-.949-.089l-.32-.276.09.478zM43.27 19.003c-1.448.365-3.025 4.324-4.346 10.91l-.371 1.822-.039-1.131c-.026-.628.026-1.76.09-2.526.077-.754.141-1.835.141-2.4 0-.981-.013-1.031-.41-1.408-.513-.49-1.77-.893-2.795-.893-.923 0-1.154.201-.923.792.115.264.18 1.42.205 3.356l.038 2.953-.628 1.546c-.808 2.011-1.346 3.042-1.577 3.042-.513 0-.705-1.17-.82-5.178-.116-3.783-.129-3.834-1.077-4.261-.68-.302-2.244-.327-2.782-.05-.488.251-.59.465-.693 1.458-.166 1.684-1.192 5.203-1.961 6.711-.872 1.71-1.551 1.458-1.86-.691-.243-1.634.155-4.676.886-6.787 1.09-3.13 2.884-5.153 4.576-5.153.552 0 .603.025.898.528.32.54.59 1.671.59 2.45 0 .378.038.415.371.415.641 0 .82-.301.718-1.181-.192-1.76-.692-2.69-1.782-3.255-.487-.252-.705-.277-2.769-.277s-2.282.025-2.77.277c-2.64 1.382-4.538 5.19-4.743 9.527-.18 3.77 1.218 6.02 3.872 6.196.744.05.987.012 1.436-.214.705-.352 1.487-1.395 2.205-2.94.308-.667.59-1.22.628-1.22.039 0 .244.59.449 1.32.359 1.307 1.128 3.029 1.577 3.519.397.44.987.792 1.474.88 1.064.2 2.052-.78 3.308-3.256.423-.817.782-1.42.82-1.32.026.101.154.49.282.868.308.968.603 1.508 1.103 1.973 1.064 1.006 2.73 1.068 2.487.1-.051-.175.09-1.143.295-2.174.218-1.018.603-2.953.86-4.298 1.063-5.618 1.807-7.993 2.614-8.42.206-.101.27-.076.398.15.205.39.077 2.966-.333 6.448-.475 4.022-.539 5.567-.27 6.271.436 1.106 1.975 2.049 3.18 1.936.359-.025.487-.139.82-.704.475-.767 1.346-2.84 2.129-5.027.59-1.634.705-1.685.73-.327.039 2.174.975 4.864 2.026 5.857.564.54 1.013.729 1.692.729.77 0 .795-.113.513-2.011-.308-2.1-.346-4.588-.077-6.624.205-1.646.154-2.262-.256-2.702-.372-.427-1.27-.742-2.27-.817l-.922-.075-.488.553c-.68.779-1.218 1.885-2.397 4.951-.667 1.71-.962 2.225-.834 1.446.231-1.446.385-3.62.372-5.593-.013-2.489-.23-3.72-.871-4.789-.603-1.005-1.731-1.533-2.718-1.282zM113.103 19.544c-.448.327-1.333 1.47-1.782 2.338-.141.251-.308.578-.384.703-.539.943-2.052 4.852-2.898 7.479-.359 1.093-.692 1.985-.743 1.985-.065 0-.09-1.57-.077-3.494.025-2.614-.013-3.556-.129-3.77-.307-.553-1.205-.842-2.666-.842-1.077 0-1.346.038-1.539.226-.205.201-.205.239 0 .578.167.277.218.679.231 1.672 0 .704.051 1.772.103 2.363.064.59.077 1.118.038 1.194a.608.608 0 00-.102.251c-.039.264-1.334 3.343-1.718 4.072-.898 1.747-1.257.603-1.398-4.411-.115-3.809-.115-3.834-1.14-4.274-.732-.314-2.13-.339-2.732-.037-.448.238-.564.477-.68 1.57-.256 2.276-1.627 6.436-2.448 7.404-.949 1.093-1.666-.905-1.385-3.859.372-3.858 1.719-7.177 3.488-8.634.846-.68 1.487-.968 2.102-.918.475.038.564.088.834.553.18.327.346.968.448 1.697l.154 1.181.385-.037c.564-.05.73-.352.666-1.157-.153-1.835-.653-2.714-1.884-3.318-1.09-.54-4.385-.515-5.5.05-2.09 1.044-3.692 3.696-4.526 7.479-.243 1.156-.205 4.11.077 5.027.436 1.408 1.141 2.338 2.18 2.853.576.29 1.73.427 2.448.302.808-.151 1.603-1.069 2.462-2.828.41-.83.77-1.521.808-1.521.038 0 .243.603.435 1.345 1.129 4.084 3.154 5.492 4.962 3.444.487-.553 2.295-3.897 2.295-4.236 0-.314.218-.176.295.176.038.189.192.666.333 1.043.654 1.697 1.692 2.627 2.923 2.627h.68l.436-.867c.423-.805 1.525-3.997 2.974-8.497.949-2.99 1.333-4.134 1.423-4.21.038-.038.038.1 0 .314-.295 1.37-.756 5.63-.821 7.491-.076 2.4.013 3.092.565 4.173.641 1.257 1.859 2.162 3.076 2.312.936.1 1.026-.063.68-1.37-.167-.678-.295-1.646-.346-2.74-.077-1.822 0-2.538.743-6.535.911-4.839.936-5.19.411-5.693-1-.93-2.911-1.257-3.757-.654zM100.41 41.526v2.589h.641v-1.257c0-1.181.026-1.295.321-1.571.346-.352.795-.402 1.166-.138.205.15.244.364.282 1.57.052 1.383.052 1.396.359 1.396.308 0 .308 0 .308-1.433 0-1.244-.038-1.47-.256-1.747-.372-.465-1.013-.553-1.667-.251l-.5.251-.038-.955c-.039-.88-.065-.955-.321-.993l-.295-.038v2.577zM108.963 39.037c-.051.05-.09 1.22-.09 2.59v2.488h.641l-.026-2.54c-.038-2.186-.064-2.55-.23-2.588-.116-.013-.244 0-.295.05zM115.795 39.74c0 .44.038 1.346.09 2.012.064 1.08.102 1.231.32 1.231.205 0 .231-.1.231-.791 0-.428.038-1.333.09-2.011l.077-1.22h-.808v.78zM36.474 39.892c-.166.326-.358.553-.448.528-.09-.038-.334-.088-.552-.139l-.384-.088.359.378c.282.288.346.44.269.703-.077.315-.064.327.27.201.307-.113.41-.088.666.139l.295.276v-.34c0-.276.09-.376.384-.49.424-.163.513-.339.167-.339-.423 0-.602-.226-.667-.83l-.076-.577-.282.578zM91.796 39.729c-.141.075-.23.276-.23.49 0 .314-.052.377-.321.377-.41 0-.436.34-.026.402.27.038.282.1.346 1.483s.077 1.445.385 1.596c.487.252.948.164 1-.2.025-.177 0-.265-.09-.215-.077.05-.256.026-.397-.05-.244-.126-.257-.239-.231-1.357l.038-1.22.36-.037c.192-.025.345-.113.345-.214 0-.1-.153-.188-.346-.213-.307-.038-.359-.1-.397-.516-.039-.49-.09-.527-.436-.326zM94.694 40.646c-.923.402-1.308 1.546-.872 2.564.564 1.332 2.602 1.383 3.243.088.41-.817.154-1.998-.512-2.489-.436-.314-1.346-.39-1.86-.163zm1.551.73c.308.351.346.49.295 1.067-.077.83-.462 1.295-1.077 1.295-.692 0-.987-.352-1.051-1.232-.052-.729-.039-.792.333-1.156.538-.515 1.038-.515 1.5.025zM105.706 40.558c-.526.1-1.026.717-1.103 1.383-.089.653.052 1.445.308 1.747.782.93 2.808.565 2.808-.503 0-.327-.449-.226-.744.176-.308.402-.833.503-1.308.251-.205-.1-.512-.729-.512-1.018 0-.063.615-.113 1.359-.113h1.371l-.089-.59c-.141-1.031-1-1.572-2.09-1.333zm1.154.629c.102.125.218.339.243.477.039.226-.038.252-.884.29-.872.037-.936.012-.936-.227 0-.641 1.128-1.03 1.577-.54zM112.116 40.721c-.449.201-.551.201-.551.063 0-.126-.129-.188-.347-.188h-.359l.039 2.463c.038 2.45.038 2.45.32 2.413.257-.038.282-.126.321-.83.038-.779.038-.779.32-.59.372.251 1.18.239 1.641-.025.488-.29.757-.88.757-1.672 0-.905-.282-1.445-.91-1.684-.616-.251-.577-.251-1.231.05zm.833.327c.641.176.885 1.508.41 2.275-.218.352-.32.415-.769.415-.333 0-.602-.088-.756-.24-.552-.54-.423-1.985.218-2.324.397-.214.487-.227.897-.126zM115.795 43.8c0 .265.064.315.385.315.32 0 .384-.05.384-.315 0-.263-.064-.314-.384-.314-.321 0-.385.05-.385.315z" fill="#fff"/></svg>