<svg width="35" height="35" viewBox="0 0 35 35" fill="none" xmlns="http://www.w3.org/2000/svg"><path d="M14.412.378c-.024.083-.14.543-.26 1.026-.116.479-.241.999-.283 1.15-.158.6-.213.82-.46 1.842-.143.58-.287 1.182-.328 1.334-.042.152-.102.391-.14.53l-.714 2.853c-.111.483-.194.819-.334 1.357-.176.681-.167.672-.779.833-.167.041-.385.101-.487.133-.102.033-.301.092-.44.134-.14.037-.548.152-.905.253-.357.106-.774.22-.927.262-.153.042-.362.102-.464.134a37.87 37.87 0 01-.44.133c-.256.07-1.34.378-1.786.506-.241.074-.5.148-.974.281-.153.042-.339.097-.417.12-.075.023-.357.101-.626.18-.27.073-.59.17-.72.206-.315.088-.644.184-.973.277a7.8 7.8 0 00-.394.114c-.065.019-.25.074-.418.116-.167.046-.33.087-.362.096-.102.028-.041.115.153.226l.998.543c.139.073.278.152.301.17.028.018.25.138.506.272.25.133.528.285.626.335.482.272 1.243.69 2.128 1.174.107.055.293.161.418.225.12.07.352.198.52.286.166.087.375.202.463.253.088.05.269.147.394.216l.673.368c.24.134.575.318.742.405.167.088.398.221.524.29.12.074.236.134.26.134.018 0 .074.041.12.092.079.087.079.106-.023.515-.056.235-.13.53-.167.658-.037.124-.241.953-.46 1.84-.217.884-.426 1.727-.463 1.865-.037.138-.213.851-.394 1.587-.325 1.321-.432 1.758-.51 2.025-.024.074-.051.212-.07.3-.019.087-.051.22-.074.298-.023.074-.25.985-.506 2.025-.454 1.84-.52 2.099-.668 2.67-.037.151-.11.441-.162.643-.05.203-.107.415-.125.47-.014.06-.01.106.014.106.023 0 .751-.732 1.618-1.625 2.352-2.425 2.765-2.848 3.45-3.552.349-.355.85-.875 1.119-1.15.264-.281 1.038-1.078 1.716-1.772.677-.695 1.562-1.611 1.97-2.04.404-.423.766-.768.798-.768.033 0 .334.046.334.046l.302.115s.092-.009.71.327c.528.295 1.585.87 1.817.999.14.073.339.184.44.239.103.06.284.161.409.226.12.064.315.174.44.239.121.064.302.166.404.225.102.055.301.166.44.24.14.078.446.244.673.368.672.372 1.136.626 1.6.879.14.073.348.188.464.248.2.11.533.295.964.53.232.124.432.234 1.262.69 1.025.566 1.08.593 1.345.74.139.074.348.19.464.25.199.11.533.294.964.528.552.3.65.355.821.451.102.055.302.166.44.24.233.129 1.29.704 1.823.998 1.072.59 1.336.727 1.36.709.008-.014-.2-.373-.46-.8a25.04 25.04 0 01-.51-.852 3.241 3.241 0 00-.14-.23 1704.102 1704.102 0 00-3.042-5.011c-.027-.037-.185-.3-.352-.576a1495.93 1495.93 0 01-3.038-5.007 146.63 146.63 0 01-.38-.621 2.35 2.35 0 01-.116-.189 95.013 95.013 0 00-1.067-1.767c-.57-.934-1.034-1.74-1.025-1.785.014-.092.923-1.05 3.488-3.677.362-.368.863-.884 1.118-1.15.255-.268.988-1.022 1.623-1.68 2.374-2.449 3.353-3.461 3.942-4.064.33-.345.575-.63.543-.644-.051-.014-.51.101-.96.244-.103.032-.311.096-.464.138-.153.041-.33.092-.394.115-.065.018-.25.074-.418.115-.167.046-.394.106-.51.143-.204.06-.918.267-1.438.414l-.394.115c-.074.023-.255.073-.394.11-.14.042-.357.101-.487.143-.445.129-1.53.437-1.786.506-.139.042-.338.101-.44.134-.102.032-.31.092-.464.133-.153.041-.57.156-.927.262-.358.102-.766.217-.905.253l-.44.134c-.102.032-.32.092-.487.138a6.694 6.694 0 00-.427.124c-.065.023-.19.06-.278.083-.158.041-1.02.28-1.382.387-.19.06-.413.12-.974.276-.7.198-1.016.276-1.034.257a423.724 423.724 0 01-2.551-4.187c-.033-.065-.612-1.017-1.285-2.117-.672-1.1-1.252-2.057-1.29-2.13-.083-.162-.129-.157-.19.022z" fill="#fff" opacity=".25"/></svg>