<svg width="84" height="84" viewBox="0 0 84 84" fill="none" xmlns="http://www.w3.org/2000/svg"><path d="M52.7 12.87c-.11.107-.71.71-1.337 1.345-.615.632-1.283 1.319-1.486 1.515-.79.778-1.077 1.068-2.389 2.418-.75.762-1.523 1.56-1.726 1.756-.203.196-.514.51-.697.69-.571.571-3.487 3.52-3.706 3.745a85.312 85.312 0 01-1.755 1.787c-.893.89-.87.884-1.945.576-.29-.088-.676-.194-.86-.237-.184-.043-.54-.132-.79-.195-.244-.07-.967-.263-1.6-.431a81.09 81.09 0 01-1.645-.439 25.62 25.62 0 00-.825-.215c-.184-.043-.54-.132-.79-.195-.449-.125-2.374-.636-3.167-.842a85.582 85.582 0 01-1.732-.452c-.27-.075-.6-.159-.741-.195-.134-.032-.634-.168-1.113-.292-.474-.131-1.047-.273-1.278-.334-.557-.152-1.144-.302-1.727-.46-.27-.075-.583-.157-.703-.18-.115-.03-.446-.114-.737-.202-.295-.08-.579-.165-.636-.18-.18-.05-.17.14.024.486.23.398.666 1.152 1.009 1.742.142.24.281.487.3.537.024.053.251.44.514.877.256.433.538.92.638 1.086.48.856 1.246 2.192 2.141 3.74.11.182.294.514.424.727.12.216.352.625.524.911.172.286.382.653.469.811.086.158.271.471.397.691.133.225.437.754.679 1.178.242.425.578 1.011.75 1.298.172.286.4.702.526.922.115.223.235.42.27.442.028.017.074.13.098.25.039.207.022.235-.51.774-.3.31-.683.697-.858.862a208.96 208.96 0 00-2.388 2.418 454.426 454.426 0 01-2.417 2.449c-.183.179-1.106 1.117-2.057 2.087-1.707 1.74-2.27 2.316-2.635 2.655-.103.093-.272.28-.38.398-.11.118-.281.294-.388.393-.103.093-1.285 1.29-2.628 2.66-2.382 2.422-2.717 2.76-3.467 3.504-.196.2-.575.58-.838.845-.264.265-.543.54-.622.61-.076.079-.111.154-.076.175.035.02 1.81-.445 3.944-1.032 5.79-1.6 6.803-1.877 8.49-2.338.852-.23 2.088-.576 2.75-.757.658-.192 2.562-.715 4.226-1.17a596.03 596.03 0 004.858-1.35c1-.285 1.865-.489 1.914-.459.05.03.463.374.463.374l.35.451s.15.07.773 1.148c.53.934 1.6 2.78 1.832 3.189.143.24.343.59.447.769.099.184.28.505.41.718.123.208.316.555.446.768.123.21.304.53.403.714.104.178.304.529.446.769.139.247.45.78.68 1.178.674 1.184 1.142 1.995 1.611 2.806.143.24.353.607.473.804.2.352.536.938.973 1.692.236.402.437.753 1.273 2.209 1.03 1.802 1.09 1.895 1.353 2.362.143.24.353.607.474.804.2.351.535.938.972 1.691.56.962.657 1.136.827 1.44.104.178.304.53.447.77.232.408 1.303 2.255 1.838 3.193 1.08 1.88 1.352 2.332 1.404 2.325.027-.013.042-.755.043-1.65-.002-.907-.002-1.705.011-1.775.006-.073.008-.284.001-.48-.004-.186 0-.877.004-1.539.004-1.124.01-8.632.004-8.943-.008-.082-.005-.63-.004-1.206.006-.584.005-1.124.003-1.202-.006-.197.004-7.952.008-9.269-.002-.57-.004-1.157-.003-1.302a4.247 4.247 0 01-.002-.396c.013-.069.015-1.733.012-3.69-.004-1.957.036-3.618.092-3.681.106-.13 2.362-.778 8.66-2.495.886-.239 2.119-.578 2.75-.757.632-.18 2.435-.677 4.002-1.113 5.845-1.614 8.257-2.285 9.703-2.678.816-.233 1.45-.449 1.414-.5-.064-.067-.865-.307-1.677-.496a23.47 23.47 0 01-.829-.209 13.52 13.52 0 00-.702-.18c-.115-.031-.447-.114-.737-.202-.295-.081-.694-.195-.903-.244-.364-.093-1.635-.423-2.557-.668-.248-.062-.562-.144-.702-.18a22.938 22.938 0 01-.698-.188c-.249-.063-.634-.169-.868-.223-.792-.206-2.718-.717-3.168-.842a63.233 63.233 0 00-.79-.195c-.183-.043-.554-.14-.824-.215a81.09 81.09 0 00-1.644-.439c-.634-.168-1.357-.362-1.602-.431a61.084 61.084 0 00-.79-.195c-.183-.043-.568-.149-.863-.23a11.65 11.65 0 00-.76-.196 7.348 7.348 0 01-.497-.125c-.277-.08-1.802-.494-2.447-.66-.343-.08-.734-.19-1.727-.459-1.242-.331-1.791-.497-1.802-.542-.016-.087-.024-8.306-.006-8.767.01-.128.01-2.122.004-4.427-.006-2.305-.002-4.305.01-4.453.022-.323-.053-.358-.31-.137z" fill="#fff" opacity=".4"/></svg>