<svg width="43" height="42" viewBox="0 0 43 42" fill="none" xmlns="http://www.w3.org/2000/svg"><path d="M14.24 5.4c-.001.085.006.56.014 1.058.012.492.026 1.027.024 1.184.003.62.006.847.033 1.898.011.597.028 1.217.027 1.374-.001.158.003.404.003.547.005.451.044 2.766.048 2.941.017.496.023.842.028 1.398.006.704.013.692-.537 1.007-.15.083-.346.197-.436.255l-.391.243c-.125.071-.49.288-.808.479-.318.194-.691.414-.828.493-.137.08-.323.192-.413.25-.09.057-.268.166-.392.242-.228.133-1.197.712-1.593.952a49.45 49.45 0 01-.868.523c-.137.08-.302.181-.373.224-.065.041-.318.19-.558.336-.24.14-.525.317-.64.386-.283.166-.576.345-.87.519a7.88 7.88 0 00-.35.213c-.059.035-.224.136-.374.22-.15.087-.296.17-.325.186-.091.054-.01.123.206.179l1.104.266c.153.035.308.075.335.086.032.01.278.069.559.132.276.064.584.138.691.162.536.137 1.38.345 2.36.582.117.026.323.08.461.11.134.035.392.1.576.14.184.042.415.1.513.125.098.026.298.073.437.107.143.033.477.115.744.181.268.067.638.158.822.2.184.04.442.11.58.144.136.04.264.067.286.061.018-.005.083.021.14.058.1.064.104.082.111.504.007.241.012.545.01.679-.004.13.013.982.032 1.897.018.91.034 1.777.034 1.92 0 .143.014.878.03 1.636.028 1.36.038 1.81.03 2.088-.003.077.006.218.01.307.005.09.009.227.006.308-.003.078.013 1.017.036 2.087.037 1.896.04 2.162.045 2.752l.01.664c.003.209.004.428 0 .486.002.061.018.105.04.099.023-.006.537-.902 1.144-1.989a1493 1493 0 012.414-4.326c.245-.432.594-1.064.782-1.4.183-.34.725-1.31 1.2-2.157.474-.846 1.093-1.96 1.376-2.48.28-.513.54-.94.572-.948.031-.009.334-.043.334-.043l.321.034s.087-.033.77.131c.587.148 1.757.43 2.014.494.154.035.375.09.488.117.114.031.314.082.452.112.133.031.35.087.487.117.134.031.334.082.448.114.113.026.334.081.488.116.154.04.493.12.745.182.745.186 1.259.31 1.772.435.154.035.385.092.512.12.222.054.592.146 1.069.26.256.06.477.116 1.397.34 1.136.282 1.197.294 1.49.368.154.035.385.092.513.12.22.055.591.146 1.068.261.61.146.719.174.91.223.113.027.334.082.487.117.257.065 1.428.346 2.019.493 1.187.291 1.478.356 1.495.332.006-.015-.289-.308-.65-.654-.367-.35-.69-.659-.713-.69a3.305 3.305 0 00-.194-.187 1708.129 1708.129 0 00-4.234-4.053c-.037-.028-.257-.24-.49-.464a1507.728 1507.728 0 01-4.229-4.05l-.527-.501a2.363 2.363 0 01-.16-.152 94.86 94.86 0 00-1.488-1.431c-.793-.755-1.449-1.412-1.452-1.46-.01-.092.62-1.252 2.418-4.455.254-.449.605-1.077.782-1.4.177-.324.69-1.243 1.134-2.044 1.66-2.98 2.343-4.211 2.756-4.946.23-.419.393-.758.358-.763-.053 0-.467.23-.864.484-.09.058-.276.174-.413.254a7.83 7.83 0 00-.35.213c-.059.035-.223.136-.374.22-.15.087-.353.204-.456.27-.181.11-.818.495-1.281.772l-.351.213c-.066.042-.228.137-.352.209-.124.076-.32.19-.434.264-.397.24-1.365.819-1.594.951l-.39.243c-.09.058-.277.17-.414.25-.137.08-.51.298-.828.493-.319.19-.683.407-.808.479a35.8 35.8 0 00-.391.243c-.09.058-.285.172-.435.26-.15.083-.319.19-.38.23a4.289 4.289 0 01-.247.152c-.142.081-.913.536-1.235.732-.168.107-.368.222-.87.519-.625.372-.909.53-.932.517-.04-.028-3.367-3.2-3.546-3.385-.048-.054-.854-.824-1.788-1.712a145.429 145.429 0 01-1.797-1.724c-.122-.134-.165-.118-.177.071z" fill="#fff" opacity=".2"/></svg>