<svg width="35" height="34" viewBox="0 0 35 34" fill="none" xmlns="http://www.w3.org/2000/svg"><path d="M34.116 13.68c-.082-.024-.543-.14-1.026-.26-.478-.116-.998-.242-1.15-.283-.599-.158-.82-.214-1.841-.46-.58-.143-1.183-.287-1.334-.329-.152-.042-.392-.102-.53-.139-.437-.111-2.683-.672-2.853-.714-.483-.111-.819-.195-1.358-.334-.68-.176-.671-.167-.832-.78a10.051 10.051 0 00-.134-.486 36.158 36.158 0 01-.133-.44c-.037-.14-.152-.548-.253-.905-.106-.357-.221-.775-.263-.928a14.639 14.639 0 00-.133-.463 36.11 36.11 0 01-.134-.441c-.069-.255-.377-1.34-.506-1.785-.073-.242-.147-.501-.28-.974-.042-.153-.097-.339-.12-.418-.023-.074-.101-.357-.18-.626-.073-.269-.17-.589-.207-.719-.087-.315-.184-.644-.276-.974a7.801 7.801 0 00-.115-.394c-.018-.065-.073-.25-.115-.417-.046-.167-.087-.33-.097-.362-.027-.102-.115-.042-.225.153l-.543.997c-.074.14-.152.278-.17.302-.019.027-.138.25-.272.505-.133.25-.285.529-.336.626-.271.483-.69 1.243-1.173 2.129-.056.107-.161.292-.226.417-.069.12-.198.353-.285.52-.088.167-.203.375-.253.464-.05.088-.148.269-.216.394-.07.13-.235.431-.369.672a48.98 48.98 0 00-.405.742c-.087.167-.22.4-.29.524-.073.12-.133.237-.133.26 0 .019-.041.074-.092.12-.087.08-.106.08-.515-.023-.235-.055-.53-.13-.659-.167a115.74 115.74 0 00-1.84-.459c-.884-.218-1.726-.426-1.864-.463-.138-.038-.851-.214-1.588-.395-1.32-.324-1.758-.431-2.024-.51-.074-.023-.212-.05-.3-.07a4.71 4.71 0 01-.299-.074c-.073-.023-.985-.25-2.025-.505-1.84-.455-2.098-.52-2.669-.668-.152-.037-.441-.111-.644-.162a11.287 11.287 0 01-.47-.125c-.06-.014-.105-.01-.105.013 0 .024.732.752 1.624 1.619 2.426 2.351 2.849 2.764 3.553 3.45.354.348.874.85 1.15 1.118.281.264 1.077 1.039 1.772 1.716.695.677 1.61 1.563 2.039 1.971.423.404.768.765.768.798 0 .032-.046.334-.046.334l-.115.301s.01.093-.326.71c-.295.528-.87 1.586-1 1.818-.073.139-.183.338-.238.44-.06.102-.161.283-.226.409-.064.12-.175.315-.24.44-.064.12-.165.302-.225.404-.055.102-.165.301-.239.44-.078.14-.244.445-.368.673-.373.672-.626 1.136-.88 1.6-.073.139-.188.347-.248.463-.11.2-.294.534-.529.965-.124.232-.235.431-.69 1.262-.566 1.024-.594 1.08-.741 1.344-.074.14-.189.348-.248.464-.11.2-.295.534-.53.965-.299.552-.354.65-.45.82-.056.103-.166.302-.24.441-.129.232-.704 1.29-.999 1.823-.589 1.071-.727 1.336-.708 1.359.014.009.372-.2.8-.46.433-.264.815-.496.852-.51.037-.018.138-.078.23-.139a1667.479 1667.479 0 005.011-3.042c.037-.028.3-.186.576-.352a1516.641 1516.641 0 015.007-3.038c.27-.167.552-.339.62-.38.07-.047.152-.098.19-.116.036-.014.832-.497 1.766-1.067.935-.57 1.74-1.034 1.786-1.025.092.014 1.05.923 3.677 3.488.368.361.883.862 1.15 1.117.267.255 1.022.988 1.68 1.623 2.448 2.375 3.46 3.353 4.064 3.943.345.329.63.575.644.542.014-.05-.101-.51-.244-.96-.032-.102-.097-.31-.138-.464a7.814 7.814 0 00-.115-.394c-.019-.065-.074-.25-.115-.417-.046-.167-.106-.395-.143-.51-.06-.204-.267-.919-.414-1.438-.042-.14-.092-.316-.115-.394a13.062 13.062 0 01-.11-.395c-.042-.139-.102-.357-.143-.486-.13-.446-.438-1.53-.506-1.786-.042-.14-.102-.339-.134-.44a14.6 14.6 0 01-.133-.464c-.042-.153-.157-.57-.263-.928a83.881 83.881 0 01-.253-.904c-.041-.14-.101-.339-.133-.44-.032-.103-.092-.32-.138-.488a6.688 6.688 0 00-.125-.426 4.23 4.23 0 01-.082-.279c-.042-.157-.281-1.02-.387-1.382-.06-.19-.12-.412-.276-.974-.198-.7-.276-1.015-.258-1.034.037-.032 3.962-2.425 4.188-2.55.064-.033 1.017-.613 2.117-1.285 1.1-.673 2.057-1.253 2.13-1.29.161-.083.157-.13-.023-.19z" fill="#fff" opacity=".25"/></svg>