<svg width="48" height="48" viewBox="0 0 48 48" fill="none" xmlns="http://www.w3.org/2000/svg"><path d="M30.384 7.817c-.066.055-.42.37-.792.702-.365.33-.76.69-.88.792a68.78 68.78 0 00-1.415 1.264c-.445.399-.902.816-1.022.918-.12.102-.305.266-.413.36-.338.298-2.064 1.84-2.194 1.957-.364.337-.622.568-1.04.935-.528.464-.515.461-1.112.25-.161-.06-.375-.133-.477-.164-.103-.03-.301-.093-.44-.138a85.401 85.401 0 00-.89-.3 46.377 46.377 0 01-.913-.305c-.15-.052-.356-.12-.459-.15-.102-.031-.3-.094-.439-.138-.25-.087-1.32-.443-1.76-.587-.24-.074-.497-.16-.963-.316-.15-.052-.334-.11-.412-.136-.074-.023-.352-.117-.618-.204-.264-.09-.583-.19-.71-.233-.31-.106-.637-.211-.96-.32a7.894 7.894 0 00-.391-.127c-.064-.021-.249-.08-.41-.14-.164-.056-.321-.113-.353-.124-.1-.034-.1.072 0 .273l.518 1.01c.074.14.145.283.153.31.013.032.13.256.266.51.132.251.276.534.328.63.246.496.64 1.27 1.1 2.17.057.105.15.297.218.42.06.126.18.363.269.53.089.165.197.378.24.47.045.09.14.273.205.4.069.13.225.437.349.683.124.246.297.587.385.753.09.166.206.407.27.535.059.129.121.243.14.256.016.01.038.076.048.144.016.117.006.132-.309.413-.178.163-.405.365-.508.45-.1.083-.735.653-1.414 1.264-.677.608-1.323 1.187-1.431 1.28-.109.094-.655.585-1.219 1.092-1.01.91-1.344 1.21-1.56 1.387-.06.048-.16.146-.225.208a4.774 4.774 0 01-.23.206c-.06.048-.76.673-1.556 1.39a194.303 194.303 0 01-2.053 1.831c-.116.105-.34.303-.496.441-.156.14-.321.283-.367.318-.046.042-.068.083-.048.096.019.013 1.032-.183 2.25-.433 3.307-.681 3.887-.8 4.85-.995.486-.097 1.193-.245 1.57-.322.377-.084 1.464-.306 2.415-.5.95-.193 2.197-.452 2.775-.576.571-.123 1.064-.205 1.091-.186.027.018.25.226.25.226l.185.265s.081.044.402.67c.272.54.822 1.612.941 1.849.074.139.177.343.23.446.05.107.143.292.21.416.064.121.163.322.23.446.064.121.156.306.207.413.053.104.156.307.23.446.07.143.23.453.348.683.346.687.587 1.158.828 1.628.074.14.182.352.244.467.103.203.275.543.5.98.122.234.224.437.654 1.281.53 1.046.56 1.1.695 1.37.074.14.182.352.244.467.103.203.275.544.5.98.288.559.337.66.424.836.054.103.156.306.23.446.12.237.67 1.308.945 1.852.554 1.09.695 1.353.725 1.35.015-.006.044-.42.07-.92.025-.507.048-.953.057-.991.006-.041.013-.159.015-.269a1720.693 1720.693 0 00.303-5.857c-.003-.046.015-.352.032-.674a1536.378 1536.378 0 01.304-5.85c.015-.32.03-.648.035-.729 0-.083.005-.18.01-.221.01-.038.059-.968.112-2.062.054-1.094.124-2.02.157-2.054.063-.068 1.353-.348 4.95-1.077.506-.1 1.21-.245 1.57-.322.361-.077 1.391-.289 2.286-.475 3.34-.688 4.717-.975 5.543-1.142.466-.1.83-.197.81-.227-.034-.04-.478-.203-.93-.339-.102-.03-.311-.095-.461-.146a7.757 7.757 0 00-.39-.127c-.065-.022-.249-.08-.41-.14-.164-.056-.385-.135-.502-.17-.202-.065-.909-.296-1.421-.466l-.39-.127a13.52 13.52 0 01-.388-.13c-.139-.045-.352-.118-.483-.157-.44-.144-1.51-.5-1.76-.586a36.06 36.06 0 00-.44-.138c-.102-.03-.308-.099-.458-.15-.15-.053-.56-.193-.914-.306a86.012 86.012 0 01-.89-.3 37.153 37.153 0 00-.439-.137c-.102-.031-.316-.105-.48-.16a6.699 6.699 0 00-.422-.138 4.208 4.208 0 01-.277-.088 95.915 95.915 0 00-1.36-.459c-.19-.057-.408-.133-.96-.32-.69-.23-.994-.343-1-.369-.005-.048.224-4.642.247-4.899.01-.071.066-1.185.129-2.474.062-1.288.121-2.406.132-2.487.021-.18-.02-.203-.17-.088z" fill="#fff" opacity=".2"/></svg>