<svg width="253" height="58" viewBox="0 0 253 58" fill="none" xmlns="http://www.w3.org/2000/svg"><path d="M89.306 25V7.648h5.376l6.504 13.656V7.648h3.456V25H99.53l-6.72-14.4V25h-3.504zm17.96-8.424c0-1.216.144-2.352.432-3.408a10.21 10.21 0 011.368-2.928c.624-.912 1.488-1.632 2.592-2.16 1.12-.528 2.432-.792 3.936-.792 2.672 0 4.704.784 6.096 2.352 1.472 1.68 2.208 3.856 2.208 6.528 0 1.296-.192 2.56-.576 3.792-.384 1.232-.92 2.232-1.608 3-1.472 1.648-3.528 2.472-6.168 2.472-2.576 0-4.624-.792-6.144-2.376-1.424-1.52-2.136-3.68-2.136-6.48zm3.888-.12c0 2.112.432 3.728 1.296 4.848.688.928 1.736 1.392 3.144 1.392 1.472 0 2.552-.536 3.24-1.608.784-1.168 1.176-2.824 1.176-4.968 0-1.216-.144-2.248-.432-3.096-.688-2.048-2.008-3.072-3.96-3.072-1.36 0-2.424.488-3.192 1.464-.848 1.04-1.272 2.72-1.272 5.04zM130.434 25V10.528h-5.16v-2.88h14.064v2.88h-5.16V25h-3.744zm17.631 0V7.648h11.616v2.832h-7.896v4.128h7.392v2.832h-7.392v4.68h8.16V25h-11.88zm14.624 0V7.648h5.376l6.504 13.656V7.648h3.456V25h-5.112l-6.72-14.4V25h-3.504zm17.96-8.424c0-1.216.144-2.352.432-3.408a10.21 10.21 0 011.368-2.928c.624-.912 1.488-1.632 2.592-2.16 1.12-.528 2.432-.792 3.936-.792 2.672 0 4.704.784 6.096 2.352 1.472 1.68 2.208 3.856 2.208 6.528 0 1.296-.192 2.56-.576 3.792-.384 1.232-.92 2.232-1.608 3-1.472 1.648-3.528 2.472-6.168 2.472-2.576 0-4.624-.792-6.144-2.376-1.424-1.52-2.136-3.68-2.136-6.48zm3.888-.12c0 2.112.432 3.728 1.296 4.848.688.928 1.736 1.392 3.144 1.392 1.472 0 2.552-.536 3.24-1.608.784-1.168 1.176-2.824 1.176-4.968 0-1.216-.144-2.248-.432-3.096-.688-2.048-2.008-3.072-3.96-3.072-1.36 0-2.424.488-3.192 1.464-.848 1.04-1.272 2.72-1.272 5.04zm15.511-8.76h3.72v10.56c0 .48.008.88.024 1.2.032.304.12.672.264 1.104.144.432.336.776.576 1.032.256.256.632.48 1.128.672.496.176 1.088.264 1.776.264 1.584 0 2.704-.504 3.36-1.512.368-.544.552-1.528.552-2.952V7.696h3.624V18.52c0 1.232-.232 2.312-.696 3.24-.448.912-1.056 1.616-1.824 2.112a8.582 8.582 0 01-2.4 1.104c-.848.24-1.744.36-2.688.36-3.104 0-5.28-1-6.528-3a4.944 4.944 0 01-.744-1.848c-.096-.64-.144-1.448-.144-2.424V7.696zm34.112 5.28h-3.864c-.032-.736-.192-1.32-.48-1.752-.56-.896-1.528-1.344-2.904-1.344-.992 0-1.848.216-2.568.648a3.85 3.85 0 00-1.56 1.68 9.25 9.25 0 00-.72 2.088 10.643 10.643 0 00-.216 2.184c0 2.064.48 3.616 1.44 4.656.896.992 2.256 1.488 4.08 1.488 1.12 0 2.064-.112 2.832-.336V18.64h-3.36v-2.88h7.08v8.664c-1.92.64-4.032.96-6.336.96-3.344 0-5.8-.768-7.368-2.304-1.536-1.504-2.304-3.664-2.304-6.48 0-2.992.84-5.312 2.52-6.96 1.68-1.648 3.872-2.472 6.576-2.472 2.656 0 4.624.728 5.904 2.184.8.912 1.216 2.12 1.248 3.624zM237.288 25V7.648h3.72v6.936h6.552V7.648h3.768V25h-3.72v-7.608h-6.6V25h-3.72zM133.696 46.496h3.336c.032.448.208.84.528 1.176.32.32.816.48 1.488.48.592 0 1.048-.136 1.368-.408.336-.288.504-.632.504-1.032 0-.304-.12-.56-.36-.768-.224-.224-.664-.424-1.32-.6l-2.208-.6a10.57 10.57 0 01-.936-.312 9.295 9.295 0 01-.936-.528 2.37 2.37 0 01-.888-1.008c-.208-.432-.312-.936-.312-1.512 0-1.168.488-2.088 1.464-2.76.976-.688 2.256-1.032 3.84-1.032 1.312 0 2.392.304 3.24.912.864.608 1.32 1.496 1.368 2.664h-3.24c-.064-.96-.64-1.44-1.728-1.44-.496 0-.904.112-1.224.336a.99.99 0 00-.456.864c0 .368.12.632.36.792.24.144.672.304 1.296.48l2.184.6c2.16.592 3.24 1.72 3.24 3.384 0 1.136-.488 2.12-1.464 2.952-.96.816-2.328 1.224-4.104 1.224-1.824 0-3.208-.496-4.152-1.488-.544-.576-.84-1.368-.888-2.376zM157.048 50h-3.216c-.08-.496-.12-1.048-.12-1.656-.896 1.296-2.104 1.944-3.624 1.944-1.344 0-2.352-.32-3.024-.96-.704-.704-1.056-1.592-1.056-2.664 0-1.728.856-2.984 2.568-3.768.992-.448 2.592-.672 4.8-.672 0-.736-.056-1.272-.168-1.608-.24-.672-.768-1.008-1.584-1.008-.592 0-1.04.224-1.344.672-.176.272-.264.632-.264 1.08h-3.48c.048-1.28.504-2.232 1.368-2.856.912-.656 2.136-.984 3.672-.984 1.984 0 3.424.52 4.32 1.56.56.672.84 1.664.84 2.976l.024 4.872c0 1.152.096 2.176.288 3.072zm-3.672-5.712c-1.168-.096-2.112.032-2.832.384-.72.352-1.08.88-1.08 1.584 0 .448.152.848.456 1.2.304.352.728.528 1.272.528.608 0 1.112-.232 1.512-.696.288-.352.472-.744.552-1.176.08-.448.12-1.056.12-1.824zm6.76 5.712v-9.6h-1.8v-2.52h1.8v-1.656c0-1.216.296-2.16.888-2.832.592-.688 1.688-1.032 3.288-1.032.608 0 1.248.04 1.92.12v2.472a7.107 7.107 0 00-.744-.072c-.432 0-.784.048-1.056.144-.256.096-.44.24-.552.432a2.47 2.47 0 00-.192.48 4.498 4.498 0 00-.024.528v1.416h2.256v2.52h-2.256V50h-3.528zm18.744-5.16h-8.136c0 2.16.824 3.24 2.472 3.24 1.136 0 1.84-.56 2.112-1.68h3.24c-.08 1.04-.464 1.92-1.152 2.64-.896.944-2.312 1.416-4.248 1.416-1.872 0-3.296-.504-4.272-1.512-1.04-1.088-1.56-2.664-1.56-4.728 0-2.656.84-4.568 2.52-5.736 1.008-.672 2.144-1.008 3.408-1.008.992 0 1.928.232 2.808.696.88.448 1.576 1.192 2.088 2.232.56 1.152.8 2.632.72 4.44zm-8.016-2.232h4.392c0-.24-.016-.464-.048-.672a4.542 4.542 0 00-.24-.864 1.532 1.532 0 00-.648-.84c-.304-.224-.696-.336-1.176-.336-.736 0-1.296.256-1.68.768-.368.512-.568 1.16-.6 1.944zm15.6-4.728h3.768l2.232 9.144 2.568-9.144h3.912l2.544 9.144 2.376-9.144h3.528L203.24 50h-3.864l-2.496-8.976L194.336 50h-3.912l-3.96-12.12zM219.72 50h-3.216c-.08-.496-.12-1.048-.12-1.656-.896 1.296-2.104 1.944-3.624 1.944-1.344 0-2.352-.32-3.024-.96-.704-.704-1.056-1.592-1.056-2.664 0-1.728.856-2.984 2.568-3.768.992-.448 2.592-.672 4.8-.672 0-.736-.056-1.272-.168-1.608-.24-.672-.768-1.008-1.584-1.008-.592 0-1.04.224-1.344.672-.176.272-.264.632-.264 1.08h-3.48c.048-1.28.504-2.232 1.368-2.856.912-.656 2.136-.984 3.672-.984 1.984 0 3.424.52 4.32 1.56.56.672.84 1.664.84 2.976l.024 4.872c0 1.152.096 2.176.288 3.072zm-3.672-5.712c-1.168-.096-2.112.032-2.832.384-.72.352-1.08.88-1.08 1.584 0 .448.152.848.456 1.2.304.352.728.528 1.272.528.608 0 1.112-.232 1.512-.696.288-.352.472-.744.552-1.176.08-.448.12-1.056.12-1.824zm13.648 3.216v2.328c-.944.256-1.864.384-2.76.384-.672 0-1.256-.088-1.752-.264-.48-.176-.832-.368-1.056-.576-.224-.208-.4-.488-.528-.84-.128-.368-.2-.648-.216-.84a9.307 9.307 0 01-.024-.744v-6.648h-2.328v-2.352h2.328v-2.376l3.528-1.296v3.672h2.88v2.352h-2.88v5.472c0 .352.008.608.024.768.032.16.096.336.192.528a.817.817 0 00.48.408c.224.064.528.096.912.096.368 0 .768-.024 1.2-.072zm13.192-2.664h-8.136c0 2.16.824 3.24 2.472 3.24 1.136 0 1.84-.56 2.112-1.68h3.24c-.08 1.04-.464 1.92-1.152 2.64-.896.944-2.312 1.416-4.248 1.416-1.872 0-3.296-.504-4.272-1.512-1.04-1.088-1.56-2.664-1.56-4.728 0-2.656.84-4.568 2.52-5.736 1.008-.672 2.144-1.008 3.408-1.008.992 0 1.928.232 2.808.696.88.448 1.576 1.192 2.088 2.232.56 1.152.8 2.632.72 4.44zm-8.016-2.232h4.392c0-.24-.016-.464-.048-.672a4.542 4.542 0 00-.24-.864 1.532 1.532 0 00-.648-.84c-.304-.224-.696-.336-1.176-.336-.736 0-1.296.256-1.68.768-.368.512-.568 1.16-.6 1.944zM245.232 50v-9.144c0-.928-.056-1.936-.168-3.024h3.336l.072 2.328a5.78 5.78 0 01.432-.84c.16-.224.392-.472.696-.744.304-.288.712-.496 1.224-.624s1.104-.176 1.776-.144V41c-.848-.08-1.552-.048-2.112.096-.544.144-.936.392-1.176.744a2.995 2.995 0 00-.432 1.008 5.887 5.887 0 00-.096 1.176V50h-3.552z" fill="#fff"/></svg>