<svg width="43" height="43" viewBox="0 0 43 43" fill="none" xmlns="http://www.w3.org/2000/svg"><path d="M23.587 4.293c-.047.071-.297.475-.558.898-.256.421-.533.879-.62 1.01a68.46 68.46 0 00-.995 1.615c-.313.509-.633 1.04-.72 1.171-.085.132-.215.342-.292.462-.24.383-1.455 2.352-1.547 2.502-.253.426-.434.72-.73 1.191-.375.596-.363.59-.995.557a10.26 10.26 0 00-.505-.02l-.46-.008a86.58 86.58 0 00-.938-.033 46.667 46.667 0 01-.963-.033 14.757 14.757 0 00-.483-.013 36.5 36.5 0 01-.46-.007c-.264-.012-1.391-.048-1.854-.06a49.302 49.302 0 01-1.014-.03c-.158-.007-.351-.01-.433-.013-.078 0-.371-.012-.651-.019-.279-.012-.613-.017-.748-.021-.327-.013-.67-.02-1.012-.033a7.757 7.757 0 00-.41-.01c-.068-.003-.261-.007-.433-.018-.173-.007-.34-.017-.374-.018-.105-.005-.074.097.078.262l.785.82c.11.113.219.23.235.254.021.026.197.208.4.412.197.204.416.433.494.511.377.405.974 1.036 1.671 1.765.085.085.23.243.33.342.094.103.275.296.408.43.132.134.296.307.365.382.069.075.211.222.31.326.102.105.34.355.529.555.189.201.451.478.584.612.132.134.313.332.41.436.093.106.186.199.208.206.017.005.058.062.087.124.048.107.043.125-.179.484-.124.207-.284.465-.359.576-.073.108-.519.835-.996 1.615-.476.775-.93 1.514-1.007 1.634-.078.12-.462.747-.858 1.393-.71 1.16-.944 1.544-1.1 1.774-.045.064-.113.187-.158.264a4.702 4.702 0 01-.161.263c-.045.063-.538.862-1.096 1.775a194.183 194.183 0 01-1.447 2.34c-.081.134-.24.387-.35.565-.11.177-.227.362-.262.409-.031.053-.04.098-.019.105.022.007.938-.469 2.035-1.056 2.977-1.595 3.498-1.873 4.366-2.335.439-.232 1.074-.575 1.414-.757.337-.187 1.316-.71 2.172-1.166.856-.456 1.978-1.06 2.497-1.343.513-.28.962-.5.993-.49.031.01.304.146.304.146l.253.201s.09.02.576.527c.415.442 1.247 1.311 1.429 1.505.11.112.267.278.347.361.08.088.22.24.32.34.096.098.248.262.348.361.095.099.236.25.316.338.08.084.236.25.346.362.11.117.35.368.53.555.527.56.892.942 1.257 1.324.11.113.274.286.366.378.157.166.419.443.759.798.183.189.34.355.992 1.041.804.851.849.894 1.056 1.115.11.112.274.285.366.378.157.166.42.443.759.797.435.453.51.535.645.68.08.083.237.25.347.362.182.193 1.014 1.063 1.433 1.505.842.888 1.052 1.1 1.08 1.089.012-.01-.077-.416-.195-.903-.12-.492-.225-.927-.227-.966a60.648 60.648 0 01-.263-1.099 1717.34 1717.34 0 00-1.177-4.863c-.015-.043-.086-.341-.161-.655a1520.6 1520.6 0 01-1.374-5.694l-.174-.708a2.344 2.344 0 01-.053-.215c-.002-.04-.22-.944-.48-2.008s-.457-1.972-.434-2.013c.04-.083 1.197-.719 4.438-2.443.457-.24 1.09-.58 1.414-.756.324-.177 1.252-.673 2.056-1.107 3.006-1.61 4.245-2.277 4.99-2.673.418-.229.739-.426.712-.449-.044-.028-.517-.058-.989-.06-.107 0-.325-.002-.483-.009a7.869 7.869 0 00-.41-.01c-.068-.002-.262-.006-.433-.017-.173-.007-.408-.02-.53-.02-.212-.005-.956-.024-1.495-.042l-.41-.01c-.078-.001-.266-.008-.41-.015-.145-.003-.37-.012-.507-.012-.463-.013-1.59-.049-1.854-.06a36.343 36.343 0 00-.46-.008c-.108 0-.325-.006-.483-.014-.158-.007-.59-.024-.963-.032-.371-.012-.795-.026-.939-.034a36.316 36.316 0 00-.46-.006c-.107 0-.333-.01-.506-.017a6.686 6.686 0 00-.444-.011c-.069.002-.2-.001-.29-.006a96.095 96.095 0 00-1.434-.052c-.2 0-.43-.011-1.012-.033-.727-.024-1.05-.046-1.063-.069a421.01 421.01 0 01-1.159-4.766c-.011-.07-.274-1.155-.58-2.407-.308-1.253-.57-2.341-.582-2.423-.031-.178-.077-.188-.189-.035z" fill="#fff" opacity=".1"/></svg>