<svg width="42" height="42" viewBox="0 0 42 42" fill="none" xmlns="http://www.w3.org/2000/svg"><path d="M15.485 7.122c.055.052.35.348.66.659.305.31.635.647.735.743.39.381.532.524 1.18 1.186.372.374.753.765.853.861.1.096.255.25.345.338.282.28 1.723 1.727 1.831 1.837.303.315.518.532.867.876.442.436.43.434.966.277.146-.044.337-.098.43-.12l.393-.099c.122-.035.483-.133.799-.219.318-.082.686-.184.82-.222.134-.038.32-.088.411-.11.092-.022.27-.067.394-.099a178.938 178.938 0 012.443-.657c.135-.038.3-.08.37-.099.067-.016.316-.085.555-.148.237-.067.523-.139.638-.17.278-.077.57-.153.861-.233.135-.038.291-.08.35-.092.058-.015.223-.058.369-.102.147-.041.288-.084.317-.091.09-.026.084.068-.014.24l-.509.864a3.64 3.64 0 00-.15.266c-.013.027-.128.218-.26.435-.13.215-.27.457-.322.539-.242.425-.628 1.087-1.08 1.856-.055.09-.147.255-.213.36-.06.107-.177.31-.264.452-.086.142-.192.324-.236.402-.044.079-.137.234-.2.343-.067.112-.22.374-.342.585-.122.21-.292.501-.378.643-.087.143-.202.349-.266.458-.058.11-.118.209-.136.22-.014.008-.037.064-.05.124-.02.102-.011.116.251.38.149.152.338.341.424.422.085.077.614.612 1.18 1.186.565.57 1.104 1.113 1.195 1.201.09.088.546.548 1.016 1.024.844.853 1.122 1.136 1.302 1.302.051.045.135.137.188.195a122.923 122.923 0 011.49 1.497 171.372 171.372 0 001.713 1.719l.415.414c.13.13.268.265.307.298.037.04.055.076.037.087-.017.01-.9-.213-1.96-.495-2.875-.77-3.38-.903-4.217-1.124-.423-.11-1.038-.277-1.366-.364-.327-.093-1.273-.344-2.1-.563a300.96 300.96 0 01-2.413-.65c-.497-.137-.927-.234-.951-.219a7.655 7.655 0 00-.232.186l-.176.225s-.075.035-.39.57c-.266.463-.805 1.379-.923 1.582-.072.119-.172.293-.225.38-.05.092-.14.251-.206.357-.062.104-.16.276-.225.381-.062.104-.153.263-.204.354-.052.089-.153.263-.225.382-.07.122-.226.387-.342.584-.34.588-.576.99-.812 1.393-.072.119-.178.3-.239.399-.1.174-.27.465-.49.838-.12.2-.22.374-.642 1.096-.52.895-.549.94-.682 1.172-.072.12-.178.301-.239.4-.1.173-.27.465-.49.838-.282.478-.33.564-.417.715-.052.088-.153.262-.225.381-.117.203-.657 1.119-.927 1.584-.544.933-.681 1.158-.707 1.154-.013-.006-.018-.373-.015-.815.004-.448.007-.842 0-.876a1487.523 1487.523 0 01.035-5.415c.005-.041.006-.312.007-.597a1335.919 1335.919 0 00.032-5.172l.007-.643c.004-.074.005-.16.002-.196-.006-.034-.001-.856.008-1.823.009-.967-.005-1.787-.033-1.818-.052-.063-1.173-.376-4.302-1.201-.44-.115-1.052-.278-1.366-.364-.314-.086-1.21-.325-1.988-.535-2.904-.776-4.102-1.099-4.82-1.288-.406-.112-.72-.216-.703-.242.033-.033.432-.155.837-.25.092-.023.279-.069.413-.107.135-.038.291-.08.35-.092.058-.015.223-.058.368-.102.148-.041.347-.099.45-.124.182-.047.816-.215 1.276-.339l.35-.092c.067-.016.226-.06.348-.095.124-.032.316-.086.433-.113.395-.105 1.356-.364 1.58-.428.124-.032.302-.077.394-.099.091-.022.276-.071.41-.11.135-.038.503-.14.821-.222.316-.085.677-.184.799-.219.124-.032.302-.077.394-.099.091-.022.283-.076.43-.117.145-.044.316-.085.38-.1.059-.011.17-.04.248-.063.138-.04.898-.25 1.22-.335.17-.04.366-.097.862-.233.619-.168.893-.252.899-.274.007-.043.042-4.103.034-4.331-.004-.064.003-1.049.014-2.187.011-1.139.017-2.127.011-2.2-.01-.16.028-.177.155-.069z" fill="#fff" opacity=".4"/></svg>